<?xml version="1.0" encoding="utf-8"?>
<!-- Generator: Adobe Illustrator 23.0.5, SVG Export Plug-In . SVG Version: 6.00 Build 0)  -->
<svg version="1.1" id="Capa_1" xmlns="http://www.w3.org/2000/svg" xmlns:xlink="http://www.w3.org/1999/xlink" x="0px" y="0px"
	 viewBox="0 0 1000 1000" style="enable-background:new 0 0 1000 1000;" xml:space="preserve">
<style type="text/css">
	.st0{fill:none;}
	.st1{fill:#F5FFE4;}
</style>
<rect class="st0" width="1000" height="1000"/>
<path class="st1" d="M767.9,501.3c0-0.2,0-0.5,0-0.7c0-0.9,0.1-1.9,0.1-2.8c0,0,0-0.1,0-0.1c0-0.1,0-0.3,0-0.4c0-0.9,0-1.9,0-2.8
	c0-0.2,0-0.4,0-0.5c0-1-0.1-2-0.2-3c0-0.2,0-0.5-0.1-0.7c0-0.2,0-0.5-0.1-0.7c-0.1-0.8-0.2-1.5-0.3-2.3c0-0.2,0-0.3-0.1-0.5
	c-0.1-1-0.3-1.9-0.5-2.9c0-0.1,0-0.2-0.1-0.4c-0.1-0.7-0.3-1.5-0.5-2.2c-0.1-0.3-0.1-0.6-0.2-0.9c0-0.2-0.1-0.4-0.1-0.6
	c-0.3-1-0.5-2-0.8-3c-0.1-0.2-0.1-0.4-0.2-0.5c-0.3-1.1-0.7-2.1-1-3.2c-0.4-1.2-0.9-2.5-1.4-3.7c-0.2-0.4-0.3-0.8-0.5-1.2
	c-0.3-0.8-0.7-1.6-1.1-2.5c-0.2-0.5-0.4-0.9-0.7-1.4c-0.4-0.7-0.7-1.5-1.1-2.2c-0.2-0.5-0.5-1-0.7-1.4c-0.4-0.7-0.8-1.5-1.2-2.2
	c-0.3-0.5-0.5-0.9-0.8-1.4c-0.4-0.8-0.9-1.5-1.4-2.3c-0.3-0.4-0.5-0.9-0.8-1.3c-0.6-1-1.3-2-2-2.9c-0.2-0.2-0.3-0.5-0.5-0.7
	c-0.8-1.1-1.5-2.1-2.3-3.2c-0.3-0.4-0.6-0.8-1-1.2c-0.6-0.7-1.1-1.4-1.7-2.1c-0.1-0.2-0.2-0.3-0.4-0.5c-0.3-0.3-0.5-0.6-0.8-0.9
	c-0.5-0.6-1.1-1.3-1.6-1.9c-0.4-0.5-0.8-0.9-1.3-1.4c-0.6-0.6-1.1-1.2-1.7-1.9c-0.4-0.5-0.8-0.9-1.3-1.4c-0.6-0.6-1.2-1.3-1.9-1.9
	c-0.4-0.4-0.8-0.8-1.2-1.3c-0.7-0.7-1.5-1.4-2.2-2.2c-0.3-0.3-0.7-0.6-1-1c-1.1-1-2.2-2.1-3.4-3.1c-0.2-0.2-0.4-0.3-0.6-0.5
	c-0.9-0.8-1.7-1.5-2.6-2.3c-0.1-0.1-0.2-0.2-0.3-0.3c-0.4-0.3-0.8-0.6-1.2-1c-0.8-0.7-1.6-1.3-2.5-2c-0.5-0.4-0.9-0.7-1.4-1.1
	c-0.8-0.6-1.6-1.2-2.4-1.8c-0.3-0.2-0.5-0.4-0.8-0.6c-0.2-0.2-0.5-0.4-0.7-0.5c-0.8-0.6-1.6-1.1-2.3-1.7c-0.5-0.4-1-0.7-1.6-1.1
	c-0.8-0.6-1.7-1.2-2.6-1.8c-0.5-0.3-1-0.7-1.4-1c-1.3-0.8-2.5-1.7-3.8-2.5c-0.3-0.2-0.7-0.4-1-0.7c-1.1-0.7-2.2-1.4-3.4-2.1
	c-0.6-0.3-1.1-0.7-1.7-1c-0.9-0.5-1.7-1-2.6-1.6c-0.6-0.4-1.3-0.7-1.9-1.1c-0.8-0.5-1.7-1-2.5-1.4c-0.7-0.4-1.3-0.7-2-1.1
	c-0.9-0.5-1.7-0.9-2.6-1.4c-0.7-0.3-1.3-0.7-2-1c-0.4-0.2-0.8-0.4-1.1-0.6c0-0.4,0.1-0.9,0.1-1.3L698,267.9c0.2-2.2,0.4-4.5,0.7-6.7
	l2.7-26.7c0,0,0-0.1,0-0.1c0-0.2,0-0.5,0-0.7c0-0.4,0.1-0.7,0.1-1.1c0-0.2,0-0.5,0-0.7c0-0.2,0-0.5,0-0.7c0-0.1,0-0.2,0-0.3
	c0-0.3,0-0.5,0-0.8c0-0.3,0-0.7-0.1-1c0-0.3-0.1-0.5-0.1-0.8c0-0.2,0-0.3,0-0.5c0-0.2-0.1-0.4-0.1-0.6c0-0.2-0.1-0.5-0.1-0.7
	c-0.1-0.4-0.1-0.7-0.2-1.1c-0.1-0.2-0.1-0.5-0.2-0.7c0-0.1,0-0.2-0.1-0.2c-0.1-0.3-0.2-0.6-0.3-1c-0.1-0.2-0.1-0.4-0.2-0.6
	c-0.2-0.6-0.4-1.2-0.6-1.8c-0.3-0.7-0.5-1.3-0.8-2c-0.1-0.2-0.2-0.4-0.3-0.7c-0.2-0.4-0.4-0.9-0.7-1.3c-0.1-0.3-0.3-0.5-0.4-0.8
	c-0.2-0.4-0.4-0.8-0.7-1.2c-0.2-0.3-0.3-0.5-0.5-0.8c-0.2-0.4-0.5-0.8-0.8-1.2c-0.2-0.3-0.3-0.5-0.5-0.8c-0.3-0.4-0.6-0.8-0.9-1.2
	c-0.2-0.2-0.3-0.5-0.5-0.7c-0.4-0.5-0.8-1.1-1.3-1.6c-0.1-0.1-0.2-0.2-0.3-0.3c-0.5-0.6-1.1-1.2-1.6-1.9c-0.2-0.2-0.4-0.4-0.6-0.6
	c-0.4-0.4-0.8-0.8-1.2-1.2c-0.1-0.1-0.2-0.2-0.2-0.2c-0.2-0.2-0.4-0.3-0.5-0.5c-0.4-0.4-0.7-0.7-1.1-1.1c-0.3-0.3-0.5-0.5-0.8-0.8
	c-0.4-0.4-0.8-0.7-1.2-1.1c-0.3-0.2-0.6-0.5-0.8-0.7c-0.4-0.4-0.9-0.7-1.3-1.1c-0.3-0.2-0.5-0.5-0.8-0.7c-0.5-0.4-1-0.8-1.6-1.2
	c-0.2-0.2-0.4-0.3-0.7-0.5c-0.8-0.6-1.5-1.1-2.3-1.7c-0.1-0.1-0.3-0.2-0.4-0.3c-0.6-0.4-1.2-0.8-1.8-1.3c-0.1-0.1-0.2-0.1-0.2-0.2
	c-0.3-0.2-0.6-0.4-0.8-0.5c-0.6-0.4-1.1-0.7-1.7-1.1c-0.3-0.2-0.7-0.4-1-0.6c-0.5-0.3-1.1-0.7-1.6-1c-0.2-0.1-0.4-0.2-0.6-0.3
	c-0.2-0.1-0.4-0.2-0.5-0.3c-0.5-0.3-1.1-0.6-1.6-1c-0.4-0.2-0.7-0.4-1.1-0.6c-0.6-0.3-1.2-0.7-1.8-1c-0.3-0.2-0.7-0.4-1-0.5
	c-0.9-0.5-1.8-0.9-2.7-1.4c-0.2-0.1-0.4-0.2-0.6-0.3c-0.9-0.4-1.7-0.9-2.6-1.3c-0.4-0.2-0.8-0.4-1.1-0.5c-0.6-0.3-1.3-0.6-1.9-0.9
	c-0.4-0.2-0.9-0.4-1.3-0.6c-0.6-0.3-1.2-0.6-1.9-0.8c-0.5-0.2-0.9-0.4-1.4-0.6c-0.6-0.3-1.3-0.5-1.9-0.8c-0.5-0.2-0.9-0.4-1.4-0.6
	c-0.7-0.3-1.4-0.6-2-0.8c-0.3-0.1-0.6-0.3-1-0.4c-0.1,0-0.2-0.1-0.3-0.1c-0.8-0.3-1.7-0.6-2.5-1c-0.3-0.1-0.6-0.2-0.9-0.3
	c-1.1-0.4-2.3-0.9-3.5-1.3c-0.3-0.1-0.6-0.2-1-0.3c-0.9-0.3-1.7-0.6-2.6-0.9c-0.4-0.2-0.9-0.3-1.3-0.4c-0.5-0.2-1.1-0.4-1.6-0.5
	c-0.2-0.1-0.5-0.2-0.7-0.2c-0.5-0.2-0.9-0.3-1.4-0.5c-0.8-0.2-1.5-0.5-2.3-0.7c-0.5-0.2-1-0.3-1.5-0.5c-0.8-0.2-1.6-0.5-2.3-0.7
	c-0.5-0.1-1-0.3-1.4-0.4c-0.9-0.3-1.7-0.5-2.6-0.7c-0.4-0.1-0.8-0.2-1.2-0.4c-1.3-0.4-2.5-0.7-3.8-1c0,0-0.1,0-0.1,0
	c-0.2,0-0.4-0.1-0.5-0.1c-1.2-0.3-2.5-0.6-3.7-1c-0.2-0.1-0.4-0.1-0.6-0.2c-0.3-0.1-0.6-0.1-0.9-0.2c-1-0.3-2-0.5-3.1-0.8
	c-0.3-0.1-0.6-0.2-0.9-0.2c-0.2,0-0.3-0.1-0.5-0.1c-1.4-0.3-2.9-0.7-4.4-1c0,0-0.1,0-0.1,0c-0.2,0-0.4-0.1-0.6-0.1
	c-1.3-0.3-2.5-0.6-3.8-0.8c-0.2,0-0.4-0.1-0.6-0.1c-0.4-0.1-0.8-0.2-1.2-0.3c-0.7-0.1-1.3-0.3-2-0.4c-0.3-0.1-0.6-0.1-0.8-0.2
	c-0.4-0.1-0.8-0.1-1.1-0.2c-0.7-0.1-1.4-0.3-2-0.4c-0.3-0.1-0.6-0.1-0.9-0.2c-0.3-0.1-0.7-0.1-1-0.2c-0.7-0.1-1.4-0.3-2.1-0.4
	c-0.3-0.1-0.7-0.1-1-0.2c-0.3-0.1-0.6-0.1-0.9-0.2c-0.7-0.1-1.4-0.2-2.1-0.4c-0.4-0.1-0.7-0.1-1.1-0.2c-0.3-0.1-0.6-0.1-0.9-0.1
	c-0.6-0.1-1.1-0.2-1.7-0.3c-0.4-0.1-0.7-0.1-1.1-0.2c-0.4-0.1-0.7-0.1-1.1-0.2c-0.3,0-0.6-0.1-0.9-0.1c-0.1,0-0.3,0-0.4-0.1
	c-0.4-0.1-0.9-0.1-1.3-0.2c-1.3-0.2-2.5-0.4-3.8-0.5c-0.7-0.1-1.4-0.2-2.2-0.3c-0.3,0-0.5-0.1-0.8-0.1c-0.3,0-0.6-0.1-0.9-0.1
	c-1.2-0.2-2.4-0.3-3.6-0.4c-1.2-0.1-2.3-0.3-3.5-0.4c0,0,0,0,0,0c0,0-0.1,0-0.1,0c-1.2-0.1-2.4-0.3-3.6-0.4
	c-1.2-0.1-2.4-0.3-3.6-0.4c-0.3,0-0.6-0.1-0.8-0.1c-0.2,0-0.3,0-0.5,0c-0.7-0.1-1.4-0.1-2.2-0.2c-1.2-0.1-2.3-0.2-3.5-0.3
	c-0.7-0.1-1.5-0.1-2.3-0.2c-0.2,0-0.3,0-0.5,0c-0.3,0-0.5,0-0.8-0.1c-1.2-0.1-2.4-0.2-3.6-0.3c-1.2-0.1-2.4-0.2-3.5-0.2
	c-0.1,0-0.3,0-0.4,0c-0.1,0-0.2,0-0.2,0c-1-0.1-1.9-0.1-2.9-0.2c-1.2-0.1-2.4-0.1-3.6-0.2c-0.6,0-1.2,0-1.8-0.1c-0.2,0-0.4,0-0.6,0
	c-0.4,0-0.8,0-1.2-0.1c-1.2,0-2.4-0.1-3.7-0.1c-1.2,0-2.4-0.1-3.6-0.1c0,0,0,0,0,0c0,0,0,0,0,0c-1.2,0-2.5-0.1-3.7-0.1
	c-1.2,0-2.5,0-3.7,0c-0.1,0-0.2,0-0.4,0s-0.2,0-0.4,0c-0.1,0-0.2,0-0.4,0c-0.1,0-0.2,0-0.4,0c-1.2,0-2.4,0-3.6,0s-2.4,0-3.6,0
	c-0.5,0-0.9,0-1.4,0c-0.2,0-0.5,0-0.7,0c-0.5,0-1,0-1.5,0c-1.2,0-2.3,0-3.5,0.1c-1,0-2,0.1-3,0.1c-0.2,0-0.5,0-0.7,0
	c-0.2,0-0.4,0-0.7,0c-1.4,0-2.9,0.1-4.3,0.2c-1,0-2,0.1-3,0.1c-0.2,0-0.4,0-0.6,0c-0.2,0-0.4,0-0.6,0c-1.4,0.1-2.8,0.1-4.2,0.2
	c-0.9,0.1-1.8,0.1-2.6,0.2c-0.4,0-0.8,0.1-1.3,0.1c-0.4,0-0.8,0-1.2,0.1c-1.7,0.1-3.4,0.2-5,0.4c-0.4,0-0.7,0.1-1.1,0.1
	c-0.4,0-0.8,0.1-1.2,0.1c-0.9,0.1-1.7,0.1-2.6,0.2c-1.6,0.1-3.2,0.3-4.7,0.5c0,0-0.1,0-0.1,0c0,0-0.1,0-0.1,0
	c-0.8,0.1-1.5,0.2-2.3,0.3c-1.9,0.2-3.9,0.4-5.8,0.7c-0.1,0-0.1,0-0.2,0c-0.9,0.1-1.8,0.3-2.7,0.4c-1.6,0.2-3.1,0.4-4.7,0.6
	c-0.2,0-0.3,0-0.5,0.1c-0.1,0-0.1,0-0.2,0c-0.1,0-0.3,0-0.4,0.1c-2.4,0.4-4.9,0.7-7.2,1.1c-0.1,0-0.2,0-0.3,0
	c-0.2,0-0.3,0.1-0.4,0.1c-2.3,0.4-4.6,0.8-6.9,1.2c-0.1,0-0.2,0-0.3,0.1c-0.4,0.1-0.8,0.2-1.1,0.2c-0.8,0.1-1.5,0.3-2.3,0.5
	c-0.6,0.1-1.2,0.2-1.7,0.4c-0.7,0.2-1.5,0.3-2.2,0.5c-0.3,0.1-0.7,0.1-1,0.2c-0.2,0.1-0.5,0.1-0.7,0.2c-0.7,0.2-1.5,0.3-2.2,0.5
	c-0.5,0.1-1.1,0.2-1.6,0.4c-0.8,0.2-1.6,0.4-2.4,0.6c-0.4,0.1-0.8,0.2-1.2,0.3c-0.1,0-0.1,0-0.2,0.1c-1.2,0.3-2.4,0.6-3.6,0.9
	c-0.3,0.1-0.7,0.2-1,0.3c-0.9,0.2-1.8,0.5-2.6,0.7c-0.1,0-0.2,0.1-0.3,0.1c-0.4,0.1-0.7,0.2-1.1,0.3c-0.7,0.2-1.5,0.4-2.2,0.6
	c-0.5,0.1-1,0.3-1.4,0.4c-0.7,0.2-1.4,0.4-2.1,0.6c-0.2,0.1-0.5,0.1-0.7,0.2c-0.3,0.1-0.5,0.2-0.7,0.2c-0.6,0.2-1.2,0.4-1.8,0.6
	c-0.5,0.2-1,0.3-1.5,0.5c-0.6,0.2-1.2,0.4-1.8,0.6c-0.3,0.1-0.6,0.2-0.9,0.3c-0.2,0.1-0.3,0.1-0.5,0.2c-0.2,0.1-0.4,0.1-0.6,0.2
	c-0.4,0.1-0.8,0.3-1.2,0.4c-0.5,0.2-0.9,0.3-1.4,0.5c-0.6,0.2-1.1,0.4-1.7,0.6c-0.3,0.1-0.7,0.3-1,0.4c-0.1,0-0.2,0.1-0.3,0.1
	c-0.6,0.2-1.1,0.4-1.7,0.6c-0.4,0.2-0.9,0.4-1.3,0.5c-0.5,0.2-1.1,0.4-1.6,0.7c-0.4,0.2-0.8,0.3-1.1,0.5c-0.1,0-0.1,0.1-0.2,0.1
	c-0.6,0.2-1.1,0.5-1.6,0.7c-0.4,0.2-0.8,0.3-1.2,0.5c-0.6,0.3-1.3,0.6-1.9,0.9c-0.3,0.1-0.6,0.3-0.8,0.4c-0.1,0-0.1,0.1-0.2,0.1
	c-0.9,0.4-1.9,0.9-2.8,1.3c-0.1,0.1-0.2,0.1-0.3,0.1c-0.2,0.1-0.5,0.2-0.7,0.4c-0.6,0.3-1.3,0.6-1.9,1c-0.2,0.1-0.4,0.2-0.5,0.3
	c-0.2,0.1-0.3,0.2-0.5,0.3c-0.6,0.3-1.2,0.7-1.8,1c-0.2,0.1-0.4,0.2-0.7,0.4c-0.1,0.1-0.2,0.1-0.3,0.2c-0.9,0.5-1.8,1-2.6,1.5
	c0,0,0,0,0,0c-0.3,0.2-0.6,0.4-0.9,0.6c-0.4,0.3-0.9,0.5-1.3,0.8c0,0,0,0-0.1,0c-0.3,0.2-0.6,0.4-0.9,0.6c-0.4,0.3-0.8,0.5-1.2,0.8
	c0,0-0.1,0-0.1,0.1c-0.3,0.2-0.5,0.4-0.8,0.6c-0.4,0.3-0.8,0.6-1.2,0.8c0,0-0.1,0.1-0.1,0.1c-0.3,0.2-0.5,0.4-0.7,0.6
	c-0.4,0.3-0.8,0.6-1.1,0.8c-0.1,0-0.1,0.1-0.2,0.1c-0.3,0.3-0.6,0.5-1,0.8c-0.2,0.2-0.4,0.3-0.6,0.5c0,0-0.1,0-0.1,0.1
	c0,0-0.1,0.1-0.1,0.1c-0.5,0.4-1,0.9-1.5,1.3c0,0-0.1,0.1-0.1,0.1c0,0,0,0,0,0c-0.5,0.5-1.1,0.9-1.6,1.4c0,0,0,0-0.1,0.1
	c-0.2,0.1-0.3,0.3-0.5,0.4c-0.3,0.3-0.6,0.6-1,0.9c-0.1,0.1-0.1,0.1-0.2,0.2c-0.2,0.2-0.3,0.3-0.5,0.5c-0.2,0.2-0.5,0.5-0.7,0.7
	c-0.1,0.1-0.2,0.2-0.3,0.3c-0.2,0.2-0.3,0.4-0.5,0.5c-0.2,0.2-0.3,0.4-0.5,0.5c-0.1,0.2-0.3,0.3-0.4,0.5c-0.2,0.2-0.3,0.4-0.5,0.5
	c-0.1,0.1-0.2,0.2-0.3,0.4c-0.2,0.2-0.4,0.4-0.5,0.7c-0.1,0.2-0.3,0.3-0.4,0.5c-0.1,0.1-0.1,0.2-0.2,0.2c-0.3,0.4-0.6,0.7-0.8,1.1
	c0,0.1-0.1,0.1-0.1,0.2c0,0,0,0,0,0.1c-0.3,0.5-0.6,0.9-0.9,1.4c0,0-0.1,0.1-0.1,0.1c-0.1,0.1-0.1,0.2-0.2,0.4
	c-0.2,0.3-0.4,0.6-0.6,0.9c-0.1,0.1-0.1,0.2-0.2,0.3c-0.1,0.2-0.2,0.3-0.3,0.5c-0.1,0.2-0.2,0.4-0.3,0.6c-0.1,0.2-0.2,0.3-0.3,0.5
	c-0.1,0.2-0.2,0.4-0.3,0.5c-0.1,0.1-0.1,0.2-0.2,0.4c-0.1,0.3-0.2,0.5-0.4,0.8c-0.1,0.2-0.1,0.3-0.2,0.5c0,0.1-0.1,0.1-0.1,0.2
	c-0.2,0.5-0.4,1-0.6,1.5c-0.2,0.5-0.3,1-0.5,1.5c0,0.1,0,0.1-0.1,0.2c0,0.2-0.1,0.3-0.1,0.5c-0.1,0.3-0.2,0.5-0.2,0.8
	c0,0.1-0.1,0.3-0.1,0.4c0,0.2-0.1,0.4-0.1,0.6c0,0.2-0.1,0.3-0.1,0.5c0,0.2-0.1,0.5-0.1,0.7c0,0.2-0.1,0.3-0.1,0.5
	c0,0.1,0,0.1,0,0.2c-0.1,0.5-0.1,1-0.2,1.5c0,0,0,0.1,0,0.1s0,0.1,0,0.1s0,0.1,0,0.1c0,0,0,0.1,0,0.1c0,0.1,0,0.2,0,0.2
	c0,0.1,0,0.1,0,0.2c0,0,0,0.1,0,0.1c0,0.1,0,0.1,0,0.2c0,0.1,0,0.2,0,0.3c0,0.1,0,0.1,0,0.2c0,0,0,0.1,0,0.1c0,0,0,0.1,0,0.1
	c0,0,0,0,0,0c0,0,0,0,0,0c0,0.1,0,0.3,0,0.4c0,0.1,0,0.1,0,0.2c0,0,0,0,0,0.1c0,0,0,0,0,0.1c0,0.2,0,0.5,0,0.7
	c0.7,53.2,1.5,106.4,2.2,159.7c-0.1,0-0.2,0.1-0.3,0.1c-0.4,0.2-0.8,0.3-1.3,0.5c-0.2,0.1-0.5,0.2-0.7,0.3c-0.3,0.1-0.5,0.2-0.8,0.3
	c-0.5,0.2-1.1,0.5-1.6,0.7c-0.7,0.3-1.3,0.6-2,0.9c-0.8,0.4-1.6,0.7-2.4,1.1c-0.5,0.2-1,0.4-1.5,0.7c-0.2,0.1-0.3,0.2-0.5,0.2
	c-0.8,0.4-1.5,0.7-2.3,1.1c-0.6,0.3-1.3,0.6-1.9,1c-0.7,0.4-1.5,0.8-2.2,1.1c-0.5,0.3-1.1,0.6-1.6,0.8c-0.1,0.1-0.2,0.1-0.3,0.2
	c-0.7,0.4-1.4,0.8-2.1,1.2c-0.6,0.3-1.3,0.7-1.9,1c-0.7,0.4-1.4,0.8-2.1,1.2c-0.6,0.3-1.2,0.7-1.8,1c-0.1,0-0.1,0.1-0.2,0.1
	c-1.3,0.8-2.7,1.6-4,2.4c-0.1,0.1-0.3,0.2-0.4,0.3c-0.4,0.2-0.7,0.4-1,0.7c-0.9,0.6-1.8,1.1-2.7,1.7c-0.3,0.2-0.5,0.3-0.8,0.5
	c-0.3,0.2-0.5,0.4-0.8,0.5c-0.9,0.6-1.7,1.2-2.6,1.7c-0.3,0.2-0.7,0.4-1,0.7c-0.1,0.1-0.3,0.2-0.4,0.3c-1.2,0.8-2.4,1.7-3.5,2.5
	c-0.1,0.1-0.2,0.1-0.3,0.2c-0.5,0.4-1.1,0.8-1.6,1.2c-0.6,0.4-1.1,0.8-1.7,1.3c0,0-0.1,0-0.1,0.1c-0.5,0.4-0.9,0.7-1.3,1.1
	c-0.6,0.5-1.2,0.9-1.7,1.4c0,0-0.1,0.1-0.1,0.1c-0.4,0.3-0.8,0.7-1.2,1c-0.6,0.5-1.2,1-1.7,1.5c-0.1,0.1-0.1,0.1-0.2,0.2
	c-0.4,0.3-0.7,0.7-1.1,1c-0.6,0.5-1.1,1-1.7,1.5c-0.1,0.1-0.2,0.1-0.2,0.2c-0.5,0.5-1,0.9-1.4,1.4c-0.3,0.3-0.6,0.5-0.8,0.8
	c0,0-0.1,0.1-0.1,0.1c0,0-0.1,0.1-0.1,0.1c-0.8,0.8-1.6,1.6-2.4,2.4c0,0-0.1,0.1-0.1,0.1c0,0,0,0,0,0c-0.8,0.8-1.6,1.7-2.4,2.5
	c0,0-0.1,0.1-0.1,0.1c-0.2,0.3-0.5,0.5-0.7,0.8c-0.5,0.5-1,1.1-1.4,1.6c-0.1,0.1-0.2,0.2-0.2,0.3c-0.2,0.3-0.5,0.5-0.7,0.8
	c-0.4,0.4-0.7,0.9-1.1,1.3c-0.2,0.2-0.3,0.4-0.5,0.6c-0.2,0.3-0.5,0.6-0.7,0.9c-0.2,0.3-0.5,0.6-0.7,0.9c-0.2,0.3-0.4,0.6-0.7,0.9
	c-0.2,0.3-0.5,0.6-0.7,0.9c-0.2,0.2-0.3,0.4-0.5,0.7c-0.3,0.4-0.6,0.9-0.9,1.3c-0.2,0.3-0.4,0.6-0.6,0.8c-0.1,0.1-0.2,0.3-0.3,0.4
	c-0.5,0.8-1,1.5-1.5,2.3c0,0,0,0.1-0.1,0.1c0,0,0,0.1-0.1,0.1c-0.5,0.8-1,1.7-1.5,2.5c-0.1,0.1-0.1,0.2-0.2,0.3
	c-0.1,0.2-0.2,0.4-0.4,0.6c-0.3,0.5-0.6,1.1-0.9,1.6c-0.1,0.2-0.2,0.4-0.3,0.6c-0.2,0.3-0.3,0.6-0.5,0.9c-0.2,0.4-0.4,0.7-0.5,1.1
	c-0.2,0.3-0.3,0.7-0.5,1c-0.1,0.3-0.3,0.6-0.4,0.9c-0.1,0.2-0.2,0.4-0.3,0.7c-0.2,0.5-0.4,1-0.7,1.5c-0.1,0.3-0.2,0.5-0.3,0.8
	c0,0.1-0.1,0.2-0.1,0.3c-0.4,0.9-0.7,1.8-1,2.7c0,0,0,0,0,0c0,0,0,0,0,0c-0.3,0.9-0.6,1.7-0.9,2.6c0,0.1-0.1,0.2-0.1,0.4
	c-0.1,0.3-0.2,0.6-0.3,0.8c-0.1,0.5-0.3,0.9-0.4,1.4c-0.1,0.3-0.1,0.5-0.2,0.8c-0.1,0.3-0.2,0.7-0.3,1c-0.1,0.3-0.1,0.5-0.2,0.8
	c-0.1,0.4-0.2,0.9-0.3,1.3c-0.1,0.3-0.1,0.6-0.2,0.9c0,0.1-0.1,0.3-0.1,0.4c-0.2,0.9-0.3,1.8-0.5,2.7c0,0.1,0,0.1,0,0.2s0,0.1,0,0.2
	s0,0.1,0,0.2s0,0.1,0,0.2c-0.1,0.6-0.2,1.2-0.2,1.8c0,0.3-0.1,0.6-0.1,0.9c0,0,0,0,0,0c0,0.1,0,0.1,0,0.2c0,0.1,0,0.1,0,0.2
	c-0.1,0.9-0.2,1.9-0.2,2.8c0,0.1,0,0.2,0,0.3c0,0,0,0,0,0c0,0,0,0,0,0c0,0,0,0,0,0c0,0.1,0,0.1,0,0.2c-0.1,1-0.1,1.9-0.1,2.9
	c0,0.1,0,0.1,0,0.2c0,0.1,0,0.1,0,0.2c0,0,0,0,0,0c0,0.3,0,0.6,0,0.9c0,0.6,0,1.2,0,1.8c0,0.1,0,0.1,0,0.2s0,0.1,0,0.2s0,0.1,0,0.2
	c0,0,0,0,0,0c0,0,0,0,0,0c0,0,0,0.1,0,0.1l0.9,20.7c0,1.1,0.1,2.2,0.1,3.4l0.7,15.8c0.4,10.4,0.9,21.1,1.4,31.9l0.4,8.3
	c0.1,3.1,0.3,6.1,0.4,9.2l0.5,12.3c0,0.7,0.1,1.5,0.1,2.2l0.3,8.1c0.1,3.2,0.3,6.4,0.4,9.6l1.3,30.3c0.2,5.7,0.5,11.3,0.7,16.8
	l0.1,3c0.3,7,0.6,13.9,0.9,20.5c0,0,0,0,0,0c0,0.1,0,0.1,0,0.2c0.1,1.2,0.1,2.4,0.2,3.6c0,0.1,0,0.1,0,0.2c0,0.4,0.1,0.8,0.1,1.2
	c0.1,0.8,0.1,1.5,0.2,2.3c0,0.1,0,0.2,0,0.4c0.1,0.4,0.1,0.9,0.2,1.3c0.1,0.7,0.2,1.3,0.3,2c0,0.2,0.1,0.4,0.1,0.5
	c0.1,0.4,0.2,0.9,0.2,1.3c0.1,0.6,0.2,1.2,0.4,1.8c0,0.2,0.1,0.5,0.1,0.7c0.1,0.4,0.2,0.8,0.3,1.3c0.1,0.6,0.3,1.2,0.4,1.7
	c0.1,0.3,0.1,0.6,0.2,0.8c0.1,0.4,0.2,0.8,0.3,1.2c0.1,0.6,0.3,1.1,0.5,1.7c0.1,0.3,0.2,0.7,0.3,1c0.1,0.4,0.2,0.7,0.3,1.1
	c0.2,0.5,0.3,1.1,0.5,1.6c0.1,0.4,0.3,0.8,0.4,1.1c0.1,0.3,0.2,0.7,0.3,1c0.2,0.5,0.4,1,0.6,1.5c0.2,0.4,0.3,0.8,0.5,1.3
	c0.1,0.2,0.1,0.3,0.2,0.5c0.1,0.1,0.1,0.3,0.2,0.4c0.2,0.5,0.4,1,0.6,1.5c0.2,0.5,0.4,1,0.6,1.4c0.1,0.3,0.2,0.5,0.3,0.8
	c0.2,0.5,0.4,0.9,0.6,1.4c0.2,0.5,0.5,1,0.7,1.6c0,0,0,0.1,0.1,0.1c0.1,0.2,0.2,0.4,0.3,0.6c0.2,0.4,0.4,0.9,0.6,1.3
	c0.3,0.5,0.5,1,0.8,1.5c0.1,0.3,0.3,0.6,0.4,0.8c0.2,0.3,0.3,0.6,0.5,0.9c0.1,0.1,0.1,0.2,0.2,0.3c0.2,0.3,0.4,0.7,0.5,1
	c0.1,0.2,0.2,0.3,0.3,0.5c0.2,0.3,0.3,0.6,0.5,0.9c0.2,0.4,0.5,0.8,0.8,1.3c0.3,0.5,0.5,0.9,0.8,1.4c0.2,0.3,0.4,0.6,0.6,0.9
	c0.3,0.5,0.6,0.9,0.9,1.4c0.3,0.4,0.5,0.8,0.8,1.2c0.2,0.3,0.4,0.6,0.6,0.9c0.3,0.5,0.7,1,1,1.5c0,0,0,0.1,0.1,0.1
	c0.2,0.3,0.4,0.6,0.7,1c0,0,0,0,0,0.1c0.2,0.3,0.4,0.6,0.6,0.9c0.4,0.5,0.8,1,1.1,1.6c0.2,0.3,0.5,0.6,0.7,0.9
	c0.3,0.3,0.5,0.7,0.8,1c0.2,0.3,0.4,0.6,0.6,0.9c0.2,0.2,0.4,0.4,0.5,0.7c0.2,0.3,0.5,0.6,0.7,0.9c0.3,0.4,0.7,0.8,1,1.2
	c0.4,0.5,0.7,0.9,1.1,1.4c0.2,0.3,0.5,0.6,0.7,0.8c0.4,0.5,0.8,0.9,1.2,1.4c0.4,0.4,0.7,0.8,1.1,1.2c0.2,0.3,0.5,0.5,0.7,0.8
	c0.5,0.5,0.9,1,1.4,1.5c0.3,0.4,0.7,0.7,1,1.1c0.2,0.2,0.4,0.5,0.7,0.7c0.5,0.5,1,1,1.5,1.5c0.2,0.2,0.4,0.4,0.6,0.6
	c0.2,0.2,0.3,0.3,0.5,0.5c0.2,0.2,0.4,0.4,0.7,0.7c0.5,0.5,1,1,1.5,1.5c0.4,0.4,0.8,0.8,1.2,1.2c0.2,0.1,0.3,0.3,0.5,0.4
	c0,0,0.1,0.1,0.1,0.1c0.5,0.5,1,1,1.6,1.5c0.5,0.4,0.9,0.8,1.4,1.3c0.2,0.2,0.5,0.4,0.7,0.6c0.5,0.4,1,0.9,1.5,1.3
	c0.5,0.4,1,0.9,1.5,1.3c0.3,0.2,0.5,0.5,0.8,0.7c0.4,0.4,0.9,0.8,1.3,1.1c0.5,0.5,1.1,0.9,1.6,1.3c0.2,0.1,0.3,0.3,0.5,0.4
	c0.1,0.1,0.3,0.2,0.4,0.3c0.4,0.3,0.8,0.6,1.2,1c0.6,0.5,1.2,0.9,1.8,1.4c0.4,0.3,0.7,0.6,1.1,0.8c0.3,0.3,0.7,0.5,1,0.8
	c0.6,0.5,1.3,1,2,1.5c0.4,0.3,0.8,0.6,1.2,0.9c0.3,0.2,0.6,0.4,0.8,0.6c0.7,0.5,1.4,1,2.2,1.5c0.5,0.3,0.9,0.6,1.3,1
	c0.1,0.1,0.2,0.1,0.2,0.2c0.1,0.1,0.3,0.2,0.4,0.3c0.8,0.5,1.6,1.1,2.4,1.6c0.5,0.3,1,0.7,1.5,1c0.2,0.1,0.3,0.2,0.5,0.3
	c0.9,0.6,1.8,1.2,2.7,1.8c0.5,0.3,0.9,0.6,1.4,0.9c0.1,0.1,0.2,0.1,0.3,0.2c0,0,0,0,0,0c1.2,0.7,2.4,1.5,3.6,2.2
	c0.3,0.2,0.5,0.3,0.8,0.5c0,0,0.1,0,0.1,0.1c0.6,0.3,1.2,0.7,1.7,1c1,0.6,1.9,1.1,2.9,1.7c0.1,0,0.1,0.1,0.2,0.1
	c0.7,0.4,1.3,0.8,2,1.1c0.9,0.5,1.8,1,2.6,1.5c0.8,0.4,1.5,0.8,2.3,1.2c0.9,0.5,1.7,0.9,2.6,1.4c0.6,0.3,1.1,0.6,1.7,0.9
	c0.2,0.1,0.4,0.2,0.5,0.3c0.2,0.1,0.5,0.2,0.7,0.3c0.7,0.4,1.4,0.7,2.1,1.1c0.8,0.4,1.6,0.8,2.4,1.2c0.9,0.4,1.8,0.9,2.7,1.3
	c0.8,0.4,1.6,0.8,2.5,1.2c0.9,0.4,1.8,0.8,2.8,1.3c0.8,0.4,1.7,0.7,2.5,1.1c0.9,0.4,1.9,0.8,2.9,1.2c0.8,0.3,1.6,0.7,2.4,1
	c0.2,0.1,0.4,0.2,0.6,0.3c0.1,0,0.2,0.1,0.3,0.1c0.7,0.3,1.4,0.6,2.2,0.9c0.8,0.3,1.7,0.7,2.5,1c0.3,0.1,0.6,0.3,1,0.4
	c0,0,0,0,0.1,0c0,0,0,0,0,0c0.7,0.3,1.4,0.5,2,0.8c0.8,0.3,1.7,0.6,2.5,0.9c0.5,0.2,0.9,0.4,1.4,0.5c0.1,0,0.1,0,0.2,0.1
	c0.3,0.1,0.7,0.2,1,0.4c0.2,0.1,0.4,0.2,0.6,0.2c0.8,0.3,1.6,0.6,2.5,0.9c0.5,0.2,1.1,0.4,1.6,0.6c0.2,0.1,0.3,0.1,0.5,0.2
	c0.5,0.2,0.9,0.3,1.4,0.5c0.8,0.3,1.5,0.5,2.3,0.8c0.6,0.2,1.2,0.4,1.9,0.6c0.3,0.1,0.6,0.2,0.8,0.3c0.5,0.2,0.9,0.3,1.4,0.4
	c0.6,0.2,1.2,0.4,1.7,0.6c0.5,0.2,1,0.3,1.6,0.5c0.3,0.1,0.6,0.2,1,0.3c0.6,0.2,1.1,0.3,1.7,0.5c0.5,0.1,1,0.3,1.5,0.5
	c0.1,0,0.2,0.1,0.3,0.1c0.4,0.1,0.9,0.3,1.4,0.4c0.3,0.1,0.7,0.2,1,0.3c0.6,0.2,1.2,0.3,1.9,0.5c0.2,0.1,0.5,0.1,0.7,0.2
	c0.4,0.1,0.7,0.2,1.1,0.3c0,0,0,0,0,0c0.3,0.1,0.7,0.2,1,0.3c0.4,0.1,0.7,0.2,1.1,0.3c0.6,0.2,1.3,0.3,1.9,0.5
	c0.7,0.2,1.4,0.4,2.1,0.5c0.4,0.1,0.7,0.2,1.1,0.3c0.3,0.1,0.6,0.2,0.9,0.2c0.7,0.2,1.5,0.4,2.2,0.5c0.7,0.2,1.4,0.4,2.1,0.5
	c0.3,0.1,0.6,0.1,0.9,0.2c0.1,0,0.3,0.1,0.4,0.1c0.8,0.2,1.7,0.4,2.5,0.6c0.9,0.2,1.7,0.4,2.6,0.6c0.7,0.2,1.4,0.3,2.2,0.5
	c0.4,0.1,0.8,0.2,1.2,0.2c0.9,0.2,1.8,0.4,2.7,0.6c0.1,0,0.2,0,0.2,0c0.1,0,0.2,0,0.3,0.1c0.9,0.2,1.9,0.4,2.8,0.6
	c1.1,0.2,2.3,0.4,3.4,0.7c1,0.2,1.9,0.4,2.9,0.5c0.6,0.1,1.2,0.2,1.9,0.3c0.1,0,0.1,0,0.2,0c0.5,0.1,1.1,0.2,1.6,0.3
	c0.9,0.2,1.8,0.3,2.7,0.4c0.4,0.1,0.8,0.1,1.2,0.2c0.2,0,0.3,0.1,0.5,0.1c0.8,0.1,1.5,0.2,2.3,0.4c0.8,0.1,1.6,0.2,2.4,0.4
	c0.2,0,0.4,0.1,0.5,0.1c0.3,0,0.6,0.1,0.9,0.1c1,0.1,1.9,0.3,2.9,0.4c1,0.1,2,0.3,2.9,0.4c0.1,0,0.2,0,0.3,0c1,0.1,2.1,0.3,3.1,0.4
	c0.4,0.1,0.9,0.1,1.3,0.2c0.1,0,0.2,0,0.3,0c0.7,0.1,1.3,0.1,2,0.2c0.8,0.1,1.7,0.2,2.5,0.3c0.3,0,0.6,0.1,0.9,0.1
	c0.3,0,0.7,0.1,1,0.1c0.8,0.1,1.5,0.2,2.3,0.2c0.6,0.1,1.3,0.1,1.9,0.2c0.2,0,0.4,0,0.6,0.1c0.6,0.1,1.2,0.1,1.8,0.1
	c0.9,0.1,1.7,0.1,2.6,0.2c0.4,0,0.9,0.1,1.3,0.1c0.1,0,0.1,0,0.2,0c0.9,0.1,1.9,0.1,2.8,0.2c0.9,0.1,1.7,0.1,2.6,0.2
	c0.2,0,0.4,0,0.6,0c0,0,0,0,0,0c0.6,0,1.2,0.1,1.8,0.1c1.1,0.1,2.2,0.1,3.4,0.2c0.3,0,0.7,0,1,0.1c0.1,0,0.2,0,0.2,0
	c0.8,0,1.6,0.1,2.4,0.1c1.1,0,2.1,0.1,3.2,0.1c0.2,0,0.4,0,0.6,0c0.2,0,0.5,0,0.7,0c0.7,0,1.4,0,2.1,0c0.9,0,1.7,0,2.6,0.1
	c0.2,0,0.4,0,0.6,0c0.2,0,0.4,0,0.6,0s0.4,0,0.6,0c0.2,0,0.4,0,0.6,0c1.9,0,3.9,0,5.8,0c0.1,0,0.1,0,0.2,0c0.3,0,0.5,0,0.8,0
	c0.7,0,1.3,0,2,0c0.9,0,1.9,0,2.8,0c0.1,0,0.2,0,0.3,0c0.5,0,1,0,1.5,0c0.7,0,1.5,0,2.2-0.1c0.6,0,1.1,0,1.7,0c0.2,0,0.3,0,0.5,0
	c0.8,0,1.6-0.1,2.3-0.1c0.7,0,1.4-0.1,2.2-0.1c0.3,0,0.5,0,0.8,0c0.2,0,0.3,0,0.5,0c1.1,0,2.2-0.1,3.3-0.2c0.9,0,1.7-0.1,2.6-0.1
	c0.1,0,0.2,0,0.3,0c0.1,0,0.3,0,0.4,0c0,0,0,0,0,0c1.2-0.1,2.4-0.2,3.6-0.2c0.7-0.1,1.5-0.1,2.2-0.2c0.3,0,0.6,0,0.9-0.1
	c0.1,0,0.1,0,0.2,0c0.3,0,0.6-0.1,1-0.1c1.4-0.1,2.8-0.2,4.3-0.4c0.4,0,0.8-0.1,1.2-0.1c0.2,0,0.3,0,0.5,0c0.4,0,0.9-0.1,1.3-0.1
	c1.1-0.1,2.3-0.2,3.4-0.3c0.5-0.1,1.1-0.1,1.6-0.2c0.2,0,0.3,0,0.5-0.1c0.3,0,0.6-0.1,0.9-0.1c1.1-0.1,2.2-0.3,3.3-0.4
	c0.9-0.1,1.9-0.2,2.8-0.4c0.2,0,0.4-0.1,0.6-0.1c0.2,0,0.4,0,0.6-0.1c0.1,0,0.1,0,0.2,0c0.7-0.1,1.4-0.2,2.1-0.3
	c0.9-0.1,1.9-0.3,2.8-0.4c0.8-0.1,1.6-0.2,2.4-0.4c0.2,0,0.4-0.1,0.6-0.1c0.3,0,0.5-0.1,0.8-0.1c0.8-0.1,1.6-0.3,2.4-0.4
	c1.2-0.2,2.5-0.4,3.7-0.6c0.3-0.1,0.7-0.1,1-0.2c0.1,0,0.2,0,0.3-0.1c0.3-0.1,0.7-0.1,1-0.2c1.9-0.4,3.9-0.7,5.8-1.1
	c0.2,0,0.4-0.1,0.6-0.1c0,0,0,0,0.1,0c0.4-0.1,0.7-0.2,1.1-0.2c0.1,0,0.2,0,0.3-0.1c1.3-0.3,2.6-0.5,3.9-0.8c0.3-0.1,0.7-0.2,1-0.2
	c0.5-0.1,1-0.2,1.5-0.4c0.7-0.2,1.4-0.3,2.1-0.5c0.4-0.1,0.8-0.2,1.2-0.3c0.5-0.1,1-0.2,1.4-0.3c0.1,0,0.2,0,0.3-0.1
	c0.3-0.1,0.6-0.2,0.9-0.2c1.1-0.3,2.1-0.5,3.2-0.8c0.6-0.2,1.2-0.3,1.8-0.5c0.3-0.1,0.6-0.2,0.9-0.2c1.2-0.3,2.3-0.6,3.4-1
	c0.4-0.1,0.9-0.2,1.3-0.4c0.1,0,0.3-0.1,0.4-0.1c1.8-0.5,3.6-1,5.3-1.6c0.1,0,0.1,0,0.2-0.1c0.3-0.1,0.5-0.2,0.8-0.2
	c0.5-0.2,1-0.3,1.6-0.5c1-0.3,2.1-0.7,3.1-1c0.4-0.1,0.7-0.2,1.1-0.4c0.2-0.1,0.4-0.1,0.7-0.2c0.3-0.1,0.6-0.2,1-0.3
	c0.9-0.3,1.8-0.6,2.6-0.9c0.5-0.2,1-0.4,1.6-0.5c0.4-0.2,0.9-0.3,1.3-0.5c0.8-0.3,1.6-0.6,2.3-0.9c0.7-0.3,1.4-0.5,2-0.8
	c0.3-0.1,0.5-0.2,0.8-0.3c0.1,0,0.1,0,0.2-0.1c0.7-0.3,1.5-0.6,2.2-0.9c0.7-0.3,1.3-0.5,2-0.8c0.5-0.2,1-0.4,1.5-0.6
	c0.4-0.2,0.8-0.3,1.2-0.5c0.2-0.1,0.3-0.1,0.5-0.2c0.6-0.3,1.2-0.5,1.9-0.8c0.7-0.3,1.4-0.6,2.1-0.9c0.3-0.1,0.6-0.2,0.8-0.4
	c0.2-0.1,0.4-0.2,0.6-0.3c0.1-0.1,0.3-0.1,0.4-0.2c0.6-0.3,1.2-0.5,1.7-0.8c0.9-0.4,1.8-0.8,2.7-1.3c0.2-0.1,0.3-0.2,0.5-0.2
	c0.2-0.1,0.3-0.2,0.5-0.2c0.7-0.3,1.3-0.6,2-0.9c0.9-0.4,1.8-0.9,2.7-1.3c0.1-0.1,0.2-0.1,0.3-0.2c0.1,0,0.1-0.1,0.2-0.1
	c0,0,0,0,0,0c0.5-0.3,1-0.5,1.6-0.8c0.8-0.4,1.7-0.9,2.5-1.3c0.5-0.2,0.9-0.5,1.4-0.7c0.2-0.1,0.5-0.3,0.7-0.4
	c0.8-0.4,1.6-0.9,2.4-1.3c0.7-0.4,1.3-0.7,2-1.1c0.1,0,0.1-0.1,0.2-0.1c0.1-0.1,0.2-0.1,0.3-0.2c0,0,0,0,0.1,0c0,0,0.1,0,0.1,0
	c0.7-0.4,1.4-0.8,2-1.2c0.5-0.3,1-0.6,1.6-0.9c0.3-0.2,0.7-0.4,1-0.6c0.4-0.3,0.9-0.5,1.3-0.8c0.6-0.4,1.2-0.7,1.8-1.1
	c0.3-0.2,0.6-0.4,0.8-0.5c0.3-0.2,0.6-0.4,0.9-0.6c0.3-0.2,0.5-0.3,0.8-0.5c0.1-0.1,0.3-0.2,0.4-0.3c0.4-0.2,0.8-0.5,1.1-0.7
	c0.4-0.3,0.9-0.6,1.3-0.9c0.4-0.3,0.8-0.6,1.3-0.9c0.1-0.1,0.3-0.2,0.4-0.3c0.3-0.2,0.7-0.5,1-0.7c0.5-0.3,0.9-0.6,1.4-1
	c0.6-0.4,1.1-0.8,1.6-1.2c0.1-0.1,0.2-0.1,0.3-0.2c0.2-0.2,0.4-0.3,0.7-0.5c0.2-0.2,0.5-0.4,0.7-0.5c0.2-0.1,0.3-0.3,0.5-0.4
	c0.6-0.4,1.1-0.9,1.7-1.3c0.4-0.3,0.7-0.5,1.1-0.8c0.3-0.2,0.6-0.4,0.8-0.7c0.7-0.5,1.3-1.1,2-1.6c0.2-0.2,0.5-0.4,0.7-0.6
	c0.1-0.1,0.2-0.2,0.3-0.3c0,0,0,0,0.1,0c0.1-0.1,0.3-0.2,0.4-0.3c1-0.8,2-1.7,2.9-2.5c0,0,0.1-0.1,0.1-0.1c0.1-0.1,0.2-0.2,0.3-0.3
	c0.3-0.3,0.6-0.5,0.9-0.8c0.8-0.7,1.5-1.4,2.3-2.1c0.1-0.1,0.2-0.1,0.2-0.2c0,0,0,0,0.1-0.1c0.3-0.3,0.6-0.6,0.9-0.9
	c0.6-0.6,1.3-1.2,1.9-1.8c0.4-0.4,0.8-0.8,1.3-1.3c0.6-0.6,1.2-1.2,1.7-1.8c0.3-0.3,0.6-0.6,0.9-0.9c0,0,0.1-0.1,0.1-0.1
	c0.2-0.2,0.3-0.3,0.5-0.5c0.2-0.3,0.5-0.5,0.7-0.8c0.4-0.4,0.8-0.9,1.2-1.3c0.2-0.2,0.4-0.5,0.7-0.7c0.1-0.2,0.3-0.3,0.4-0.5
	c0.1-0.1,0.2-0.2,0.2-0.3c0.6-0.7,1.2-1.4,1.8-2.1c0.1-0.1,0.1-0.2,0.2-0.2c0.1-0.2,0.2-0.3,0.4-0.5c0.4-0.5,0.8-0.9,1.1-1.4
	c0.2-0.2,0.4-0.5,0.6-0.7c0.1-0.1,0.2-0.3,0.3-0.4c0,0,0-0.1,0.1-0.1c0.1-0.2,0.3-0.3,0.4-0.5c0.5-0.6,0.9-1.2,1.4-1.9
	c0.1-0.2,0.3-0.4,0.4-0.5c0-0.1,0.1-0.1,0.1-0.2c0.1-0.1,0.1-0.2,0.2-0.3c0.2-0.2,0.3-0.5,0.5-0.7c0.3-0.5,0.7-0.9,1-1.4
	c0.2-0.2,0.3-0.5,0.5-0.7c0.1-0.2,0.2-0.3,0.3-0.5c0.1-0.2,0.3-0.4,0.4-0.6c0-0.1,0.1-0.1,0.1-0.2c0.1-0.2,0.2-0.3,0.3-0.5
	c0.4-0.6,0.8-1.2,1.2-1.9c0.2-0.4,0.5-0.7,0.7-1.1c0-0.1,0.1-0.1,0.1-0.2c0-0.1,0.1-0.2,0.1-0.2c0.4-0.7,0.8-1.4,1.2-2.1
	c0.2-0.3,0.4-0.7,0.6-1c0.1-0.1,0.1-0.2,0.2-0.3c0,0,0,0,0,0c0-0.1,0.1-0.1,0.1-0.2c0.5-0.9,1-1.9,1.5-2.8c0.1-0.1,0.1-0.3,0.2-0.4
	c0.1-0.1,0.1-0.2,0.2-0.3c0.1-0.2,0.2-0.5,0.4-0.7c0.3-0.7,0.7-1.3,1-2c0.1-0.2,0.2-0.4,0.3-0.7c0.1-0.1,0.1-0.2,0.2-0.3
	c0.1-0.2,0.2-0.5,0.3-0.7c0.3-0.6,0.5-1.1,0.8-1.7c0.1-0.2,0.2-0.4,0.2-0.5c0-0.1,0-0.1,0.1-0.2c0-0.1,0.1-0.1,0.1-0.2
	c0.1-0.2,0.2-0.4,0.2-0.6c0.3-0.6,0.5-1.3,0.7-1.9c0.1-0.3,0.2-0.5,0.3-0.8c0,0,0,0,0-0.1c0.1-0.2,0.1-0.3,0.2-0.5
	c0.2-0.6,0.5-1.3,0.7-1.9c0.1-0.3,0.2-0.6,0.3-0.9c0,0,0,0,0-0.1c0-0.1,0.1-0.3,0.1-0.4c0.2-0.6,0.4-1.3,0.6-1.9
	c0.1-0.3,0.2-0.7,0.3-1c0-0.1,0-0.1,0.1-0.2c0-0.1,0.1-0.2,0.1-0.3c0.1-0.5,0.3-1,0.4-1.4c0.1-0.4,0.2-0.8,0.3-1.2
	c0-0.1,0.1-0.2,0.1-0.4c0-0.2,0.1-0.3,0.1-0.5c0.1-0.3,0.1-0.6,0.2-0.9c0-0.1,0-0.2,0.1-0.3c0.1-0.4,0.2-0.8,0.3-1.2
	c0-0.1,0-0.2,0.1-0.4c0.1-0.2,0.1-0.5,0.1-0.7c0.1-0.4,0.1-0.8,0.2-1.1c0.1-0.3,0.1-0.6,0.2-1c0-0.1,0-0.3,0.1-0.4
	c0.1-0.3,0.1-0.7,0.2-1c0.1-0.4,0.1-0.8,0.2-1.2c0-0.2,0.1-0.4,0.1-0.7c0-0.1,0-0.1,0-0.2s0-0.1,0-0.2c0-0.1,0-0.1,0-0.2
	c0-0.1,0-0.1,0-0.2l1-8c0.3-2.5,0.7-5,1-7.5l3.2-24.6c0-0.3,0.1-0.6,0.1-0.9l8.1-61.6c0.4-2.8,0.7-5.5,1.1-8.3l6.9-52.7
	c0.7-5.3,1.4-10.5,2-15.5l1-7.5c0.4-2.7,0.7-5.4,1-8c0-0.4,0.1-0.8,0.1-1.1c0-0.2,0-0.4,0.1-0.6
	C767.7,503.3,767.8,502.3,767.9,501.3z"/>
</svg>
