<?xml version="1.0" encoding="utf-8"?>
<!-- Generator: Adobe Illustrator 23.0.5, SVG Export Plug-In . SVG Version: 6.00 Build 0)  -->
<svg version="1.1" id="Capa_1" xmlns="http://www.w3.org/2000/svg" xmlns:xlink="http://www.w3.org/1999/xlink" x="0px" y="0px"
	 viewBox="0 0 1000 1000" style="enable-background:new 0 0 1000 1000;" xml:space="preserve">
<style type="text/css">
	.st0{fill:none;}
	.st1{fill:#222300;}
</style>
<rect class="st0" width="1000" height="1000"/>
<path class="st1" d="M660.1,705.6c6.4-74.7,12.8-149.4,19.2-224.1c0,0,0,0,0-0.1c0.1-0.6,0.1-1.3,0.1-1.9c0-0.2,0-0.4,0-0.6
	c0-0.2,0-0.5,0-0.7c0-0.2,0-0.5,0-0.7c0-0.2,0-0.4,0-0.6c0-0.6,0-1.3-0.1-1.9c0,0,0-0.1,0-0.1c0,0,0,0,0,0c0-0.7-0.1-1.3-0.2-2
	c0-0.2-0.1-0.4-0.1-0.6c0-0.3-0.1-0.5-0.1-0.8c0-0.2-0.1-0.5-0.1-0.7c0-0.2-0.1-0.4-0.1-0.6c-0.1-0.7-0.3-1.3-0.4-2
	c-0.2-0.8-0.4-1.6-0.6-2.4c-0.1-0.3-0.2-0.5-0.2-0.8c-0.2-0.5-0.3-1.1-0.5-1.6c-0.1-0.3-0.2-0.6-0.3-0.9c-0.2-0.5-0.4-1-0.6-1.4
	c-0.1-0.3-0.3-0.6-0.4-0.9c-0.2-0.5-0.4-0.9-0.6-1.4c-0.1-0.3-0.3-0.6-0.4-0.9c-0.2-0.5-0.5-1-0.7-1.5c-0.1-0.3-0.3-0.5-0.4-0.8
	c-0.3-0.6-0.7-1.2-1-1.9c-0.1-0.1-0.1-0.3-0.2-0.4c-0.4-0.7-0.9-1.5-1.4-2.2c-0.2-0.3-0.3-0.5-0.5-0.7c-0.3-0.5-0.7-1-1-1.4
	c-0.1-0.1-0.1-0.2-0.2-0.3c-0.1-0.2-0.3-0.4-0.5-0.6c-0.3-0.4-0.6-0.9-1-1.3c-0.2-0.3-0.5-0.6-0.7-0.9c-0.3-0.4-0.7-0.8-1-1.3
	c-0.2-0.3-0.5-0.6-0.7-0.9c-0.4-0.4-0.8-0.9-1.1-1.3c-0.2-0.3-0.5-0.5-0.7-0.8c-0.4-0.5-0.9-1-1.4-1.4c-0.2-0.2-0.4-0.4-0.6-0.6
	c-0.7-0.7-1.4-1.4-2.1-2c-0.1-0.1-0.2-0.2-0.3-0.3c-0.5-0.5-1.1-1-1.6-1.5c-0.1-0.1-0.1-0.1-0.2-0.2c-0.2-0.2-0.5-0.4-0.7-0.6
	c-0.5-0.4-1-0.9-1.5-1.3c-0.3-0.2-0.6-0.5-0.9-0.7c-0.5-0.4-1-0.8-1.5-1.2c-0.2-0.1-0.3-0.3-0.5-0.4c-0.2-0.1-0.3-0.2-0.5-0.4
	c-0.5-0.4-1-0.8-1.5-1.1c-0.3-0.2-0.6-0.5-1-0.7c-0.5-0.4-1.1-0.8-1.6-1.2c-0.3-0.2-0.6-0.4-0.9-0.6c-0.8-0.6-1.6-1.1-2.4-1.7
	c-0.2-0.1-0.3-0.2-0.5-0.3c-0.8-0.5-1.6-1-2.4-1.6c-0.3-0.2-0.7-0.4-1-0.6c-0.6-0.4-1.2-0.7-1.8-1.1c-0.4-0.2-0.8-0.5-1.2-0.7
	c-0.6-0.3-1.1-0.7-1.7-1c-0.4-0.2-0.8-0.5-1.2-0.7c-0.6-0.3-1.1-0.6-1.7-0.9l0.3-5c0.3-4.6,0.6-9.1,1-13.7l0.9-13.3
	c0.4-6.3,0.9-12.7,1.3-19l1-13.7c0.2-2.8,0.4-5.7,0.6-8.5l0.6-8.3c0-0.7,0.1-1.4,0.1-2.1l0.8-11.7c0.2-2.6,0.4-5.2,0.5-7.8l1.6-23.3
	c0-0.1,0-0.2,0-0.4c0-0.3,0-0.7,0-1c0-0.1,0-0.2,0-0.3c0-0.1,0-0.2,0-0.3c0-0.3,0-0.6,0-1c0-0.1,0-0.2,0-0.3c0-0.1,0-0.1,0-0.2
	c0-0.3-0.1-0.7-0.1-1c0-0.1,0-0.2,0-0.4c0,0,0-0.1,0-0.1c-0.1-0.5-0.2-1-0.3-1.5c-0.1-0.5-0.3-1-0.4-1.5c0-0.2-0.1-0.3-0.2-0.5
	c-0.1-0.3-0.2-0.7-0.3-1c-0.1-0.2-0.1-0.4-0.2-0.6c-0.1-0.3-0.2-0.6-0.4-0.9c-0.1-0.2-0.2-0.4-0.3-0.6c-0.1-0.3-0.3-0.6-0.4-0.9
	c-0.1-0.2-0.2-0.4-0.3-0.6c-0.2-0.3-0.3-0.6-0.5-0.9c-0.1-0.2-0.2-0.3-0.3-0.5c-0.2-0.4-0.5-0.8-0.7-1.2c-0.1-0.1-0.1-0.2-0.2-0.3
	c-0.3-0.5-0.6-0.9-1-1.4c-0.1-0.1-0.2-0.3-0.4-0.4c-0.2-0.3-0.5-0.6-0.7-0.9c0-0.1-0.1-0.1-0.1-0.2c-0.1-0.1-0.2-0.2-0.3-0.4
	c-0.2-0.3-0.5-0.5-0.7-0.8c-0.2-0.2-0.3-0.4-0.5-0.6c-0.2-0.3-0.5-0.5-0.8-0.8c-0.2-0.2-0.4-0.4-0.5-0.5c-0.3-0.3-0.6-0.5-0.8-0.8
	c-0.2-0.2-0.4-0.3-0.5-0.5c-0.3-0.3-0.7-0.6-1-0.9c-0.1-0.1-0.3-0.3-0.4-0.4c-0.5-0.4-1-0.9-1.5-1.3c-0.1-0.1-0.2-0.1-0.2-0.2
	c-0.4-0.3-0.8-0.6-1.2-0.9c-0.1,0-0.1-0.1-0.2-0.1c-0.2-0.1-0.4-0.3-0.6-0.4c-0.4-0.3-0.7-0.5-1.1-0.8c-0.2-0.2-0.4-0.3-0.7-0.5
	c-0.4-0.3-0.7-0.5-1.1-0.8c-0.1-0.1-0.2-0.2-0.4-0.2c-0.1-0.1-0.2-0.2-0.4-0.2c-0.4-0.2-0.7-0.5-1.1-0.7c-0.2-0.2-0.5-0.3-0.7-0.5
	c-0.4-0.3-0.8-0.5-1.2-0.8c-0.2-0.1-0.4-0.3-0.7-0.4c-0.6-0.4-1.2-0.7-1.8-1.1c-0.1,0-0.2-0.1-0.2-0.1c-0.6-0.4-1.3-0.7-1.9-1
	c-0.2-0.1-0.5-0.3-0.7-0.4c-0.5-0.2-0.9-0.5-1.4-0.7c-0.3-0.1-0.6-0.3-0.9-0.4c-0.4-0.2-0.9-0.4-1.3-0.6c-0.3-0.1-0.6-0.3-0.9-0.4
	c-0.4-0.2-0.9-0.4-1.3-0.6c-0.3-0.1-0.6-0.3-0.9-0.4c-0.5-0.2-1-0.4-1.4-0.6c-0.2-0.1-0.4-0.2-0.6-0.3c-0.1,0-0.2-0.1-0.2-0.1
	c-0.6-0.2-1.2-0.5-1.8-0.7c-0.2-0.1-0.4-0.2-0.6-0.3c-0.8-0.3-1.6-0.6-2.4-1c-0.2-0.1-0.4-0.2-0.6-0.2c-0.6-0.2-1.2-0.5-1.8-0.7
	c-0.3-0.1-0.6-0.2-0.9-0.3c-0.4-0.1-0.7-0.3-1.1-0.4c-0.1,0-0.2-0.1-0.3-0.1c-1.3-0.5-2.7-0.9-4.1-1.4c-0.3-0.1-0.5-0.2-0.8-0.3
	c-1.4-0.5-2.9-0.9-4.4-1.4c-0.1,0-0.3-0.1-0.4-0.1c-0.8-0.2-1.5-0.5-2.3-0.7c-0.6-0.2-1.2-0.3-1.8-0.5c-0.3-0.1-0.6-0.2-1-0.3
	c-0.2-0.1-0.4-0.1-0.6-0.2c-1.2-0.3-2.3-0.6-3.5-0.9c-0.2,0-0.3-0.1-0.5-0.1c-0.3-0.1-0.6-0.1-0.9-0.2c-0.7-0.2-1.4-0.4-2.2-0.5
	c-0.7-0.2-1.3-0.3-2-0.5c-0.3-0.1-0.7-0.2-1-0.2c-0.2,0-0.4-0.1-0.6-0.1c-1-0.2-1.9-0.4-2.9-0.6c-0.4-0.1-0.8-0.2-1.2-0.3
	c-0.2,0-0.5-0.1-0.7-0.1c-0.3-0.1-0.6-0.1-1-0.2c-1-0.2-2-0.4-3-0.6c-0.3-0.1-0.7-0.1-1-0.2c-0.3,0-0.5-0.1-0.8-0.1
	c-0.4-0.1-0.8-0.1-1.2-0.2c-0.9-0.2-1.8-0.3-2.7-0.5c-0.4-0.1-0.8-0.1-1.2-0.2c-0.1,0-0.2,0-0.3-0.1c-0.1,0-0.2,0-0.3,0
	c-0.3,0-0.6-0.1-0.9-0.2c-0.9-0.1-1.8-0.3-2.7-0.4c-0.5-0.1-1-0.1-1.6-0.2c-0.2,0-0.4-0.1-0.6-0.1c-0.2,0-0.4-0.1-0.6-0.1
	c-0.9-0.1-1.7-0.2-2.6-0.3c-0.8-0.1-1.7-0.2-2.5-0.3c0,0,0,0,0,0c0,0,0,0-0.1,0c-0.9-0.1-1.7-0.2-2.6-0.3c-0.9-0.1-1.8-0.2-2.6-0.3
	c-0.2,0-0.4,0-0.6-0.1c-0.1,0-0.3,0-0.4,0c-0.5-0.1-1-0.1-1.5-0.2c-0.9-0.1-1.7-0.2-2.6-0.2c-0.5,0-1.1-0.1-1.6-0.1
	c-0.1,0-0.2,0-0.4,0c-0.2,0-0.4,0-0.6,0c-0.9-0.1-1.7-0.1-2.6-0.2c-0.9-0.1-1.7-0.1-2.6-0.2c-0.1,0-0.2,0-0.3,0c-0.1,0-0.1,0-0.2,0
	c-0.7,0-1.4-0.1-2.1-0.1c-0.9,0-1.7-0.1-2.6-0.1c-0.4,0-0.9,0-1.3-0.1c-0.2,0-0.3,0-0.5,0c-0.3,0-0.6,0-0.9,0
	c-0.9,0-1.8-0.1-2.7-0.1c-0.9,0-1.8-0.1-2.7-0.1c0,0,0,0,0,0c0,0,0,0,0,0c-0.9,0-1.8,0-2.7-0.1c-0.9,0-1.8,0-2.7,0
	c-0.1,0-0.2,0-0.3,0c-0.1,0-0.2,0-0.3,0s-0.2,0-0.3,0c-0.1,0-0.2,0-0.3,0c-0.9,0-1.7,0-2.6,0c-0.9,0-1.7,0-2.6,0c-0.3,0-0.7,0-1,0
	c-0.2,0-0.3,0-0.5,0c-0.4,0-0.7,0-1.1,0c-0.9,0-1.7,0-2.6,0.1c-0.7,0-1.5,0-2.2,0.1c-0.2,0-0.3,0-0.5,0c-0.2,0-0.3,0-0.5,0
	c-1.1,0-2.1,0.1-3.1,0.1c-0.7,0-1.5,0.1-2.2,0.1c-0.2,0-0.3,0-0.5,0c-0.2,0-0.3,0-0.5,0c-1,0.1-2.1,0.1-3.1,0.2
	c-0.6,0-1.3,0.1-1.9,0.1c-0.3,0-0.6,0-1,0.1c-0.3,0-0.6,0-0.9,0.1c-1.2,0.1-2.5,0.2-3.7,0.3c-0.3,0-0.5,0.1-0.8,0.1
	c-0.3,0-0.6,0.1-0.9,0.1c-0.6,0.1-1.3,0.1-1.9,0.2c-1.1,0.1-2.3,0.2-3.4,0.4c0,0-0.1,0-0.1,0c0,0,0,0-0.1,0
	c-0.6,0.1-1.1,0.1-1.7,0.2c-1.4,0.2-2.8,0.3-4.3,0.5c0,0-0.1,0-0.1,0c-0.7,0.1-1.4,0.2-2,0.3c-1.1,0.2-2.3,0.3-3.4,0.5
	c-0.1,0-0.2,0-0.2,0c-0.1,0-0.2,0-0.2,0c-0.7,0.1-1.5,0.2-2.2,0.4c-1.1,0.2-2.2,0.3-3.3,0.5c-0.1,0-0.2,0-0.3,0.1
	c-0.7,0.1-1.5,0.3-2.2,0.4c-1,0.2-2,0.4-3,0.6c-0.1,0-0.3,0-0.4,0.1c-0.5,0.1-1,0.2-1.5,0.3c-1.3,0.3-2.6,0.5-3.8,0.8
	c-0.2,0.1-0.5,0.1-0.7,0.2c-0.5,0.1-1,0.2-1.5,0.4c-1.1,0.3-2.3,0.5-3.4,0.8c-0.3,0.1-0.7,0.2-1,0.2c-0.9,0.2-1.8,0.5-2.7,0.7
	c0,0-0.1,0-0.1,0c-1,0.3-2,0.5-2.9,0.8c-0.5,0.1-1,0.3-1.5,0.4c-0.2,0.1-0.5,0.1-0.7,0.2c-1.1,0.3-2.2,0.7-3.3,1
	c-0.2,0.1-0.4,0.1-0.5,0.2c-0.9,0.3-1.8,0.6-2.7,0.9c-0.5,0.2-1.1,0.4-1.6,0.5c-0.1,0-0.2,0.1-0.4,0.1c-0.1,0-0.3,0.1-0.4,0.1
	c-1.2,0.4-2.4,0.9-3.6,1.4c-0.1,0-0.2,0.1-0.3,0.1c-0.1,0-0.2,0.1-0.2,0.1c-0.4,0.2-0.8,0.3-1.2,0.5c-0.3,0.1-0.6,0.3-1,0.4
	c-0.4,0.2-0.8,0.3-1.2,0.5c-0.3,0.1-0.5,0.2-0.8,0.3c0,0-0.1,0-0.1,0.1c-0.4,0.2-0.8,0.4-1.3,0.6c-0.3,0.1-0.5,0.2-0.8,0.4
	c-0.6,0.3-1.1,0.5-1.7,0.8c-0.1,0-0.2,0.1-0.3,0.1c-0.1,0-0.1,0.1-0.2,0.1c-0.7,0.3-1.3,0.7-2,1c-0.1,0-0.2,0.1-0.2,0.1
	c-0.2,0.1-0.3,0.2-0.5,0.3c-0.5,0.2-0.9,0.5-1.4,0.7c-0.1,0.1-0.3,0.1-0.4,0.2c-0.1,0.1-0.2,0.1-0.4,0.2c-0.5,0.3-0.9,0.5-1.4,0.8
	c-0.2,0.1-0.3,0.2-0.5,0.3c-0.1,0-0.1,0.1-0.2,0.1c-0.6,0.4-1.3,0.8-1.9,1.2c0,0,0,0,0,0c-0.2,0.1-0.4,0.3-0.6,0.4
	c-0.3,0.2-0.7,0.4-1,0.6c0,0,0,0-0.1,0c-0.2,0.1-0.4,0.3-0.6,0.4c-0.3,0.2-0.6,0.4-0.9,0.6c0,0-0.1,0-0.1,0.1
	c-0.2,0.1-0.4,0.3-0.6,0.4c-0.3,0.2-0.6,0.4-0.8,0.6c0,0-0.1,0-0.1,0.1c-0.2,0.1-0.4,0.3-0.5,0.4c-0.3,0.2-0.5,0.4-0.8,0.6
	c0,0-0.1,0.1-0.1,0.1c-0.2,0.2-0.5,0.4-0.7,0.6c-0.1,0.1-0.3,0.2-0.4,0.3c0,0,0,0-0.1,0.1c0,0,0,0-0.1,0.1c-0.4,0.3-0.7,0.6-1.1,0.9
	c0,0-0.1,0.1-0.1,0.1c0,0,0,0,0,0c-0.4,0.3-0.8,0.7-1.1,1.1c0,0,0,0,0,0c-0.1,0.1-0.2,0.2-0.3,0.3c-0.2,0.2-0.5,0.5-0.7,0.7
	c0,0-0.1,0.1-0.1,0.1c-0.1,0.1-0.2,0.2-0.3,0.3c-0.2,0.2-0.4,0.4-0.5,0.6c-0.1,0.1-0.1,0.1-0.2,0.2c-0.1,0.1-0.2,0.3-0.4,0.4
	c-0.1,0.1-0.2,0.3-0.4,0.4c-0.1,0.1-0.2,0.2-0.3,0.3c-0.1,0.1-0.2,0.3-0.3,0.4c-0.1,0.1-0.2,0.2-0.2,0.3c-0.1,0.2-0.2,0.3-0.4,0.5
	c-0.1,0.1-0.2,0.3-0.3,0.4c0,0.1-0.1,0.1-0.1,0.2c-0.2,0.3-0.4,0.5-0.5,0.8c0,0.1-0.1,0.1-0.1,0.2c0,0,0,0,0,0.1
	c-0.2,0.3-0.5,0.7-0.7,1c0,0,0,0.1-0.1,0.1c-0.1,0.1-0.1,0.2-0.2,0.3c-0.1,0.2-0.3,0.5-0.4,0.7c0,0.1-0.1,0.1-0.1,0.2
	c-0.1,0.1-0.1,0.3-0.2,0.4c-0.1,0.1-0.2,0.3-0.2,0.4c-0.1,0.1-0.1,0.2-0.2,0.4c-0.1,0.1-0.1,0.3-0.2,0.4c0,0.1-0.1,0.2-0.1,0.3
	c-0.1,0.2-0.2,0.4-0.2,0.6c-0.1,0.1-0.1,0.2-0.2,0.4c0,0,0,0.1-0.1,0.1c-0.1,0.3-0.3,0.7-0.4,1c0,0,0,0,0,0c0,0,0,0,0,0
	c-0.1,0.4-0.2,0.7-0.4,1.1c0,0,0,0.1,0,0.1c0,0.1-0.1,0.2-0.1,0.3c-0.1,0.2-0.1,0.4-0.2,0.6c0,0.1,0,0.2-0.1,0.3
	c0,0.1-0.1,0.3-0.1,0.4c0,0.1-0.1,0.2-0.1,0.3c0,0.2-0.1,0.4-0.1,0.5c0,0.1,0,0.3-0.1,0.4c0,0.1,0,0.1,0,0.2
	c-0.1,0.4-0.1,0.7-0.1,1.1v0c0,0,0,0.1,0,0.1c0,0,0,0.1,0,0.1c0,0,0,0.1,0,0.1c0,0,0,0.1,0,0.1c0,0,0,0.1,0,0.1c0,0,0,0.1,0,0.1
	c0,0,0,0.1,0,0.1c0,0,0,0.1,0,0.1c0,0.1,0,0.1,0,0.2c0,0,0,0.1,0,0.1c0,0,0,0,0,0.1c0,0,0,0.1,0,0.1c0,0,0,0,0,0.1c0,0,0,0,0,0
	c0,0.1,0,0.1,0,0.2c0,0,0,0.1,0,0.1c0,0,0,0,0,0c0,0,0,0,0,0c0,0.2,0,0.3,0,0.5c0.5,41.9,1,83.8,1.6,125.8c0,0-0.1,0-0.1,0
	c-0.4,0.2-0.9,0.4-1.3,0.6c-0.5,0.3-1,0.5-1.6,0.8c-0.4,0.2-0.7,0.4-1.1,0.5c-0.1,0-0.1,0.1-0.2,0.1c-0.5,0.3-1.1,0.6-1.6,0.8
	c-0.4,0.2-0.8,0.4-1.2,0.6c-0.6,0.3-1.2,0.7-1.8,1c-0.3,0.2-0.6,0.3-0.9,0.5c-0.1,0-0.1,0.1-0.2,0.1c-0.9,0.5-1.8,1-2.6,1.6
	c-0.1,0.1-0.2,0.1-0.3,0.2c-0.2,0.1-0.4,0.3-0.7,0.4c-0.6,0.4-1.2,0.8-1.8,1.2c-0.2,0.1-0.4,0.2-0.5,0.3c-0.2,0.1-0.3,0.2-0.5,0.3
	c-0.6,0.4-1.2,0.8-1.8,1.2c-0.2,0.1-0.4,0.3-0.6,0.4c-0.1,0.1-0.2,0.1-0.3,0.2c-0.9,0.6-1.7,1.2-2.5,1.8c0,0,0,0,0,0
	c-0.3,0.2-0.6,0.4-0.9,0.7c-0.4,0.3-0.9,0.7-1.3,1c0,0,0,0-0.1,0.1c-0.3,0.2-0.6,0.4-0.8,0.7c-0.4,0.3-0.8,0.7-1.2,1
	c0,0-0.1,0.1-0.1,0.1c-0.3,0.2-0.5,0.4-0.8,0.7c-0.4,0.3-0.8,0.7-1.2,1c0,0-0.1,0.1-0.1,0.1c-0.2,0.2-0.5,0.4-0.7,0.7
	c-0.4,0.3-0.7,0.7-1.1,1c-0.1,0-0.1,0.1-0.2,0.1c-0.3,0.3-0.6,0.6-1,0.9c-0.2,0.2-0.4,0.4-0.6,0.5c0,0-0.1,0.1-0.1,0.1
	c0,0-0.1,0.1-0.1,0.1c-0.5,0.5-1,1-1.5,1.5c0,0-0.1,0.1-0.1,0.1c0,0,0,0,0,0c-0.5,0.6-1.1,1.1-1.6,1.7c0,0,0,0.1-0.1,0.1
	c-0.2,0.2-0.3,0.4-0.5,0.5c-0.3,0.4-0.6,0.7-0.9,1.1c-0.1,0.1-0.1,0.1-0.1,0.2c-0.2,0.2-0.3,0.4-0.5,0.6c-0.2,0.3-0.5,0.6-0.7,0.9
	c-0.1,0.1-0.2,0.2-0.3,0.4c-0.2,0.2-0.3,0.4-0.5,0.6c-0.2,0.2-0.3,0.4-0.5,0.6c-0.1,0.2-0.3,0.4-0.4,0.5c-0.2,0.2-0.3,0.4-0.5,0.7
	c-0.1,0.1-0.2,0.3-0.3,0.4c-0.2,0.3-0.4,0.5-0.5,0.8c-0.1,0.2-0.3,0.4-0.4,0.6c-0.1,0.1-0.1,0.2-0.2,0.3c-0.3,0.4-0.6,0.9-0.8,1.3
	c0,0.1-0.1,0.2-0.1,0.2c0,0,0,0.1-0.1,0.1c-0.3,0.5-0.6,1.1-1,1.6c0,0-0.1,0.1-0.1,0.2c-0.1,0.1-0.2,0.3-0.2,0.4
	c-0.2,0.4-0.4,0.7-0.6,1.1c-0.1,0.1-0.1,0.2-0.2,0.4c-0.1,0.2-0.2,0.4-0.3,0.6c-0.1,0.2-0.2,0.5-0.3,0.7c-0.1,0.2-0.2,0.4-0.3,0.6
	c-0.1,0.2-0.2,0.4-0.3,0.6c-0.1,0.1-0.1,0.3-0.2,0.4c-0.1,0.3-0.2,0.6-0.4,0.9c-0.1,0.2-0.2,0.4-0.2,0.6c0,0.1-0.1,0.1-0.1,0.2
	c-0.2,0.6-0.4,1.1-0.6,1.7c-0.2,0.6-0.4,1.2-0.5,1.7c0,0.1,0,0.1-0.1,0.2c-0.1,0.2-0.1,0.4-0.1,0.5c-0.1,0.3-0.2,0.6-0.2,0.9
	c0,0.2-0.1,0.3-0.1,0.5c-0.1,0.2-0.1,0.4-0.2,0.7c0,0.2-0.1,0.4-0.1,0.5c-0.1,0.3-0.1,0.6-0.2,0.8c0,0.2-0.1,0.4-0.1,0.6
	c0,0.1,0,0.2,0,0.3c-0.1,0.6-0.2,1.1-0.3,1.7c0,0,0,0.1,0,0.1c0,0,0,0.1,0,0.1c0,0,0,0.1,0,0.1s0,0.1,0,0.1c0,0.2,0,0.4-0.1,0.6
	c0,0.2,0,0.3-0.1,0.5c0,0.1,0,0.1,0,0.2c0,0.1,0,0.1,0,0.2c0,0,0,0.1,0,0.1c0,0.1,0,0.2,0,0.3c0,0.1,0,0.2,0,0.3c0,0.2,0,0.3,0,0.5
	c0,0,0,0.1,0,0.1c0,0,0,0.1,0,0.1c0,0.2,0,0.4,0,0.7c0,0.1,0,0.3,0,0.4c0,0.1,0,0.2,0,0.2c0,0,0,0,0,0.1c0,0,0,0,0,0.1
	c0,0.5,0,1,0,1.5c0.1,3.2,0.2,6.4,0.3,9.7l0.2,5.9c0.3,9.6,0.6,19.6,0.9,29.9l0.1,4.8c0.4,12.6,0.7,25.6,1.1,38.7l0,1.2
	c0.1,4.3,0.2,8.6,0.4,13l0.2,8.3c0.6,22.6,1.3,45.2,1.9,66.7l0.2,6.6c0.2,5.3,0.3,10.5,0.4,15.6l0.2,6.7c0.1,2.1,0.1,4.2,0.2,6.2
	l0.3,9.5c0,0,0,0.1,0,0.1c0,0.3,0,0.7,0.1,1c0,0.5,0,0.9,0.1,1.4c0,0.1,0,0.1,0,0.2c0,0.3,0.1,0.6,0.1,1c0,0.5,0.1,0.9,0.1,1.4
	c0,0.1,0,0.2,0,0.3c0,0.2,0.1,0.4,0.1,0.6c0,0.1,0,0.2,0,0.3c0.1,0.4,0.1,0.9,0.2,1.3c0,0.1,0,0.3,0.1,0.4c0,0.3,0.1,0.5,0.1,0.8
	c0.1,0.4,0.1,0.8,0.2,1.2c0,0.2,0.1,0.4,0.1,0.5c0.1,0.3,0.1,0.5,0.2,0.8c0.1,0.4,0.2,0.7,0.3,1.1c0.1,0.2,0.1,0.4,0.2,0.7
	c0.1,0.2,0.1,0.5,0.2,0.7c0.1,0.3,0.2,0.7,0.3,1c0.1,0.3,0.2,0.5,0.2,0.8c0.1,0.2,0.1,0.4,0.2,0.7c0.1,0.3,0.2,0.6,0.3,0.9
	c0.1,0.3,0.2,0.6,0.3,0.9c0.1,0.2,0.1,0.4,0.2,0.6c0.1,0.3,0.2,0.5,0.3,0.8c0.1,0.4,0.3,0.7,0.4,1c0.1,0.2,0.1,0.3,0.2,0.5
	c0,0,0,0.1,0,0.1c0.1,0.2,0.2,0.5,0.3,0.7c0.1,0.4,0.3,0.7,0.5,1.1c0.1,0.2,0.2,0.4,0.3,0.6c0,0,0,0.1,0,0.1
	c0.1,0.2,0.2,0.3,0.2,0.5c0.2,0.4,0.3,0.7,0.5,1.1c0.1,0.2,0.2,0.5,0.3,0.7c0.1,0.2,0.2,0.4,0.3,0.6c0.2,0.3,0.3,0.7,0.5,1
	c0.1,0.3,0.3,0.5,0.4,0.8c0.1,0.2,0.2,0.4,0.4,0.7c0.2,0.3,0.3,0.5,0.5,0.8c0.2,0.3,0.3,0.6,0.5,0.9c0.1,0.2,0.3,0.5,0.4,0.7
	c0.1,0.1,0.1,0.2,0.2,0.3c0.1,0.1,0.1,0.2,0.2,0.3c0.2,0.3,0.4,0.7,0.6,1c0.2,0.2,0.3,0.5,0.5,0.7c0.1,0.2,0.2,0.4,0.3,0.5
	c0.2,0.4,0.5,0.7,0.7,1.1c0.2,0.3,0.3,0.5,0.5,0.8c0.1,0.1,0.2,0.3,0.3,0.4c0.1,0.1,0.1,0.1,0.1,0.2c0.2,0.3,0.5,0.6,0.7,1
	c0.2,0.3,0.4,0.5,0.6,0.8c0.1,0.1,0.1,0.2,0.2,0.3c0.3,0.4,0.6,0.8,1,1.3c0,0,0.1,0.1,0.1,0.1c0.2,0.2,0.3,0.4,0.4,0.6c0,0,0,0,0,0
	c0,0.1,0.1,0.1,0.1,0.2c0.4,0.4,0.7,0.9,1.1,1.3c0.2,0.3,0.4,0.6,0.7,0.8c0,0,0,0,0,0c0.5,0.5,0.9,1.1,1.4,1.6
	c0.2,0.2,0.3,0.4,0.5,0.5c0,0,0.1,0.1,0.1,0.1c0.2,0.2,0.3,0.4,0.5,0.5c0.5,0.5,0.9,1,1.4,1.5c0.1,0.1,0.1,0.2,0.2,0.2
	c0.2,0.2,0.5,0.5,0.7,0.7c0.4,0.4,0.7,0.8,1.1,1.2c0.1,0.1,0.2,0.2,0.4,0.3c0.3,0.3,0.5,0.5,0.8,0.8c0.3,0.3,0.7,0.7,1,1
	c0.2,0.2,0.3,0.3,0.5,0.5c0.3,0.2,0.5,0.5,0.8,0.7c0.3,0.3,0.6,0.6,0.9,0.9c0.2,0.2,0.4,0.4,0.6,0.6c0.3,0.2,0.5,0.5,0.8,0.7
	c0.3,0.3,0.6,0.5,0.9,0.8c0.3,0.2,0.5,0.4,0.8,0.7c0.3,0.2,0.5,0.4,0.8,0.7c0.3,0.2,0.5,0.4,0.8,0.7c0.3,0.3,0.6,0.5,1,0.8
	c0.2,0.1,0.4,0.3,0.5,0.4c0.1,0.1,0.2,0.1,0.2,0.2c0.2,0.2,0.5,0.4,0.7,0.6c0.4,0.3,0.8,0.6,1.1,0.9c0,0,0,0,0,0
	c0.2,0.2,0.5,0.4,0.7,0.6c0.2,0.2,0.4,0.3,0.6,0.5c0.4,0.3,0.8,0.6,1.2,0.9c0.3,0.2,0.6,0.4,0.9,0.7c0.1,0,0.1,0.1,0.2,0.1
	c0.1,0.1,0.2,0.2,0.4,0.3c0.4,0.3,0.8,0.6,1.2,0.9c0.3,0.2,0.7,0.5,1,0.7c0.2,0.1,0.4,0.3,0.6,0.4c0.1,0.1,0.3,0.2,0.4,0.3
	c0.2,0.2,0.5,0.3,0.7,0.4c0.4,0.3,0.8,0.5,1.2,0.8c0.2,0.1,0.4,0.3,0.7,0.4c0.3,0.2,0.7,0.4,1,0.6c0.2,0.1,0.5,0.3,0.7,0.4
	c0.2,0.1,0.4,0.2,0.6,0.4c0.3,0.2,0.5,0.3,0.8,0.5c0.3,0.2,0.6,0.4,0.9,0.5c0.5,0.3,0.9,0.6,1.4,0.8c0.3,0.2,0.5,0.3,0.8,0.5
	c0.3,0.1,0.5,0.3,0.8,0.4c0.5,0.3,1.1,0.6,1.6,0.9c0.3,0.2,0.6,0.3,0.8,0.5c0.2,0.1,0.4,0.2,0.6,0.3c0.5,0.3,1.1,0.6,1.6,0.9
	c0.5,0.3,1,0.5,1.5,0.8c0.6,0.3,1.1,0.6,1.7,0.9c0.5,0.3,1,0.5,1.5,0.8c0.2,0.1,0.4,0.2,0.6,0.3c0,0,0.1,0,0.1,0.1
	c0.1,0.1,0.3,0.1,0.4,0.2c0.2,0.1,0.5,0.2,0.7,0.3c0.5,0.2,1,0.5,1.5,0.7c0.5,0.2,0.9,0.4,1.4,0.6c0.2,0.1,0.3,0.2,0.5,0.2
	c0.1,0.1,0.3,0.1,0.4,0.2c0.3,0.2,0.7,0.3,1,0.5c0.6,0.3,1.3,0.6,1.9,0.8c0.5,0.2,1,0.4,1.5,0.6c0.7,0.3,1.5,0.6,2.2,0.9
	c0.4,0.2,0.8,0.3,1.3,0.5c0.2,0.1,0.5,0.2,0.7,0.3c0.1,0,0.2,0.1,0.3,0.1c0.3,0.1,0.6,0.2,0.9,0.4c0.4,0.1,0.7,0.3,1.1,0.4
	c0.2,0.1,0.3,0.1,0.5,0.2c0.3,0.1,0.5,0.2,0.8,0.3c0.2,0.1,0.4,0.1,0.6,0.2c0.3,0.1,0.6,0.2,0.9,0.3c0.4,0.2,0.9,0.3,1.3,0.5
	c0.3,0.1,0.6,0.2,1,0.3c0.2,0.1,0.5,0.2,0.7,0.3c0.3,0.1,0.5,0.2,0.8,0.3c0.4,0.1,0.8,0.3,1.2,0.4c0.4,0.1,0.8,0.3,1.2,0.4
	c0.3,0.1,0.6,0.2,0.9,0.3c0.2,0.1,0.4,0.1,0.6,0.2c0.4,0.1,0.7,0.2,1.1,0.3c0.5,0.1,0.9,0.3,1.4,0.4c0.3,0.1,0.7,0.2,1,0.3
	c0.2,0.1,0.3,0.1,0.5,0.2c0.3,0.1,0.6,0.2,0.9,0.3c0.4,0.1,0.8,0.2,1.2,0.4c0.3,0.1,0.7,0.2,1,0.3c0.2,0.1,0.4,0.1,0.6,0.2
	c0.3,0.1,0.7,0.2,1,0.3c0.1,0,0.3,0.1,0.4,0.1c0.3,0.1,0.5,0.1,0.8,0.2c0.3,0.1,0.6,0.2,0.9,0.3c0.2,0.1,0.4,0.1,0.6,0.2
	c0.2,0.1,0.4,0.1,0.6,0.2c0.2,0,0.4,0.1,0.6,0.1c0.4,0.1,0.8,0.2,1.2,0.3c0.2,0.1,0.5,0.1,0.7,0.2c0.2,0.1,0.5,0.1,0.7,0.2
	c0.4,0.1,0.9,0.2,1.3,0.3c0.4,0.1,0.8,0.2,1.2,0.3c0.2,0,0.4,0.1,0.6,0.1c0.3,0.1,0.5,0.1,0.8,0.2c0.5,0.1,1,0.2,1.5,0.3
	c0.3,0.1,0.7,0.2,1,0.2c0.1,0,0.2,0,0.3,0.1c0.3,0.1,0.7,0.1,1,0.2c0.6,0.1,1.1,0.2,1.7,0.4c0.1,0,0.2,0,0.3,0.1
	c0.4,0.1,0.7,0.2,1.1,0.2c0.2,0,0.5,0.1,0.7,0.1c0.6,0.1,1.2,0.2,1.8,0.4c0.2,0,0.4,0.1,0.7,0.1c0.1,0,0.2,0,0.2,0
	c0.5,0.1,0.9,0.2,1.4,0.3c0.5,0.1,1.1,0.2,1.6,0.3c0.1,0,0.3,0.1,0.4,0.1c0.2,0,0.4,0.1,0.6,0.1c0.5,0.1,1,0.2,1.6,0.3
	c0.4,0.1,0.8,0.1,1.3,0.2c0.1,0,0.1,0,0.2,0c0.3,0.1,0.6,0.1,1,0.2c0.6,0.1,1.2,0.2,1.8,0.3c0.2,0,0.3,0.1,0.5,0.1
	c0.5,0.1,1.1,0.2,1.6,0.2c0,0,0.1,0,0.1,0c0.6,0.1,1.2,0.2,1.7,0.3c0.1,0,0.3,0,0.4,0.1c0.1,0,0.2,0,0.3,0c0.6,0.1,1.2,0.2,1.7,0.2
	c0.1,0,0.2,0,0.2,0c0.5,0.1,0.9,0.1,1.4,0.2c0,0,0,0,0,0c0.2,0,0.4,0,0.6,0.1c0.6,0.1,1.2,0.1,1.8,0.2c0.4,0,0.8,0.1,1.3,0.1
	c0.1,0,0.2,0,0.2,0c0.3,0,0.6,0.1,0.9,0.1c0.5,0.1,1,0.1,1.5,0.2c0.3,0,0.6,0.1,0.9,0.1c0.2,0,0.5,0,0.7,0.1c0.4,0,0.8,0.1,1.2,0.1
	c0.4,0,0.8,0.1,1.2,0.1c0.2,0,0.4,0,0.6,0.1c0.4,0,0.8,0.1,1.2,0.1c0.5,0,0.9,0.1,1.4,0.1c0.3,0,0.5,0,0.8,0.1c0.1,0,0.2,0,0.3,0
	c0.6,0,1.2,0.1,1.8,0.1c0.5,0,1,0.1,1.5,0.1c0.1,0,0.3,0,0.4,0c0,0,0,0,0.1,0c1.1,0.1,2.3,0.1,3.4,0.2c0.1,0,0.3,0,0.4,0
	c0,0,0,0,0,0c0.1,0,0.1,0,0.2,0c0.4,0,0.9,0,1.3,0c0.8,0,1.6,0.1,2.4,0.1c0.1,0,0.3,0,0.4,0c0.1,0,0.3,0,0.4,0c0.4,0,0.8,0,1.2,0
	c0.6,0,1.2,0,1.8,0c0.1,0,0.2,0,0.4,0c0.1,0,0.2,0,0.4,0c0.1,0,0.2,0,0.4,0c0.1,0,0.2,0,0.4,0c1.2,0,2.5,0,3.7,0c0.1,0,0.2,0,0.2,0
	c0.1,0,0.3,0,0.4,0c0.4,0,0.8,0,1.2,0c0.6,0,1.2,0,1.8,0c0.2,0,0.3,0,0.5,0c0.3,0,0.6,0,0.9,0c0.4,0,0.8,0,1.2,0c0.4,0,0.7,0,1.1,0
	c0.2,0,0.5,0,0.7,0c0.4,0,0.9,0,1.3,0c0.4,0,0.7,0,1.1,0c0.2,0,0.3,0,0.5,0c0.3,0,0.5,0,0.8,0c0.6,0,1.3-0.1,1.9-0.1
	c0.4,0,0.9,0,1.3-0.1c0.1,0,0.3,0,0.4,0c0.2,0,0.4,0,0.6,0c0.6,0,1.3-0.1,1.9-0.1c0.5,0,1-0.1,1.5-0.1c0.1,0,0.3,0,0.4,0
	c0.1,0,0.3,0,0.4,0c0.6,0,1.3-0.1,1.9-0.2c0.6,0,1.1-0.1,1.7-0.1c0.1,0,0.2,0,0.4,0c0.1,0,0.1,0,0.2,0c0.7-0.1,1.3-0.1,2-0.2
	c0.6-0.1,1.2-0.1,1.8-0.2c0,0,0,0,0.1,0c0.1,0,0.2,0,0.3,0c0,0,0,0,0,0c0.7-0.1,1.4-0.2,2-0.2c0.6-0.1,1.1-0.1,1.7-0.2
	c0.4,0,0.7-0.1,1.1-0.1c0.1,0,0.3,0,0.4,0c0.3,0,0.5-0.1,0.8-0.1c0.2,0,0.3,0,0.5-0.1c0.5-0.1,0.9-0.1,1.4-0.2
	c0.6-0.1,1.2-0.2,1.8-0.3c0.2,0,0.5-0.1,0.7-0.1c0.2,0,0.3-0.1,0.5-0.1c0.3,0,0.6-0.1,1-0.1c0.4-0.1,0.8-0.1,1.2-0.2
	c0.7-0.1,1.5-0.2,2.2-0.4c0.1,0,0.1,0,0.2,0c0,0,0,0,0,0c0.1,0,0.2,0,0.4-0.1c0.5-0.1,1.1-0.2,1.6-0.3c0.8-0.1,1.6-0.3,2.4-0.4
	c0.2,0,0.4-0.1,0.6-0.1c0,0,0,0,0.1,0c0.3-0.1,0.6-0.1,1-0.2c0,0,0.1,0,0.1,0c0.7-0.1,1.5-0.3,2.2-0.4c0.3-0.1,0.5-0.1,0.8-0.2
	c0.3-0.1,0.7-0.1,1-0.2c0.7-0.1,1.4-0.3,2.1-0.4c0.3-0.1,0.7-0.1,1-0.2c0.1,0,0.1,0,0.2,0c0.2-0.1,0.5-0.1,0.7-0.2
	c0.3-0.1,0.6-0.1,0.9-0.2c0.4-0.1,0.7-0.2,1.1-0.3c0.4-0.1,0.8-0.2,1.2-0.3c0.2-0.1,0.5-0.1,0.7-0.2c0.6-0.2,1.3-0.3,1.9-0.5
	c0.3-0.1,0.7-0.2,1-0.3c0.1,0,0.2-0.1,0.3-0.1c0.1,0,0.2-0.1,0.3-0.1c0.1,0,0.1,0,0.2-0.1c0.6-0.2,1.3-0.4,1.9-0.5
	c0.5-0.1,0.9-0.3,1.4-0.4c0.8-0.2,1.6-0.5,2.5-0.7c0.4-0.1,0.8-0.2,1.2-0.3c0.2-0.1,0.4-0.1,0.5-0.2c0.1,0,0.1,0,0.2-0.1
	c0.3-0.1,0.6-0.2,0.9-0.3c0.5-0.2,1.1-0.3,1.6-0.5c0.1,0,0.2-0.1,0.4-0.1c0.2-0.1,0.4-0.1,0.6-0.2c0.4-0.1,0.8-0.3,1.3-0.4
	c0.5-0.2,1.1-0.4,1.6-0.6c0.3-0.1,0.5-0.2,0.8-0.3c0.2-0.1,0.3-0.1,0.5-0.2c0.2-0.1,0.4-0.2,0.6-0.2c0.5-0.2,1-0.4,1.5-0.5
	c0.4-0.2,0.9-0.3,1.3-0.5c0.3-0.1,0.7-0.3,1-0.4c0.4-0.1,0.7-0.3,1.1-0.4c0.5-0.2,0.9-0.4,1.4-0.6c0.6-0.3,1.3-0.5,1.9-0.8
	c0.5-0.2,1-0.4,1.5-0.6c0.5-0.2,1-0.4,1.5-0.6c0.2-0.1,0.4-0.2,0.6-0.2c0.4-0.2,0.8-0.3,1.2-0.5c0.6-0.3,1.2-0.5,1.7-0.8
	c0.1,0,0.2-0.1,0.2-0.1c0.1-0.1,0.3-0.1,0.4-0.2c0,0,0,0,0.1,0c0.2-0.1,0.5-0.2,0.7-0.3c0.6-0.3,1.1-0.5,1.7-0.8
	c0.4-0.2,0.8-0.4,1.1-0.5c0.1-0.1,0.2-0.1,0.3-0.2c0.5-0.3,1.1-0.5,1.6-0.8c0.4-0.2,0.9-0.4,1.3-0.7c0.1-0.1,0.2-0.1,0.4-0.2
	c0,0,0,0,0.1,0c0.1-0.1,0.3-0.1,0.4-0.2c0.3-0.2,0.6-0.3,1-0.5c0.4-0.2,0.8-0.4,1.1-0.6c0.2-0.1,0.4-0.2,0.6-0.4
	c0.3-0.2,0.7-0.4,1-0.6c0.3-0.2,0.6-0.4,1-0.5c0.2-0.1,0.4-0.2,0.5-0.3c0.2-0.1,0.5-0.3,0.7-0.4c0.2-0.1,0.4-0.2,0.6-0.3
	c0.2-0.1,0.3-0.2,0.4-0.3c0.3-0.1,0.5-0.3,0.8-0.4c0.3-0.2,0.6-0.4,0.9-0.6c0.1,0,0.1-0.1,0.2-0.1c0.3-0.2,0.6-0.4,1-0.6
	c0.2-0.1,0.4-0.3,0.6-0.4c0.3-0.2,0.7-0.4,1-0.7c0.3-0.2,0.5-0.3,0.8-0.5c0.1-0.1,0.2-0.1,0.3-0.2c0,0,0,0,0,0
	c0.2-0.1,0.4-0.2,0.5-0.4c0.1-0.1,0.3-0.2,0.4-0.3c0.2-0.1,0.4-0.3,0.7-0.5c0.4-0.3,0.7-0.5,1.1-0.8c0.2-0.1,0.3-0.2,0.5-0.3
	c0.3-0.2,0.6-0.5,1-0.7c0.4-0.3,0.8-0.6,1.2-0.8c0.1-0.1,0.2-0.1,0.3-0.2c0.1-0.1,0.2-0.1,0.2-0.2c0.2-0.2,0.5-0.4,0.7-0.5
	c0.4-0.3,0.8-0.6,1.2-1c0.2-0.2,0.4-0.3,0.6-0.5c0.2-0.1,0.4-0.3,0.5-0.4c0.5-0.4,0.9-0.7,1.4-1.1c0.2-0.1,0.4-0.3,0.5-0.4
	c0,0,0,0,0.1-0.1c0.1-0.1,0.2-0.2,0.3-0.3c0.5-0.4,0.9-0.8,1.4-1.2c0.3-0.2,0.6-0.5,0.8-0.7c0.5-0.5,1-0.9,1.6-1.4
	c0.2-0.2,0.4-0.3,0.6-0.5c0,0,0.1,0,0.1-0.1c0,0,0,0,0,0c0,0,0,0,0,0c0.6-0.6,1.3-1.2,1.9-1.8c0.2-0.2,0.3-0.3,0.5-0.5
	c0.1-0.1,0.2-0.2,0.3-0.3c0.1-0.1,0.2-0.2,0.4-0.4c0.3-0.3,0.6-0.6,0.9-0.9c0.3-0.3,0.5-0.6,0.8-0.8c0,0,0.1-0.1,0.1-0.1
	c0.1-0.1,0.2-0.3,0.4-0.4c0-0.1,0.1-0.1,0.1-0.2c0.2-0.2,0.3-0.3,0.5-0.5c0.3-0.3,0.5-0.6,0.8-0.9c0.3-0.3,0.6-0.7,0.9-1
	c0,0,0.1-0.1,0.1-0.1c0,0,0.1-0.1,0.1-0.1c0.2-0.3,0.5-0.6,0.7-0.8c0.3-0.4,0.6-0.8,0.9-1.1c0.1-0.2,0.3-0.4,0.4-0.5
	c0,0,0,0,0.1-0.1c0.1-0.1,0.2-0.3,0.3-0.4c0.1-0.2,0.3-0.3,0.4-0.5c0.2-0.2,0.3-0.4,0.4-0.6c0.2-0.2,0.3-0.4,0.5-0.6
	c0,0,0.1-0.1,0.1-0.1c0.1-0.1,0.1-0.2,0.2-0.3c0.3-0.4,0.5-0.7,0.8-1.1c0.2-0.3,0.4-0.5,0.5-0.8c0,0,0.1-0.1,0.1-0.1
	c0-0.1,0.1-0.1,0.1-0.2c0.3-0.4,0.5-0.8,0.8-1.2c0.2-0.3,0.4-0.5,0.5-0.8c0-0.1,0.1-0.1,0.1-0.2c0,0,0,0,0,0
	c0.3-0.5,0.6-0.9,0.8-1.4c0.1-0.2,0.2-0.4,0.4-0.6c0-0.1,0.1-0.2,0.1-0.2c0,0,0-0.1,0.1-0.1c0.1-0.3,0.3-0.5,0.4-0.8
	c0.2-0.4,0.4-0.7,0.6-1.1c0,0,0,0,0,0c0,0,0-0.1,0.1-0.1c0,0,0-0.1,0.1-0.1c0.1-0.3,0.3-0.5,0.4-0.8c0.2-0.4,0.4-0.8,0.6-1.2
	c0-0.1,0.1-0.1,0.1-0.2c0,0,0,0,0,0c0.1-0.3,0.2-0.5,0.4-0.8c0.2-0.4,0.4-0.8,0.6-1.2c0-0.1,0.1-0.1,0.1-0.2c0,0,0,0,0-0.1
	c0.1-0.2,0.2-0.4,0.3-0.7c0,0,0,0,0-0.1c0.2-0.4,0.3-0.8,0.5-1.2c0-0.1,0.1-0.1,0.1-0.2c0,0,0-0.1,0.1-0.1c0.1-0.2,0.2-0.5,0.3-0.7
	c0,0,0,0,0-0.1c0.1-0.3,0.2-0.6,0.4-0.9c0,0,0-0.1,0.1-0.1c0-0.1,0.1-0.2,0.1-0.3c0.1-0.3,0.2-0.6,0.3-0.9c0.1-0.3,0.2-0.5,0.3-0.8
	c0,0,0-0.1,0-0.1c0.1-0.2,0.1-0.3,0.2-0.5c0.1-0.3,0.2-0.6,0.3-0.9c0.1-0.2,0.1-0.4,0.2-0.6c0,0,0,0,0,0c0.1-0.2,0.1-0.5,0.2-0.7
	c0.1-0.3,0.2-0.6,0.2-0.9c0-0.1,0.1-0.3,0.1-0.4c0,0,0,0,0,0c0-0.2,0.1-0.4,0.1-0.5c0-0.2,0.1-0.3,0.1-0.5c0.1-0.2,0.1-0.5,0.2-0.7
	c0-0.1,0-0.1,0-0.2c0-0.1,0-0.1,0-0.2c0.1-0.3,0.1-0.5,0.2-0.8c0.1-0.4,0.1-0.7,0.2-1.1c0,0,0,0,0,0c0-0.1,0-0.2,0-0.3
	c0-0.3,0.1-0.6,0.1-0.8c0-0.3,0.1-0.6,0.1-0.9c0-0.1,0-0.2,0-0.3c0-0.1,0-0.2,0-0.4c0-0.2,0-0.4,0.1-0.7c0-0.2,0.1-0.5,0.1-0.7
	c0-0.1,0-0.2,0-0.2s0-0.2,0-0.2c0-0.1,0-0.2,0-0.2C660.1,705.8,660.1,705.7,660.1,705.6C660.1,705.6,660.1,705.6,660.1,705.6z"/>
</svg>
