<?xml version="1.0" encoding="utf-8"?>
<!-- Generator: Adobe Illustrator 23.0.5, SVG Export Plug-In . SVG Version: 6.00 Build 0)  -->
<svg version="1.1" id="Capa_1" xmlns="http://www.w3.org/2000/svg" xmlns:xlink="http://www.w3.org/1999/xlink" x="0px" y="0px"
	 viewBox="0 0 1000 1000" style="enable-background:new 0 0 1000 1000;" xml:space="preserve">
<style type="text/css">
	.st0{fill:none;}
	.st1{fill:#0006DF;}
</style>
<rect class="st0" width="1000" height="1000"/>
<path class="st1" d="M859.9,504.8c0.2-1.1,0.3-2.3,0.4-3.4c0-0.2,0-0.3,0-0.5c0.2-2.3,0.3-4.7,0.4-7c0-0.1,0-0.2,0-0.3
	c0-0.1,0-0.1,0-0.2c0-1.1,0-2.3,0-3.4c0-0.1,0-0.3,0-0.4c0-1.2-0.1-2.3-0.2-3.5l0,0c-0.1-1.2-0.2-2.3-0.3-3.5c0-0.2,0-0.3-0.1-0.5
	c-0.1-1.2-0.3-2.3-0.5-3.5c0,0,0,0,0-0.1s0-0.1,0-0.2c-0.2-1.1-0.4-2.2-0.6-3.3c0-0.1,0-0.3-0.1-0.4c-0.2-1.1-0.5-2.3-0.7-3.4
	c0-0.2-0.1-0.4-0.1-0.6c-0.5-2.3-1.2-4.6-1.9-6.9c0-0.1-0.1-0.2-0.1-0.4c0-0.1-0.1-0.2-0.1-0.3c-0.4-1.1-0.7-2.2-1.1-3.3
	c-0.1-0.2-0.1-0.3-0.2-0.5c-0.4-1-0.8-2-1.2-3.1c-0.1-0.2-0.1-0.3-0.2-0.5c-0.4-1.1-0.9-2.2-1.4-3.3c-0.1-0.2-0.2-0.5-0.3-0.7
	c-0.5-1.1-1-2.2-1.5-3.4c-0.7-1.4-1.3-2.7-2.1-4.1c-0.1-0.2-0.2-0.4-0.3-0.7c-0.7-1.3-1.4-2.6-2.1-3.9c-0.1-0.2-0.3-0.5-0.4-0.7
	c-0.8-1.3-1.5-2.6-2.4-3.9c-0.1-0.1-0.1-0.2-0.2-0.3c-0.8-1.3-1.7-2.6-2.5-3.9c-0.1-0.1-0.1-0.2-0.2-0.3c-0.9-1.3-1.8-2.6-2.7-3.9
	c-0.1-0.2-0.3-0.4-0.4-0.6c-0.9-1.3-1.9-2.5-2.9-3.8c-0.1-0.1-0.2-0.3-0.3-0.4c-2.1-2.6-4.2-5.2-6.5-7.8c-0.1-0.1-0.2-0.2-0.3-0.4
	c-1.1-1.2-2.3-2.5-3.4-3.7c-0.1-0.1-0.3-0.3-0.4-0.4c-0.4-0.4-0.7-0.8-1.1-1.1c-0.4-0.4-0.8-0.8-1.2-1.2c-0.8-0.8-1.6-1.6-2.3-2.4
	c-0.6-0.6-1.3-1.3-2-1.9c-0.8-0.8-1.7-1.6-2.5-2.4c-0.7-0.6-1.3-1.2-2-1.8c-0.9-0.8-1.8-1.6-2.7-2.4c-0.6-0.6-1.2-1.1-1.9-1.7
	c-1.1-0.9-2.2-1.9-3.3-2.8c-0.5-0.4-1-0.8-1.5-1.3c-1.6-1.3-3.3-2.7-5-4c-0.3-0.2-0.5-0.4-0.8-0.6c-1.3-1-2.6-2-3.9-3
	c-0.2-0.1-0.3-0.2-0.5-0.3c-0.5-0.4-1.1-0.8-1.6-1.2c-1.2-0.9-2.4-1.7-3.6-2.6c-0.7-0.5-1.4-0.9-2-1.4c-0.2-0.1-0.4-0.3-0.6-0.4
	c7.4-39.4,13.5-78.9,13.5-119.4c0.1-0.4,0.1-0.8,0.2-1.3c0-0.2,0-0.3,0.1-0.5c0.1-0.8,0.1-1.6,0.2-2.4c0-0.2,0-0.5,0-0.7
	c0-0.7,0-1.4,0-2.1c0-0.2,0-0.3,0-0.5v-0.1c0-0.8-0.1-1.6-0.1-2.3c0-0.2,0-0.5-0.1-0.7c-0.1-0.7-0.2-1.4-0.3-2.1
	c0-0.2,0-0.3-0.1-0.5c-0.1-0.7-0.2-1.4-0.4-2c0-0.2-0.1-0.3-0.1-0.5s-0.1-0.4-0.1-0.7c-0.2-0.7-0.4-1.5-0.6-2.2
	c0-0.1-0.1-0.2-0.1-0.4c-0.2-0.8-0.5-1.7-0.8-2.5c-0.1-0.2-0.2-0.4-0.2-0.7c-0.1-0.3-0.2-0.5-0.3-0.8c-0.2-0.5-0.4-1.1-0.6-1.6
	c0-0.1-0.1-0.1-0.1-0.2c-0.4-0.9-0.7-1.7-1.1-2.6c-0.1-0.2-0.2-0.4-0.3-0.6c-0.4-0.9-0.9-1.7-1.3-2.6c-0.6-1-1.2-2.1-1.8-3.1
	c-0.2-0.3-0.4-0.7-0.6-1c-0.4-0.7-0.9-1.4-1.3-2c-0.3-0.4-0.5-0.8-0.8-1.2c-0.4-0.6-0.9-1.2-1.3-1.9c-0.3-0.4-0.6-0.8-0.9-1.2
	c-0.5-0.6-1-1.2-1.4-1.8c-0.3-0.4-0.6-0.8-1-1.2c-0.5-0.6-1.1-1.2-1.6-1.9c-0.3-0.4-0.6-0.7-1-1.1c-0.8-0.8-1.5-1.6-2.3-2.5
	c-0.2-0.2-0.4-0.4-0.6-0.6c-0.9-0.9-1.7-1.7-2.7-2.6c-0.4-0.4-0.8-0.7-1.2-1.1c-0.6-0.6-1.3-1.2-1.9-1.7c-0.2-0.1-0.3-0.3-0.5-0.4
	c-0.3-0.3-0.6-0.5-0.9-0.8c-0.6-0.5-1.2-1-1.8-1.6c-0.5-0.4-1-0.8-1.5-1.2c-0.6-0.5-1.3-1-2-1.5c-0.5-0.4-1-0.8-1.5-1.1
	c-0.7-0.5-1.4-1.1-2.1-1.6c-0.5-0.3-0.9-0.7-1.4-1c-0.8-0.6-1.7-1.2-2.6-1.8c-0.4-0.3-0.8-0.5-1.2-0.8c-1.3-0.9-2.6-1.7-3.9-2.5
	c-0.2-0.1-0.4-0.3-0.6-0.4c-1-0.6-2-1.3-3-1.9c-0.1-0.1-0.3-0.2-0.4-0.2c-0.4-0.3-0.9-0.5-1.3-0.8c-0.9-0.6-1.9-1.1-2.8-1.7
	c-0.5-0.3-1.1-0.6-1.6-0.9c-0.9-0.5-1.8-1-2.7-1.5c-0.3-0.2-0.6-0.3-0.9-0.5c-0.3-0.1-0.6-0.3-0.8-0.4c-0.9-0.5-1.7-0.9-2.6-1.4
	c-0.6-0.3-1.2-0.6-1.8-0.9c-0.9-0.5-1.9-1-2.9-1.4c-0.5-0.3-1.1-0.5-1.6-0.8c-1.4-0.7-2.9-1.4-4.3-2.1c-0.4-0.2-0.8-0.4-1.2-0.6
	c-1.2-0.6-2.4-1.1-3.7-1.7c-0.6-0.3-1.3-0.6-1.9-0.9c-1-0.4-1.9-0.9-2.9-1.3c-0.7-0.3-1.4-0.6-2.1-0.9c-0.9-0.4-1.9-0.8-2.8-1.2
	c-0.7-0.3-1.5-0.6-2.2-0.9c-1-0.4-1.9-0.8-2.9-1.2c-0.7-0.3-1.5-0.6-2.2-0.9c-1-0.4-2.1-0.8-3.1-1.2c-0.5-0.2-1-0.4-1.6-0.6
	c-0.2-0.1-0.3-0.1-0.5-0.2c-1.3-0.5-2.5-0.9-3.8-1.4c-0.5-0.2-0.9-0.3-1.4-0.5c-1.7-0.6-3.5-1.2-5.3-1.8c-0.5-0.2-1-0.3-1.5-0.5
	c-1.3-0.4-2.6-0.9-3.9-1.3c-0.7-0.2-1.3-0.4-2-0.6c-0.8-0.3-1.6-0.5-2.5-0.8c-0.4-0.1-0.7-0.2-1.1-0.3c-0.7-0.2-1.4-0.4-2.1-0.7
	c-1.2-0.4-2.3-0.7-3.5-1.1c-0.7-0.2-1.5-0.4-2.2-0.7c-1.2-0.3-2.4-0.7-3.5-1c-0.7-0.2-1.5-0.4-2.2-0.6c-1.3-0.4-2.6-0.7-3.9-1.1
	c-0.6-0.2-1.3-0.3-1.9-0.5c-1.9-0.5-3.8-1-5.7-1.5c-0.1,0-0.1,0-0.2-0.1c-0.3-0.1-0.7-0.2-1-0.2c-1.8-0.4-3.5-0.9-5.3-1.3
	c-0.3-0.1-0.6-0.2-1-0.2c-0.5-0.1-0.9-0.2-1.4-0.3c-1.5-0.4-3-0.7-4.5-1c-0.5-0.1-1-0.2-1.5-0.3c-0.3-0.1-0.5-0.1-0.8-0.2
	c-2.1-0.5-4.3-1-6.4-1.4c-0.1,0-0.1,0-0.2,0c-0.4-0.1-0.8-0.2-1.1-0.2c-1.8-0.4-3.6-0.8-5.4-1.1c-0.3-0.1-0.6-0.1-1-0.2
	c-0.6-0.1-1.3-0.2-1.9-0.4c-0.9-0.2-1.9-0.4-2.8-0.5c-0.4-0.1-0.9-0.2-1.3-0.3c-0.6-0.1-1.1-0.2-1.7-0.3c-1-0.2-1.9-0.4-2.9-0.5
	c-0.5-0.1-0.9-0.2-1.4-0.3s-1-0.2-1.6-0.3c-1-0.2-2-0.4-3-0.5c-0.5-0.1-1-0.2-1.5-0.3s-0.9-0.2-1.4-0.2c-1-0.2-2.1-0.3-3.1-0.5
	c-0.5-0.1-1.1-0.2-1.6-0.3s-0.9-0.1-1.4-0.2c-0.8-0.1-1.7-0.3-2.5-0.4c-0.5-0.1-1.1-0.2-1.6-0.2c-0.5-0.1-1.1-0.2-1.6-0.2
	c-0.5-0.1-0.9-0.1-1.4-0.2c-0.2,0-0.4-0.1-0.6-0.1c-0.6-0.1-1.3-0.2-1.9-0.3c-1.8-0.3-3.7-0.5-5.6-0.8c-1-0.1-2.1-0.3-3.1-0.4
	c-0.4,0-0.7-0.1-1.1-0.1c-0.4-0.1-0.9-0.1-1.3-0.2c-1.7-0.2-3.5-0.4-5.2-0.6c-1.7-0.2-3.4-0.4-5.1-0.6l0,0c-0.1,0-0.1,0-0.2,0
	c-1.7-0.2-3.5-0.4-5.3-0.6c-1.8-0.2-3.5-0.4-5.3-0.5c-0.4,0-0.8-0.1-1.2-0.1c-0.2,0-0.4,0-0.6-0.1c-1.1-0.1-2.1-0.2-3.2-0.3
	c-1.7-0.1-3.4-0.3-5.1-0.4c-1.1-0.1-2.2-0.2-3.3-0.3c-0.2,0-0.4,0-0.6,0c-0.4,0-0.8-0.1-1.3-0.1c-1.7-0.1-3.4-0.2-5.2-0.4
	c-1.7-0.1-3.4-0.2-5.1-0.3c-0.2,0-0.4,0-0.6,0c-0.1,0-0.2,0-0.2,0c-1.4-0.1-2.9-0.2-4.3-0.2c-1.7-0.1-3.5-0.2-5.2-0.3
	c-0.9,0-1.7-0.1-2.6-0.1c-0.3,0-0.6,0-0.9,0c-0.6,0-1.2-0.1-1.8-0.1c-1.8-0.1-3.5-0.1-5.3-0.2s-3.6-0.1-5.3-0.1
	c-1.8,0-3.6-0.1-5.4-0.1s-3.6-0.1-5.4-0.1c-0.2,0-0.3,0-0.5,0s-0.3,0-0.5,0s-0.3,0-0.5,0s-0.3,0-0.5,0c-1.7,0-3.5,0-5.2,0
	c-0.2,0-0.5,0-0.7,0c-0.6,0-1.2,0-1.8,0c-0.9,0-1.8,0-2.6,0c-0.5,0-1,0-1.6,0s-1.3,0-1.9,0c-0.5,0-1.1,0-1.6,0c-0.9,0-1.8,0-2.6,0
	c-0.5,0-1.1,0-1.6,0c-0.3,0-0.6,0-0.8,0c-1,0-1.9,0.1-2.9,0.1c-0.9,0-1.7,0-2.6,0.1c-0.3,0-0.5,0-0.8,0c-1,0-2,0.1-3,0.1
	c-0.8,0-1.6,0.1-2.4,0.1c-0.3,0-0.5,0-0.8,0c-1.1,0-2.1,0.1-3.2,0.1c-0.7,0-1.5,0.1-2.2,0.1c-0.3,0-0.5,0-0.8,0
	c-1.1,0.1-2.2,0.1-3.3,0.2c-0.7,0-1.4,0.1-2.1,0.1c-0.3,0-0.5,0-0.8,0c-0.7,0-1.4,0.1-2.1,0.1c-1.3,0.1-2.7,0.2-4,0.3
	c-0.4,0-0.8,0-1.2,0.1c-0.6,0-1.1,0.1-1.7,0.1c-1.3,0.1-2.5,0.2-3.8,0.3c-0.6,0-1.1,0.1-1.7,0.1c-0.4,0-0.8,0.1-1.2,0.1
	c-1.4,0.1-2.7,0.2-4,0.3c-0.6,0.1-1.3,0.1-1.9,0.2c-0.2,0-0.4,0-0.6,0.1c-2.1,0.2-4.2,0.4-6.3,0.6h-0.1c-1.1,0.1-2.1,0.2-3.1,0.3
	c-0.9,0.1-1.8,0.2-2.6,0.3c-0.9,0.1-1.9,0.2-2.8,0.3c-1,0.1-2,0.2-3,0.4c-0.1,0-0.2,0-0.3,0c-0.8,0.1-1.5,0.2-2.3,0.3
	c-1.1,0.1-2.1,0.3-3.2,0.4c-0.8,0.1-1.7,0.2-2.5,0.3c-0.9,0.1-1.8,0.2-2.7,0.4c-0.2,0-0.3,0-0.5,0.1c-0.2,0-0.3,0-0.5,0.1
	c-0.7,0.1-1.5,0.2-2.2,0.3c-1,0.1-2,0.3-3,0.4c-0.9,0.1-1.8,0.3-2.7,0.4c-1,0.2-1.9,0.3-2.9,0.5c-0.2,0-0.4,0.1-0.6,0.1
	c-0.7,0.1-1.4,0.2-2.1,0.4c-0.9,0.2-1.8,0.3-2.7,0.5c-1,0.2-1.9,0.3-2.9,0.5c-0.9,0.2-1.7,0.3-2.6,0.5c-0.3,0.1-0.6,0.1-0.8,0.2
	c-0.6,0.1-1.2,0.2-1.7,0.3c-1.1,0.2-2.1,0.4-3.2,0.6c-0.9,0.2-1.7,0.3-2.6,0.5c-1,0.2-2,0.4-3.1,0.6c-0.5,0.1-1,0.2-1.5,0.3
	c-0.4,0.1-0.7,0.2-1.1,0.2c-1,0.2-2,0.4-3,0.7c-0.8,0.2-1.7,0.4-2.5,0.6c-1.1,0.2-2.1,0.5-3.2,0.7c-0.6,0.1-1.3,0.3-1.9,0.4
	c-0.1,0-0.3,0.1-0.4,0.1c-1.7,0.4-3.4,0.8-5.1,1.3c-0.6,0.1-1.1,0.3-1.7,0.4c-1.2,0.3-2.5,0.7-3.7,1c-0.2,0-0.3,0.1-0.5,0.1
	c-0.5,0.1-1.1,0.3-1.6,0.4c-1.1,0.3-2.1,0.6-3.1,0.9c-0.7,0.2-1.4,0.4-2.1,0.6c-1,0.3-2,0.6-3,0.9c-0.3,0.1-0.7,0.2-1.1,0.3
	s-0.7,0.2-1.1,0.3c-0.9,0.3-1.7,0.5-2.6,0.8c-0.7,0.2-1.4,0.5-2.2,0.7c-0.9,0.3-1.7,0.6-2.6,0.9c-0.4,0.1-0.9,0.3-1.3,0.4
	c-0.2,0.1-0.5,0.2-0.7,0.3c-0.3,0.1-0.6,0.2-0.8,0.3c-0.6,0.2-1.1,0.4-1.7,0.6c-0.7,0.2-1.4,0.5-2.1,0.7c-0.8,0.3-1.6,0.6-2.5,0.9
	c-0.5,0.2-1,0.4-1.5,0.6c-0.2,0.1-0.3,0.1-0.5,0.2c-0.8,0.3-1.6,0.6-2.4,0.9c-0.7,0.3-1.4,0.5-2,0.8c-0.8,0.3-1.5,0.6-2.3,0.9
	c-0.6,0.2-1.2,0.5-1.7,0.7c-0.1,0-0.2,0.1-0.3,0.1c-0.7,0.3-1.5,0.6-2.2,0.9c-0.7,0.3-1.4,0.6-2,0.9c-0.7,0.3-1.4,0.6-2,0.9
	c-0.7,0.3-1.3,0.6-2,0.9c-0.1,0-0.2,0.1-0.2,0.1c-1.4,0.6-2.8,1.3-4.1,2c-0.2,0.1-0.3,0.1-0.5,0.2c-0.4,0.2-0.7,0.4-1.1,0.6
	c-0.9,0.5-1.9,0.9-2.8,1.4c-0.3,0.1-0.6,0.3-0.8,0.4c-0.3,0.1-0.5,0.3-0.8,0.4c-0.9,0.5-1.8,0.9-2.7,1.4c-0.3,0.2-0.7,0.4-1,0.6
	c-0.1,0.1-0.3,0.2-0.4,0.3c-1.2,0.7-2.4,1.4-3.6,2.1c-0.1,0.1-0.2,0.1-0.3,0.2c-0.6,0.3-1.1,0.7-1.7,1s-1.1,0.7-1.7,1
	c0,0-0.1,0-0.1,0.1c-0.5,0.3-0.9,0.6-1.4,0.9c-0.6,0.4-1.2,0.8-1.8,1.2l-0.1,0.1c-0.4,0.3-0.8,0.6-1.2,0.8c-0.6,0.4-1.2,0.8-1.8,1.2
	c-0.1,0-0.1,0.1-0.2,0.1c-0.4,0.3-0.8,0.5-1.1,0.8c-0.6,0.4-1.2,0.8-1.7,1.2c-0.1,0.1-0.2,0.1-0.2,0.2c-0.5,0.4-1,0.8-1.5,1.1
	c-0.3,0.2-0.6,0.4-0.9,0.7l-0.1,0.1c-0.1,0-0.1,0.1-0.2,0.1c-0.8,0.7-1.7,1.3-2.5,2c0,0,0,0-0.1,0l0,0c-0.8,0.7-1.6,1.4-2.4,2.1
	l-0.1,0.1c-0.2,0.2-0.5,0.4-0.7,0.7c-0.5,0.4-1,0.9-1.5,1.3c-0.1,0.1-0.2,0.2-0.3,0.3c-0.2,0.2-0.5,0.5-0.7,0.7
	c-0.4,0.4-0.8,0.7-1.1,1.1c-0.2,0.2-0.3,0.3-0.5,0.5c-0.3,0.3-0.5,0.5-0.7,0.8c-0.3,0.3-0.5,0.5-0.8,0.8c-0.2,0.2-0.5,0.5-0.7,0.8
	s-0.5,0.5-0.7,0.8c-0.2,0.2-0.3,0.4-0.5,0.5c-0.3,0.4-0.6,0.7-0.9,1.1c-0.2,0.2-0.4,0.5-0.6,0.7c-0.1,0.1-0.2,0.2-0.3,0.3
	c-0.5,0.7-1,1.3-1.5,2l0,0c0,0,0,0.1-0.1,0.1c-0.5,0.7-1,1.4-1.5,2.1c-0.1,0.1-0.1,0.2-0.2,0.2c-0.1,0.2-0.2,0.3-0.3,0.5
	c-0.3,0.4-0.6,0.9-0.9,1.3c-0.1,0.2-0.2,0.4-0.3,0.5c-0.2,0.2-0.3,0.5-0.5,0.7c-0.2,0.3-0.4,0.6-0.5,0.9c-0.2,0.3-0.3,0.6-0.5,0.8
	c-0.1,0.3-0.3,0.5-0.4,0.8c-0.1,0.2-0.2,0.4-0.3,0.5c-0.2,0.4-0.4,0.9-0.7,1.3c-0.1,0.2-0.2,0.4-0.3,0.6c0,0.1-0.1,0.2-0.1,0.3
	c-0.3,0.7-0.7,1.5-1,2.2l0,0l0,0c-0.3,0.7-0.6,1.4-0.8,2.2c0,0.1-0.1,0.2-0.1,0.3c-0.1,0.2-0.2,0.5-0.2,0.7
	c-0.1,0.4-0.3,0.8-0.4,1.2c-0.1,0.2-0.1,0.4-0.2,0.7c-0.1,0.3-0.2,0.6-0.2,0.8c-0.1,0.2-0.1,0.5-0.2,0.7c-0.1,0.4-0.2,0.7-0.3,1.1
	c-0.1,0.3-0.1,0.5-0.2,0.8c0,0.1-0.1,0.2-0.1,0.3c-0.2,0.7-0.3,1.5-0.4,2.2c0,0.1,0,0.1,0,0.2c0,0.1,0,0.1,0,0.2s0,0.1,0,0.2
	c0,0.1,0,0.1,0,0.2c0,0.3-0.1,0.6-0.1,0.8s-0.1,0.4-0.1,0.6c0,0.1,0,0.2,0,0.2c0,0.1,0,0.2,0,0.3s0,0.1,0,0.2c0,0.1,0,0.3,0,0.4
	c0,0.1,0,0.2,0,0.3c0,0.2,0,0.4-0.1,0.6c0,0.1,0,0.1,0,0.2c0,0.1,0,0.1,0,0.2c0,0.3,0,0.6,0,0.9c0,0.2,0,0.4,0,0.6
	c0,0.1,0,0.2,0,0.3v0.1v0.1c0,0.6,0,1.3,0,1.9c1.1,38.1,2.2,76.2,3.3,114.3c-0.8,0.4-1.7,0.9-2.5,1.3c-0.1,0-0.1,0.1-0.2,0.1
	c-1.8,1-3.6,2-5.4,3c-0.2,0.1-0.4,0.2-0.6,0.3c-0.5,0.3-1,0.6-1.5,0.9c-1.2,0.7-2.3,1.4-3.5,2.1c-0.4,0.2-0.7,0.4-1.1,0.6
	c-0.4,0.2-0.7,0.5-1.1,0.7c-1.1,0.7-2.2,1.4-3.3,2.1c-0.5,0.3-0.9,0.6-1.4,0.9c-0.2,0.1-0.4,0.3-0.6,0.4c-1.5,1-2.9,2-4.4,3
	c-0.2,0.2-0.4,0.3-0.7,0.5c-1,0.7-2,1.5-3,2.2c-0.4,0.3-0.9,0.6-1.4,1l-0.1,0.1c-0.6,0.5-1.3,1-1.9,1.4c-0.8,0.6-1.5,1.2-2.3,1.7
	c-0.1,0-0.1,0.1-0.2,0.1c-0.6,0.4-1.1,0.9-1.6,1.3c-0.8,0.6-1.6,1.2-2.3,1.9c-0.1,0.1-0.2,0.1-0.2,0.2c-0.5,0.4-1,0.8-1.5,1.3
	c-0.8,0.6-1.5,1.3-2.3,1.9c-0.1,0.1-0.2,0.2-0.3,0.3c-0.7,0.6-1.3,1.2-1.9,1.7c-0.4,0.4-0.8,0.7-1.2,1.1c-0.1,0.1-0.1,0.1-0.2,0.2
	c-0.1,0.1-0.1,0.1-0.2,0.2c-1.1,1.1-2.3,2.1-3.4,3.2c-1.1,1.1-2.2,2.2-3.3,3.3c-0.1,0.1-0.1,0.1-0.2,0.2c-0.3,0.3-0.7,0.7-1,1
	c-0.7,0.7-1.3,1.4-2,2.1c-0.1,0.1-0.2,0.3-0.4,0.4c-0.3,0.3-0.6,0.7-0.9,1c-0.5,0.6-1,1.1-1.5,1.7c-0.2,0.3-0.4,0.5-0.7,0.8
	c-0.3,0.4-0.7,0.8-1,1.2c-0.3,0.4-0.7,0.8-1,1.2c-0.3,0.4-0.7,0.8-1,1.2c-0.3,0.4-0.6,0.8-0.9,1.2c-0.2,0.3-0.4,0.6-0.7,0.8
	c-0.5,0.6-0.9,1.2-1.4,1.8c-0.2,0.3-0.5,0.6-0.7,1c-0.1,0.2-0.3,0.3-0.4,0.5c-0.8,1.1-1.5,2.1-2.2,3.2s-1.4,2.2-2.1,3.3
	c-0.1,0.1-0.2,0.3-0.3,0.4c-0.2,0.3-0.3,0.5-0.5,0.8c-0.4,0.7-0.9,1.4-1.3,2.1c-0.2,0.3-0.3,0.6-0.5,0.9c-0.2,0.4-0.4,0.7-0.6,1.1
	c-0.3,0.4-0.5,0.9-0.8,1.3c-0.3,0.5-0.5,0.9-0.7,1.4c-0.2,0.4-0.4,0.8-0.6,1.1c-0.1,0.3-0.3,0.6-0.4,0.8c-0.4,0.7-0.7,1.5-1,2.2
	c-0.1,0.3-0.3,0.6-0.4,0.9c-0.1,0.1-0.1,0.3-0.2,0.4c-0.5,1.2-1,2.3-1.5,3.5v0.1c0,0.1,0,0.1-0.1,0.2c-0.4,1.1-0.9,2.2-1.3,3.2
	c-0.1,0.2-0.1,0.4-0.2,0.5c-0.1,0.4-0.3,0.7-0.4,1.1c-0.2,0.6-0.4,1.2-0.6,1.8c-0.1,0.4-0.2,0.7-0.3,1.1s-0.3,0.9-0.4,1.3
	c-0.1,0.4-0.2,0.7-0.3,1.1c-0.2,0.6-0.3,1.2-0.5,1.8c-0.1,0.4-0.2,0.8-0.3,1.2c0,0.2-0.1,0.3-0.1,0.5c-0.3,1.2-0.6,2.4-0.8,3.6
	c0,0.1,0,0.2-0.1,0.3c0,0.1,0,0.2-0.1,0.3c0,0.1,0,0.2-0.1,0.3c0,0.1,0,0.2-0.1,0.3c0,0.1,0,0.2-0.1,0.3c-0.1,0.4-0.2,0.9-0.2,1.3
	c0,0.3-0.1,0.6-0.1,0.8c-0.1,0.5-0.2,1-0.2,1.5c0,0.1,0,0.1,0,0.2s0,0.2,0,0.3l0,0c0,0.2-0.1,0.3-0.1,0.5c0,0.1,0,0.3,0,0.4
	c-0.1,0.7-0.2,1.5-0.3,2.2c0,0.2,0,0.4-0.1,0.6c-0.1,0.9-0.2,1.8-0.2,2.7c0,0.1,0,0.1,0,0.2c0,0.2,0,0.3,0,0.5s0,0.4,0,0.7
	c0,0.1,0,0.2,0,0.3c0,0.1,0,0.1,0,0.2c0,0.4,0,0.7-0.1,1.1c0,0.3,0,0.6,0,0.8c0,0.6,0,1.2,0,1.8c0,0.1,0,0.2,0,0.3
	c0,0.1,0,0.2,0,0.3v0.1c0,0.1,0,0.1,0,0.2c0,0.2,0,0.4,0,0.6c0,0.1,0,0.2,0,0.3c0,0.5,0,1.1,0,1.6c0,0.1,0,0.2,0,0.2
	c0,0.1,0,0.1,0,0.2l0,0c0,0.4,0,0.8,0,1.2c0,0.1,0,0.3,0,0.4c0,0.3,0,0.5,0,0.8c0,0.2,0,0.3,0,0.5l2.4,40.6c0,0.2,0,0.5,0,0.7
	l0.5,8.2c0.2,3.7,0.4,7.5,0.7,11.2l4.9,83.4c0.2,3.6,0.4,7.1,0.6,10.7l1,16.6c0.2,4.3,0.5,8.5,0.7,12.6l0.6,10.8
	c0,0.8,0.1,1.6,0.2,2.4c0.1,0.7,0.1,1.4,0.2,2.1c0,0.2,0,0.3,0,0.5c0.1,0.5,0.1,1.1,0.2,1.6c0,0.3,0.1,0.7,0.1,1
	c0.1,0.6,0.1,1.2,0.2,1.9c0,0.2,0,0.3,0.1,0.5c0.1,0.6,0.2,1.3,0.3,1.9c0.1,0.8,0.2,1.7,0.4,2.5c0,0.2,0.1,0.4,0.1,0.6
	c0.1,0.7,0.3,1.3,0.4,2c0.2,0.8,0.3,1.6,0.5,2.4c0.1,0.2,0.1,0.5,0.2,0.7c0.1,0.6,0.3,1.2,0.4,1.8c0.2,0.8,0.4,1.6,0.6,2.4
	c0.1,0.3,0.2,0.6,0.2,0.9c0.2,0.6,0.3,1.1,0.5,1.7c0.2,0.8,0.4,1.6,0.7,2.3c0.1,0.3,0.2,0.7,0.3,1c0.2,0.5,0.3,1,0.5,1.5
	c0.3,0.8,0.5,1.6,0.8,2.3c0.1,0.4,0.3,0.8,0.4,1.2c0.2,0.5,0.3,0.9,0.5,1.4c0.3,0.8,0.6,1.6,0.9,2.3c0.2,0.4,0.3,0.8,0.5,1.3
	c0,0.1,0.1,0.3,0.1,0.4c0.1,0.3,0.2,0.6,0.4,0.8c0.3,0.8,0.6,1.6,1,2.4c0.2,0.5,0.4,1,0.6,1.4c0.2,0.4,0.3,0.7,0.5,1.1
	c0.3,0.8,0.7,1.6,1.1,2.3c0.2,0.5,0.5,1.1,0.7,1.6c0.2,0.3,0.3,0.6,0.5,0.9c0.4,0.8,0.8,1.5,1.2,2.3c0.2,0.4,0.4,0.8,0.6,1.2
	c0.1,0.2,0.2,0.3,0.3,0.5c0.1,0.3,0.3,0.5,0.4,0.8c0.4,0.8,0.9,1.7,1.4,2.5c0.3,0.6,0.6,1.2,1,1.8c0.1,0.2,0.2,0.4,0.3,0.5
	c0.5,0.9,1.1,1.8,1.7,2.8c0.3,0.5,0.6,1.1,1,1.6c0.1,0.1,0.2,0.3,0.2,0.4c0.2,0.4,0.5,0.7,0.7,1.1c0.6,0.9,1.2,1.9,1.8,2.8
	c0.2,0.3,0.3,0.5,0.5,0.8c0.4,0.6,0.8,1.2,1.2,1.7c0.5,0.8,1.1,1.6,1.6,2.4c0.1,0.1,0.1,0.2,0.2,0.2c0.1,0.2,0.3,0.4,0.4,0.6
	c0.4,0.6,0.9,1.2,1.3,1.8c0.6,0.8,1.2,1.6,1.7,2.4c0.2,0.2,0.4,0.5,0.6,0.7l0.1,0.1c0.4,0.5,0.7,0.9,1.1,1.4
	c0.6,0.8,1.3,1.6,1.9,2.4c0.2,0.3,0.5,0.6,0.7,0.9c0.4,0.5,0.8,0.9,1.1,1.4c0.7,0.8,1.3,1.6,2,2.4c0.3,0.4,0.6,0.7,0.9,1.1
	c0.3,0.4,0.7,0.8,1,1.2c0.7,0.8,1.4,1.6,2.1,2.4c0.4,0.4,0.7,0.8,1.1,1.2c0.3,0.3,0.6,0.7,0.9,1c0.7,0.8,1.5,1.6,2.2,2.4
	c0.4,0.4,0.8,0.9,1.3,1.3c0.3,0.3,0.5,0.6,0.8,0.8c0.8,0.8,1.6,1.6,2.4,2.4c0.5,0.5,0.9,1,1.4,1.4c0.2,0.2,0.5,0.4,0.7,0.7
	c0.8,0.8,1.7,1.6,2.6,2.5c0.5,0.5,1,1,1.6,1.5c0.2,0.2,0.4,0.3,0.5,0.5c0.9,0.9,1.9,1.7,2.8,2.5c0.6,0.5,1.1,1,1.6,1.5
	c0.1,0.1,0.3,0.2,0.4,0.3c1,0.9,2.1,1.8,3.2,2.7c0.5,0.5,1.1,0.9,1.6,1.4c0,0,0,0,0.1,0.1s0.1,0.1,0.2,0.1c1.3,1.1,2.6,2.1,3.9,3.2
	c0.4,0.3,0.8,0.7,1.3,1c1.9,1.5,3.8,3,5.7,4.4c0.4,0.3,0.9,0.7,1.4,1c1.3,1,2.7,2,4,3c0.1,0,0.1,0.1,0.2,0.1
	c0.1,0.1,0.1,0.1,0.2,0.2c0.6,0.5,1.3,0.9,1.9,1.4c1.2,0.8,2.3,1.6,3.5,2.5c0.2,0.2,0.5,0.3,0.7,0.5c0.6,0.4,1.3,0.9,1.9,1.3
	c1.1,0.8,2.2,1.5,3.4,2.3c0.3,0.2,0.7,0.5,1,0.7c0.6,0.4,1.2,0.7,1.7,1.1c0.7,0.4,1.4,0.9,2,1.3c0.4,0.3,0.9,0.5,1.3,0.8
	c1,0.6,2,1.3,3.1,1.9c1.1,0.7,2.2,1.3,3.3,2c1.1,0.6,2.1,1.3,3.2,1.9c1.1,0.6,2.2,1.3,3.3,1.9c1,0.6,2,1.1,3,1.7
	c0.2,0.1,0.3,0.2,0.5,0.3c0.6,0.3,1.2,0.7,1.9,1c0.8,0.5,1.7,0.9,2.5,1.4c0.7,0.4,1.5,0.8,2.2,1.2c0.1,0,0.2,0.1,0.3,0.2
	c0.4,0.2,0.8,0.4,1.2,0.6c1.3,0.7,2.6,1.4,3.9,2c0.5,0.3,1.1,0.5,1.6,0.8c0.7,0.3,1.3,0.7,2,1c0.6,0.3,1.2,0.6,1.8,0.9
	c0.5,0.2,1,0.5,1.4,0.7c0.6,0.3,1.3,0.6,1.9,0.9c0.4,0.2,0.8,0.4,1.1,0.5c1.6,0.8,3.3,1.6,5,2.3c0.4,0.2,0.8,0.4,1.1,0.5
	c0.6,0.3,1.2,0.5,1.8,0.8c1.4,0.6,2.8,1.2,4.2,1.9c0.5,0.2,0.9,0.4,1.4,0.6c0.4,0.2,0.9,0.4,1.3,0.6c0.4,0.2,0.8,0.3,1.2,0.5
	c0.5,0.2,1,0.4,1.5,0.6c1.2,0.5,2.4,1,3.6,1.5c0.7,0.3,1.5,0.6,2.2,0.9c0.4,0.2,0.7,0.3,1.1,0.5s0.9,0.3,1.3,0.5
	c1,0.4,2.1,0.8,3.1,1.3c0.9,0.4,1.8,0.7,2.7,1c0.5,0.2,0.9,0.4,1.4,0.6c0.3,0.1,0.6,0.2,0.9,0.3c0.9,0.4,1.9,0.7,2.8,1
	c1.1,0.4,2.2,0.8,3.2,1.2c0,0,0,0,0.1,0c0.6,0.2,1.1,0.4,1.7,0.6c0.2,0.1,0.3,0.1,0.5,0.2c0.8,0.3,1.7,0.6,2.5,0.9
	c1.1,0.4,2.2,0.8,3.3,1.2c0.8,0.3,1.5,0.5,2.3,0.8c0.1,0,0.2,0.1,0.3,0.1l0,0c0.7,0.2,1.5,0.5,2.2,0.7c1.1,0.4,2.3,0.8,3.4,1.1
	c1.6,0.5,3.2,1,4.8,1.5c0.6,0.2,1.3,0.4,1.9,0.6c0.5,0.2,1.1,0.3,1.6,0.5c0.7,0.2,1.4,0.4,2,0.6c0,0,0,0,0.1,0
	c0.7,0.2,1.4,0.4,2.2,0.6c0.2,0.1,0.5,0.1,0.7,0.2c1.2,0.4,2.4,0.7,3.6,1c0.5,0.1,1,0.3,1.4,0.4c0.1,0,0.1,0,0.2,0s0.1,0,0.2,0
	c1,0.3,2.1,0.6,3.2,0.9c1.3,0.3,2.5,0.7,3.8,1c0.4,0.1,0.8,0.2,1.2,0.3c0.1,0,0.1,0,0.2,0.1c1.3,0.3,2.6,0.7,4,1
	c1.1,0.3,2.3,0.6,3.4,0.9c0.2,0,0.3,0.1,0.5,0.1l0,0c0.9,0.2,1.8,0.4,2.7,0.6c1,0.2,2,0.5,3,0.7c0.9,0.2,1.8,0.4,2.7,0.6
	c1.3,0.3,2.6,0.6,3.9,0.9c1.2,0.3,2.4,0.5,3.6,0.8c0.1,0,0.3,0.1,0.4,0.1c1.4,0.3,2.8,0.6,4.3,0.9c0.1,0,0.2,0,0.3,0.1
	c1,0.2,2,0.4,3.1,0.6c0.2,0,0.4,0.1,0.7,0.1c0.5,0.1,1,0.2,1.4,0.3c1.1,0.2,2.3,0.4,3.5,0.6c0.8,0.1,1.5,0.3,2.3,0.4
	c0.3,0.1,0.7,0.1,1,0.2c0.8,0.1,1.6,0.3,2.3,0.4c1,0.2,2.1,0.4,3.1,0.5c0.5,0.1,0.9,0.2,1.4,0.2c0.5,0.1,0.9,0.1,1.4,0.2
	c1.1,0.2,2.2,0.4,3.3,0.5c0.9,0.1,1.8,0.3,2.8,0.4c0.2,0,0.4,0.1,0.6,0.1c0.6,0.1,1.2,0.2,1.8,0.3c1.4,0.2,2.8,0.4,4.2,0.6
	c1.5,0.2,3,0.4,4.5,0.6c1.5,0.2,3.1,0.4,4.6,0.6c0.4,0,0.7,0.1,1.1,0.1c0.1,0,0.2,0,0.3,0c1.1,0.1,2.3,0.3,3.4,0.4
	c1.2,0.1,2.5,0.3,3.7,0.4c0.2,0,0.4,0.1,0.7,0.1c0.4,0,0.9,0.1,1.3,0.1c1.3,0.1,2.6,0.3,3.8,0.4c0.9,0.1,1.9,0.2,2.8,0.3
	c0.1,0,0.2,0,0.2,0c0.8,0.1,1.6,0.1,2.4,0.2c1.4,0.1,2.8,0.2,4.1,0.4c1.8,0.1,3.5,0.3,5.3,0.4c0.1,0,0.1,0,0.2,0
	c1.3,0.1,2.6,0.2,3.9,0.3c0.2,0,0.5,0,0.7,0.1c0.1,0,0.2,0,0.3,0c1.3,0.1,2.6,0.1,3.8,0.2c1,0.1,1.9,0.1,2.9,0.2
	c0.7,0,1.4,0.1,2,0.1c0.1,0,0.1,0,0.2,0c1.3,0.1,2.5,0.1,3.8,0.2c1.3,0.1,2.6,0.1,3.9,0.2c0.3,0,0.6,0,0.8,0c0.4,0,0.8,0,1.2,0
	c1,0,2.1,0,3.1,0.1c1.2,0,2.3,0.1,3.5,0.1c0.3,0,0.5,0,0.8,0s0.5,0,0.8,0s0.5,0,0.8,0s0.5,0,0.8,0c2.7,0,5.5,0,8.2,0l0,0
	c0.4,0,0.7,0,1.1,0c1,0,2,0,2.9,0c1.4,0,2.7,0,4.1,0l0,0c0.4,0,0.7,0,1.1,0c0.4,0,0.8,0,1.2,0c1.1,0,2.2,0,3.3-0.1
	c0.8,0,1.7,0,2.5-0.1l0,0c0.2,0,0.4,0,0.7,0c1,0,2-0.1,3-0.1s2.1-0.1,3.1-0.1c0.4,0,0.8,0,1.2-0.1l0,0c0.1,0,0.1,0,0.2,0
	c2.4-0.1,4.7-0.2,7.1-0.4c0.6,0,1.2-0.1,1.9-0.1c0.3,0,0.5,0,0.8,0c0.5,0,1-0.1,1.5-0.1c1.7-0.1,3.3-0.2,5-0.3
	c0.9-0.1,1.7-0.1,2.6-0.2c0.2,0,0.4,0,0.7,0c0.4,0,0.8-0.1,1.1-0.1c1.5-0.1,3-0.3,4.5-0.4c1.2-0.1,2.3-0.2,3.4-0.3
	c0.2,0,0.4,0,0.6-0.1c0.2,0,0.3,0,0.5-0.1c1.5-0.1,2.9-0.3,4.4-0.5c1.2-0.1,2.4-0.3,3.7-0.4c0.4,0,0.7-0.1,1.1-0.1
	c2.1-0.2,4.1-0.5,6.2-0.8c1-0.1,2.1-0.3,3.1-0.4c0.7-0.1,1.4-0.2,2.1-0.3c0.6-0.1,1.1-0.2,1.7-0.3c0.8-0.1,1.6-0.2,2.3-0.3
	c0.9-0.1,1.8-0.3,2.7-0.4c0.7-0.1,1.5-0.2,2.2-0.4c0.6-0.1,1.3-0.2,1.9-0.3c0.1,0,0.2,0,0.2,0c0.6-0.1,1.1-0.2,1.7-0.3
	c1-0.2,1.9-0.3,2.9-0.5c0.5-0.1,1-0.2,1.5-0.3c0.7-0.1,1.3-0.2,2-0.4c1-0.2,2-0.4,2.9-0.5c0.2,0,0.3-0.1,0.5-0.1
	c0.6-0.1,1.2-0.2,1.8-0.3c0.5-0.1,1.1-0.2,1.6-0.3c1.6-0.3,3.3-0.7,4.9-1c0.2,0,0.5-0.1,0.7-0.1c0.4-0.1,0.8-0.2,1.2-0.3h0.1
	c0.3-0.1,0.7-0.2,1-0.2c0.2,0,0.3-0.1,0.5-0.1c1.6-0.3,3.1-0.7,4.7-1c0.3-0.1,0.7-0.2,1-0.2c0.5-0.1,1.1-0.2,1.6-0.4
	c0.6-0.1,1.1-0.3,1.7-0.4c1.6-0.4,3.2-0.8,4.8-1.2c0.7-0.2,1.5-0.4,2.2-0.5c0.1,0,0.3-0.1,0.4-0.1c0.3-0.1,0.5-0.1,0.8-0.2
	c1.8-0.5,3.5-0.9,5.3-1.4c0.6-0.2,1.3-0.3,1.9-0.5c0.3-0.1,0.5-0.1,0.8-0.2l0,0c2.3-0.7,4.6-1.3,6.9-2c0.1,0,0.2,0,0.2-0.1
	c0.2-0.1,0.5-0.2,0.7-0.2c0.2-0.1,0.5-0.1,0.7-0.2c0.4-0.1,0.9-0.3,1.3-0.4c1.5-0.5,3-0.9,4.5-1.4c0.6-0.2,1.2-0.4,1.7-0.6
	c0.5-0.2,1.1-0.4,1.6-0.5c1.4-0.5,2.7-0.9,4.1-1.4c0.8-0.3,1.5-0.5,2.3-0.8c0.2-0.1,0.4-0.1,0.6-0.2c0.1,0,0.3-0.1,0.4-0.1h0.1
	c1.4-0.5,2.9-1,4.3-1.6c0.6-0.2,1.2-0.4,1.7-0.6c0.5-0.2,1-0.4,1.4-0.5c0.5-0.2,1-0.4,1.5-0.6c1.3-0.5,2.6-1,3.9-1.5
	c0.6-0.2,1.2-0.5,1.8-0.7l0,0c0.3-0.1,0.7-0.3,1-0.4c0.6-0.2,1.1-0.5,1.7-0.7c0.6-0.3,1.3-0.5,1.9-0.8c0.3-0.1,0.6-0.2,0.9-0.4
	c0.5-0.2,1-0.4,1.5-0.7c0.8-0.4,1.7-0.7,2.5-1.1c0.4-0.2,0.7-0.3,1.1-0.5c0.5-0.2,0.9-0.4,1.4-0.6c0.5-0.2,1.1-0.5,1.6-0.7
	c0.4-0.2,0.7-0.3,1.1-0.5c0.6-0.3,1.1-0.5,1.7-0.8c0.5-0.2,0.9-0.4,1.4-0.6c0.4-0.2,0.9-0.4,1.3-0.6c0.6-0.3,1.1-0.5,1.7-0.8
	c0.2-0.1,0.4-0.2,0.6-0.3c1.6-0.8,3.2-1.6,4.8-2.4c0.1-0.1,0.3-0.1,0.4-0.2c0.5-0.3,1-0.5,1.5-0.8c1-0.5,2-1.1,3.1-1.6
	c0.5-0.2,0.9-0.5,1.4-0.7c0.2-0.1,0.4-0.2,0.5-0.3c0.5-0.3,1.1-0.6,1.6-0.9c0.9-0.5,1.7-0.9,2.6-1.4l0,0c0,0,0.1,0,0.1-0.1
	c0.6-0.3,1.2-0.7,1.8-1c0.5-0.3,1-0.6,1.5-0.8c0.4-0.2,0.7-0.4,1.1-0.6c0.4-0.3,0.9-0.5,1.3-0.8c0.9-0.5,1.7-1,2.6-1.6
	c0.4-0.3,0.8-0.5,1.3-0.8c0.2-0.1,0.4-0.3,0.7-0.4c0.2-0.1,0.3-0.2,0.5-0.3c1.2-0.8,2.5-1.5,3.7-2.3c0.1-0.1,0.3-0.2,0.4-0.3
	c0.4-0.2,0.7-0.5,1.1-0.7c0.9-0.6,1.8-1.2,2.7-1.8c0.5-0.3,0.9-0.6,1.4-0.9c0.3-0.2,0.7-0.4,1-0.7c0.2-0.1,0.3-0.2,0.5-0.3
	c0.5-0.4,1-0.7,1.6-1.1c0.4-0.2,0.7-0.5,1.1-0.7c0.1,0,0.1-0.1,0.2-0.1c0.7-0.5,1.4-1,2.1-1.5c0.2-0.1,0.4-0.3,0.6-0.4
	c0.3-0.2,0.5-0.4,0.8-0.6c0.4-0.3,0.8-0.6,1.2-0.9c1-0.7,1.9-1.4,2.9-2.2c0.1,0,0.1-0.1,0.2-0.1c0.1-0.1,0.2-0.2,0.4-0.3
	c0.1-0.1,0.3-0.2,0.4-0.3c1-0.8,2-1.6,3-2.4c0.2-0.1,0.3-0.3,0.5-0.4c0.3-0.3,0.7-0.6,1-0.8c0.1-0.1,0.2-0.2,0.3-0.3
	c0.2-0.1,0.3-0.3,0.5-0.4c0.4-0.3,0.8-0.6,1.1-0.9c0.4-0.3,0.8-0.7,1.2-1c0.2-0.2,0.4-0.3,0.6-0.5c0.3-0.2,0.5-0.5,0.8-0.7
	c0.5-0.4,1-0.8,1.5-1.3c0.3-0.3,0.7-0.6,1-0.9c0.2-0.2,0.4-0.3,0.5-0.5c0.3-0.3,0.6-0.6,1-0.9c0.2-0.2,0.4-0.3,0.6-0.5
	c0.1-0.1,0.2-0.2,0.4-0.4c0.4-0.4,0.9-0.8,1.3-1.2c0.2-0.2,0.4-0.4,0.6-0.6c0.2-0.2,0.3-0.3,0.5-0.5c0.6-0.5,1.1-1,1.6-1.6
	c0.2-0.2,0.5-0.4,0.7-0.7c0.2-0.2,0.4-0.4,0.6-0.5c0.1-0.1,0.2-0.2,0.3-0.3c0.3-0.3,0.7-0.7,1-1c0.1-0.1,0.3-0.3,0.4-0.4
	c0.5-0.6,1.1-1.1,1.6-1.7c0.1-0.1,0.3-0.3,0.4-0.4c1.1-1.1,2.1-2.2,3.1-3.3c0.1-0.1,0.2-0.3,0.3-0.4c1.8-2,3.6-4.1,5.3-6.2l0,0
	c0,0,0,0,0.1-0.1c0.2-0.2,0.4-0.5,0.6-0.7c0-0.1,0.1-0.1,0.1-0.2l0.1-0.1c0.4-0.5,0.9-1.1,1.3-1.6c0.1-0.1,0.2-0.3,0.3-0.4
	c0.4-0.5,0.8-1,1.2-1.5l0,0c0.3-0.3,0.5-0.7,0.8-1c0-0.1,0.1-0.1,0.1-0.2c0,0,0-0.1,0.1-0.1c0.6-0.8,1.1-1.5,1.7-2.3l0.1-0.1
	c0.8-1.1,1.6-2.2,2.4-3.4l0,0c0,0,0-0.1,0.1-0.1l0,0c0.1-0.1,0.1-0.2,0.2-0.3c0.5-0.8,1-1.5,1.5-2.3c0.1-0.1,0.2-0.3,0.3-0.4
	c0.6-0.9,1.1-1.7,1.6-2.6c0-0.1,0.1-0.1,0.1-0.2c0,0,0-0.1,0.1-0.1c0.3-0.5,0.6-1,0.9-1.5c0.1-0.2,0.2-0.4,0.3-0.5
	c0.7-1.2,1.4-2.4,2-3.5v-0.1c0-0.1,0.1-0.1,0.1-0.2c0,0,0-0.1,0.1-0.1c0.1-0.1,0.2-0.3,0.2-0.4c0.4-0.6,0.7-1.3,1-1.9
	c0.1-0.2,0.2-0.5,0.4-0.7v-0.1c0.1-0.2,0.2-0.4,0.3-0.6c0.2-0.4,0.4-0.7,0.5-1.1c0-0.1,0.1-0.1,0.1-0.2c0.1-0.2,0.2-0.4,0.3-0.6
	c0.3-0.5,0.5-1,0.8-1.6c0.1-0.1,0.1-0.2,0.2-0.3c0.1-0.2,0.2-0.5,0.3-0.7c0.3-0.5,0.5-1.1,0.7-1.6c0-0.1,0.1-0.2,0.1-0.3
	c0.1-0.2,0.2-0.5,0.3-0.7v-0.1c0.1-0.2,0.2-0.4,0.3-0.6c0.1-0.3,0.2-0.5,0.3-0.8c0.2-0.4,0.3-0.7,0.5-1.1c0.2-0.5,0.4-1,0.6-1.4
	c0-0.1,0.1-0.2,0.1-0.3s0.1-0.2,0.1-0.4c0.1-0.2,0.1-0.3,0.2-0.5c0.2-0.5,0.4-0.9,0.5-1.4c0.2-0.4,0.3-0.8,0.4-1.2
	c0.1-0.1,0.1-0.3,0.2-0.4c0-0.1,0.1-0.2,0.1-0.3c0.1-0.2,0.1-0.4,0.2-0.6c0.1-0.2,0.1-0.3,0.2-0.5c0-0.1,0.1-0.3,0.1-0.4
	c0.2-0.7,0.5-1.4,0.7-2.1c0.1-0.3,0.2-0.6,0.3-0.9c0.1-0.3,0.2-0.5,0.3-0.8c0-0.1,0.1-0.2,0.1-0.3s0-0.1,0.1-0.2
	c0-0.1,0.1-0.2,0.1-0.3c0.2-0.6,0.4-1.2,0.6-1.9c0-0.2,0.1-0.3,0.1-0.5c0.2-0.6,0.4-1.3,0.5-1.9c0,0,0,0,0-0.1s0-0.1,0-0.2
	c0.1-0.4,0.2-0.8,0.3-1.2c0-0.2,0.1-0.4,0.2-0.6c0.2-0.9,0.4-1.7,0.6-2.6v-0.1l0,0c0.1-0.3,0.1-0.6,0.2-0.9c0.1-0.2,0.1-0.5,0.1-0.7
	c0.2-0.9,0.4-1.9,0.6-2.8c0-0.1,0-0.2,0-0.2c0-0.1,0-0.1,0-0.2c0-0.1,0-0.1,0-0.2c0,0,0,0,0-0.1s0-0.1,0-0.2v-0.1l0,0l2-11.3
	c0-0.1,0-0.2,0-0.3l6-33.6c0.4-2.1,0.7-4.1,1.1-6.2l13.2-73.4c0.2-1,0.4-2,0.5-2.9l2.8-15.5c0.3-1.6,0.6-3.2,0.9-4.8l1.6-8.7
	c0.1-0.4,0.1-0.8,0.2-1.2l1.9-10.8c0.3-1.7,0.6-3.4,0.9-5.1l1.3-7c0.4-2,0.7-3.9,1-5.8l0.3-1.5c0.7-3.7,1.3-7.4,2-11v-0.1v-0.1v-0.1
	c0.2-1.1,0.4-2.2,0.5-3.3C859.9,505.1,859.9,505,859.9,504.8z"/>
</svg>
