<?xml version="1.0" encoding="utf-8"?>
<!-- Generator: Adobe Illustrator 23.0.5, SVG Export Plug-In . SVG Version: 6.00 Build 0)  -->
<svg version="1.1" id="Capa_1" xmlns="http://www.w3.org/2000/svg" xmlns:xlink="http://www.w3.org/1999/xlink" x="0px" y="0px"
	 viewBox="0 0 1000 1000" style="enable-background:new 0 0 1000 1000;" xml:space="preserve">
<style type="text/css">
	.st0{fill:none;}
	.st1{enable-background:new    ;}
	.st2{fill:#AE001D;}
</style>
<rect class="st0" width="1000" height="1000"/>
<g>
	<g class="st1">
		<g>
			<path class="st2" d="M743.9,371.1l-464.6,53.7L532.8,152c27.1,13.2,51.9,28,74.3,44.2c22.6,16.2,42.8,33.7,60.5,52.2
				c17.8,18.7,33.2,38.4,45.9,58.8C726.3,327.9,736.5,349.2,743.9,371.1z M740.6,369.5c-3.7-10.9-8.1-21.5-13.2-32
				c-5-10.4-10.7-20.7-17-30.7c-6.3-10-13.2-19.8-20.7-29.4c-7.5-9.5-15.6-18.9-24.3-28c-9-9.4-18.5-18.4-28.5-27.1
				c-10-8.6-20.5-16.9-31.5-24.8c-11-7.9-22.5-15.4-34.5-22.6c-12-7.1-24.4-13.9-37.3-20.3L285.2,422.1L740.6,369.5"/>
		</g>
		<g>
			<path class="st2" d="M740.6,369.5l-455.4,52.6l248.5-267.6c12.9,6.4,25.3,13.2,37.3,20.3c12,7.2,23.5,14.7,34.5,22.6
				c11,7.9,21.5,16.2,31.5,24.8c10,8.7,19.5,17.7,28.5,27.1c8.7,9.1,16.8,18.4,24.3,28c7.5,9.6,14.4,19.4,20.7,29.4
				c6.3,10,12,20.3,17,30.7C732.5,347.9,736.9,358.6,740.6,369.5z"/>
		</g>
	</g>
</g>
</svg>
