<?xml version="1.0" encoding="utf-8"?>
<!-- Generator: Adobe Illustrator 23.0.5, SVG Export Plug-In . SVG Version: 6.00 Build 0)  -->
<svg version="1.1" id="Capa_1" xmlns="http://www.w3.org/2000/svg" xmlns:xlink="http://www.w3.org/1999/xlink" x="0px" y="0px"
	 viewBox="0 0 1000 1000" style="enable-background:new 0 0 1000 1000;" xml:space="preserve">
<style type="text/css">
	.st0{fill:none;}
	.st1{fill:#AE001D;}
</style>
<rect class="st0" width="1000" height="1000"/>
<path class="st1" d="M677.2,601.4c0.2-1.8,0.3-3.5,0.5-5.3l2.6-30.8c0.2-2,0.3-4,0.5-6l2.7-31.7c0.2-2.3,0.4-4.6,0.6-6.8l2.4-27.7
	c0.3-4,0.7-7.9,1-11.9l1-11.7c0.3-3.3,0.6-6.6,0.8-9.9l0.6-6.6c0.3-3.6,0.6-7.1,0.9-10.6l0.9-10.3c0.8-9.1,1.5-17.9,2.3-26.6
	l0.8-9.6c0.4-4.8,0.8-9.6,1.2-14.2v-0.1c0.1-0.6,0.1-1.2,0.1-1.8c0-0.2,0-0.4,0-0.6s0-0.5,0-0.7s0-0.4,0-0.7c0-0.2,0-0.4,0-0.6
	c0-0.6-0.1-1.2-0.1-1.8v-0.1l0,0c-0.1-0.6-0.1-1.2-0.2-1.9c0-0.2-0.1-0.4-0.1-0.6s-0.1-0.5-0.1-0.7s-0.1-0.5-0.1-0.7
	s-0.1-0.4-0.1-0.6c-0.1-0.6-0.3-1.3-0.4-1.9c-0.2-0.7-0.4-1.5-0.7-2.2c-0.1-0.2-0.2-0.5-0.3-0.7c-0.2-0.5-0.3-1-0.5-1.5
	c-0.1-0.3-0.2-0.6-0.3-0.8c-0.2-0.5-0.4-0.9-0.6-1.4c-0.1-0.3-0.3-0.6-0.4-0.9c-0.2-0.4-0.4-0.9-0.7-1.3c-0.1-0.3-0.3-0.6-0.4-0.9
	c-0.2-0.5-0.5-0.9-0.8-1.4c-0.1-0.3-0.3-0.5-0.4-0.8c-0.4-0.6-0.7-1.2-1.1-1.7c-0.1-0.1-0.2-0.2-0.2-0.4c-0.5-0.7-0.9-1.4-1.4-2.1
	c-0.2-0.2-0.4-0.5-0.5-0.7c-0.3-0.5-0.7-0.9-1-1.3c-0.1-0.1-0.1-0.2-0.2-0.3c-0.2-0.2-0.3-0.4-0.5-0.6c-0.3-0.4-0.7-0.8-1-1.2
	c-0.2-0.3-0.5-0.6-0.7-0.8c-0.3-0.4-0.7-0.8-1.1-1.2c-0.3-0.3-0.5-0.5-0.8-0.8c-0.4-0.4-0.8-0.8-1.2-1.2c-0.3-0.3-0.5-0.5-0.8-0.8
	c-0.5-0.4-0.9-0.9-1.4-1.3c-0.2-0.2-0.4-0.4-0.6-0.6c-0.7-0.6-1.4-1.3-2.1-1.9c-0.1-0.1-0.2-0.2-0.4-0.3c-0.6-0.5-1.1-0.9-1.7-1.4
	c-0.1-0.1-0.1-0.1-0.2-0.2c-0.3-0.2-0.5-0.4-0.8-0.6c-0.5-0.4-1-0.8-1.6-1.2c-0.3-0.2-0.6-0.5-0.9-0.7c-0.5-0.4-1-0.7-1.5-1.1
	c-0.2-0.1-0.3-0.2-0.5-0.4c-0.2-0.1-0.3-0.2-0.5-0.3c-0.5-0.4-1-0.7-1.5-1.1c-0.3-0.2-0.7-0.5-1-0.7c-0.6-0.4-1.1-0.7-1.7-1.1
	c-0.3-0.2-0.6-0.4-0.9-0.6c-0.8-0.5-1.7-1-2.5-1.6c-0.2-0.1-0.3-0.2-0.5-0.3c-0.8-0.5-1.6-1-2.5-1.4c-0.3-0.2-0.7-0.4-1.1-0.6
	c-0.6-0.3-1.2-0.7-1.8-1c-0.4-0.2-0.8-0.4-1.2-0.7c-0.6-0.3-1.2-0.6-1.7-0.9c-0.4-0.2-0.9-0.4-1.3-0.7c-0.6-0.3-1.2-0.6-1.8-0.9
	c-0.4-0.2-0.9-0.4-1.3-0.6c-0.6-0.3-1.3-0.6-1.9-0.9c-0.3-0.1-0.6-0.3-0.9-0.4c-0.1,0-0.2-0.1-0.3-0.1c-0.8-0.4-1.6-0.7-2.3-1.1
	c-0.3-0.1-0.6-0.3-0.9-0.4c-1.1-0.5-2.2-0.9-3.2-1.4c-0.3-0.1-0.6-0.3-0.9-0.4c-0.8-0.3-1.6-0.7-2.4-1c-0.4-0.2-0.8-0.3-1.3-0.5
	s-1-0.4-1.5-0.6c-0.2-0.1-0.5-0.2-0.7-0.3c-0.4-0.2-0.9-0.3-1.3-0.5c-0.7-0.3-1.4-0.5-2.2-0.8c-0.5-0.2-0.9-0.3-1.4-0.5
	c-0.7-0.3-1.5-0.5-2.2-0.8c-0.5-0.2-0.9-0.3-1.4-0.5c-0.8-0.3-1.6-0.6-2.5-0.8c-0.4-0.1-0.8-0.3-1.2-0.4c-1.2-0.4-2.4-0.8-3.6-1.2
	h-0.1c-0.2-0.1-0.3-0.1-0.5-0.2c-1.2-0.4-2.3-0.7-3.5-1.1c-0.2-0.1-0.4-0.1-0.6-0.2c-0.3-0.1-0.6-0.2-0.8-0.2c-1-0.3-2-0.6-2.9-0.8
	c-0.3-0.1-0.6-0.2-0.9-0.3c-0.2,0-0.3-0.1-0.5-0.1c-1.4-0.4-2.8-0.8-4.2-1.1h-0.1c-0.2,0-0.4-0.1-0.6-0.1c-1.2-0.3-2.5-0.6-3.7-0.9
	c-0.2,0-0.4-0.1-0.6-0.1c-0.4-0.1-0.8-0.2-1.2-0.3c-0.6-0.1-1.2-0.3-1.9-0.4c-0.3-0.1-0.5-0.1-0.8-0.2c-0.4-0.1-0.7-0.2-1.1-0.2
	c-0.6-0.1-1.3-0.3-1.9-0.4c-0.3-0.1-0.6-0.1-0.9-0.2c-0.3-0.1-0.7-0.1-1-0.2c-0.7-0.1-1.3-0.3-2-0.4c-0.3-0.1-0.6-0.1-1-0.2
	c-0.3-0.1-0.6-0.1-0.9-0.2c-0.7-0.1-1.4-0.3-2.1-0.4c-0.3-0.1-0.7-0.1-1-0.2s-0.6-0.1-0.9-0.2c-0.5-0.1-1.1-0.2-1.6-0.3
	c-0.3-0.1-0.7-0.1-1-0.2c-0.4-0.1-0.7-0.1-1.1-0.2c-0.3-0.1-0.6-0.1-0.9-0.2c-0.1,0-0.3,0-0.4-0.1c-0.4-0.1-0.8-0.1-1.2-0.2
	c-1.2-0.2-2.4-0.4-3.6-0.6c-0.7-0.1-1.4-0.2-2.1-0.3c-0.2,0-0.5-0.1-0.7-0.1c-0.3,0-0.6-0.1-0.9-0.1c-1.1-0.2-2.3-0.3-3.4-0.5
	c-1.1-0.2-2.2-0.3-3.3-0.5l0,0h-0.1c-1.2-0.2-2.3-0.3-3.5-0.4s-2.3-0.3-3.5-0.4c-0.3,0-0.5-0.1-0.8-0.1c-0.2,0-0.3,0-0.5-0.1
	c-0.7-0.1-1.4-0.2-2.1-0.2c-1.1-0.1-2.3-0.2-3.4-0.3c-0.7-0.1-1.4-0.1-2.2-0.2c-0.2,0-0.3,0-0.5,0c-0.3,0-0.5,0-0.8-0.1
	c-1.1-0.1-2.3-0.2-3.4-0.3c-1.1-0.1-2.3-0.2-3.4-0.3c-0.1,0-0.3,0-0.4,0c-0.1,0-0.2,0-0.3,0c-0.9-0.1-1.9-0.1-2.8-0.2
	c-1.1-0.1-2.3-0.1-3.5-0.2c-0.6,0-1.1-0.1-1.7-0.1c-0.2,0-0.4,0-0.6,0c-0.4,0-0.8,0-1.2-0.1c-1.2-0.1-2.4-0.1-3.6-0.1
	c-1.2,0-2.3-0.1-3.5-0.1l0,0l0,0c-1.2,0-2.4-0.1-3.6-0.1c-1.2,0-2.4,0-3.6-0.1c-0.1,0-0.2,0-0.3,0c-0.1,0-0.2,0-0.3,0
	c-0.1,0-0.2,0-0.3,0c-0.1,0-0.2,0-0.3,0c-1.2,0-2.3,0-3.5,0s-2.3,0-3.4,0c-0.5,0-0.9,0-1.4,0c-0.2,0-0.4,0-0.7,0c-0.5,0-0.9,0-1.4,0
	c-1.1,0-2.3,0-3.4,0.1c-1,0-1.9,0.1-2.9,0.1c-0.2,0-0.4,0-0.7,0c-0.2,0-0.4,0-0.6,0c-1.4,0.1-2.8,0.1-4.2,0.2c-1,0-2,0.1-2.9,0.2
	c-0.2,0-0.4,0-0.6,0s-0.4,0-0.6,0c-1.4,0.1-2.7,0.2-4.1,0.3c-0.9,0.1-1.7,0.1-2.6,0.2c-0.4,0-0.8,0.1-1.2,0.1
	c-0.4,0-0.8,0.1-1.1,0.1c-1.6,0.1-3.3,0.3-4.9,0.4c-0.4,0-0.7,0.1-1.1,0.1s-0.8,0.1-1.2,0.1c-0.8,0.1-1.7,0.2-2.5,0.3
	c-1.5,0.2-3.1,0.3-4.6,0.5h-0.1h-0.1c-0.7,0.1-1.5,0.2-2.2,0.3c-1.9,0.2-3.8,0.5-5.6,0.7c-0.1,0-0.1,0-0.2,0
	c-0.9,0.1-1.8,0.3-2.7,0.4c-1.5,0.2-3,0.4-4.5,0.7c-0.1,0-0.3,0.1-0.4,0.1s-0.1,0-0.2,0s-0.3,0-0.4,0.1c-2.4,0.4-4.7,0.8-7.1,1.3
	c-0.1,0-0.2,0-0.3,0c-0.2,0-0.3,0.1-0.4,0.1c-2.3,0.4-4.5,0.9-6.7,1.4c-0.1,0-0.2,0-0.3,0.1c-0.4,0.1-0.7,0.2-1.1,0.3
	c-0.8,0.2-1.5,0.3-2.2,0.5c-0.6,0.1-1.1,0.3-1.7,0.4c-0.7,0.2-1.4,0.3-2.2,0.5c-0.3,0.1-0.6,0.2-1,0.2c-0.2,0.1-0.5,0.1-0.7,0.2
	c-0.7,0.2-1.4,0.4-2.2,0.5c-0.5,0.1-1.1,0.3-1.6,0.4c-0.8,0.2-1.5,0.4-2.3,0.6c-0.4,0.1-0.8,0.2-1.2,0.3c-0.1,0-0.1,0-0.2,0.1
	c-1.2,0.3-2.4,0.7-3.5,1c-0.3,0.1-0.6,0.2-1,0.3c-0.9,0.3-1.7,0.5-2.6,0.8c-0.1,0-0.2,0.1-0.3,0.1c-0.3,0.1-0.7,0.2-1,0.3
	c-0.7,0.2-1.4,0.5-2.2,0.7c-0.5,0.2-0.9,0.3-1.4,0.5c-0.7,0.2-1.4,0.5-2.1,0.7c-0.2,0.1-0.5,0.2-0.7,0.2c-0.2,0.1-0.5,0.2-0.7,0.3
	c-0.6,0.2-1.2,0.4-1.7,0.6s-1,0.4-1.5,0.5c-0.6,0.2-1.2,0.4-1.7,0.7c-0.3,0.1-0.6,0.2-0.9,0.3c-0.2,0.1-0.3,0.1-0.5,0.2
	s-0.4,0.1-0.6,0.2c-0.4,0.2-0.8,0.3-1.1,0.5c-0.5,0.2-0.9,0.4-1.4,0.6c-0.6,0.2-1.1,0.5-1.7,0.7c-0.3,0.1-0.7,0.3-1,0.4
	c-0.1,0-0.2,0.1-0.3,0.1c-0.6,0.2-1.1,0.5-1.7,0.7c-0.4,0.2-0.9,0.4-1.3,0.6c-0.5,0.2-1.1,0.5-1.6,0.7c-0.4,0.2-0.7,0.3-1.1,0.5
	c-0.1,0-0.1,0.1-0.2,0.1c-0.5,0.3-1.1,0.5-1.6,0.8c-0.4,0.2-0.8,0.4-1.2,0.6c-0.6,0.3-1.2,0.6-1.8,0.9c-0.3,0.2-0.6,0.3-0.9,0.5
	c-0.1,0-0.1,0.1-0.2,0.1c-0.9,0.5-1.8,1-2.7,1.5c-0.1,0.1-0.2,0.1-0.3,0.2c-0.2,0.1-0.5,0.3-0.7,0.4c-0.6,0.4-1.3,0.7-1.9,1.1
	c-0.2,0.1-0.4,0.2-0.5,0.3c-0.2,0.1-0.3,0.2-0.5,0.3c-0.6,0.4-1.2,0.7-1.8,1.1c-0.2,0.1-0.4,0.3-0.7,0.4c-0.1,0.1-0.2,0.1-0.3,0.2
	c-0.9,0.6-1.8,1.1-2.6,1.7l0,0c-0.3,0.2-0.6,0.4-0.9,0.6c-0.4,0.3-0.9,0.6-1.3,0.9c0,0,0,0-0.1,0c-0.3,0.2-0.6,0.4-0.9,0.6
	c-0.4,0.3-0.8,0.6-1.3,0.9c0,0-0.1,0-0.1,0.1c-0.3,0.2-0.5,0.4-0.8,0.6c-0.4,0.3-0.8,0.6-1.2,0.9l-0.1,0.1c-0.3,0.2-0.5,0.4-0.7,0.6
	c-0.4,0.3-0.8,0.6-1.1,0.9c-0.1,0-0.1,0.1-0.2,0.1c-0.3,0.3-0.7,0.6-1,0.9c-0.2,0.2-0.4,0.3-0.6,0.5l-0.1,0.1L349,336
	c-0.5,0.5-1,0.9-1.5,1.4l-0.1,0.1l0,0c-0.5,0.5-1.1,1-1.6,1.6c0,0,0,0.1-0.1,0.1c-0.2,0.2-0.3,0.3-0.5,0.5c-0.3,0.3-0.7,0.7-1,1
	c-0.1,0.1-0.1,0.1-0.2,0.2c-0.2,0.2-0.3,0.3-0.5,0.5c-0.2,0.3-0.5,0.5-0.7,0.8c-0.1,0.1-0.2,0.2-0.3,0.3c-0.2,0.2-0.3,0.4-0.5,0.6
	s-0.3,0.4-0.5,0.6c-0.1,0.2-0.3,0.3-0.4,0.5c-0.2,0.2-0.3,0.4-0.5,0.6c-0.1,0.1-0.2,0.3-0.3,0.4c-0.2,0.2-0.4,0.5-0.6,0.7
	c-0.1,0.2-0.3,0.4-0.4,0.6c-0.1,0.1-0.1,0.2-0.2,0.3c-0.3,0.4-0.6,0.8-0.9,1.2c0,0.1-0.1,0.1-0.1,0.2c0,0,0,0.1-0.1,0.1
	c-0.3,0.5-0.7,1-1,1.5l-0.1,0.1c-0.1,0.1-0.2,0.3-0.2,0.4c-0.2,0.3-0.4,0.7-0.6,1c-0.1,0.1-0.1,0.2-0.2,0.3
	c-0.1,0.2-0.2,0.4-0.3,0.6c-0.1,0.2-0.2,0.4-0.4,0.7c-0.1,0.2-0.2,0.4-0.3,0.6c-0.1,0.2-0.2,0.4-0.3,0.6c-0.1,0.1-0.1,0.3-0.2,0.4
	c-0.1,0.3-0.3,0.6-0.4,0.9c-0.1,0.2-0.2,0.3-0.2,0.5c0,0.1-0.1,0.1-0.1,0.2c-0.2,0.5-0.4,1.1-0.6,1.6s-0.4,1.1-0.6,1.6
	c0,0.1,0,0.1-0.1,0.2c-0.1,0.2-0.1,0.3-0.2,0.5c-0.1,0.3-0.2,0.6-0.3,0.9c0,0.2-0.1,0.3-0.1,0.5c-0.1,0.2-0.1,0.4-0.2,0.6
	c0,0.2-0.1,0.3-0.1,0.5c-0.1,0.3-0.1,0.5-0.2,0.8c0,0.2-0.1,0.4-0.1,0.6c0,0.1,0,0.2,0,0.2c-0.1,0.5-0.2,1.1-0.3,1.6v0.1v0.1v0.1
	v0.1c0,0.2,0,0.4-0.1,0.6c0,0.1,0,0.3-0.1,0.4c0,0.1,0,0.1,0,0.2s0,0.1,0,0.2v0.1c0,0.1,0,0.2,0,0.3c0,0.1,0,0.2,0,0.2
	c0,0.2,0,0.3,0,0.5v0.1v0.1c0,0.2,0,0.4,0,0.6c0,0.1,0,0.3,0,0.4s0,0.1,0,0.2c0,0,0,0,0,0.1c0,0,0,0,0,0.1c0,0.5,0,0.9,0,1.4
	c0.1,3.1,0.2,6.3,0.3,9.5l0.2,6.8c0.1,5.1,0.3,10.2,0.4,15.4l0.2,7.8c0,1.7,0.1,3.5,0.1,5.2l1.1,37.4c0.1,2.3,0.1,4.7,0.2,7
	l0.4,12.6c0.1,5.3,0.3,10.5,0.5,15.8l0.5,15.8c0.1,4.2,0.2,8.4,0.4,12.6l0.2,7c0.4,12.7,0.7,25.2,1.1,37.4l0.1,5.2
	c0.1,2.6,0.1,5.2,0.2,7.8l0.4,15.4c0.1,2.3,0.1,4.5,0.2,6.8l0.3,9.5v0.1c0,0.3,0,0.7,0,1c0,0.5,0,0.9,0.1,1.4v0.1
	c0,0.3,0.1,0.6,0.1,0.9c0,0.4,0.1,0.9,0.1,1.3c0,0.1,0,0.2,0,0.3c0,0.2,0.1,0.4,0.1,0.6c0,0.1,0,0.2,0,0.3c0.1,0.4,0.1,0.8,0.2,1.3
	c0,0.1,0,0.3,0.1,0.4c0,0.3,0.1,0.5,0.1,0.7c0.1,0.4,0.1,0.8,0.2,1.2c0,0.2,0.1,0.3,0.1,0.5c0.1,0.2,0.1,0.5,0.2,0.7
	c0.1,0.4,0.2,0.7,0.3,1.1c0.1,0.2,0.1,0.4,0.2,0.6c0.1,0.2,0.1,0.5,0.2,0.7c0.1,0.3,0.2,0.6,0.3,1c0.1,0.3,0.2,0.5,0.2,0.8
	c0.1,0.2,0.1,0.4,0.2,0.6c0.1,0.3,0.2,0.6,0.3,0.9c0.1,0.3,0.2,0.6,0.3,0.9c0.1,0.2,0.1,0.4,0.2,0.6c0.1,0.3,0.2,0.5,0.3,0.8
	c0.1,0.3,0.3,0.7,0.4,1c0.1,0.1,0.1,0.3,0.2,0.5v0.1c0.1,0.2,0.2,0.5,0.3,0.7c0.2,0.3,0.3,0.7,0.5,1c0.1,0.2,0.2,0.4,0.3,0.6
	c0,0,0,0,0,0.1c0.1,0.2,0.2,0.3,0.3,0.5c0.2,0.3,0.3,0.7,0.5,1c0.1,0.2,0.2,0.5,0.4,0.7c0.1,0.2,0.2,0.4,0.3,0.6
	c0.2,0.3,0.3,0.6,0.5,0.9c0.1,0.3,0.3,0.5,0.4,0.8c0.1,0.2,0.2,0.4,0.4,0.6c0.2,0.3,0.3,0.5,0.5,0.8s0.4,0.6,0.5,0.9
	c0.1,0.2,0.3,0.4,0.4,0.7c0.1,0.1,0.1,0.2,0.2,0.3s0.1,0.2,0.2,0.3c0.2,0.3,0.4,0.6,0.6,1c0.2,0.2,0.3,0.5,0.5,0.7
	c0.1,0.2,0.2,0.3,0.4,0.5c0.2,0.4,0.5,0.7,0.7,1c0.2,0.2,0.4,0.5,0.5,0.7c0.1,0.1,0.2,0.3,0.3,0.4c0.1,0.1,0.1,0.1,0.2,0.2
	c0.2,0.3,0.5,0.6,0.7,0.9c0.2,0.3,0.4,0.5,0.6,0.8c0.1,0.1,0.1,0.2,0.2,0.3c0.3,0.4,0.7,0.8,1,1.2c0,0.1,0.1,0.1,0.1,0.2
	c0.2,0.2,0.3,0.4,0.5,0.6l0,0c0.1,0.1,0.1,0.1,0.2,0.2c0.4,0.4,0.7,0.8,1.1,1.3c0.2,0.3,0.5,0.6,0.7,0.8l0,0c0.5,0.5,1,1,1.4,1.5
	c0.2,0.2,0.3,0.4,0.5,0.5l0.1,0.1c0.2,0.2,0.3,0.3,0.5,0.5c0.5,0.5,0.9,1,1.4,1.4c0.1,0.1,0.2,0.1,0.2,0.2c0.2,0.2,0.5,0.5,0.7,0.7
	c0.4,0.4,0.8,0.7,1.2,1.1c0.1,0.1,0.2,0.2,0.4,0.3c0.3,0.2,0.5,0.5,0.8,0.7c0.3,0.3,0.7,0.6,1,1c0.2,0.1,0.3,0.3,0.5,0.4
	c0.3,0.2,0.5,0.5,0.8,0.7c0.3,0.3,0.6,0.6,1,0.8c0.2,0.2,0.4,0.4,0.7,0.5c0.3,0.2,0.6,0.5,0.8,0.7c0.3,0.2,0.6,0.5,0.9,0.7
	s0.5,0.4,0.8,0.6c0.3,0.2,0.5,0.4,0.8,0.6c0.3,0.2,0.5,0.4,0.8,0.6c0.3,0.2,0.7,0.5,1,0.7c0.2,0.1,0.4,0.3,0.6,0.4
	c0.1,0.1,0.2,0.1,0.3,0.2c0.2,0.2,0.5,0.4,0.7,0.5c0.4,0.3,0.8,0.6,1.2,0.8l0,0c0.3,0.2,0.5,0.4,0.8,0.5c0.2,0.2,0.4,0.3,0.7,0.5
	c0.4,0.3,0.8,0.6,1.2,0.8c0.3,0.2,0.6,0.4,0.9,0.6c0.1,0,0.1,0.1,0.2,0.1c0.1,0.1,0.3,0.2,0.4,0.2c0.4,0.3,0.8,0.5,1.3,0.8
	c0.4,0.2,0.7,0.5,1.1,0.7c0.2,0.1,0.4,0.2,0.6,0.4c0.1,0.1,0.3,0.2,0.4,0.3c0.2,0.1,0.5,0.3,0.7,0.4c0.4,0.2,0.8,0.5,1.2,0.7
	c0.2,0.1,0.5,0.3,0.7,0.4c0.3,0.2,0.7,0.4,1,0.6c0.2,0.1,0.5,0.3,0.7,0.4c0.2,0.1,0.4,0.2,0.6,0.3c0.3,0.1,0.5,0.3,0.8,0.4
	c0.3,0.2,0.6,0.3,0.9,0.5c0.5,0.3,1,0.5,1.5,0.8c0.3,0.2,0.5,0.3,0.8,0.5c0.3,0.1,0.5,0.3,0.8,0.4c0.5,0.3,1.1,0.6,1.6,0.9
	c0.3,0.1,0.6,0.3,0.9,0.5c0.2,0.1,0.4,0.2,0.7,0.3c0.6,0.3,1.1,0.6,1.7,0.8c0.5,0.3,1,0.5,1.5,0.8c0.6,0.3,1.2,0.6,1.7,0.8
	s1,0.5,1.6,0.7c0.2,0.1,0.4,0.2,0.6,0.3h0.1c0.1,0.1,0.3,0.1,0.4,0.2c0.2,0.1,0.5,0.2,0.7,0.3c0.5,0.2,1,0.5,1.6,0.7
	c0.5,0.2,1,0.4,1.4,0.6c0.2,0.1,0.4,0.2,0.5,0.2c0.1,0.1,0.3,0.1,0.4,0.2c0.3,0.1,0.7,0.3,1,0.4c0.7,0.3,1.3,0.5,2,0.8
	c0.5,0.2,1,0.4,1.5,0.6c0.7,0.3,1.5,0.6,2.2,0.9c0.4,0.2,0.9,0.3,1.3,0.5c0.3,0.1,0.5,0.2,0.8,0.3c0.1,0,0.2,0.1,0.3,0.1
	c0.3,0.1,0.6,0.2,0.9,0.3s0.7,0.3,1,0.4c0.2,0.1,0.4,0.1,0.5,0.2c0.3,0.1,0.6,0.2,0.8,0.3c0.2,0.1,0.4,0.1,0.6,0.2
	c0.3,0.1,0.6,0.2,0.9,0.3c0.5,0.2,0.9,0.3,1.4,0.5c0.3,0.1,0.7,0.2,1,0.3s0.5,0.2,0.7,0.3c0.3,0.1,0.5,0.2,0.8,0.2
	c0.4,0.1,0.8,0.3,1.2,0.4c0.4,0.1,0.8,0.2,1.2,0.4c0.3,0.1,0.6,0.2,0.9,0.3c0.2,0.1,0.4,0.1,0.6,0.2c0.4,0.1,0.7,0.2,1.1,0.3
	c0.5,0.1,0.9,0.3,1.4,0.4c0.3,0.1,0.7,0.2,1,0.3c0.2,0.1,0.4,0.1,0.5,0.2c0.3,0.1,0.6,0.2,0.9,0.3c0.4,0.1,0.8,0.2,1.2,0.3
	c0.3,0.1,0.7,0.2,1,0.3c0.2,0.1,0.4,0.1,0.6,0.2c0.3,0.1,0.7,0.2,1,0.3c0.1,0,0.3,0.1,0.4,0.1c0.3,0.1,0.5,0.1,0.8,0.2
	c0.3,0.1,0.6,0.2,0.9,0.2c0.2,0.1,0.4,0.1,0.6,0.2c0.2,0.1,0.4,0.1,0.6,0.2c0.2,0,0.4,0.1,0.6,0.1c0.4,0.1,0.8,0.2,1.2,0.3
	c0.3,0.1,0.5,0.1,0.8,0.2c0.2,0.1,0.5,0.1,0.7,0.2c0.5,0.1,0.9,0.2,1.4,0.3c0.4,0.1,0.8,0.2,1.2,0.3c0.2,0,0.4,0.1,0.6,0.1
	c0.3,0.1,0.5,0.1,0.8,0.2c0.5,0.1,1,0.2,1.5,0.3c0.4,0.1,0.7,0.2,1.1,0.2c0.1,0,0.2,0,0.3,0.1c0.3,0.1,0.7,0.1,1,0.2
	c0.6,0.1,1.2,0.2,1.8,0.4c0.1,0,0.2,0,0.3,0.1c0.4,0.1,0.8,0.2,1.1,0.2c0.2,0,0.5,0.1,0.7,0.1c0.6,0.1,1.2,0.2,1.8,0.3
	c0.2,0,0.4,0.1,0.7,0.1c0.1,0,0.2,0,0.2,0c0.5,0.1,0.9,0.2,1.4,0.2c0.6,0.1,1.1,0.2,1.7,0.3c0.2,0,0.3,0.1,0.5,0.1s0.4,0.1,0.6,0.1
	c0.5,0.1,1.1,0.2,1.6,0.3c0.4,0.1,0.9,0.1,1.3,0.2c0.1,0,0.1,0,0.2,0c0.3,0.1,0.7,0.1,1,0.2c0.6,0.1,1.2,0.2,1.8,0.3
	c0.2,0,0.4,0.1,0.5,0.1c0.6,0.1,1.1,0.2,1.7,0.2h0.1c0.6,0.1,1.2,0.2,1.8,0.2c0.1,0,0.3,0,0.4,0.1c0.1,0,0.2,0,0.3,0
	c0.6,0.1,1.2,0.1,1.8,0.2c0.1,0,0.2,0,0.2,0c0.5,0.1,0.9,0.1,1.4,0.2l0,0c0.2,0,0.4,0,0.6,0.1c0.6,0.1,1.2,0.1,1.9,0.2
	c0.4,0,0.9,0.1,1.3,0.1c0.1,0,0.2,0,0.2,0c0.3,0,0.7,0.1,1,0.1c0.5,0.1,1.1,0.1,1.6,0.2c0.3,0,0.6,0.1,0.9,0.1c0.2,0,0.5,0,0.7,0.1
	c0.4,0,0.8,0.1,1.2,0.1c0.4,0,0.8,0.1,1.2,0.1c0.2,0,0.4,0,0.6,0.1c0.4,0,0.8,0.1,1.2,0.1c0.5,0,1,0.1,1.4,0.1c0.3,0,0.5,0,0.8,0.1
	c0.1,0,0.2,0,0.3,0c0.6,0,1.3,0.1,1.9,0.1c0.5,0,1,0.1,1.5,0.1c0.1,0,0.3,0,0.4,0c0,0,0,0,0.1,0c1.2,0.1,2.3,0.1,3.5,0.2
	c0.1,0,0.3,0,0.4,0l0,0c0.1,0,0.1,0,0.2,0c0.4,0,0.9,0,1.3,0c0.8,0,1.6,0.1,2.4,0.1c0.1,0,0.3,0,0.4,0s0.3,0,0.4,0
	c0.4,0,0.9,0,1.3,0c0.6,0,1.2,0,1.8,0c0.1,0,0.3,0,0.4,0s0.3,0,0.4,0s0.3,0,0.4,0s0.3,0,0.4,0c1.3,0,2.5,0,3.8,0c0.1,0,0.2,0,0.3,0
	c0.2,0,0.3,0,0.5,0c0.4,0,0.8,0,1.2,0c0.6,0,1.3,0,1.9,0c0.2,0,0.3,0,0.5,0c0.3,0,0.6,0,0.9,0c0.4,0,0.8,0,1.2,0s0.7,0,1.1,0
	c0.2,0,0.5,0,0.7,0c0.5,0,0.9,0,1.4,0c0.4,0,0.7,0,1.1,0c0.2,0,0.3,0,0.5,0c0.3,0,0.5,0,0.8,0c0.7,0,1.3-0.1,2-0.1
	c0.5,0,0.9,0,1.4-0.1c0.1,0,0.3,0,0.4,0c0.2,0,0.4,0,0.6,0c0.7,0,1.3-0.1,2-0.1c0.5,0,1.1-0.1,1.6-0.1c0.1,0,0.3,0,0.4,0
	c0.1,0,0.3,0,0.4,0c0.7,0,1.3-0.1,2-0.2c0.6,0,1.2-0.1,1.7-0.1c0.1,0,0.3,0,0.4,0c0.1,0,0.1,0,0.2,0c0.7-0.1,1.3-0.1,2-0.2
	c0.6-0.1,1.3-0.1,1.9-0.2h0.1c0.1,0,0.2,0,0.3,0l0,0c0.7-0.1,1.4-0.1,2.1-0.2c0.6-0.1,1.2-0.1,1.8-0.2c0.4,0,0.7-0.1,1.1-0.1
	c0.1,0,0.3,0,0.4,0c0.3,0,0.5-0.1,0.8-0.1c0.2,0,0.3,0,0.5-0.1c0.5-0.1,1-0.1,1.5-0.2c0.6-0.1,1.2-0.2,1.8-0.3
	c0.3,0,0.5-0.1,0.8-0.1c0.2,0,0.3-0.1,0.5-0.1c0.3,0,0.7-0.1,1-0.1c0.4-0.1,0.9-0.1,1.3-0.2c0.7-0.1,1.5-0.2,2.2-0.3
	c0.1,0,0.1,0,0.2,0l0,0c0.1,0,0.2,0,0.4-0.1c0.6-0.1,1.1-0.2,1.7-0.3c0.8-0.1,1.6-0.3,2.4-0.4c0.2,0,0.4-0.1,0.6-0.1c0,0,0,0,0.1,0
	c0.3-0.1,0.6-0.1,0.9-0.2c0.1,0,0.1,0,0.2,0c0.8-0.1,1.5-0.3,2.3-0.4c0.3-0.1,0.6-0.1,0.9-0.2c0.3-0.1,0.7-0.1,1-0.2
	c0.7-0.1,1.4-0.3,2.1-0.4c0.4-0.1,0.7-0.1,1.1-0.2c0.1,0,0.1,0,0.2,0c0.2-0.1,0.5-0.1,0.7-0.2c0.3-0.1,0.6-0.1,0.9-0.2
	c0.4-0.1,0.8-0.2,1.1-0.3c0.4-0.1,0.8-0.2,1.2-0.3c0.2-0.1,0.5-0.1,0.7-0.2c0.7-0.2,1.3-0.3,2-0.5c0.3-0.1,0.7-0.2,1-0.2
	c0.1,0,0.2-0.1,0.3-0.1s0.2-0.1,0.3-0.1s0.1,0,0.2-0.1c0.7-0.2,1.3-0.3,1.9-0.5c0.5-0.1,1-0.3,1.5-0.4c0.8-0.2,1.7-0.5,2.5-0.7
	c0.4-0.1,0.8-0.2,1.2-0.3c0.2-0.1,0.4-0.1,0.5-0.2c0.1,0,0.1,0,0.2-0.1c0.3-0.1,0.6-0.2,0.9-0.3c0.6-0.2,1.1-0.3,1.7-0.5
	c0.1,0,0.2-0.1,0.3-0.1c0.2-0.1,0.4-0.1,0.6-0.2c0.4-0.1,0.9-0.3,1.3-0.4c0.6-0.2,1.1-0.4,1.7-0.5c0.3-0.1,0.5-0.2,0.8-0.3
	c0.2-0.1,0.4-0.1,0.5-0.2c0.2-0.1,0.4-0.1,0.6-0.2c0.5-0.2,1-0.3,1.6-0.5c0.4-0.2,0.9-0.3,1.3-0.5c0.3-0.1,0.7-0.2,1-0.4
	c0.4-0.1,0.7-0.3,1.1-0.4c0.5-0.2,1-0.4,1.5-0.5c0.6-0.2,1.3-0.5,1.9-0.7c0.5-0.2,1-0.4,1.5-0.6c0.5-0.2,1-0.4,1.5-0.6
	c0.2-0.1,0.4-0.2,0.6-0.2c0.4-0.2,0.8-0.3,1.2-0.5c0.6-0.2,1.2-0.5,1.8-0.8c0.1,0,0.2-0.1,0.3-0.1c0.1-0.1,0.3-0.1,0.4-0.2
	c0,0,0,0,0.1,0c0.3-0.1,0.5-0.2,0.8-0.3c0.6-0.3,1.2-0.5,1.7-0.8c0.4-0.2,0.8-0.4,1.2-0.5c0.1-0.1,0.2-0.1,0.3-0.2
	c0.6-0.3,1.1-0.5,1.7-0.8c0.5-0.2,0.9-0.4,1.4-0.7c0.1-0.1,0.3-0.1,0.4-0.2h0.1c0.1-0.1,0.3-0.1,0.4-0.2c0.3-0.2,0.6-0.3,1-0.5
	s0.8-0.4,1.2-0.6c0.2-0.1,0.4-0.2,0.7-0.3c0.4-0.2,0.7-0.4,1-0.6c0.3-0.2,0.6-0.3,0.9-0.5c0.2-0.1,0.4-0.2,0.6-0.3
	c0.2-0.1,0.5-0.3,0.7-0.4c0.2-0.1,0.4-0.2,0.6-0.3c0.2-0.1,0.3-0.2,0.5-0.3c0.3-0.1,0.5-0.3,0.8-0.4c0.3-0.2,0.6-0.4,1-0.6
	c0.1,0,0.1-0.1,0.2-0.1c0.3-0.2,0.7-0.4,1-0.6c0.2-0.1,0.4-0.3,0.6-0.4c0.4-0.2,0.7-0.4,1.1-0.6c0.3-0.2,0.5-0.3,0.8-0.5
	c0.1-0.1,0.2-0.1,0.3-0.2l0,0c0.2-0.1,0.4-0.2,0.5-0.3s0.3-0.2,0.4-0.2c0.2-0.1,0.4-0.3,0.7-0.4c0.4-0.2,0.8-0.5,1.1-0.7
	c0.2-0.1,0.3-0.2,0.5-0.3c0.3-0.2,0.6-0.4,1-0.6c0.4-0.3,0.8-0.5,1.2-0.8c0.1-0.1,0.2-0.1,0.3-0.2c0.1-0.1,0.2-0.1,0.3-0.2
	c0.3-0.2,0.5-0.4,0.8-0.5c0.4-0.3,0.9-0.6,1.3-0.9c0.2-0.2,0.4-0.3,0.6-0.5c0.2-0.1,0.4-0.3,0.5-0.4c0.5-0.4,0.9-0.7,1.4-1.1
	c0.2-0.1,0.4-0.3,0.5-0.4c0,0,0,0,0.1-0.1s0.2-0.2,0.4-0.3c0.5-0.4,1-0.8,1.4-1.2c0.3-0.2,0.6-0.4,0.8-0.7c0.5-0.5,1.1-0.9,1.6-1.4
	c0.2-0.2,0.4-0.3,0.6-0.5c0,0,0.1,0,0.1-0.1l0,0l0,0c0.7-0.6,1.3-1.2,1.9-1.8c0.2-0.2,0.3-0.3,0.5-0.5c0.1-0.1,0.2-0.2,0.3-0.2
	c0.1-0.1,0.2-0.2,0.4-0.4c0.3-0.3,0.6-0.6,0.9-0.9c0.3-0.3,0.5-0.5,0.8-0.8l0.1-0.1c0.1-0.1,0.3-0.2,0.4-0.4
	c0.1-0.1,0.1-0.1,0.1-0.2c0.2-0.2,0.3-0.3,0.5-0.5c0.3-0.3,0.6-0.6,0.8-0.9c0.3-0.3,0.6-0.6,0.9-0.9l0.1-0.1l0.1-0.1
	c0.2-0.3,0.5-0.5,0.7-0.8c0.3-0.4,0.6-0.7,0.9-1.1c0.1-0.2,0.3-0.4,0.5-0.5c0,0,0,0,0.1-0.1s0.2-0.3,0.3-0.4
	c0.1-0.2,0.3-0.3,0.4-0.5c0.2-0.2,0.3-0.4,0.4-0.6c0.2-0.2,0.3-0.4,0.5-0.6l0.1-0.1c0.1-0.1,0.1-0.2,0.2-0.3
	c0.3-0.4,0.5-0.7,0.8-1.1c0.2-0.2,0.4-0.5,0.5-0.7l0.1-0.1l0.1-0.1c0.3-0.4,0.5-0.8,0.8-1.1c0.2-0.3,0.4-0.5,0.5-0.8
	c0-0.1,0.1-0.1,0.1-0.2l0,0c0.3-0.4,0.6-0.9,0.8-1.3c0.1-0.2,0.3-0.4,0.4-0.6c0-0.1,0.1-0.2,0.1-0.2s0-0.1,0.1-0.1
	c0.2-0.3,0.3-0.5,0.4-0.8c0.2-0.3,0.4-0.7,0.6-1l0,0c0,0,0-0.1,0.1-0.1c0,0,0-0.1,0.1-0.1c0.1-0.2,0.3-0.5,0.4-0.7
	c0.2-0.4,0.4-0.8,0.6-1.1l0.1-0.1l0,0c0.1-0.2,0.2-0.5,0.4-0.7c0.2-0.4,0.4-0.8,0.6-1.2c0-0.1,0.1-0.1,0.1-0.2l0,0
	c0.1-0.2,0.2-0.4,0.3-0.6c0,0,0,0,0-0.1c0.2-0.4,0.3-0.8,0.5-1.2c0-0.1,0.1-0.1,0.1-0.2c0,0,0-0.1,0.1-0.1c0.1-0.2,0.2-0.5,0.3-0.7
	c0,0,0,0,0-0.1c0.1-0.3,0.2-0.6,0.4-0.9c0,0,0-0.1,0.1-0.1c0-0.1,0.1-0.2,0.1-0.3c0.1-0.3,0.2-0.5,0.3-0.8s0.2-0.5,0.3-0.8v-0.1
	c0.1-0.2,0.1-0.3,0.2-0.5c0.1-0.3,0.2-0.6,0.3-0.9c0.1-0.2,0.1-0.4,0.2-0.6l0,0c0.1-0.2,0.1-0.5,0.2-0.7c0.1-0.3,0.2-0.6,0.2-0.9
	c0-0.1,0.1-0.3,0.1-0.4l0,0c0-0.2,0.1-0.3,0.1-0.5s0.1-0.3,0.1-0.5c0.1-0.2,0.1-0.5,0.2-0.7c0-0.1,0-0.1,0-0.2v-0.1
	c0.1-0.3,0.1-0.5,0.2-0.8c0.1-0.3,0.1-0.7,0.2-1l0,0c0-0.1,0-0.2,0-0.3c0-0.3,0.1-0.5,0.1-0.8s0.1-0.6,0.1-0.9c0-0.1,0-0.2,0-0.3
	s0-0.2,0-0.3c0-0.2,0-0.4,0.1-0.6c0-0.2,0.1-0.5,0.1-0.7c0-0.1,0-0.2,0-0.2c0-0.1,0-0.2,0-0.2c0-0.1,0-0.2,0-0.2c0-0.1,0-0.1,0-0.2
	l0,0L677.2,601.4z"/>
</svg>
