<?xml version="1.0" encoding="utf-8"?>
<!-- Generator: Adobe Illustrator 23.0.5, SVG Export Plug-In . SVG Version: 6.00 Build 0)  -->
<svg version="1.1" id="Capa_1" xmlns="http://www.w3.org/2000/svg" xmlns:xlink="http://www.w3.org/1999/xlink" x="0px" y="0px"
	 viewBox="0 0 1000 1000" style="enable-background:new 0 0 1000 1000;" xml:space="preserve">
<style type="text/css">
	.st0{fill:none;}
	.st1{fill:#FF9CF5;}
</style>
<rect class="st0" width="1000" height="1000"/>
<path class="st1" d="M762.9,421.9c0-0.2,0-0.4,0-0.7c0-0.9,0.1-1.7,0.1-2.6v-0.1c0-0.1,0-0.3,0-0.4c0-0.9,0-1.7-0.1-2.6
	c0-0.2,0-0.3,0-0.5c-0.1-0.9-0.1-1.8-0.3-2.7c0-0.2,0-0.4-0.1-0.6c0-0.2,0-0.4-0.1-0.7c-0.1-0.7-0.2-1.4-0.3-2.1
	c0-0.1-0.1-0.3-0.1-0.4c-0.2-0.9-0.3-1.8-0.6-2.7c0-0.1,0-0.2-0.1-0.3c-0.2-0.7-0.3-1.4-0.5-2c-0.1-0.3-0.2-0.5-0.2-0.8
	c-0.1-0.2-0.1-0.4-0.2-0.6c-0.3-0.9-0.6-1.9-0.9-2.8c-0.1-0.2-0.1-0.3-0.2-0.5c-0.3-1-0.7-2-1.1-2.9c-0.5-1.1-1-2.3-1.5-3.4
	c-0.2-0.4-0.4-0.7-0.5-1.1c-0.4-0.8-0.7-1.5-1.1-2.3c-0.2-0.4-0.5-0.9-0.7-1.3c-0.4-0.7-0.8-1.4-1.2-2c-0.3-0.4-0.5-0.9-0.8-1.3
	c-0.4-0.7-0.8-1.3-1.3-2c-0.3-0.4-0.6-0.9-0.9-1.3c-0.5-0.7-1-1.4-1.4-2.1c-0.3-0.4-0.6-0.8-0.8-1.2c-0.7-0.9-1.4-1.8-2.1-2.7
	c-0.2-0.2-0.3-0.4-0.5-0.7c-0.8-1-1.6-1.9-2.4-2.9c-0.3-0.4-0.7-0.8-1-1.2c-0.6-0.6-1.2-1.3-1.8-1.9c-0.1-0.1-0.3-0.3-0.4-0.4
	c-0.3-0.3-0.6-0.6-0.8-0.9c-0.6-0.6-1.1-1.2-1.7-1.7c-0.4-0.4-0.9-0.9-1.3-1.3c-0.6-0.6-1.2-1.1-1.8-1.7c-0.4-0.4-0.9-0.8-1.3-1.3
	c-0.6-0.6-1.3-1.2-2-1.8c-0.4-0.4-0.9-0.8-1.3-1.2c-0.8-0.7-1.6-1.3-2.4-2c-0.4-0.3-0.7-0.6-1.1-0.9c-1.2-0.9-2.3-1.9-3.6-2.8
	c-0.2-0.1-0.4-0.3-0.6-0.4c-0.9-0.7-1.9-1.4-2.8-2.1c-0.1-0.1-0.2-0.2-0.4-0.3c-0.4-0.3-0.8-0.6-1.2-0.9c-0.9-0.6-1.7-1.2-2.6-1.8
	c-0.5-0.3-1-0.7-1.5-1c-0.8-0.6-1.6-1.1-2.5-1.6c-0.3-0.2-0.6-0.4-0.8-0.6c-0.3-0.2-0.5-0.3-0.8-0.5c-0.8-0.5-1.6-1-2.4-1.5
	c-0.5-0.3-1.1-0.7-1.7-1c-0.9-0.5-1.8-1.1-2.7-1.6c-0.5-0.3-1-0.6-1.5-0.9c-1.3-0.8-2.6-1.5-4-2.3c-0.4-0.2-0.8-0.4-1.2-0.6
	c-1.1-0.6-2.3-1.3-3.4-1.9c-0.6-0.3-1.2-0.6-1.8-0.9c-0.9-0.5-1.8-0.9-2.7-1.4c-0.7-0.3-1.3-0.7-2-1c-0.9-0.4-1.8-0.9-2.6-1.3
	c-0.7-0.3-1.4-0.7-2.1-1c-0.9-0.4-1.8-0.9-2.7-1.3c-0.7-0.3-1.4-0.6-2.1-1c-1-0.4-2-0.9-2.9-1.3c-0.5-0.2-1-0.4-1.5-0.7
	c-0.2-0.1-0.3-0.1-0.5-0.2c-1.2-0.5-2.4-1-3.6-1.5c-0.4-0.2-0.9-0.4-1.3-0.6c-1.6-0.7-3.3-1.4-5-2c-0.5-0.2-1-0.4-1.4-0.6
	c-1.2-0.5-2.5-1-3.7-1.4c-0.6-0.2-1.3-0.5-1.9-0.7c-0.8-0.3-1.5-0.6-2.3-0.9c-0.3-0.1-0.7-0.2-1-0.4c-0.7-0.2-1.3-0.5-2-0.7
	c-1.1-0.4-2.2-0.8-3.3-1.2c-0.7-0.2-1.4-0.5-2.1-0.7c-1.1-0.4-2.2-0.8-3.4-1.1c-0.7-0.2-1.4-0.5-2.1-0.7c-1.2-0.4-2.5-0.8-3.7-1.2
	c-0.6-0.2-1.2-0.4-1.8-0.6c-1.8-0.6-3.6-1.1-5.4-1.7c-0.1,0-0.1,0-0.2-0.1c-0.3-0.1-0.6-0.2-0.9-0.3c-1.7-0.5-3.4-1-5-1.5
	c-0.3-0.1-0.6-0.2-0.9-0.3c-0.4-0.1-0.9-0.2-1.3-0.4c-1.4-0.4-2.8-0.8-4.3-1.2c-0.5-0.1-0.9-0.3-1.4-0.4c-0.2-0.1-0.5-0.1-0.7-0.2
	c-2-0.5-4.1-1.1-6.2-1.6c-0.1,0-0.1,0-0.2-0.1c-0.4-0.1-0.7-0.2-1.1-0.3c-1.7-0.4-3.4-0.8-5.2-1.2c-0.3-0.1-0.6-0.1-0.9-0.2
	c-0.6-0.1-1.2-0.3-1.8-0.4c-0.9-0.2-1.8-0.4-2.7-0.6c-0.4-0.1-0.8-0.2-1.3-0.3c-0.5-0.1-1.1-0.2-1.7-0.4c-0.9-0.2-1.8-0.4-2.8-0.6
	c-0.5-0.1-0.9-0.2-1.4-0.3c-0.5-0.1-1-0.2-1.5-0.3c-1-0.2-1.9-0.4-2.9-0.6c-0.5-0.1-1-0.2-1.5-0.3c-0.4-0.1-0.9-0.2-1.3-0.3
	c-1-0.2-2-0.4-3-0.6c-0.5-0.1-1-0.2-1.6-0.3c-0.4-0.1-0.9-0.2-1.3-0.2c-0.8-0.1-1.6-0.3-2.4-0.4c-0.5-0.1-1-0.2-1.5-0.3
	c-0.5-0.1-1-0.2-1.6-0.3c-0.4-0.1-0.9-0.2-1.3-0.2c-0.4-0.1-0.8-0.1-1.1-0.2c-0.4-0.1-0.9-0.1-1.3-0.2c-0.6-0.1-1.2-0.2-1.8-0.3
	c-0.8-0.1-1.6-0.3-2.5-0.4c-0.4-0.1-0.7-0.1-1.1-0.2c-0.7-0.1-1.4-0.2-2-0.3c-0.8-0.1-1.6-0.2-2.4-0.4c-0.3,0-0.6-0.1-0.9-0.1
	c-0.9-0.1-1.9-0.3-2.8-0.4c-0.5-0.1-1.1-0.2-1.6-0.2c-0.2,0-0.4-0.1-0.6-0.1c-1.7-0.2-3.4-0.4-5-0.7c-1.7-0.2-3.4-0.4-5.1-0.6
	c-0.2,0-0.3,0-0.5-0.1c-0.3,0-0.6-0.1-0.9-0.1c-1.2-0.1-2.5-0.3-3.7-0.4c-0.3,0-0.7-0.1-1-0.1c-0.5,0-0.9-0.1-1.4-0.1
	c-0.9-0.1-1.7-0.2-2.6-0.3c-0.6-0.1-1.1-0.1-1.7-0.2c-0.5,0-1-0.1-1.5-0.1c-0.6-0.1-1.1-0.1-1.7-0.2c-0.9-0.1-1.8-0.2-2.7-0.2
	c-0.4,0-0.9-0.1-1.3-0.1c-0.3,0-0.7-0.1-1-0.1c-1.5-0.1-3-0.2-4.5-0.4h-0.1c-0.1,0-0.3,0-0.4,0c-1.6-0.1-3.3-0.2-5-0.4
	c-0.2,0-0.4,0-0.5,0c-0.2,0-0.5,0-0.7,0c-1.2-0.1-2.5-0.2-3.7-0.2c-0.4,0-0.8,0-1.2-0.1c-0.5,0-1-0.1-1.5-0.1
	c-0.7,0-1.5-0.1-2.2-0.1s-1.3-0.1-2-0.1c-0.6,0-1.1-0.1-1.7-0.1c-0.5,0-0.9,0-1.4-0.1c-1,0-1.9-0.1-2.9-0.1c-0.5,0-1,0-1.6-0.1
	c-0.2,0-0.5,0-0.7,0c-1.7-0.1-3.4-0.1-5.2-0.2c-1.7,0-3.5-0.1-5.2-0.1c-0.2,0-0.4,0-0.5,0c-0.6,0-1.2,0-1.8,0c-1,0-1.9,0-2.9,0
	c-0.2,0-0.3,0-0.5,0s-0.3,0-0.5,0s-0.3,0-0.5,0s-0.3,0-0.5,0c-1.7,0-3.3,0-5,0c-0.2,0-0.5,0-0.7,0c-0.6,0-1.1,0-1.7,0
	c-0.8,0-1.7,0-2.5,0c-0.5,0-1,0-1.5,0c-0.6,0-1.2,0-1.9,0c-0.5,0-1.1,0-1.6,0c-0.9,0-1.7,0-2.6,0.1c-0.5,0-1,0-1.5,0
	c-0.3,0-0.6,0-0.8,0c-0.9,0-1.9,0.1-2.8,0.1c-0.8,0-1.7,0-2.5,0.1c-0.2,0-0.5,0-0.7,0c-1,0-2,0.1-3,0.1c-0.8,0-1.5,0.1-2.3,0.1
	c-0.2,0-0.5,0-0.8,0c-1,0-2.1,0.1-3.1,0.2c-0.7,0-1.4,0.1-2.1,0.1c-0.2,0-0.5,0-0.7,0c-1.1,0.1-2.1,0.1-3.1,0.2
	c-0.7,0-1.4,0.1-2,0.1c-0.2,0-0.5,0-0.7,0c-0.7,0-1.3,0.1-2,0.1c-1.3,0.1-2.6,0.2-3.9,0.3c-0.4,0-0.8,0.1-1.2,0.1
	c-0.6,0-1.1,0.1-1.7,0.1c-1.2,0.1-2.5,0.2-3.7,0.3c-0.5,0-1.1,0.1-1.6,0.1c-0.4,0-0.8,0.1-1.1,0.1c-1.3,0.1-2.7,0.3-4,0.4
	c-0.6,0.1-1.2,0.1-1.9,0.2c-0.2,0-0.4,0-0.6,0.1c-2.1,0.2-4.1,0.4-6.2,0.7h-0.1c-1,0.1-2,0.2-3,0.4c-0.9,0.1-1.8,0.2-2.7,0.3
	c-0.9,0.1-1.8,0.2-2.7,0.4c-1,0.1-2,0.3-3,0.4c-0.1,0-0.2,0-0.3,0c-0.7,0.1-1.5,0.2-2.2,0.3c-1,0.2-2.1,0.3-3.1,0.5
	c-0.8,0.1-1.7,0.3-2.5,0.4c-0.9,0.1-1.8,0.3-2.6,0.4c-0.2,0-0.3,0.1-0.5,0.1s-0.3,0-0.5,0.1c-0.7,0.1-1.4,0.2-2.1,0.4
	c-1,0.2-2,0.3-2.9,0.5s-1.8,0.3-2.7,0.5c-0.9,0.2-1.9,0.3-2.8,0.5c-0.2,0-0.4,0.1-0.6,0.1c-0.7,0.1-1.4,0.3-2.1,0.4
	c-0.9,0.2-1.8,0.3-2.7,0.5c-0.9,0.2-1.9,0.4-2.8,0.6c-0.8,0.2-1.7,0.3-2.5,0.5c-0.3,0.1-0.5,0.1-0.8,0.2c-0.6,0.1-1.1,0.2-1.7,0.4
	c-1.1,0.2-2.1,0.5-3.2,0.7c-0.9,0.2-1.7,0.4-2.5,0.6c-1,0.2-2,0.5-3,0.7c-0.5,0.1-1,0.2-1.4,0.3c-0.4,0.1-0.7,0.2-1.1,0.3
	c-1,0.2-2,0.5-3,0.7c-0.8,0.2-1.7,0.4-2.5,0.6c-1,0.3-2.1,0.6-3.1,0.8c-0.6,0.2-1.2,0.3-1.9,0.5c-0.1,0-0.3,0.1-0.4,0.1
	c-1.7,0.5-3.4,0.9-5.1,1.4c-0.5,0.2-1,0.3-1.5,0.5c-1.2,0.4-2.5,0.7-3.7,1.1c-0.2,0-0.3,0.1-0.5,0.1c-0.5,0.2-1,0.3-1.6,0.5
	c-1,0.3-2.1,0.7-3.1,1c-0.7,0.2-1.4,0.5-2.1,0.7c-1,0.3-2,0.7-3,1c-0.3,0.1-0.7,0.2-1,0.3c-0.4,0.1-0.7,0.3-1.1,0.4
	c-0.9,0.3-1.7,0.6-2.5,0.9c-0.7,0.3-1.4,0.5-2.1,0.8c-0.9,0.3-1.7,0.6-2.6,0.9c-0.4,0.2-0.9,0.3-1.3,0.5c-0.2,0.1-0.5,0.2-0.7,0.3
	c-0.3,0.1-0.6,0.2-0.8,0.3c-0.6,0.2-1.1,0.4-1.7,0.7c-0.7,0.3-1.4,0.5-2.1,0.8c-0.8,0.3-1.6,0.7-2.4,1c-0.5,0.2-1,0.4-1.5,0.6
	c-0.2,0.1-0.3,0.1-0.5,0.2c-0.8,0.3-1.6,0.7-2.4,1c-0.7,0.3-1.3,0.6-2,0.9c-0.8,0.3-1.5,0.7-2.3,1c-0.6,0.3-1.1,0.5-1.7,0.8
	c-0.1,0-0.2,0.1-0.3,0.1c-0.7,0.3-1.5,0.7-2.2,1.1c-0.7,0.3-1.3,0.6-2,0.9s-1.4,0.7-2.1,1.1c-0.6,0.3-1.3,0.6-1.9,0.9
	c-0.1,0-0.2,0.1-0.2,0.1c-1.4,0.7-2.8,1.4-4.1,2.2c-0.2,0.1-0.3,0.2-0.5,0.2c-0.4,0.2-0.7,0.4-1.1,0.6c-0.9,0.5-1.8,1-2.8,1.5
	c-0.3,0.2-0.6,0.3-0.8,0.5c-0.3,0.2-0.5,0.3-0.8,0.5c-0.9,0.5-1.8,1.1-2.7,1.6c-0.3,0.2-0.7,0.4-1,0.6c-0.1,0.1-0.3,0.2-0.4,0.3
	c-1.2,0.8-2.4,1.5-3.6,2.3c-0.1,0.1-0.2,0.1-0.3,0.2c-0.5,0.4-1.1,0.7-1.6,1.1c-0.6,0.4-1.2,0.8-1.8,1.2c0,0-0.1,0-0.1,0.1
	c-0.5,0.3-0.9,0.7-1.4,1c-0.6,0.4-1.2,0.9-1.8,1.3l-0.1,0.1c-0.4,0.3-0.8,0.6-1.2,0.9c-0.6,0.4-1.2,0.9-1.8,1.3
	c-0.1,0-0.1,0.1-0.2,0.1c-0.4,0.3-0.8,0.6-1.1,0.9c-0.6,0.5-1.2,0.9-1.7,1.4c-0.1,0.1-0.2,0.1-0.2,0.2c-0.5,0.4-1,0.8-1.5,1.2
	c-0.3,0.3-0.6,0.5-0.9,0.8l-0.1,0.1c-0.1,0-0.1,0.1-0.2,0.1c-0.9,0.7-1.7,1.5-2.5,2.2c0,0,0,0-0.1,0.1l0,0c-0.8,0.8-1.7,1.5-2.5,2.3
	l-0.1,0.1c-0.3,0.2-0.5,0.5-0.7,0.7c-0.5,0.5-1,1-1.5,1.5c-0.1,0.1-0.2,0.2-0.3,0.3c-0.2,0.2-0.5,0.5-0.7,0.8
	c-0.4,0.4-0.8,0.8-1.1,1.2c-0.2,0.2-0.3,0.4-0.5,0.5c-0.3,0.3-0.5,0.6-0.8,0.9s-0.5,0.6-0.8,0.9c-0.2,0.3-0.5,0.6-0.7,0.8
	c-0.2,0.3-0.5,0.6-0.7,0.9c-0.2,0.2-0.3,0.4-0.5,0.6c-0.3,0.4-0.6,0.8-0.9,1.2c-0.2,0.3-0.4,0.5-0.6,0.8c-0.1,0.1-0.2,0.2-0.3,0.4
	c-0.5,0.7-1.1,1.4-1.6,2.1c0,0,0,0,0,0.1c0,0,0,0.1-0.1,0.1c-0.5,0.8-1.1,1.5-1.6,2.3c-0.1,0.1-0.1,0.2-0.2,0.3
	c-0.1,0.2-0.2,0.4-0.4,0.6c-0.3,0.5-0.6,1-0.9,1.5c-0.1,0.2-0.2,0.4-0.3,0.6c-0.2,0.3-0.3,0.5-0.5,0.8s-0.4,0.6-0.6,1
	c-0.2,0.3-0.3,0.6-0.5,0.9s-0.3,0.6-0.5,0.8c-0.1,0.2-0.2,0.4-0.3,0.6c-0.2,0.5-0.5,1-0.7,1.4c-0.1,0.2-0.2,0.5-0.3,0.7
	c0,0.1-0.1,0.2-0.1,0.3c-0.4,0.8-0.7,1.6-1.1,2.4l0,0l0,0c-0.3,0.8-0.6,1.6-0.9,2.4c0,0.1-0.1,0.2-0.1,0.3c-0.1,0.3-0.2,0.5-0.3,0.8
	c-0.1,0.4-0.3,0.8-0.4,1.3c-0.1,0.2-0.1,0.5-0.2,0.7c-0.1,0.3-0.2,0.6-0.3,0.9c-0.1,0.2-0.2,0.5-0.2,0.7c-0.1,0.4-0.2,0.8-0.3,1.2
	c-0.1,0.3-0.2,0.6-0.2,0.9c0,0.1-0.1,0.2-0.1,0.4c-0.2,0.8-0.4,1.6-0.5,2.5c0,0.1,0,0.1,0,0.2s0,0.1,0,0.2s0,0.1,0,0.2s0,0.1,0,0.2
	c-0.1,0.5-0.2,1.1-0.2,1.6c0,0.3-0.1,0.6-0.1,0.9l0,0c0,0.1,0,0.1,0,0.2s0,0.1,0,0.2c-0.1,0.9-0.2,1.7-0.3,2.6c0,0.1,0,0.2,0,0.3
	l0,0l0,0l0,0v0.1c-0.1,0.9-0.1,1.8-0.1,2.7c0,0.1,0,0.1,0,0.2s0,0.1,0,0.2l0,0c0,0.3,0,0.6,0,0.8c0,0.5,0,1.1,0,1.6
	c0,0.1,0,0.1,0,0.2s0,0.1,0,0.2s0,0.1,0,0.2l0,0l0,0v0.1c3,69,6,138,8.9,207l0,0v0.1c0,1.1,0.1,2.3,0.2,3.4c0,0.1,0,0.1,0,0.2
	c0,0.4,0.1,0.8,0.1,1.1c0.1,0.7,0.1,1.5,0.2,2.2c0,0.1,0,0.2,0,0.3c0.1,0.4,0.1,0.8,0.2,1.3c0.1,0.6,0.2,1.3,0.3,1.9
	c0,0.2,0.1,0.3,0.1,0.5c0.1,0.4,0.2,0.8,0.3,1.2c0.1,0.6,0.2,1.2,0.4,1.8c0,0.2,0.1,0.4,0.1,0.7c0.1,0.4,0.2,0.8,0.3,1.2
	c0.1,0.6,0.3,1.1,0.4,1.7c0.1,0.3,0.1,0.5,0.2,0.8c0.1,0.4,0.2,0.7,0.3,1.1c0.2,0.5,0.3,1,0.5,1.6c0.1,0.3,0.2,0.6,0.3,0.9
	c0.1,0.3,0.2,0.7,0.3,1c0.2,0.5,0.3,1,0.5,1.5c0.1,0.4,0.3,0.7,0.4,1.1c0.1,0.3,0.2,0.6,0.4,0.9c0.2,0.5,0.4,1,0.6,1.4
	c0.2,0.4,0.3,0.8,0.5,1.2c0.1,0.2,0.1,0.3,0.2,0.5c0.1,0.1,0.1,0.3,0.2,0.4c0.2,0.5,0.4,0.9,0.6,1.4c0.2,0.5,0.4,0.9,0.6,1.4
	c0.1,0.3,0.2,0.5,0.4,0.8c0.2,0.4,0.4,0.9,0.6,1.3c0.2,0.5,0.5,1,0.8,1.5c0,0,0,0.1,0.1,0.1c0.1,0.2,0.2,0.4,0.3,0.6
	c0.2,0.4,0.4,0.8,0.7,1.2c0.3,0.5,0.5,1,0.8,1.5c0.1,0.3,0.3,0.5,0.4,0.8c0.2,0.3,0.3,0.5,0.5,0.8c0.1,0.1,0.1,0.2,0.2,0.3
	c0.2,0.3,0.4,0.6,0.6,1c0.1,0.2,0.2,0.3,0.3,0.5c0.2,0.3,0.4,0.6,0.5,0.9c0.3,0.4,0.5,0.8,0.8,1.2s0.6,0.9,0.8,1.3
	c0.2,0.3,0.4,0.6,0.6,0.9c0.3,0.4,0.6,0.9,0.9,1.3c0.3,0.4,0.5,0.8,0.8,1.2c0.2,0.3,0.4,0.6,0.6,0.9c0.3,0.5,0.7,0.9,1,1.4l0.1,0.1
	c0.2,0.3,0.4,0.6,0.7,0.9l0,0c0.2,0.3,0.4,0.6,0.7,0.8c0.4,0.5,0.8,1,1.2,1.5c0.2,0.3,0.5,0.6,0.7,0.9c0.3,0.3,0.6,0.7,0.8,1
	s0.4,0.5,0.7,0.8c0.2,0.2,0.4,0.4,0.5,0.6c0.2,0.3,0.5,0.6,0.7,0.9c0.3,0.4,0.7,0.8,1,1.2c0.4,0.4,0.8,0.9,1.1,1.3
	c0.2,0.3,0.5,0.5,0.7,0.8c0.4,0.4,0.8,0.9,1.2,1.3c0.4,0.4,0.7,0.8,1.1,1.2c0.2,0.2,0.5,0.5,0.7,0.7c0.5,0.5,1,1,1.5,1.5
	c0.3,0.3,0.7,0.7,1,1c0.2,0.2,0.5,0.5,0.7,0.7c0.5,0.5,1,1,1.5,1.5c0.2,0.2,0.4,0.4,0.6,0.6c0.2,0.2,0.3,0.3,0.5,0.5
	s0.5,0.4,0.7,0.6c0.5,0.5,1.1,1,1.6,1.4c0.4,0.4,0.8,0.8,1.3,1.2c0.1,0.1,0.3,0.3,0.4,0.4c0.1,0,0.1,0.1,0.2,0.1
	c0.5,0.5,1.1,0.9,1.6,1.4c0.5,0.4,0.9,0.8,1.4,1.2c0.2,0.2,0.5,0.4,0.7,0.6c0.5,0.4,1,0.8,1.5,1.3c0.5,0.4,1,0.8,1.5,1.2
	c0.3,0.2,0.6,0.4,0.8,0.7c0.5,0.4,0.9,0.7,1.4,1.1c0.6,0.4,1.1,0.9,1.7,1.3c0.2,0.1,0.3,0.3,0.5,0.4c0.1,0.1,0.3,0.2,0.5,0.3
	c0.4,0.3,0.8,0.6,1.2,0.9c0.6,0.5,1.2,0.9,1.9,1.3c0.4,0.3,0.7,0.5,1.1,0.8c0.3,0.2,0.7,0.5,1.1,0.7c0.7,0.5,1.4,0.9,2,1.4
	c0.4,0.3,0.8,0.6,1.3,0.9c0.3,0.2,0.6,0.4,0.9,0.6c0.7,0.5,1.5,1,2.2,1.5c0.5,0.3,0.9,0.6,1.4,0.9c0.1,0.1,0.2,0.1,0.2,0.2
	c0.1,0.1,0.3,0.2,0.4,0.3c0.8,0.5,1.7,1,2.5,1.6c0.5,0.3,1,0.6,1.5,1c0.2,0.1,0.3,0.2,0.5,0.3c0.9,0.6,1.9,1.1,2.8,1.7
	c0.5,0.3,1,0.6,1.5,0.9c0.1,0.1,0.2,0.1,0.3,0.2l0,0c1.2,0.7,2.5,1.4,3.7,2.1c0.3,0.2,0.6,0.3,0.9,0.5c0,0,0.1,0,0.1,0.1
	c0.6,0.3,1.2,0.7,1.8,1c1,0.5,2,1.1,3,1.6c0.1,0,0.1,0.1,0.2,0.1c0.7,0.4,1.4,0.7,2.1,1.1c0.9,0.5,1.8,0.9,2.7,1.4
	c0.8,0.4,1.6,0.8,2.4,1.2c0.9,0.4,1.8,0.9,2.7,1.3c0.6,0.3,1.2,0.5,1.7,0.8c0.2,0.1,0.4,0.2,0.6,0.3s0.5,0.2,0.7,0.3
	c0.7,0.3,1.5,0.7,2.2,1c0.8,0.4,1.7,0.8,2.5,1.1c0.9,0.4,1.9,0.8,2.8,1.2s1.7,0.7,2.6,1.1c1,0.4,1.9,0.8,2.9,1.2
	c0.9,0.4,1.7,0.7,2.6,1.1c1,0.4,2,0.8,3,1.2c0.8,0.3,1.7,0.7,2.5,1c0.2,0.1,0.4,0.2,0.6,0.2c0.1,0,0.2,0.1,0.3,0.1
	c0.7,0.3,1.5,0.6,2.3,0.8c0.9,0.3,1.7,0.6,2.6,1c0.3,0.1,0.7,0.2,1,0.4c0,0,0,0,0.1,0l0,0c0.7,0.3,1.4,0.5,2.1,0.8
	c0.9,0.3,1.7,0.6,2.6,0.9c0.5,0.2,1,0.3,1.5,0.5c0.1,0,0.1,0,0.2,0.1c0.3,0.1,0.7,0.2,1,0.3c0.2,0.1,0.5,0.2,0.7,0.2
	c0.9,0.3,1.7,0.6,2.6,0.8c0.6,0.2,1.1,0.4,1.7,0.5c0.2,0.1,0.3,0.1,0.5,0.2c0.5,0.1,1,0.3,1.4,0.4c0.8,0.2,1.6,0.5,2.4,0.7
	c0.6,0.2,1.3,0.4,1.9,0.6c0.3,0.1,0.6,0.2,0.9,0.3c0.5,0.1,1,0.3,1.5,0.4c0.6,0.2,1.2,0.4,1.8,0.5c0.5,0.2,1.1,0.3,1.6,0.5
	c0.3,0.1,0.7,0.2,1,0.3c0.6,0.2,1.2,0.3,1.7,0.5c0.5,0.1,1,0.3,1.5,0.4c0.1,0,0.2,0,0.3,0.1c0.5,0.1,0.9,0.2,1.4,0.4
	c0.4,0.1,0.7,0.2,1.1,0.3c0.6,0.2,1.3,0.3,1.9,0.5c0.3,0.1,0.5,0.1,0.8,0.2c0.4,0.1,0.7,0.2,1.1,0.3l0,0c0.4,0.1,0.7,0.2,1.1,0.3
	s0.7,0.2,1.1,0.3c0.7,0.2,1.4,0.3,2,0.5c0.7,0.2,1.4,0.4,2.1,0.5c0.4,0.1,0.7,0.2,1.1,0.3c0.3,0.1,0.6,0.1,0.9,0.2
	c0.8,0.2,1.5,0.3,2.3,0.5c0.7,0.2,1.5,0.3,2.2,0.5c0.3,0.1,0.6,0.1,0.9,0.2c0.1,0,0.3,0.1,0.4,0.1c0.9,0.2,1.7,0.4,2.6,0.5
	c0.9,0.2,1.8,0.4,2.7,0.6c0.8,0.2,1.5,0.3,2.3,0.5c0.4,0.1,0.8,0.2,1.1,0.2c0.9,0.2,1.9,0.4,2.8,0.6c0.1,0,0.2,0,0.2,0
	c0.1,0,0.2,0,0.4,0.1c1,0.2,2,0.4,2.9,0.5c1.2,0.2,2.4,0.4,3.6,0.6c1,0.2,2,0.3,3,0.5c0.6,0.1,1.3,0.2,1.9,0.3c0.1,0,0.1,0,0.2,0
	c0.6,0.1,1.1,0.2,1.7,0.3c0.9,0.1,1.9,0.3,2.8,0.4c0.4,0.1,0.8,0.1,1.2,0.2c0.2,0,0.4,0,0.5,0.1c0.8,0.1,1.6,0.2,2.4,0.3
	s1.6,0.2,2.5,0.3c0.2,0,0.4,0.1,0.6,0.1c0.3,0,0.6,0.1,0.9,0.1c1,0.1,2,0.3,3,0.4c1.1,0.1,2.1,0.3,3.2,0.4h0.1
	c1.1,0.1,2.2,0.3,3.3,0.4c0.5,0.1,0.9,0.1,1.4,0.2c0.1,0,0.2,0,0.3,0c0.7,0.1,1.4,0.1,2.1,0.2c0.9,0.1,1.8,0.2,2.6,0.3
	c0.3,0,0.6,0.1,1,0.1c0.3,0,0.7,0.1,1,0.1c0.8,0.1,1.6,0.1,2.4,0.2c0.7,0.1,1.3,0.1,2,0.2c0.2,0,0.4,0,0.6,0.1
	c0.6,0.1,1.2,0.1,1.9,0.1c0.9,0.1,1.8,0.1,2.7,0.2c0.4,0,0.9,0.1,1.3,0.1c0.1,0,0.1,0,0.2,0c1,0.1,1.9,0.1,2.9,0.2
	c0.9,0.1,1.8,0.1,2.7,0.2c0.2,0,0.4,0,0.6,0l0,0c0.6,0,1.2,0.1,1.8,0.1c1.2,0.1,2.3,0.1,3.5,0.2c0.4,0,0.7,0,1.1,0
	c0.1,0,0.2,0,0.2,0c0.8,0,1.7,0.1,2.5,0.1c1.1,0,2.2,0.1,3.3,0.1c0.2,0,0.4,0,0.6,0c0.3,0,0.5,0,0.8,0c0.7,0,1.4,0,2.2,0
	c0.9,0,1.8,0,2.7,0.1c0.2,0,0.4,0,0.6,0s0.4,0,0.6,0s0.4,0,0.6,0s0.4,0,0.6,0c2,0,4,0,6.1,0c0.1,0,0.1,0,0.2,0c0.3,0,0.5,0,0.8,0
	c0.7,0,1.4,0,2.1,0c1,0,2,0,3,0c0.1,0,0.2,0,0.3,0c0.5,0,1.1,0,1.6,0c0.8,0,1.5,0,2.3-0.1c0.6,0,1.2,0,1.7,0c0.2,0,0.3,0,0.5,0
	c0.8,0,1.6-0.1,2.4-0.1s1.5,0,2.3-0.1c0.3,0,0.5,0,0.8,0c0.2,0,0.4,0,0.5,0c1.1,0,2.3-0.1,3.4-0.2c0.9,0,1.8-0.1,2.7-0.1
	c0.1,0,0.2,0,0.3,0s0.2,0,0.4,0l0,0c1.3-0.1,2.5-0.2,3.8-0.2c0.8-0.1,1.6-0.1,2.3-0.1c0.3,0,0.6,0,0.9-0.1c0.1,0,0.1,0,0.2,0
	c0.3,0,0.7-0.1,1-0.1c1.5-0.1,3-0.2,4.4-0.3c0.4,0,0.8-0.1,1.2-0.1c0.2,0,0.3,0,0.5,0c0.4,0,0.9-0.1,1.3-0.1
	c1.2-0.1,2.4-0.2,3.6-0.3c0.6-0.1,1.1-0.1,1.7-0.2c0.2,0,0.3,0,0.5,0c0.3,0,0.6-0.1,0.9-0.1c1.2-0.1,2.3-0.2,3.4-0.4
	c1-0.1,1.9-0.2,2.9-0.4c0.2,0,0.4-0.1,0.7-0.1c0.2,0,0.4,0,0.6-0.1c0.1,0,0.1,0,0.2,0c0.7-0.1,1.5-0.2,2.2-0.3c1-0.1,2-0.3,2.9-0.4
	c0.8-0.1,1.6-0.2,2.5-0.3c0.2,0,0.4-0.1,0.6-0.1c0.3,0,0.6-0.1,0.8-0.1c0.8-0.1,1.7-0.2,2.5-0.4c1.3-0.2,2.6-0.4,3.8-0.6
	c0.4-0.1,0.7-0.1,1.1-0.2c0.1,0,0.2,0,0.3-0.1c0.4-0.1,0.7-0.1,1.1-0.2c2-0.3,4-0.7,6-1.1c0.2,0,0.4-0.1,0.6-0.1c0,0,0,0,0.1,0
	c0.4-0.1,0.7-0.1,1-0.2c0.1,0,0.3-0.1,0.4-0.1c1.4-0.3,2.7-0.5,4.1-0.8c0.4-0.1,0.7-0.1,1.1-0.2c0.5-0.1,1-0.2,1.6-0.3
	c0.7-0.2,1.5-0.3,2.2-0.5c0.4-0.1,0.9-0.2,1.3-0.3c0.5-0.1,1-0.2,1.5-0.3c0.1,0,0.2,0,0.3-0.1c0.3-0.1,0.6-0.2,1-0.2
	c1.1-0.3,2.2-0.5,3.3-0.8c0.6-0.1,1.2-0.3,1.8-0.4c0.3-0.1,0.6-0.1,0.9-0.2c1.2-0.3,2.4-0.6,3.6-0.9c0.4-0.1,0.9-0.2,1.4-0.3
	c0.1,0,0.3-0.1,0.4-0.1c1.9-0.5,3.7-1,5.5-1.5c0.1,0,0.1,0,0.2,0c0.3-0.1,0.5-0.2,0.8-0.2c0.5-0.2,1.1-0.3,1.6-0.5
	c1.1-0.3,2.2-0.6,3.3-1c0.4-0.1,0.7-0.2,1.1-0.3c0.2-0.1,0.5-0.1,0.7-0.2c0.3-0.1,0.7-0.2,1-0.3c0.9-0.3,1.8-0.6,2.7-0.9
	c0.5-0.2,1.1-0.3,1.6-0.5c0.5-0.1,0.9-0.3,1.4-0.4c0.8-0.3,1.6-0.5,2.4-0.8c0.7-0.2,1.4-0.5,2.1-0.7l0,0c0.3-0.1,0.5-0.2,0.8-0.3
	c0.1,0,0.1,0,0.2-0.1c0.8-0.3,1.5-0.5,2.3-0.8c0.7-0.3,1.4-0.5,2.1-0.8c0.5-0.2,1.1-0.4,1.6-0.6c0.4-0.2,0.8-0.3,1.2-0.5
	c0.2-0.1,0.3-0.1,0.5-0.2c0.6-0.2,1.3-0.5,1.9-0.7c0.7-0.3,1.5-0.6,2.2-0.9c0.3-0.1,0.6-0.2,0.8-0.3s0.4-0.2,0.7-0.3
	c0.1,0,0.2-0.1,0.3-0.1c0.6-0.3,1.2-0.5,1.9-0.8c1-0.4,1.9-0.8,2.8-1.2c0.2-0.1,0.4-0.1,0.5-0.2c0.2-0.1,0.4-0.2,0.5-0.2
	c0.7-0.3,1.4-0.6,2.1-0.9c0.9-0.4,1.8-0.8,2.8-1.2c0.1-0.1,0.3-0.1,0.4-0.2h0.1l0,0c0.5-0.3,1.1-0.5,1.6-0.8
	c0.9-0.4,1.7-0.8,2.5-1.2c0.5-0.2,1-0.5,1.5-0.7c0.3-0.1,0.5-0.3,0.8-0.4c0.8-0.4,1.6-0.8,2.4-1.2c0.7-0.3,1.4-0.7,2-1.1
	c0.1,0,0.1-0.1,0.2-0.1c0.1-0.1,0.2-0.1,0.3-0.2c0,0,0,0,0.1,0h0.1c0.7-0.4,1.4-0.8,2.1-1.1c0.5-0.3,1.1-0.6,1.6-0.9
	c0.3-0.2,0.7-0.4,1-0.6c0.4-0.2,0.9-0.5,1.3-0.7c0.6-0.3,1.2-0.7,1.8-1c0.3-0.2,0.6-0.3,0.9-0.5c0.3-0.2,0.6-0.4,0.9-0.5
	c0.3-0.2,0.5-0.3,0.8-0.5c0.2-0.1,0.3-0.2,0.5-0.3c0.4-0.2,0.8-0.5,1.2-0.7c0.5-0.3,0.9-0.6,1.4-0.9c0.4-0.3,0.9-0.5,1.3-0.8
	c0.1-0.1,0.3-0.2,0.4-0.2c0.4-0.2,0.7-0.5,1-0.7c0.5-0.3,0.9-0.6,1.4-0.9c0.6-0.4,1.1-0.8,1.7-1.1c0.1-0.1,0.2-0.1,0.3-0.2
	c0.2-0.2,0.5-0.3,0.7-0.5c0.3-0.2,0.5-0.3,0.8-0.5c0.2-0.1,0.3-0.2,0.5-0.4c0.6-0.4,1.2-0.8,1.8-1.2c0.4-0.3,0.7-0.5,1.1-0.8
	c0.3-0.2,0.6-0.4,0.9-0.6c0.7-0.5,1.4-1,2.1-1.5c0.2-0.2,0.5-0.4,0.7-0.5c0.1-0.1,0.2-0.2,0.3-0.3c0,0,0,0,0.1-0.1s0.3-0.2,0.4-0.3
	c1-0.8,2-1.6,3-2.4l0.1-0.1c0.1-0.1,0.2-0.2,0.3-0.3c0.3-0.2,0.6-0.5,0.9-0.8c0.8-0.7,1.6-1.3,2.3-2c0.1-0.1,0.2-0.1,0.2-0.2
	c0,0,0,0,0.1-0.1c0.3-0.3,0.7-0.6,1-0.9c0.7-0.6,1.3-1.2,1.9-1.7c0.4-0.4,0.9-0.8,1.3-1.2c0.6-0.6,1.2-1.1,1.8-1.7
	c0.3-0.3,0.6-0.6,0.9-0.9l0.1-0.1c0.2-0.2,0.3-0.3,0.5-0.5s0.5-0.5,0.7-0.8c0.4-0.4,0.8-0.8,1.2-1.3c0.2-0.2,0.5-0.5,0.7-0.7
	s0.3-0.3,0.5-0.5c0.1-0.1,0.2-0.2,0.2-0.3c0.6-0.7,1.2-1.3,1.8-2c0.1-0.1,0.1-0.2,0.2-0.2c0.1-0.1,0.3-0.3,0.4-0.4
	c0.4-0.4,0.8-0.9,1.2-1.3c0.2-0.2,0.4-0.5,0.6-0.7c0.1-0.1,0.2-0.3,0.3-0.4c0,0,0-0.1,0.1-0.1c0.1-0.2,0.3-0.3,0.4-0.5
	c0.5-0.6,1-1.2,1.4-1.8c0.1-0.2,0.3-0.3,0.4-0.5c0-0.1,0.1-0.1,0.1-0.2c0.1-0.1,0.1-0.2,0.2-0.3c0.2-0.2,0.4-0.5,0.5-0.7
	c0.3-0.4,0.7-0.9,1-1.3c0.2-0.2,0.3-0.4,0.5-0.7c0.1-0.1,0.2-0.3,0.3-0.4c0.1-0.2,0.3-0.4,0.4-0.6c0-0.1,0.1-0.1,0.1-0.2
	c0.1-0.2,0.2-0.3,0.3-0.5c0.4-0.6,0.8-1.2,1.2-1.8c0.2-0.3,0.5-0.7,0.7-1c0-0.1,0.1-0.1,0.1-0.2c0-0.1,0.1-0.1,0.1-0.2
	c0.4-0.7,0.8-1.3,1.3-2c0.2-0.3,0.4-0.6,0.6-0.9c0.1-0.1,0.1-0.2,0.2-0.3l0,0c0-0.1,0.1-0.1,0.1-0.2c0.5-0.9,1-1.8,1.5-2.7
	c0.1-0.1,0.1-0.2,0.2-0.4c0.1-0.1,0.1-0.2,0.2-0.3c0.1-0.2,0.2-0.5,0.4-0.7c0.3-0.6,0.7-1.3,1-1.9c0.1-0.2,0.2-0.4,0.3-0.6
	c0.1-0.1,0.1-0.2,0.2-0.3c0.1-0.2,0.2-0.4,0.3-0.7c0.3-0.5,0.5-1.1,0.8-1.6c0.1-0.2,0.2-0.3,0.2-0.5c0-0.1,0-0.1,0.1-0.2
	c0-0.1,0.1-0.1,0.1-0.2c0.1-0.2,0.2-0.4,0.2-0.6c0.3-0.6,0.5-1.2,0.8-1.8c0.1-0.2,0.2-0.5,0.3-0.7c0,0,0,0,0-0.1
	c0.1-0.2,0.1-0.3,0.2-0.5c0.2-0.6,0.5-1.2,0.7-1.8c0.1-0.3,0.2-0.6,0.3-0.9c0,0,0,0,0-0.1s0.1-0.3,0.1-0.4c0.2-0.6,0.4-1.2,0.6-1.8
	c0.1-0.3,0.2-0.6,0.3-0.9c0-0.1,0-0.1,0.1-0.2c0-0.1,0.1-0.2,0.1-0.3c0.1-0.5,0.3-0.9,0.4-1.4c0.1-0.4,0.2-0.8,0.3-1.1
	c0-0.1,0.1-0.2,0.1-0.3s0.1-0.3,0.1-0.4c0.1-0.3,0.1-0.5,0.2-0.8c0-0.1,0.1-0.2,0.1-0.3c0.1-0.4,0.2-0.8,0.3-1.2
	c0-0.1,0-0.2,0.1-0.4c0-0.2,0.1-0.5,0.1-0.7c0.1-0.4,0.1-0.7,0.2-1.1c0.1-0.3,0.1-0.6,0.2-0.9c0-0.1,0-0.2,0.1-0.4
	c0.1-0.3,0.1-0.6,0.2-0.9c0.1-0.4,0.1-0.7,0.2-1.1c0-0.2,0.1-0.4,0.1-0.6c0-0.1,0-0.1,0-0.2s0-0.1,0-0.2c0-0.1,0-0.1,0-0.2
	c0-0.1,0-0.1,0-0.2l1.1-8.4c0.8-6.4,1.7-13.1,2.6-19.9l0.5-3.9c0.7-5.7,1.5-11.4,2.3-17.3l2.1-15.8c1.2-9.1,2.4-18.4,3.6-27.6l1-7.9
	c0.7-5.7,1.5-11.4,2.2-17l1.9-14.6c0-0.1,0-0.3,0.1-0.4l1.4-10.7c0.9-6.6,1.7-13.2,2.6-19.7l2-14.9c0.3-2.4,0.6-4.7,0.9-7l2-15.1
	c0.4-3.4,0.9-6.8,1.3-10c0-0.3,0.1-0.7,0.1-1c0-0.2,0-0.4,0.1-0.6C762.8,423.7,762.9,422.8,762.9,421.9z"/>
</svg>
