<?xml version="1.0" encoding="utf-8"?>
<!-- Generator: Adobe Illustrator 23.0.5, SVG Export Plug-In . SVG Version: 6.00 Build 0)  -->
<svg version="1.1" id="Capa_1" xmlns="http://www.w3.org/2000/svg" xmlns:xlink="http://www.w3.org/1999/xlink" x="0px" y="0px"
	 viewBox="0 0 612.5 612.3" style="enable-background:new 0 0 612.5 612.3;" xml:space="preserve">
<style type="text/css">
	.st0{fill:#FFFFFF;}
	.st1{fill:#681EA8;}
	.st2{fill:#F5CC14;}
</style>
<g>
	<g>
		<path class="st0" d="M197,506.6c-1,0.6-1.6,0.9-2.1,1.2c-1.4,1-2.7,2-4.1,2.9c-16.6,11.3-34.4,18.8-54.9,18.8
			c-31.7,0.1-55-24.8-52.1-56.3c2.8-29.5,16.5-53.1,40.4-70.5c20.8-15.1,44.3-24.3,69.2-30c5.1-1.2,10.2-2.2,15.6-3.4
			c-0.1,3-0.2,5.2-0.4,7.3c-2,24.4,0.6,48.2,7.8,71.6c9.6,30.7,25.6,57.6,49.5,79.1c29.7,26.7,64.8,44,103.7,52.2
			c55.9,11.8,112.5,18.3,169.8,14.3c16.3-1.1,32.5-2.5,48.8-3.8c0.7-3.9,1.5-7,1.7-10.1c1.4-20.6,3.4-41.2,4-61.8
			c1.1-41.1-3.9-81.8-10.3-122.3c-6.2-39.2-18.9-75.7-41.4-108.7c-22.6-33.2-53.3-55.4-90.8-68.6c-25.8-9-52.3-11.1-79.3-8.1
			c-1.4,0.2-2.8,0.1-5.1,0.2c3.3-12.4,5.7-24.4,9.7-35.8c8.8-25.5,20.1-49.7,41.7-67.4c16.6-13.6,35.1-21.9,56.9-22.6
			c27.3-0.9,48.9,16.8,52.6,43.7c2.8,19.9-3,37.9-12.8,54.9c-2.8,4.9-6.1,9.4-9.4,14.4c24.7,13.3,45.9,30.3,62.4,53
			c0.6-0.6,1.1-1.1,1.5-1.5c20.4-25.3,35-53.3,40.4-85.7c6.3-37.2,0.6-71.9-20.8-103.5C568.7,29.5,540.1,10.8,504.4,3
			c-23.8-5.2-47.4-3.5-70.7,2.6c-33.6,8.8-62.2,26.4-85.8,51.5c-18,19.1-31.6,41.6-41.4,66.1c-3.5,8.9-6.8,17.9-10.3,27.3
			c-18-25.3-44.3-34.1-73.2-37.8c-0.1-2.1-0.2-3.9-0.2-5.7c-0.3-16.5-0.5-33-0.8-49.5c-0.1-2.7-0.3-5.3-0.8-7.9
			c-2.4-12.3-15-19.1-26.8-14.7c-8.9,3.3-13,9.8-13.1,21.4c0,18.5-0.2,37,0.4,55.5c0.2,5.8-2.1,7.9-6.9,10
			c-25.8,11.4-44.7,29.8-54,56.9c-1.2,3.6-3,4.4-6.4,4.4c-18.8-0.1-37.7-0.1-56.5,0c-2.8,0-5.7,0.2-8.4,0.7
			c-9.7,1.9-15.5,9.3-15.7,19.7c-0.2,9.9,6.1,17.7,15.9,19.5c2.8,0.5,5.6,0.7,8.5,0.7c18.1,0.3,36.3,0.6,54.6,0.8
			c3.9,28.9,12.4,55.3,37.9,73.4c-1.9,0.7-3.3,1.2-4.6,1.7c-9.7,3.5-19.7,6.4-29.1,10.6c-31.2,14-59.2,32.3-80.1,60.2
			C16.9,396.8,4.3,425.9,1,459c-3.7,37.2,3,71.8,26.4,101.3c33.8,42.8,79,57.8,132.3,50.1c27.8-4,52.5-15.5,75.4-31.4
			c4.8-3.4,9.4-7.1,14.1-10.7C226.4,551.8,210,530.9,197,506.6z"/>
		<path class="st1" d="M197,506.6c13,24.4,29.5,45.2,52.2,61.8c-4.8,3.6-9.3,7.3-14.1,10.7c-22.8,15.9-47.6,27.4-75.4,31.4
			c-53.3,7.7-98.5-7.4-132.3-50.1C4,530.8-2.8,496.1,1,459c3.3-33.1,15.9-62.1,35.8-88.6c21-27.9,48.9-46.2,80.1-60.2
			c9.4-4.2,19.4-7.1,29.1-10.6c1.4-0.5,2.7-1,4.6-1.7c-25.4-18.1-34-44.4-37.9-73.4c-18.4-0.3-36.5-0.5-54.6-0.8
			c-2.8-0.1-5.7-0.2-8.5-0.7c-9.8-1.8-16.1-9.6-15.9-19.5c0.2-10.4,6-17.8,15.7-19.7c2.8-0.5,5.6-0.7,8.4-0.7
			c18.8-0.1,37.7-0.1,56.5,0c3.5,0,5.2-0.8,6.4-4.4c9.3-27.1,28.1-45.5,54-56.9c4.8-2.1,7-4.2,6.9-10c-0.6-18.5-0.4-37-0.4-55.5
			c0-11.5,4.1-18,13.1-21.4c11.8-4.4,24.3,2.4,26.8,14.7c0.5,2.6,0.8,5.3,0.8,7.9c0.3,16.5,0.5,33,0.8,49.5c0,1.8,0.1,3.6,0.2,5.7
			c28.9,3.8,55.2,12.5,73.2,37.8c3.5-9.4,6.7-18.4,10.3-27.3c9.8-24.5,23.4-46.9,41.4-66.1c23.6-25.1,52.2-42.7,85.8-51.5
			c23.4-6.1,47-7.8,70.7-2.6c35.7,7.8,64.3,26.4,84.9,56.9c21.4,31.6,27,66.3,20.8,103.5c-5.4,32.4-20,60.4-40.4,85.7
			c-0.4,0.5-0.9,0.9-1.5,1.5c-16.5-22.8-37.8-39.7-62.4-53c3.3-4.9,6.6-9.5,9.4-14.4c9.8-17,15.6-35,12.8-54.9
			c-3.7-26.9-25.4-44.6-52.6-43.7c-21.8,0.7-40.3,9.1-56.9,22.6c-21.6,17.7-32.9,41.9-41.7,67.4c-4,11.4-6.4,23.4-9.7,35.8
			c2.3-0.1,3.7,0,5.1-0.2c27-3.1,53.6-1,79.3,8.1c37.5,13.2,68.2,35.4,90.8,68.6c22.5,33,35.2,69.6,41.4,108.7
			c6.4,40.5,11.4,81.2,10.3,122.3c-0.5,20.6-2.5,41.2-4,61.8c-0.2,3.1-1,6.2-1.7,10.1c-16.3,1.3-32.5,2.6-48.8,3.8
			c-57.3,4-113.9-2.6-169.8-14.3c-38.9-8.2-74-25.5-103.7-52.2c-23.8-21.5-39.9-48.5-49.4-79.1c-7.3-23.3-9.9-47.2-7.8-71.6
			c0.2-2.1,0.2-4.3,0.4-7.3c-5.4,1.2-10.6,2.2-15.6,3.4c-24.9,5.7-48.4,14.9-69.2,30c-23.9,17.4-37.6,41-40.4,70.5
			c-2.9,31.5,20.3,56.4,52,56.3c20.5,0,38.3-7.5,54.8-18.8c1.4-0.9,2.7-2,4.1-2.9C195.4,507.4,196,507.1,197,506.6z M325.2,467
			c1.1,1.1,2,2.1,3,2.9c8.5,7.6,18.5,12.9,28.9,17.5c3.7,1.6,6,1.3,9-1.7c38.5-38.8,77.2-77.3,115.8-116c6.8-6.8,6.8-6.8,2.6-15.6
			c-4.8-10.1-10.6-19.5-18.3-28C419.1,373.1,372.3,419.9,325.2,467z M293.2,409.4c38.8-38.8,76.7-76.7,115.4-115.4
			c-32.7-5.2-60.3,3.4-84,24.9C298,343.1,289.4,373.5,293.2,409.4z M434.4,506.1c0.1,0.6,0.2,1.2,0.2,1.8c25,1.2,50,2.4,75.2,3.6
			c-0.1-26.1-0.2-51.3-4-76.8C481.6,458.9,458,482.5,434.4,506.1z"/>
		<path class="st2" d="M325.2,467c47-47,93.8-93.8,140.9-140.9c7.7,8.6,13.5,18,18.3,28c4.2,8.8,4.2,8.8-2.6,15.6
			c-38.6,38.6-77.3,77.2-115.8,116c-3,3-5.3,3.3-9,1.7c-10.4-4.6-20.3-9.9-28.9-17.5C327.2,469,326.3,468.1,325.2,467z"/>
		<path class="st2" d="M293.2,409.4c-3.8-35.9,4.8-66.3,31.3-90.5c23.7-21.5,51.3-30.1,84.1-24.9C369.9,332.7,332,370.6,293.2,409.4
			z"/>
		<path class="st2" d="M434.4,506.1c23.6-23.6,47.2-47.2,71.5-71.5c3.8,25.6,3.9,50.7,4,76.8c-25.2-1.2-50.2-2.4-75.2-3.6
			C434.5,507.3,434.5,506.7,434.4,506.1z"/>
	</g>
</g>
</svg>
