<?xml version="1.0" encoding="utf-8"?>
<!-- Generator: Adobe Illustrator 23.0.5, SVG Export Plug-In . SVG Version: 6.00 Build 0)  -->
<svg version="1.1" id="Capa_1" xmlns="http://www.w3.org/2000/svg" xmlns:xlink="http://www.w3.org/1999/xlink" x="0px" y="0px"
	 viewBox="0 0 1000 1000" style="enable-background:new 0 0 1000 1000;" xml:space="preserve">
<style type="text/css">
	.st0{fill:none;}
	.st1{enable-background:new    ;}
	.st2{clip-path:url(#SVGID_2_);enable-background:new    ;}
	.st3{fill:#FFFFFF;}
</style>
<rect class="st0" width="1000" height="1000"/>
<g>
	<g class="st1">
		<g class="st1">
			<g>
				<defs>
					<path id="SVGID_1_" d="M481.3,580.4l52.3-425.9c12.9,6.4,25.3,13.2,37.3,20.3c12,7.2,23.5,14.7,34.5,22.6
						c11,7.9,21.5,16.2,31.5,24.8c10,8.7,19.5,17.7,28.5,27.1c8.7,9.1,16.8,18.4,24.3,28c7.5,9.6,14.4,19.4,20.7,29.4
						c6.3,10,12,20.3,17,30.7c5,10.5,9.4,21.2,13.2,32l-73.4,420.1c-3.3-10.6-7.1-21-11.6-31.3c-4.4-10.2-9.5-20.2-15.1-30
						c-5.6-9.8-11.7-19.3-18.5-28.7c-6.7-9.3-14-18.4-21.8-27.3c-8.1-9.1-16.6-17.9-25.7-26.4c-9-8.4-18.5-16.5-28.5-24.2
						c-9.9-7.7-20.3-15-31.2-21.9C504.3,593.1,493,586.5,481.3,580.4z"/>
				</defs>
				<use xlink:href="#SVGID_1_"  style="overflow:visible;fill:#FFFFFF;"/>
				<clipPath id="SVGID_2_">
					<use xlink:href="#SVGID_1_"  style="overflow:visible;"/>
				</clipPath>
				<g class="st2">
					<path class="st3" d="M481.3,580.4l52.3-425.9c0.7,0.3,1.4,0.7,2.1,1.1c0.7,0.4,1.4,0.7,2.1,1.1c0.7,0.4,1.4,0.7,2.1,1.1
						c0.7,0.4,1.4,0.7,2.1,1.1L489,584.5c-0.6-0.3-1.3-0.7-1.9-1c-0.6-0.3-1.3-0.7-1.9-1c-0.6-0.3-1.3-0.7-1.9-1
						C482.6,581,482,580.7,481.3,580.4"/>
					<path class="st3" d="M489,584.5l53.1-425.7c2.1,1.1,4.1,2.1,6.1,3.2c2,1.1,4.1,2.2,6.1,3.3c2,1.1,4,2.2,6,3.3
						c2,1.1,4,2.3,5.9,3.4l-55.4,425.3c-1.8-1.1-3.6-2.2-5.4-3.3c-1.8-1.1-3.6-2.2-5.4-3.2c-1.8-1.1-3.7-2.1-5.5-3.2
						C492.7,586.5,490.8,585.5,489,584.5"/>
					<path class="st3" d="M510.8,597.3L566.2,172c1.8,1,3.5,2.1,5.3,3.1c1.7,1,3.5,2.1,5.2,3.2c1.7,1.1,3.4,2.1,5.1,3.2
						c1.7,1.1,3.4,2.2,5.1,3.3l-57.4,424.9c-1.5-1.1-3.1-2.1-4.6-3.2c-1.5-1-3.1-2.1-4.7-3.1c-1.6-1-3.1-2.1-4.7-3.1
						C514,599.3,512.4,598.3,510.8,597.3"/>
					<path class="st3" d="M529.6,609.6l57.4-424.9c1.6,1,3.1,2,4.6,3.1c1.5,1,3.1,2.1,4.6,3.1c1.5,1,3,2.1,4.5,3.1
						c1.5,1.1,3,2.1,4.5,3.2l-59.1,424.5c-1.3-1-2.7-2.1-4.1-3.1c-1.4-1-2.7-2-4.1-3c-1.4-1-2.8-2-4.2-3
						C532.4,611.6,531,610.6,529.6,609.6"/>
					<path class="st3" d="M546.1,621.7l59.1-424.5c1.5,1,2.9,2.1,4.3,3.1c1.4,1.1,2.9,2.1,4.3,3.2c1.4,1.1,2.8,2.1,4.2,3.2
						c1.4,1.1,2.8,2.2,4.2,3.3l-60.8,424.2c-1.2-1.1-2.5-2.1-3.8-3.2c-1.3-1.1-2.5-2.1-3.8-3.1c-1.3-1-2.6-2.1-3.9-3.1
						C548.7,623.8,547.4,622.7,546.1,621.7"/>
					<path class="st3" d="M561.4,634.2L622.2,210c1.4,1.1,2.7,2.2,4.1,3.3c1.4,1.1,2.7,2.2,4,3.3c1.3,1.1,2.7,2.2,4,3.4
						c1.3,1.1,2.6,2.3,3.9,3.4l-62.4,423.8c-1.2-1.1-2.4-2.2-3.5-3.3c-1.2-1.1-2.4-2.2-3.6-3.3c-1.2-1.1-2.4-2.2-3.6-3.2
						C563.9,636.3,562.7,635.2,561.4,634.2"/>
					<path class="st3" d="M575.9,647.2l62.4-423.8c1.3,1.1,2.6,2.3,3.9,3.4c1.3,1.1,2.6,2.3,3.8,3.5c1.3,1.2,2.5,2.3,3.8,3.5
						c1.2,1.2,2.5,2.3,3.7,3.5l-63.9,423.4c-1.1-1.2-2.2-2.3-3.3-3.4c-1.1-1.1-2.3-2.3-3.4-3.4c-1.1-1.1-2.3-2.2-3.4-3.4
						C578.3,649.4,577.1,648.3,575.9,647.2"/>
					<path class="st3" d="M589.6,660.7l63.9-423.4c1,1,2,2,3.1,3c1,1,2,2,3,3c1,1,2,2,3,3c1,1,2,2,3,3.1c0.2,0.2,0.4,0.5,0.6,0.7
						c0.2,0.2,0.4,0.5,0.6,0.7c0.2,0.2,0.4,0.5,0.6,0.7c0.2,0.2,0.4,0.5,0.6,0.7l-65.4,423c-0.2-0.2-0.4-0.4-0.6-0.7
						c-0.2-0.2-0.4-0.4-0.6-0.7s-0.4-0.4-0.6-0.7s-0.4-0.4-0.6-0.7c-0.9-1-1.8-2-2.7-3c-0.9-1-1.8-2-2.7-2.9c-0.9-1-1.8-2-2.7-2.9
						C591.4,662.6,590.5,661.6,589.6,660.7"/>
					<path class="st3" d="M602.7,675.1l65.4-423c1.2,1.3,2.4,2.5,3.5,3.8c1.2,1.3,2.3,2.6,3.5,3.9c1.1,1.3,2.3,2.6,3.4,3.9
						c1.1,1.3,2.2,2.6,3.3,3.9L615,690.2c-1-1.3-2-2.5-3-3.8c-1-1.3-2-2.5-3.1-3.8c-1-1.3-2.1-2.5-3.1-3.8
						C604.8,677.5,603.8,676.3,602.7,675.1"/>
					<path class="st3" d="M615,690.2l66.8-422.6c1.1,1.3,2.2,2.7,3.3,4c1.1,1.3,2.2,2.7,3.3,4c1.1,1.4,2.1,2.7,3.2,4.1
						c1,1.4,2.1,2.7,3.1,4.1L626.6,706c-0.9-1.3-1.8-2.7-2.8-4c-0.9-1.3-1.9-2.6-2.8-4c-1-1.3-1.9-2.6-2.9-3.9
						C617,692.8,616.1,691.5,615,690.2"/>
					<path class="st3" d="M626.6,706l68.1-422.2c1.1,1.4,2.1,2.8,3.1,4.3c1,1.4,2.1,2.9,3.1,4.3c1,1.4,2,2.9,3,4.3
						c1,1.4,2,2.9,2.9,4.4l-69.4,421.8c-0.9-1.4-1.7-2.8-2.6-4.3c-0.9-1.4-1.8-2.8-2.7-4.2c-0.9-1.4-1.8-2.8-2.7-4.2
						C628.5,708.7,627.5,707.3,626.6,706"/>
					<path class="st3" d="M637.4,722.8L706.8,301c1,1.5,2,3.1,3,4.6c1,1.6,2,3.1,2.9,4.7c1,1.6,1.9,3.1,2.8,4.7
						c0.9,1.6,1.8,3.2,2.7,4.7l-70.7,421.3c-0.8-1.5-1.6-3.1-2.4-4.6c-0.8-1.5-1.7-3.1-2.5-4.6c-0.8-1.5-1.7-3-2.6-4.6
						C639.2,725.8,638.3,724.3,637.4,722.8"/>
					<path class="st3" d="M647.6,741.1l70.7-421.3c1,1.7,1.9,3.5,2.9,5.2c0.9,1.7,1.9,3.5,2.8,5.2c0.9,1.8,1.8,3.5,2.6,5.3
						c0.9,1.8,1.7,3.5,2.5,5.3l-71.9,420.8c-0.7-1.7-1.5-3.5-2.2-5.2c-0.8-1.7-1.5-3.4-2.3-5.1c-0.8-1.7-1.6-3.4-2.4-5.1
						C649.3,744.5,648.4,742.8,647.6,741.1"/>
					<path class="st3" d="M657.1,761.6l71.9-420.8c0.9,2,1.9,4,2.7,6.1c0.9,2,1.8,4.1,2.6,6.1c0.8,2,1.7,4.1,2.5,6.2
						c0.8,2.1,1.6,4.1,2.3,6.2L666,785.6c-0.7-2-1.3-4-2-6.1c-0.7-2-1.4-4-2.2-6c-0.7-2-1.5-4-2.3-6
						C658.8,765.6,657.9,763.6,657.1,761.6"/>
					<path class="st3" d="M666,785.6l73.2-420.2c0.1,0.3,0.2,0.7,0.4,1c0.1,0.3,0.2,0.7,0.4,1s0.2,0.7,0.4,1c0.1,0.3,0.2,0.7,0.4,1
						l-73.4,420.1c-0.1-0.3-0.2-0.7-0.3-1c-0.1-0.3-0.2-0.7-0.3-1c-0.1-0.3-0.2-0.7-0.3-1C666.2,786.3,666.1,785.9,666,785.6"/>
				</g>
			</g>
		</g>
		<g>
			<polygon class="st3" points="253.7,845.4 285.2,422.1 533.7,154.5 481.3,580.4 			"/>
		</g>
		<g>
			<polygon class="st3" points="253.7,845.4 285.2,422.1 740.6,369.5 667.3,789.6 			"/>
		</g>
		<g>
			<path class="st3" d="M743.9,371.1l-464.6,53.7L532.8,152c27.1,13.2,51.9,28,74.3,44.2c22.6,16.2,42.8,33.7,60.5,52.2
				c17.8,18.7,33.2,38.4,45.9,58.8C726.3,327.9,736.5,349.2,743.9,371.1z M740.6,369.5c-3.7-10.9-8.1-21.5-13.2-32
				c-5-10.4-10.7-20.7-17-30.7c-6.3-10-13.2-19.8-20.7-29.4c-7.5-9.5-15.6-18.9-24.3-28c-9-9.4-18.5-18.4-28.5-27.1
				c-10-8.6-20.5-16.9-31.5-24.8c-11-7.9-22.5-15.4-34.5-22.6c-12-7.1-24.4-13.9-37.3-20.3L285.2,422.1L740.6,369.5"/>
		</g>
		<g>
			<path class="st3" d="M740.6,369.5l-455.4,52.6l248.5-267.6c12.9,6.4,25.3,13.2,37.3,20.3c12,7.2,23.5,14.7,34.5,22.6
				c11,7.9,21.5,16.2,31.5,24.8c10,8.7,19.5,17.7,28.5,27.1c8.7,9.1,16.8,18.4,24.3,28c7.5,9.6,14.4,19.4,20.7,29.4
				c6.3,10,12,20.3,17,30.7C732.5,347.9,736.9,358.6,740.6,369.5z"/>
		</g>
		<g>
			<polygon class="st3" points="248.3,848.1 279.3,424.8 743.9,371.1 670.2,791.2 			"/>
		</g>
	</g>
</g>
</svg>
