<?xml version="1.0" encoding="utf-8"?>
<!-- Generator: Adobe Illustrator 23.0.5, SVG Export Plug-In . SVG Version: 6.00 Build 0)  -->
<svg version="1.1" id="Capa_1" xmlns="http://www.w3.org/2000/svg" xmlns:xlink="http://www.w3.org/1999/xlink" x="0px" y="0px"
	 viewBox="0 0 1000 1000" style="enable-background:new 0 0 1000 1000;" xml:space="preserve">
<style type="text/css">
	.st0{fill:none;}
	.st1{enable-background:new    ;}
	.st2{clip-path:url(#SVGID_2_);enable-background:new    ;}
	.st3{fill:#FFFFFF;}
	.st4{fill:#FAFAFA;}
	.st5{fill:#F5F5F5;}
	.st6{fill:#F0F0F0;}
	.st7{fill:#EBEBEB;}
	.st8{fill:#E6E6E6;}
	.st9{fill:#E0E0E0;}
	.st10{fill:#DBDBDB;}
	.st11{fill:#D6D6D6;}
	.st12{fill:#D1D1D1;}
	.st13{fill:#CCCCCC;}
	.st14{fill:#C7C7C7;}
	.st15{fill:#C2C2C2;}
	.st16{fill:#BDBDBD;}
	.st17{fill:#B8B8B8;}
	.st18{fill:#939393;}
	.st19{fill:#BABABA;}
</style>
<rect class="st0" width="1000" height="1000"/>
<g>
	<g class="st1">
		<g class="st1">
			<defs>
				<path id="SVGID_1_" class="st1" d="M481.34076,580.37109l52.33307-425.85394
					c12.9068,6.38408,25.3457,13.15036,37.29913,20.28848c11.97955,7.15375,23.47565,14.68341,34.46991,22.57886
					c11.02209,7.91544,21.54352,16.20117,31.54523,24.84731c10.0304,8.67093,19.54138,17.70718,28.51312,27.09906
					c8.69531,9.09952,16.79321,18.43045,24.28119,27.97833c7.51276,9.57956,14.41315,19.37961,20.68805,29.3855
					c6.29712,10.04132,11.96564,20.29205,16.99164,30.73737c5.04492,10.48453,9.44354,21.16718,13.18152,32.0329
					l-73.36487,420.12381c-3.25909-10.60742-7.12225-21.03284-11.57672-31.26154
					c-4.43933-10.19397-9.46674-20.19434-15.07013-29.98639c-5.58539-9.76068-11.74414-19.31628-18.4646-28.65228
					c-6.70026-9.30798-13.96014-18.39948-21.76862-27.26013c-8.05896-9.14801-16.61517-17.94348-25.6507-26.37659
					c-9.01202-8.41125-18.50354-16.46454-28.45728-24.15002c-9.93091-7.66785-20.32489-14.97198-31.16528-21.90222
					C504.30652,593.08313,493.03964,586.53687,481.34076,580.37109z"/>
			</defs>
			<clipPath id="SVGID_2_">
				<use xlink:href="#SVGID_1_"  style="overflow:visible;"/>
			</clipPath>
			<g class="st2">
				<path class="st3" d="M481.34076,580.37109l52.33307-425.85397c0.70721,0.34981,1.41302,0.70074,2.11743,1.05284
					c0.70441,0.35213,1.40747,0.7054,2.10907,1.05981c0.70172,0.35445,1.40198,0.71004,2.10083,1.06677
					c0.69897,0.35677,1.39648,0.71468,2.09259,1.07373l-53.12173,425.71045c-0.6308-0.34705-1.26288-0.69299-1.8963-1.03778
					c-0.63336-0.34479-1.26801-0.68835-1.90399-1.03088c-0.63589-0.34247-1.27313-0.68378-1.91165-1.02393
					C482.62161,581.04797,481.98184,580.70898,481.34076,580.37109"/>
				<path class="st4" d="M488.97202,584.48071l53.12173-425.71045c2.05878,1.06195,4.10516,2.13387,6.1391,3.21571
					c2.03455,1.08218,4.05664,2.17432,6.0661,3.27635c2.01019,1.1024,4.00781,2.21471,5.99286,3.33688
					c1.98566,1.12257,3.95874,2.25502,5.91907,3.39731l-55.39563,425.28192c-1.77457-1.10632-3.56088-2.20288-5.3588-3.28955
					c-1.79739-1.08636-3.60641-2.1629-5.42703-3.22955c-1.82007-1.06635-3.65173-2.12286-5.49493-3.16943
					C492.69183,586.54358,490.83768,585.5072,488.97202,584.48071"/>
				<path class="st5" d="M510.81525,597.27844l55.39563-425.28192c1.76678,1.0295,3.52325,2.06699,5.26941,3.11244
					c1.7467,1.04581,3.48303,2.09959,5.20898,3.16133c1.7265,1.06207,3.44263,2.13213,5.14832,3.21011
					c1.70624,1.07834,3.40204,2.16464,5.08734,3.25885l-57.36908,424.89008c-1.52393-1.06128-3.0575-2.11475-4.60077-3.16028
					c-1.54272-1.04523-3.09515-2.08258-4.65717-3.112c-1.56152-1.02911-3.13269-2.05029-4.71338-3.06354
					C514.00433,599.28052,512.41455,598.27551,510.81525,597.27844"/>
				<path class="st6" d="M529.55585,609.62933l57.36908-424.89008c1.55872,1.01201,3.10846,2.03081,4.64917,3.05635
					c1.5412,1.02586,3.07343,2.0585,4.59656,3.09789c1.52362,1.03972,3.03821,2.08618,4.54364,3.13937
					c1.50598,1.05356,3.00287,2.11383,4.4906,3.18082l-59.12909,424.52228c-1.34375-1.03613-2.69592-2.06555-4.05652-3.08832
					c-1.36011-1.02246-2.7287-2.03821-4.10559-3.04724c-1.37653-1.00879-2.76141-2.0108-4.1546-3.0061
					C532.36633,611.59924,530.96521,610.61096,529.55585,609.62933"/>
				<path class="st7" d="M546.07581,621.73596L605.2049,197.2137c1.45319,1.04219,2.89764,2.09079,4.33331,3.14577
					c1.43616,1.05534,2.86353,2.11708,4.28217,3.1852c1.41907,1.06847,2.82941,2.14333,4.23083,3.22455
					c1.40198,1.0816,2.79504,2.16959,4.17932,3.2639l-60.78674,424.15726c-1.24866-1.06366-2.50555-2.12103-3.77057-3.17206
					c-1.26465-1.05072-2.53748-2.09509-3.81836-3.13312c-1.28052-1.03772-2.56915-2.06909-3.86591-3.09418
					C548.69263,623.7663,547.38824,622.74792,546.07581,621.73596"/>
				<path class="st8" d="M561.44379,634.19037l60.78674-424.15726c1.37311,1.08556,2.73749,2.17735,4.09314,3.27539
					c1.35608,1.09842,2.70343,2.20309,4.04193,3.314c1.33899,1.1113,2.66919,2.22882,3.99054,3.35255
					c1.32184,1.12416,2.63477,2.25453,3.93884,3.39111l-62.36969,423.78912c-1.17474-1.10565-2.35767-2.20514-3.54883-3.29846
					c-1.19073-1.09296-2.38965-2.17969-3.59668-3.26031c-1.2066-1.0802-2.42139-2.1543-3.64429-3.22217
					C563.91302,636.30682,562.68243,635.24548,561.44379,634.19037"/>
				<path class="st9" d="M575.92529,647.15527l62.36969-423.78912c1.29999,1.13306,2.59119,2.27228,3.87347,3.41765
					c1.28284,1.14581,2.5567,2.29778,3.82172,3.45587c1.26544,1.15854,2.52197,2.32324,3.76959,3.49405
					c1.24805,1.17128,2.48712,2.34868,3.71722,3.5322l-63.88562,423.41528c-1.10645-1.1521-2.22113-2.29816-3.34412-3.43805
					c-1.12256-1.13959-2.25342-2.27301-3.39252-3.40039c-1.13867-1.12695-2.28558-2.24786-3.44073-3.36267
					C578.25928,649.36572,577.09637,648.25745,575.92529,647.15527"/>
				<path class="st10" d="M589.59137,660.68121l63.88562-423.41528c1.02673,0.9879,2.04724,1.98004,3.0614,2.97646
					c1.01453,0.99673,2.02271,1.99773,3.0246,3.00298c1.0022,1.00558,1.99811,2.01541,2.98767,3.0295
					c0.98987,1.01442,1.97339,2.03308,2.95056,3.05598c0.21515,0.22516,0.42987,0.45044,0.64429,0.67586
					c0.21448,0.22545,0.42853,0.45103,0.64221,0.67676c0.21368,0.22574,0.42706,0.45163,0.64001,0.67764
					c0.21301,0.22604,0.42566,0.45222,0.63788,0.67856l-65.36414,423.02692c-0.19055-0.2204-0.38147-0.44073-0.57275-0.66089
					c-0.19122-0.22009-0.38281-0.44012-0.57471-0.65997s-0.38409-0.43958-0.57666-0.65912s-0.3855-0.43896-0.57867-0.6582
					c-0.87762-0.99622-1.76117-1.98822-2.65051-2.97607c-0.8891-0.98749-1.784-1.97076-2.68481-2.94989
					c-0.90051-0.97876-1.80682-1.95337-2.71899-2.92371C591.4325,662.60864,590.51483,661.64282,589.59137,660.68121"/>
				<path class="st11" d="M602.70148,675.06659l65.36414-423.02692c1.19299,1.272,2.37439,2.54846,3.54413,3.82932
					c1.17029,1.28142,2.32892,2.56721,3.47589,3.85741c1.14746,1.29074,2.28333,2.58588,3.40741,3.88535
					c1.12457,1.30005,2.23749,2.60446,3.33862,3.91315l-66.78296,422.6279c-0.98657-1.27527-1.98401-2.54633-2.99213-3.81299
					c-1.00775-1.26617-2.02618-2.52795-3.05542-3.78546c-1.02875-1.25696-2.06824-2.50958-3.11841-3.75775
					C604.83301,677.54883,603.77252,676.30548,602.70148,675.06659"/>
				<path class="st12" d="M615.04871,690.15277l66.78296-422.6279c1.12164,1.33307,2.23108,2.67059,3.32837,4.01257
					c1.09772,1.34259,2.18323,2.68964,3.25653,4.04108c1.07373,1.35205,2.13525,2.70856,3.18445,4.0694
					c1.04968,1.36151,2.0871,2.72739,3.11212,4.09763l-68.13666,422.21716c-0.91614-1.33582-1.84363-2.66736-2.78241-3.99451
					c-0.93835-1.32654-1.888-2.64874-2.84888-3.96655c-0.96051-1.31726-1.93225-2.63013-2.91522-3.93854
					C617.04742,692.75525,616.05365,691.45178,615.04871,690.15277"/>
				<path class="st13" d="M626.57648,705.96271l68.13666-422.21716c1.06219,1.41989,2.11115,2.84445,3.14679,4.27365
					c1.03613,1.4299,2.05902,2.86444,3.06854,4.30356c1.01001,1.43985,2.00671,2.88428,2.98999,4.33328
					c0.98376,1.44974,1.95416,2.90402,2.91107,4.36282l-69.43988,421.78638c-0.8526-1.42267-1.71759-2.84088-2.59485-4.25458
					c-0.87683-1.41302-1.76593-2.82153-2.6673-4.2254c-0.901-1.40326-1.81415-2.802-2.73956-4.19604
					C628.46295,708.73572,627.52582,707.34686,626.57648,705.96271"/>
				<path class="st14" d="M637.38965,722.80524l69.43988-421.78638c1.013,1.54434,2.01099,3.09375,2.99384,4.64816
					c0.9834,1.55527,1.95166,3.11557,2.90472,4.68085c0.95361,1.56613,1.89203,3.13727,2.81525,4.71332
					c0.92371,1.57693,1.83215,3.15881,2.72528,4.74557l-70.7063,421.32416c-0.79254-1.54803-1.59912-3.09113-2.41968-4.62933
					c-0.82013-1.53748-1.65424-3.07001-2.50226-4.59753c-0.8476-1.52686-1.70911-3.04871-2.58441-4.56555
					C639.18103,725.82245,638.29224,724.31134,637.38965,722.80524"/>
				<path class="st15" d="M647.56232,741.13092l70.7063-421.32416c0.97217,1.72714,1.92621,3.46008,2.86206,5.19876
					c0.9364,1.73978,1.85461,3.48526,2.75458,5.23645c0.90045,1.75226,1.78265,3.51022,2.64655,5.2738
					c0.86438,1.76468,1.71039,3.53503,2.5379,5.31091l-71.94873,420.81296c-0.73004-1.73297-1.47699-3.46039-2.24078-5.18225
					c-0.76331-1.72089-1.54346-3.4361-2.34033-5.14575c-0.79645-1.70862-1.60962-3.41162-2.43945-5.10889
					C649.271,744.50641,648.42499,742.8158,647.56232,741.13092"/>
				<path class="st16" d="M657.12097,761.63965l71.94873-420.81296c0.93878,2.01456,1.85382,4.03629,2.745,6.06506
					c0.89191,2.0303,1.75989,4.06766,2.60388,6.11203c0.84467,2.04587,1.66528,4.09872,2.46185,6.15851
					c0.79718,2.06134,1.57019,4.12958,2.31897,6.20468l-73.18097,420.22195c-0.65417-2.02539-1.33044-4.04395-2.02881-6.05566
					c-0.69794-2.01038-1.41785-4.01392-2.15973-6.01044c-0.74133-1.99518-1.50464-3.98346-2.28979-5.96466
					C658.75555,765.57831,657.9491,763.60541,657.12097,761.63965"/>
				<path class="st17" d="M666.01843,785.58893l73.18097-420.22195c0.12292,0.3407,0.24524,0.68158,0.36688,1.02264
					c0.12164,0.34109,0.24261,0.6824,0.36298,1.0239s0.24005,0.6832,0.35913,1.02509
					c0.11908,0.34195,0.23749,0.68405,0.35522,1.02634l-73.36481,420.12375c-0.10266-0.33411-0.20593-0.66803-0.30975-1.00177
					c-0.10388-0.33368-0.20831-0.66718-0.31335-1.00049c-0.10498-0.33331-0.21063-0.66644-0.31683-0.99939
					C666.23267,786.25415,666.12585,785.92145,666.01843,785.58893"/>
			</g>
		</g>
		<g>
			<polygon class="st18" points="253.65729,845.38232 285.20715,422.09058 533.67383,154.51712 481.34076,580.37109 			"/>
		</g>
		<g>
			<polygon class="st10" points="253.65714,845.3822 285.20697,422.09048 740.64368,369.46481 667.27887,789.58856 			"/>
		</g>
		<g>
			<path class="st19" d="M743.867,371.0986l-464.57739,53.7258L532.82495,152
				c27.05634,13.23256,51.85583,28.04883,74.29669,44.15562c22.55695,16.19019,42.75885,33.7045,60.48541,52.24451
				c17.83881,18.65746,33.18921,38.37285,45.91467,58.83879C726.33984,327.85385,736.50507,349.24692,743.867,371.0986z
				 M740.64362,369.46494c-3.73798-10.86572-8.1366-21.54837-13.18152-32.0329c-5.026-10.44531-10.69452-20.69604-16.99164-30.73737
				c-6.2749-10.00589-13.17529-19.80594-20.68805-29.3855c-7.48798-9.54788-15.58588-18.87881-24.28119-27.97833
				c-8.97174-9.39188-18.48273-18.42813-28.51312-27.09906c-10.00171-8.64613-20.52313-16.93187-31.54523-24.84731
				c-10.99426-7.89545-22.49036-15.42511-34.46991-22.57886c-11.95343-7.13812-24.39233-13.9044-37.29913-20.2885
				L285.20715,422.09058L740.64362,369.46494"/>
		</g>
		<g>
			<path class="st19" d="M740.64368,369.46481l-455.43671,52.62567l248.46686-267.57361
				c12.9068,6.38412,25.3457,13.15042,37.29913,20.28856c11.97955,7.15378,23.47565,14.68344,34.46985,22.5789
				c11.02209,7.91544,21.54346,16.20117,31.54517,24.84731c10.03033,8.67093,19.54132,17.70718,28.513,27.09904
				c8.69537,9.0995,16.79333,18.43047,24.28131,27.97832c7.51282,9.57956,14.41327,19.37961,20.68817,29.3855
				c6.29712,10.04132,11.96564,20.29205,16.9917,30.73737C732.50708,347.91638,736.90576,358.59906,740.64368,369.46481z"/>
		</g>
		<g>
			<polygon class="st10" points="248.2832,848.1073 279.28961,424.8244 743.867,371.0986 670.18665,791.15765 			"/>
		</g>
	</g>
</g>
</svg>
