<?xml version="1.0" encoding="utf-8"?>
<!-- Generator: Adobe Illustrator 23.0.5, SVG Export Plug-In . SVG Version: 6.00 Build 0)  -->
<svg version="1.1" id="Capa_1" xmlns="http://www.w3.org/2000/svg" xmlns:xlink="http://www.w3.org/1999/xlink" x="0px" y="0px"
	 viewBox="0 0 1000 1000" style="enable-background:new 0 0 1000 1000;" xml:space="preserve">
<style type="text/css">
	.st0{fill:none;}
	.st1{fill:#FFF6F5;}
</style>
<rect class="st0" width="1000" height="1000"/>
<path class="st1" d="M269.5,558.1l453.4-67.4l-9,51.3l-448.1,66.6L269.5,558.1z M255.8,745.8l431.8-53.9l9-51.1l-437.1,54.5
	L255.8,745.8z"/>
<g>
	<path d="M439.5,570.2c-3.1-5.4-9.5-5.3-14.8-4.1c-1.7,0.4-2.7,1.4-3.2,2.6c-0.7,1-1,2.4-0.5,3.9c0.2,0.6,0.2,0.9,0.1,1.8
		c-0.1,0.9-0.2,1.8-0.3,2.7c-0.2,2.4,0.2,4.7,1.6,6.6c0.4,0.5,0.8,0.9,1.2,1.3l13.3-2C440,579.8,442,574.5,439.5,570.2z"/>
	<path d="M296.9,574.1C296.9,574.1,296.9,574.1,296.9,574.1c2.2-1.5,3.7-3.7,3.7-7c0-2.7-1-5.2-3.2-6.8c-2.9-2.1-6.4-1.6-9.3,0.2
		c-5.1,3.1-9.2,9.4-5.7,15.3C285.9,581.7,295,580.7,296.9,574.1z"/>
	<path d="M653.6,514c-4.2,1.2-8.4,2.4-12.6,3.6c-5.6,1.6-4,9.7,1.1,9.9c0.3,1.1,1.1,2,2.4,2.7c2.9,1.4,5.3,1.2,7.8-0.8
		c1.5-1.2,1.8-2.3,3.9-2.5c1.4-0.1,2.9,0.5,4.2,0.8c4.9,1.1,14.2,2.1,15.8-4.6c1.4-5.9-5-11.7-10.5-11.9
		C661.5,511,657.4,512.9,653.6,514z"/>
	<path d="M635.5,673.7c-0.1-2.4-1.1-4.5-3.3-5.7c-0.7-0.3-6-0.6-5.9-0.4c-1-3-3.9-3.9-6.3-3.3c-2.8-0.5-6.2,1-6.4,4.7
		c-0.7,10.8,8.4,18.7,18.3,20.6c6.3,1.2,27.5,2.9,23.3-9.3c-0.8-2.2-2.5-3.5-4.8-3.7c-3.5-0.2-7-0.4-10.4-0.6
		c-1-0.1-3.5,0.1-4.4-0.5c-0.4,0.6-0.5,0.5-0.2-0.3C635.4,674.9,635.5,674.3,635.5,673.7z"/>
	<path d="M470.5,534.7c2.4,10.4,18.4,6.2,24.4,2c1.8-1.3,2.4-3.1,2.2-4.8c1.8-0.3,3.5-0.7,5.3-1c2.8-0.5,5.7-1.1,8.5-1.6
		c1.2-0.2,2.5-0.6,3.7-0.5c1.4,0.1,1.6,0.6,2.1-0.2c-3,5.7,5.6,10.7,8.6,5c2-3.7,1.6-8.1-1.3-11.3c-0.6-0.7-1.3-1.3-2.1-1.7
		l-51.6,7.7C470,530.7,470.1,533,470.5,534.7z M480.5,530.3c0.6,0.4,1.2,0.7,1.9,1c-0.7,0.1-1.3,0.1-1.9,0
		C480.4,530.9,480.5,530.6,480.5,530.3z"/>
	<path d="M366.1,556.1c-0.4,1.6-0.9,3-1.6,4.4c-0.2-0.1-0.3-0.3-0.5-0.4c-3-2.1-6.9-2.1-10.1-0.6c-1.1,0-2.1,0.2-3.2,0.6
		c-7.3,2.3-10.1,11.4-5,17.1c1.3,1.5,2.9,1.8,4.3,1.5c0.5,0.3,1,0.4,1.5,0.5c1.8,2.9,2,6.5,4.1,9.3c2.3,3,6,4.8,9.8,3.8
		c9.8-2.6,7.5-14.2,4.4-21.1c2.8-3.7,4.8-7.9,6-12.4C377.3,552.5,367.7,549.9,366.1,556.1z M357.1,571.6c0-0.4,0-0.8,0-1.1
		c0.1,0,0.1,0.1,0.2,0.1c0.3,0.2,0.6,0.5,0.9,0.8c0,0.3,0,0.5,0.1,0.8C357.9,571.9,357.5,571.7,357.1,571.6z"/>
	<path d="M718.7,503.1c-4.8-2.3-10.6-0.2-12.2,5.2c-0.3,1-0.3,2.3-0.2,3.7c-2,3.6-3.3,7.6-3,11.1c-2,1.5-3.4,3.7-4,6.4
		c-0.9,4,2.3,6.7,6.2,6.2c3.4-0.5,6.4-2.4,8.5-5.1c0.8-0.3,1.6-0.8,2.3-1.4l1.3-7.7c-0.1-0.2-0.2-0.4-0.3-0.6c0-0.4,0-0.8,0-1.1
		c0-1.3-0.2-2.5-0.3-3.7c-0.1-0.8-0.2-1.4-0.3-1.8c0.8-1,1.7-1.9,2.7-2.8l1.2-6.6C720,504.1,719.4,503.5,718.7,503.1z"/>
	<path d="M690.4,649.6c-0.8-0.2-1.5-0.3-2.3-0.4c-0.3-2.3-1.2-4.4-3.9-5.4c-4-1.5-7.5,1.7-10.6,3.8c-2.9,2-3.1,5.2-1,7.9
		c2,2.5,5.1,3.6,8.1,3.8c1.5,0.1,3.1-0.1,4.6-0.1c0.6,0,1.4-0.2,2,0c0.1,0,0.1,0,0.2,0.1c0,3.2,2.5,4.7,5.1,4.6l2.1-11.7
		C693.4,651,692,650.1,690.4,649.6z"/>
	<path d="M687.6,691.9l1.1-6.1c-2.8-5.6-10.6-6.4-14.2-1.1c-2.4,3.6,0.7,7,4,7.3c-0.3,0.4-0.6,0.7-0.9,1.1L687.6,691.9z"/>
	<path d="M597.1,558.7c3.1-3.6,2-8.4-1.2-11.5c-2.8-2.7-8.5-4.8-14.1-5.3c0.1-1.7-0.7-3.3-2.4-4.1c-1.5-0.6-3-1.1-4.7-1.3
		c-0.8-0.3-1.7-0.4-2.6-0.2c-6.7-0.1-13.4,3.2-14.8,10.5c-2.3,12.2,17.5,14.2,25.7,14.8l13.3-2C596.5,559.3,596.8,559,597.1,558.7z"
		/>
	<path d="M514,709.3c-9.7-1.8-19.4-3.7-29-5.5c-2.1-0.4-4.1,0.3-5.2,1.8c-1.2,0.8-2.1,2.1-2.2,3.8c-0.2,2-0.1,5.3,0.4,8.7l39.6-4.9
		C517.5,711.3,516.3,709.7,514,709.3z"/>
	<path d="M305.7,725.3c2.7-0.3,5-2.1,5-5c0-0.9-0.3-1.8-0.8-2.6c-0.1-2.2-1.2-4.3-3.7-5.7c-2-1.1-4.4-0.7-6.1,0.8
		c-1.8,1.6-4,2.7-6.3,3.2c-2.1,0-4.2,0-6.4-0.1c-4.1-0.2-5.9,4.5-4.4,7.6c0,0.2,0,0.3-0.1,0.5c-0.4,8.1,11.8,9.1,17.4,10.1
		c5.4,0.9,8.1-5.9,4.9-8.7c0,0,0,0,0,0C305.6,725.3,305.6,725.3,305.7,725.3z"/>
	<path d="M449.6,684.5c-7-3.2-20.2-2.9-24.6,4.6c-2,3.4-0.7,7.6,3.1,9c1.2,0.4,3.4,0.1,4.2,0.4c1.3,0.6,2.6,2.6,3.8,3.6
		c1.6,1.2,3.2,2.1,5.2,2.3c0.6,0.1,1.1,0,1.7,0c1.4,1.2,3.3,1.7,5.4,0.6c0.6,0.3,1.2,0.7,1.8,0.8c2.3,0.6,4,0.2,6.1-0.8
		c3.9-1.9,2.9-6.4,0-8.3c0.2-0.6,0.3-1.2,0.3-1.8C456.8,690.2,453.5,686.3,449.6,684.5z M441.5,693.7c-0.5-0.3-0.9-0.7-1.3-1
		c2.5,0,5,0.3,5.4,1.1C444,693.9,442.7,694.4,441.5,693.7z"/>
	<path d="M337.9,714.6c-3.8,5.2,4.9,10.2,8.6,5c0.8-1.2,1.9-2.3,3-3.5c0.1,0.1,0.2,0.2,0.3,0.3c5.1,4.8,11.6,8.8,18.8,6.3
		c6.6-2.3,9.5-9.8,6-16C365.8,691.3,345,704.9,337.9,714.6z"/>
	<path d="M281.6,699.9c2.7,1.8,6.8,1.5,9.9,1.3c2.9-0.2,6.2-0.5,8.6-2.4c2.9-2.3,3.5-5.8,2.4-8.8l-25.2,3.1c0.3,0.2,0.5,0.4,0.8,0.6
		C278.5,696.2,279.4,698.5,281.6,699.9z"/>
	<path d="M571.8,658.6c-2.7-1.8-6.3-1.2-9.4-0.5c-3.4,0.8-6.8,2.4-9,5.1c-3.1,3.8-2.8,8.2-2,12.7c0.7,3.9,5.8,4.5,8.4,2.2
		c2.2-2,4.5-3.8,6.9-5.4c0.3,0.4,0.6,0.8,1,1.2c3.1,2.7,8,0.9,8.5-2.8c1.5-0.7,2.6-2.1,2.6-4.3c0-1.2,0-2.4,0-3.7
		C578.9,659.1,575.1,657.4,571.8,658.6z"/>
</g>
</svg>
