<?xml version="1.0" encoding="utf-8"?>
<!-- Generator: Adobe Illustrator 23.0.5, SVG Export Plug-In . SVG Version: 6.00 Build 0)  -->
<svg version="1.1" id="Capa_1" xmlns="http://www.w3.org/2000/svg" xmlns:xlink="http://www.w3.org/1999/xlink" x="0px" y="0px"
	 viewBox="0 0 1000 1000" style="enable-background:new 0 0 1000 1000;" xml:space="preserve">
<style type="text/css">
	.st0{fill:none;}
	.st1{enable-background:new    ;}
	.st2{fill:#E2E2E2;}
	.st3{clip-path:url(#SVGID_2_);enable-background:new    ;}
	.st4{fill:#858585;}
	.st5{fill:#8A8A8A;}
	.st6{fill:#8F8F8F;}
	.st7{fill:#949494;}
	.st8{fill:#999999;}
	.st9{fill:#9E9E9E;}
	.st10{fill:#A3A3A3;}
	.st11{fill:#A8A8A8;}
	.st12{fill:#ADADAD;}
	.st13{fill:#B3B3B3;}
	.st14{fill:#B8B8B8;}
	.st15{fill:#BDBDBD;}
	.st16{fill:#C2C2C2;}
	.st17{clip-path:url(#SVGID_4_);enable-background:new    ;}
	.st18{clip-path:url(#SVGID_6_);enable-background:new    ;}
	.st19{clip-path:url(#SVGID_8_);enable-background:new    ;}
	.st20{clip-path:url(#SVGID_10_);enable-background:new    ;}
	.st21{clip-path:url(#SVGID_12_);enable-background:new    ;}
	.st22{clip-path:url(#SVGID_14_);enable-background:new    ;}
	.st23{fill:#D7D7D7;}
	.st24{clip-path:url(#SVGID_16_);enable-background:new    ;}
</style>
<rect class="st0" width="1000" height="1000"/>
<g>
	<g>
		<g class="st1">
			<g>
				<path class="st2" d="M337.83069,600.65051c1.34119-12.72491,7.19376-24.5423,16.50958-35.03906
					c9.14197-10.30084,21.65759-19.37347,36.61911-26.83508c14.75705-7.35968,31.97604-13.1933,50.84024-17.12408
					c18.72531-3.90186,39.20258-5.95612,60.71082-5.76367c21.51611,0.19244,42.20514,2.61658,61.30841,6.86176
					c19.25726,4.27936,37.03668,10.43909,52.48285,18.08752c15.66827,7.7583,29.02191,17.09125,39.0921,27.59717
					c10.26508,10.70923,17.15991,22.68097,19.59216,35.47852c2.48798,13.09082,0.0741,25.79633-6.55988,37.55383
					c-6.76886,11.99658-17.90533,22.96075-32.61621,32.27222c-14.94049,9.45673-33.47931,17.15295-54.67743,22.4422
					c-21.38135,5.33496-45.29614,8.17828-70.65573,7.91095c-25.34863-0.26721-49.495-3.61462-71.30286-9.39703
					c-21.60519-5.72864-40.74649-13.80267-56.43829-23.55603c-15.44275-9.59851-27.45828-20.7699-35.20892-32.88031
					C339.93234,626.39325,336.45883,613.66626,337.83069,600.65051z M506.16702,602.27972
					C506.16702,602.27972,506.16702,602.27972,506.16702,602.27972c0.00003,0,0.00003,0.00006,0.00006,0.00006
					c0,0,0.00003,0,0.00006,0c0,0,0.00003,0,0.00006,0s0.00006,0,0.00006,0c0.00003,0,0.00006,0,0.00006,0
					c0.00003,0,0.00003-0.00006,0.00006-0.00006c0,0,0,0,0,0c0-0.00006,0-0.00006-0.00003-0.00006c0,0,0,0-0.00003-0.00006
					c-0.00003,0-0.00003,0-0.00006,0s-0.00003,0-0.00006,0s-0.00006,0-0.00009,0c0,0-0.00003,0-0.00006,0
					c0,0-0.00003,0.00006-0.00003,0.00006S506.16702,602.27966,506.16702,602.27972"/>
			</g>
			<g class="st1">
				<defs>
					<path id="SVGID_1_" class="st1" d="M675.75256,618.44696c0.10278-1.19666,0.16443-2.39856,0.18445-3.60522
						c0.01996-1.2041-0.00159-2.41296-0.06512-3.62604c-0.06348-1.21051-0.16876-2.42523-0.31647-3.64374
						c-0.1474-1.21588-0.33704-2.43555-0.56946-3.65839c-2.43225-12.79755-9.32709-24.76929-19.59216-35.47852
						c-10.07019-10.50592-23.42383-19.83887-39.0921-27.59717c-15.44617-7.64844-33.22559-13.80817-52.48285-18.08752
						c-19.10327-4.24518-39.7923-6.66931-61.30841-6.86176c-21.50824-0.19244-41.9855,1.86182-60.71082,5.76367
						c-18.8642,3.93079-36.08319,9.7644-50.84024,17.12408c-14.96152,7.46161-27.47714,16.53424-36.61911,26.83508
						c-9.31583,10.49677-15.1684,22.31415-16.50958,35.03906l-6.63263-234.23483c1.52548-10.89511,7.9014-20.996,17.98706-29.95428
						c9.88324-8.7785,23.37381-16.49991,39.47092-22.84305c15.8609-6.25009,34.34784-11.19971,54.58762-14.53259
						c20.07996-3.30658,42.03592-5.04669,65.10458-4.88376c23.07773,0.16302,45.28915,2.21661,65.82571,5.81461
						c20.71436,3.62912,39.87897,8.85657,56.57483,15.35358c16.95392,6.59738,31.46271,14.54309,42.47644,23.49973
						c11.24335,9.14331,18.89386,19.38052,21.75757,30.34268c0.27386,1.04852,0.50159,2.09442,0.68372,3.1373
						c0.18256,1.04529,0.31921,2.08749,0.41071,3.12631c0.09161,1.04117,0.13782,2.07886,0.1391,3.11267
						c0.00134,1.03616-0.04242,2.06842-0.13074,3.09637C689.98566,452.71378,681.85248,547.41846,675.75256,618.44696z"/>
				</defs>
				<clipPath id="SVGID_2_">
					<use xlink:href="#SVGID_1_"  style="overflow:visible;"/>
				</clipPath>
				<g class="st3">
					<path class="st4" d="M675.75256,618.44696l20.33301-236.76172c0.08832-1.02795,0.13208-2.06021,0.13074-3.09637
						c-0.00128-1.03381-0.04749-2.0715-0.1391-3.11267c-0.09149-1.03882-0.22815-2.08102-0.41071-3.12631
						c-0.18213-1.04288-0.40985-2.08878-0.68372-3.1373c-1.66498-6.37347-4.94678-12.49991-9.60846-18.30612
						c-4.60156-5.73135-10.55334-11.15771-17.63458-16.21042c-7.00018-4.99487-15.11487-9.63226-24.13947-13.84665
						c-8.93689-4.17343-18.78241-7.93967-29.34698-11.23483l-13.22198,224.44812c9.7876,3.87964,18.89313,8.3114,27.14087,13.21918
						c8.32306,4.95258,15.78687,10.39832,22.20264,16.25928c6.4848,5.92401,11.9082,12.2807,16.06769,18.98865
						c4.2099,6.78918,7.12988,13.94598,8.54346,21.38379c0.23242,1.22284,0.42206,2.4425,0.56946,3.65839
						c0.14771,1.21851,0.25299,2.43323,0.31647,3.64374c0.06354,1.21307,0.08508,2.42194,0.06512,3.62604
						C675.91699,616.0484,675.85535,617.25031,675.75256,618.44696"/>
					<path class="st5" d="M601.03131,534.06268l13.22198-224.44812c-1.51385-0.47217-3.04272-0.93475-4.58606-1.38757
						c-1.54169-0.45233-3.0979-0.89493-4.66815-1.32761c-1.5686-0.43222-3.15118-0.85458-4.74738-1.26688
						c-1.59454-0.41187-3.20264-0.81372-4.82379-1.20532L583.5686,527.95093c1.50513,0.46155,2.99786,0.93518,4.47778,1.42059
						c1.4812,0.48584,2.94965,0.98346,4.40479,1.4928c1.45648,0.50977,2.89972,1.03119,4.32916,1.56403
						C598.21124,532.96173,599.62842,533.50659,601.03131,534.06268"/>
					<path class="st6" d="M583.5686,527.95093l11.85931-223.52374c-1.28046-0.30933-2.56903-0.61227-3.86554-0.90875
						c-1.29559-0.29626-2.59912-0.58609-3.91034-0.86938c-1.3103-0.28311-2.62836-0.55969-3.95392-0.82965
						c-1.32465-0.26981-2.6568-0.53299-3.99622-0.78952L568.9585,523.94543c1.24506,0.30255,2.48328,0.61292,3.71436,0.93103
						c1.23181,0.31836,2.45654,0.64447,3.67389,0.97827c1.2182,0.33398,2.42902,0.67572,3.63232,1.02496
						C581.18317,527.22919,582.37976,527.5863,583.5686,527.95093"/>
					<path class="st7" d="M568.9585,523.94543l10.74341-222.91556c-1.18457-0.22684-2.37488-0.44846-3.57068-0.66479
						c-1.19519-0.21622-2.39594-0.42715-3.60211-0.63275c-1.20551-0.20547-2.41644-0.40564-3.63263-0.60037
						c-1.21564-0.19464-2.43652-0.38391-3.66254-0.56772l-9.73102,222.47281c1.14069,0.21686,2.27649,0.44012,3.40735,0.66974
						c1.13135,0.22974,2.25769,0.46588,3.37891,0.70825c1.1217,0.24249,2.23828,0.49133,3.34967,0.74634
						C566.75067,523.4165,567.8573,523.67792,568.9585,523.94543"/>
					<path class="st8" d="M555.50293,521.03705l9.73102-222.47281c-1.13507-0.17017-2.27454-0.33566-3.41833-0.4964
						c-1.14331-0.16071-2.29089-0.31668-3.44269-0.4679c-1.15131-0.15115-2.30682-0.29752-3.46637-0.43906
						c-1.15918-0.14151-2.32245-0.2782-3.48962-0.41003l-8.7746,222.14642c1.08673,0.15558,2.16974,0.31689,3.2489,0.48389
						c1.07947,0.16699,2.15509,0.33972,3.22675,0.51813c1.07202,0.17841,2.14008,0.36243,3.2041,0.55206
						C553.38647,520.64099,554.44678,520.8363,555.50293,521.03705"/>
					<path class="st9" d="M542.64233,518.89728l8.7746-222.14642c-1.1203-0.1265-2.2442-0.24854-3.37164-0.36606
						c-1.12714-0.11746-2.25787-0.23041-3.39203-0.33878c-1.13385-0.10834-2.27118-0.21213-3.41187-0.31128
						c-1.14044-0.09912-2.28424-0.19363-3.43134-0.28351l-7.84064,221.91211c1.06866,0.10608,2.13416,0.21765,3.19647,0.33466
						c1.06256,0.11707,2.12189,0.2395,3.17792,0.36743c1.05634,0.12787,2.10938,0.26117,3.159,0.39984
						C540.55273,518.60394,541.59924,518.74799,542.64233,518.89728"/>
					<path class="st10" d="M529.96942,517.36334l7.84064-221.91211c-1.1358-0.08896-2.27478-0.17337-3.41693-0.25317
						c-1.14197-0.07977-2.28705-0.15494-3.43518-0.22543c-1.14789-0.0705-2.29889-0.13632-3.45288-0.19748
						c-1.15375-0.06113-2.31055-0.11755-3.47021-0.16922l-6.90149,221.75955c1.08081,0.06097,2.15894,0.12762,3.23419,0.19977
						c1.07538,0.0722,2.14795,0.1499,3.21765,0.23309c1.06982,0.08325,2.13678,0.172,3.20074,0.26617
						C527.85016,517.15869,528.91132,517.2583,529.96942,517.36334"/>
					<path class="st11" d="M517.13336,516.36548l6.90149-221.75955c-1.18121-0.05264-2.36542-0.10034-3.55255-0.14307
						c-1.18701-0.04276-2.37695-0.08051-3.5697-0.11322c-1.19269-0.03275-2.38824-0.06046-3.58649-0.08307
						c-1.19818-0.02264-2.39914-0.04019-3.60278-0.05261l-5.93085,221.68875c1.12216,0.01465,2.24182,0.0354,3.35886,0.06213
						c1.11707,0.02667,2.23157,0.05939,3.34335,0.09802c1.11188,0.03864,2.22107,0.08325,3.32751,0.13367
						C514.92871,516.24701,516.03247,516.30334,517.13336,516.36548"/>
					<path class="st12" d="M503.79248,515.90271l5.93085-221.68875c-0.11447-0.00119-0.229-0.00232-0.34354-0.00339
						c-0.11456-0.0011-0.22913-0.00214-0.34372-0.00314s-0.22919-0.00195-0.34384-0.00284
						c-0.11462-0.00092-0.22931-0.00177-0.34399-0.00259c-1.15863-0.00818-2.31421-0.01157-3.46664-0.01022
						c-1.15244,0.00137-2.30179,0.00748-3.44788,0.01828c-1.14615,0.01077-2.28912,0.02631-3.4288,0.04645
						c-1.13974,0.02017-2.27625,0.04498-3.40939,0.07443l-4.90872,221.70984c1.0567-0.03473,2.11649-0.06403,3.17929-0.08783
						c1.06274-0.0238,2.12851-0.04211,3.19724-0.05487c1.0687-0.01276,2.14035-0.01996,3.2149-0.02155
						c1.07452-0.00159,2.15198,0.00238,3.23221,0.01208c0.10693,0.00092,0.21384,0.00195,0.32071,0.00299
						c0.1069,0.0011,0.21375,0.0022,0.32059,0.00342c0.10684,0.00116,0.21365,0.00238,0.32043,0.00366
						C503.57898,515.89996,503.68573,515.90131,503.79248,515.90271"/>
					<path class="st13" d="M489.6868,516.04077l4.90872-221.70984c-1.40512,0.0365-2.80515,0.08008-4.19989,0.13068
						c-1.39493,0.05063-2.78461,0.10825-4.16888,0.17282c-1.38449,0.06454-2.76361,0.13608-4.13721,0.21442
						c-1.37384,0.0784-2.74219,0.1636-4.10483,0.25562l-3.78882,221.84958c1.27084-0.10864,2.54697-0.20929,3.82822-0.30176
						c1.28101-0.09253,2.5672-0.17694,3.85834-0.25317c1.29095-0.07623,2.58694-0.14429,3.88779-0.20398
						C487.07092,516.13538,488.3765,516.08386,489.6868,516.04077"/>
					<path class="st14" d="M474.19589,516.95404l3.78882-221.84958c-1.65543,0.11179-3.30255,0.23358-4.94101,0.36523
						c-1.63898,0.13168-3.26938,0.27325-4.8909,0.42453c-1.62207,0.15137-3.23532,0.31244-4.83942,0.48312
						c-1.60474,0.17078-3.20035,0.35114-4.78653,0.54099l-2.47696,222.17657c1.47916-0.22406,2.96713-0.43689,4.46362-0.63843
						c1.49591-0.20148,3.0004-0.3916,4.51312-0.57025c1.51221-0.17859,3.03275-0.34564,4.56125-0.5011
						C471.11594,517.22974,472.65204,517.08594,474.19589,516.95404"/>
					<path class="st15" d="M456.0499,519.09491l2.47696-222.17657c-2.70984,0.32434-5.3924,0.67636-8.04596,1.05536
						c-2.65598,0.37933-5.2832,0.78574-7.87997,1.21854c-2.59949,0.43323-5.16876,0.89294-7.70605,1.37848
						c-2.54025,0.48608-5.04877,0.99808-7.52371,1.53528l-0.3663,223.10843c2.30649-0.63342,4.64441-1.23724,7.01205-1.81049
						c2.36511-0.57269,4.76016-1.11493,7.1835-1.62604c2.42099-0.51056,4.87048-0.99005,7.34686-1.43762
						C451.02158,519.89307,453.52298,519.47766,456.0499,519.09491"/>
					<path class="st16" d="M427.00485,525.21442l0.3663-223.10843c-2.7648,0.60013-5.48813,1.23184-8.16742,1.89413
						c-2.68353,0.66336-5.32327,1.35751-7.91663,2.08151c-2.59781,0.72525-5.14948,1.48059-7.65228,2.26501
						c-2.50745,0.78592-4.96622,1.60114-7.37363,2.44476l1.77252,224.65707c2.24011-0.99341,4.52847-1.95349,6.86246-2.87921
						c2.32999-0.92407,4.70578-1.81396,7.12491-2.66852c2.41525-0.85321,4.87402-1.67133,7.37384-2.45325
						C421.89108,526.66681,424.42853,525.92206,427.00485,525.21442"/>
					<path class="st15" d="M398.03372,535.44849l-1.77252-224.65707c-2.22681,0.78033-4.40991,1.58505-6.54715,2.41342
						c-2.14139,0.82999-4.23694,1.68378-6.28448,2.56067c-2.05173,0.87869-4.05545,1.78064-6.00891,2.70511
						c-1.95764,0.92645-3.86502,1.87564-5.71982,2.84677l3.50375,226.51465c1.72205-1.14166,3.49338-2.25763,5.31183-3.34711
						c1.81482-1.08728,3.67679-2.14819,5.58377-3.18195c1.90335-1.03174,3.85175-2.03644,5.84311-3.01331
						C393.93109,537.31464,395.96191,536.36725,398.03372,535.44849"/>
					<path class="st14" d="M375.20459,547.83203l-3.50375-226.51465c-1.09531,0.57349-2.17233,1.15466-3.23056,1.74338
						c-1.05972,0.58951-2.10065,1.18658-3.12228,1.79108c-1.0231,0.60535-2.02692,1.21814-3.01096,1.83823
						c-0.98544,0.621-1.95108,1.24933-2.89645,1.88486l4.39197,227.78305c0.87604-0.74622,1.77109-1.48401,2.68466-2.21332
						c0.91235-0.72833,1.8432-1.44812,2.79214-2.15924c0.94766-0.71021,1.91339-1.41174,2.89673-2.10443
						C373.18814,549.18915,374.18781,548.5061,375.20459,547.83203"/>
					<path class="st13" d="M363.83255,556.35797l-4.39197-227.78305c-0.77994,0.52429-1.54608,1.0535-2.29816,1.58752
						c-0.75302,0.5347-1.49194,1.07422-2.21649,1.6185c-0.72546,0.54495-1.43652,1.09467-2.13293,1.64908
						c-0.6973,0.55515-1.37988,1.11496-2.04749,1.67941l5.03741,228.91656c0.61743-0.66205,1.24884-1.31873,1.89401-1.96997
						c0.64441-0.65045,1.30252-1.29541,1.97409-1.93488c0.67081-0.63873,1.35504-1.27197,2.05243-1.89954
						C362.40009,557.59479,363.10986,556.97351,363.83255,556.35797"/>
					<path class="st12" d="M355.78293,564.026l-5.03741-228.91656c-0.59436,0.5025-1.17685,1.00867-1.74728,1.51846
						c-0.57108,0.51038-1.1301,1.02438-1.67682,1.54193c-0.54736,0.51816-1.0824,1.03992-1.60495,1.56519
						c-0.52316,0.52588-1.03381,1.0553-1.53171,1.58817l5.5376,229.98688c0.45938-0.62433,0.93063-1.24475,1.4136-1.86102
						c0.48242-0.6156,0.97653-1.22717,1.48215-1.83459c0.50507-0.60669,1.02161-1.20935,1.54944-1.80774
						C354.69479,565.20892,355.23331,564.6153,355.78293,564.026"/>
					<path class="st11" d="M349.72235,571.31006l-5.5376-229.98688c-0.46384,0.49643-0.9166,0.99588-1.35815,1.49826
						c-0.44205,0.50296-0.87289,1.00891-1.2923,1.51779c-0.41989,0.50946-0.82834,1.02185-1.22522,1.53711
						c-0.39734,0.51587-0.78302,1.03464-1.15695,1.55627l5.93375,231.0321c0.3439-0.61053,0.69879-1.21783,1.06454-1.82184
						c0.36533-0.60327,0.74152-1.20331,1.12833-1.79987c0.38641-0.59595,0.78348-1.18854,1.19101-1.77771
						C348.87686,572.47681,349.29446,571.89172,349.72235,571.31006"/>
					<path class="st10" d="M345.08588,578.46472l-5.93375-231.0321c-0.36099,0.5036-0.711,1.00986-1.04987,1.51871
						c-0.33926,0.50946-0.66733,1.02151-0.9841,1.53616c-0.31714,0.51523-0.62292,1.03305-0.91721,1.55341
						c-0.29465,0.52097-0.57776,1.04449-0.84918,1.5705l6.24609,232.08203c0.24844-0.61511,0.50778-1.22736,0.77786-1.83667
						c0.26978-0.60864,0.55026-1.21436,0.84131-1.81714c0.29074-0.60211,0.59204-1.20129,0.90372-1.79742
						C344.43213,579.64667,344.75388,579.0542,345.08588,578.46472"/>
					<path class="st9" d="M341.59787,585.69342l-6.24609-232.08203c-0.27045,0.52408-0.52927,1.05066-0.77637,1.57968
						c-0.24738,0.52963-0.483,1.06171-0.70667,1.59619c-0.22394,0.53513-0.43594,1.07266-0.6358,1.61258
						c-0.2001,0.54056-0.38806,1.0835-0.56372,1.62872l6.48242,233.16486c0.15927-0.63696,0.32999-1.27124,0.51199-1.90283
						c0.18179-0.63086,0.37488-1.25903,0.57907-1.8844c0.20398-0.62469,0.41907-1.2467,0.64511-1.86584
						C341.11362,586.92194,341.35034,586.30627,341.59787,585.69342"/>
					<path class="st8" d="M339.15164,593.19342l-6.48242-233.16486c-0.16849,0.52295-0.32562,1.04803-0.47134,1.57523
						c-0.14587,0.5278-0.28024,1.05771-0.40302,1.58969c-0.12292,0.53262-0.23416,1.06732-0.33365,1.60403
						c-0.09958,0.53735-0.18735,1.07675-0.26315,1.61816l6.63263,234.23483c0.06659-0.63177,0.14429-1.26129,0.23294-1.88849
						c0.08859-0.62653,0.18814-1.25073,0.29849-1.8725c0.11023-0.62115,0.23126-1.23993,0.36298-1.85626
						C338.85669,594.41754,338.9989,593.80426,339.15164,593.19342"/>
				</g>
			</g>
			<g>
				<path class="st2" d="M338.77301,599.85339c1.32349-12.64734,7.13513-24.39404,16.39334-34.8291
					c9.08636-10.24139,21.53049-19.26245,36.40991-26.68225c14.67712-7.31891,31.80533-13.12067,50.57193-17.03009
					c18.62918-3.88086,39.00238-5.92407,60.40189-5.73273c21.40726,0.19147,41.99124,2.60254,60.99655,6.82483
					c19.15778,4.25616,36.84363,10.38208,52.20654,17.98798c15.58264,7.71472,28.86072,16.99438,38.87067,27.43939
					c10.20258,10.64606,17.05127,22.54578,19.46027,35.26489c2.46393,13.00903,0.05341,25.63354-6.55225,37.3147
					c-6.73926,11.91736-17.8194,22.80792-32.45105,32.05597c-14.85864,9.39148-33.29224,17.034-54.36725,22.28595
					c-21.2561,5.29712-45.02911,8.12018-70.23761,7.85474c-25.19772-0.26532-49.20111-3.58881-70.88141-9.33026
					c-21.48004-5.68842-40.513-13.7063-56.11905-23.39252c-15.35974-9.53345-27.31439-20.63013-35.03027-32.66095
					C340.88412,625.43445,337.41946,612.78821,338.77301,599.85339z M505.21317,601.46313
					c0.00311,0.07471,0.03339,0.14618,0.08554,0.21143c0.05212,0.06531,0.12613,0.12433,0.21658,0.17419
					s0.19742,0.09052,0.31549,0.11908c0.1181,0.02856,0.24728,0.04492,0.38223,0.04626
					c0.13495,0.00128,0.26288-0.01263,0.37863-0.03888c0.11575-0.02631,0.21933-0.06494,0.30566-0.1131
					c0.0863-0.04816,0.15533-0.10583,0.202-0.1701c0.04666-0.06433,0.07092-0.13525,0.06769-0.21002
					c-0.00323-0.07471-0.03366-0.14618-0.08588-0.21136c-0.05222-0.06525-0.12625-0.12421-0.21671-0.17401
					c-0.09048-0.0498-0.19739-0.09039-0.31537-0.1189c-0.11801-0.0285-0.24707-0.04486-0.3819-0.0462
					c-0.13483-0.00128-0.26263,0.01263-0.3783,0.03882c-0.11566,0.02625-0.21924,0.06482-0.30554,0.11292
					s-0.1554,0.10571-0.20212,0.16992C505.23444,601.31744,505.21005,601.38837,505.21317,601.46313"/>
			</g>
			<g class="st1">
				<defs>
					<path id="SVGID_3_" class="st1" d="M694.94019,382.50934c-6.69952,78.32739-13.40039,156.64056-20.09985,234.96796
						c0.10132-1.18414,0.16205-2.37341,0.18176-3.56738c0.01965-1.19153-0.00159-2.3877-0.06433-3.58801
						c-0.06256-1.19781-0.16644-2.39978-0.31207-3.60553c-0.14539-1.20313-0.3324-2.40997-0.56158-3.62006
						c-2.409-12.71912-9.25769-24.61884-19.46027-35.26489c-10.00995-10.44501-23.28802-19.72467-38.87067-27.43939
						c-15.36292-7.6059-33.04877-13.73181-52.20654-17.98798c-19.00531-4.22229-39.58929-6.63336-60.99655-6.82483
						c-21.39951-0.19135-41.77271,1.85187-60.40189,5.73273c-18.7666,3.90942-35.89481,9.71118-50.57193,17.03009
						c-14.87943,7.4198-27.32355,16.44086-36.40991,26.68225c-9.25821,10.43506-15.06985,22.18176-16.39334,34.8291
						l-6.50757-232.48318c1.50363-10.84167,7.83026-20.89444,17.84714-29.81116
						c9.81699-8.73883,23.22278-16.42618,39.22281-22.74194c15.7666-6.2236,34.14658-11.15262,54.27155-14.47183
						c19.96695-3.29315,41.80063-5.02625,64.74139-4.86395c22.94965,0.16235,45.03729,2.20767,65.45807,5.79099
						c20.59656,3.61417,39.65002,8.81979,56.2464,15.28912c16.85138,6.56876,31.26892,14.47919,42.20923,23.39502
						c11.16699,9.10062,18.75989,19.2887,21.5929,30.19669c0.26978,1.03876,0.49408,2.07492,0.6734,3.10809
						c0.17975,1.03552,0.31433,2.06802,0.4043,3.09711c0.09021,1.03143,0.13562,2.05942,0.13678,3.08359
						C695.07056,380.46838,695.02728,381.491,694.94019,382.50934z"/>
				</defs>
				<clipPath id="SVGID_4_">
					<use xlink:href="#SVGID_3_"  style="overflow:visible;"/>
				</clipPath>
				<g class="st17">
					<path class="st4" d="M694.94019,382.50934l-20.09985,234.96796c0.10132-1.18414,0.16205-2.37341,0.18176-3.56738
						c0.01965-1.19153-0.00159-2.3877-0.06433-3.58801c-0.06256-1.19781-0.16644-2.39978-0.31207-3.60553
						c-0.14539-1.20313-0.3324-2.40997-0.56158-3.62006c-1.40009-7.39203-4.29865-14.50525-8.48071-21.2536
						c-4.13226-6.66797-9.52228-12.98724-15.96863-18.87671c-6.37817-5.82715-13.7995-11.2417-22.07617-16.16614
						c-8.20227-4.88019-17.25842-9.28717-26.99377-13.14539l13.09027-222.8241c10.50244,3.28116,20.28894,7.03122,29.1712,11.18652
						c8.96887,4.19583,17.03223,8.81256,23.98669,13.78485c7.03448,5.02951,12.94525,10.4306,17.513,16.13483
						c4.62708,5.77826,7.88184,11.87476,9.52893,18.21655c0.26978,1.03876,0.49408,2.07492,0.6734,3.10809
						c0.17975,1.03552,0.31433,2.06802,0.4043,3.09711c0.09021,1.03143,0.13562,2.05942,0.13678,3.08359
						C695.07056,380.46838,695.02728,381.491,694.94019,382.50934"/>
					<path class="st5" d="M613.65509,310.83038l-13.09027,222.8241c-1.39551-0.55298-2.80511-1.09485-4.22845-1.62531
						c-1.42194-0.52991-2.85754-1.04846-4.30634-1.55542c-1.44751-0.50653-2.9082-1.00146-4.38165-1.48462
						c-1.47217-0.48273-2.95709-0.95374-4.45435-1.41284l11.74506-221.91159c1.61182,0.38998,3.21063,0.79016,4.79602,1.20032
						c1.58691,0.41055,3.16034,0.83115,4.71985,1.26157c1.5611,0.43088,3.10822,0.87161,4.64093,1.32205
						C610.63025,309.89954,612.15015,310.3602,613.65509,310.83038"/>
					<path class="st6" d="M594.93909,305.6647l-11.74506,221.91159c-1.18262-0.36255-2.37292-0.71771-3.5708-1.06531
						c-1.19702-0.34741-2.40161-0.68719-3.6134-1.01941c-1.21112-0.33197-2.42944-0.65631-3.65491-0.9729
						c-1.22467-0.31647-2.45648-0.62512-3.69513-0.92596l10.64319-221.31125c1.33179,0.25543,2.65637,0.51755,3.97351,0.78625
						c1.31793,0.26883,2.62848,0.54428,3.93134,0.8262c1.30371,0.28214,2.59979,0.57077,3.88794,0.86581
						C592.38483,305.05499,593.66602,305.35669,594.93909,305.6647"/>
					<path class="st7" d="M579.30298,302.28146l-10.64319,221.31125c-1.09552-0.26611-2.19641-0.52606-3.30255-0.77985
						c-1.10559-0.25366-2.21643-0.5011-3.3324-0.74231c-1.11548-0.24109-2.23602-0.47589-3.36151-0.70441
						c-1.12506-0.22839-2.25507-0.45044-3.38989-0.66614l9.64343-220.87411c1.21906,0.18304,2.43311,0.37155,3.64185,0.5654
						c1.20935,0.19394,2.41345,0.39328,3.61212,0.59793c1.19934,0.20474,2.39331,0.41483,3.58173,0.63016
						C576.94159,301.83481,578.12512,302.05554,579.30298,302.28146"/>
					<path class="st8" d="M564.91687,299.8259l-9.64343,220.87411c-1.05072-0.19971-2.10565-0.39386-3.16461-0.58252
						c-1.05853-0.1886-2.12115-0.37164-3.18768-0.54913c-1.06616-0.17737-2.13629-0.34918-3.21027-0.51532
						c-1.07367-0.16608-2.15112-0.32654-3.23236-0.48126l8.69885-220.55188c1.16064,0.13129,2.31738,0.26743,3.47009,0.40836
						c1.15308,0.14096,2.30206,0.28674,3.44696,0.43729c1.14532,0.15057,2.28644,0.30591,3.42334,0.46597
						C562.65509,299.49161,563.78815,299.65643,564.91687,299.8259"/>
					<path class="st9" d="M551.17737,298.0199l-8.69885,220.55188c-1.03772-0.1485-2.07898-0.29175-3.12354-0.42969
						c-1.04431-0.13794-2.09198-0.27051-3.14288-0.39771c-1.05072-0.1272-2.10468-0.24902-3.1618-0.36542
						c-1.05688-0.11639-2.117-0.22736-3.18024-0.33289l7.77643-220.32056c1.14069,0.08951,2.27814,0.18362,3.41217,0.28235
						c1.13434,0.09875,2.26532,0.20212,3.39288,0.31003c1.12781,0.10794,2.2522,0.22043,3.37305,0.3374
						C548.94574,297.77234,550.06335,297.89389,551.17737,298.0199"/>
					<path class="st10" d="M537.64648,296.72552l-7.77643,220.32056c-1.05273-0.10443-2.10858-0.20355-3.1673-0.29724
						c-1.05859-0.09369-2.12012-0.18195-3.18457-0.26471c-1.06427-0.08276-2.13141-0.1601-3.20135-0.23187
						c-1.06982-0.07178-2.14246-0.138-3.21777-0.19873l6.84882-220.16992c1.1532,0.05148,2.30359,0.10767,3.45093,0.16855
						c1.14758,0.06091,2.29218,0.12646,3.43372,0.19669c1.14172,0.07022,2.28046,0.14508,3.41602,0.22452
						C535.38434,296.55286,536.51703,296.6369,537.64648,296.72552"/>
					<path class="st11" d="M523.94788,295.88361l-6.84882,220.16992c-1.09534-0.06177-2.19354-0.1178-3.29449-0.16797
						c-1.10077-0.05017-2.20438-0.09454-3.31064-0.133c-1.10614-0.03839-2.215-0.07092-3.32645-0.09753
						c-1.11136-0.02655-2.22534-0.04718-3.34183-0.06177l5.89014-220.10004c1.19693,0.01239,2.39127,0.02985,3.58279,0.0524
						c1.19159,0.02252,2.38049,0.05014,3.56653,0.08273c1.18616,0.03259,2.36951,0.07019,3.54993,0.11276
						C521.59558,295.78366,522.77325,295.83121,523.94788,295.88361"/>
					<path class="st12" d="M509.71579,295.49323l-5.89014,220.10004c-0.1062-0.0014-0.21243-0.00269-0.3187-0.00397
						s-0.21252-0.0025-0.31882-0.00372c-0.10629-0.00116-0.21262-0.00226-0.31897-0.0033
						c-0.10635-0.0011-0.21271-0.00208-0.31909-0.00305c-1.0748-0.00958-2.14676-0.01361-3.21588-0.01202
						c-1.06909,0.00159-2.13531,0.00879-3.19861,0.02148c-1.06332,0.01263-2.12372,0.03088-3.18109,0.05457
						c-1.0574,0.02368-2.11185,0.0528-3.16318,0.08734l4.88055-220.12088c1.12686-0.0293,2.25705-0.05405,3.39047-0.07413
						c1.13336-0.02005,2.26999-0.03549,3.40979-0.04626c1.13974-0.01074,2.28268-0.01685,3.42874-0.01819
						s2.29523,0.00204,3.44745,0.01019c0.11404,0.00079,0.22806,0.00165,0.34207,0.00256
						c0.11401,0.00089,0.22797,0.00183,0.34195,0.00284c0.11395,0.00098,0.22787,0.00201,0.3418,0.00311
						C509.48804,295.49091,509.60193,295.49207,509.71579,295.49323"/>
					<path class="st13" d="M494.67188,295.60971l-4.88055,220.12088c-1.30368,0.04291-2.60263,0.09406-3.89676,0.1535
						c-1.29422,0.05945-2.58365,0.12708-3.86807,0.20294c-1.28461,0.07581-2.56427,0.15973-3.83878,0.25177
						c-1.27475,0.09204-2.5444,0.19208-3.80878,0.30017l3.77444-220.25882c1.35507-0.09164,2.71579-0.17654,4.082-0.25458
						c1.36594-0.07806,2.7374-0.14926,4.1142-0.21359c1.37659-0.0643,2.75858-0.1217,4.14572-0.17209
						C491.88232,295.68948,493.27457,295.64606,494.67188,295.60971"/>
					<path class="st14" d="M478.15338,296.38016l-3.77444,220.25882c-1.53601,0.13123-3.0643,0.27423-4.58459,0.42877
						c-1.52075,0.1546-3.03351,0.3208-4.53802,0.49841c-1.50504,0.17767-3.00183,0.36682-4.49014,0.5672
						c-1.48883,0.20044-2.96924,0.41217-4.44083,0.63501l2.47882-220.5817c1.57727-0.18906,3.16397-0.36871,4.75974-0.53879
						c1.59512-0.16998,3.19934-0.33041,4.81238-0.48117c1.61246-0.15067,3.23376-0.29166,4.86362-0.42282
						C474.86923,296.61279,476.50717,296.49149,478.15338,296.38016"/>
					<path class="st15" d="M458.80417,298.18668l-2.47882,220.5817c-2.51398,0.38068-5.00259,0.79382-7.46417,1.23859
						c-2.46365,0.44519-4.90057,0.92212-7.30908,1.42993c-2.41086,0.5083-4.79352,1.04761-7.14636,1.61719
						c-2.35538,0.57013-4.68115,1.17065-6.97562,1.80072l0.3945-221.50165c2.46082-0.53503,4.95505-1.04492,7.48083-1.52899
						c2.52289-0.48352,5.07761-0.94138,7.66238-1.37283c2.58212-0.43103,5.19455-0.83578,7.83554-1.21356
						C453.44202,298.86029,456.1095,298.5097,458.80417,298.18668"/>
					<path class="st16" d="M427.82462,303.35315l-0.3945,221.50165c-2.5629,0.70374-5.08707,1.4444-7.57013,2.22089
						c-2.48669,0.77765-4.93253,1.59125-7.33499,2.43982c-2.40631,0.84985-4.7695,1.73486-7.08704,2.65387
						c-2.32156,0.92059-4.59763,1.87537-6.82568,2.86328l-1.71698-223.03043c2.39319-0.84006,4.83749-1.65182,7.33023-2.43442
						c2.48816-0.78116,5.02493-1.53329,7.60767-2.25552c2.57831-0.72101,5.20279-1.41226,7.87085-2.07288
						C422.36795,304.57986,425.07562,303.95078,427.82462,303.35315"/>
					<path class="st15" d="M396.89529,312.00223l1.71698,223.03043c-2.06064,0.9137-4.08044,1.85577-6.05743,2.82544
						c-1.98053,0.97137-3.91827,1.97052-5.81116,2.99652c-1.89648,1.02789-3.74814,2.08289-5.55286,3.16406
						c-1.80835,1.08331-3.56976,2.19299-5.2821,3.32819l-3.42532-224.86401c1.84329-0.96689,3.73892-1.91193,5.6846-2.83435
						c1.9415-0.92047,3.93304-1.81854,5.97238-2.69342c2.03516-0.87311,4.11813-1.72327,6.2467-2.54968
						C392.51157,313.58057,394.68167,312.77927,396.89529,312.00223"/>
					<path class="st14" d="M372.4834,322.48285l3.42532,224.86401c-1.01105,0.67029-2.00504,1.34949-2.98154,2.03735
						c-0.97772,0.68878-1.93793,1.38635-2.88019,2.09253c-0.94348,0.70703-1.86899,1.42273-2.77606,2.14691
						c-0.90826,0.7251-1.7981,1.45868-2.66904,2.20062l-4.30139-226.11603c0.93927-0.63269,1.89874-1.25821,2.87793-1.87643
						c0.97775-0.61734,1.97519-1.22742,2.99182-1.83008c1.01523-0.60181,2.04962-1.19626,3.10266-1.78317
						C370.32458,323.63245,371.3949,323.05383,372.4834,322.48285"/>
					<path class="st13" d="M360.30051,329.70825l4.30139,226.11603c-0.71844,0.612-1.42407,1.22974-2.11658,1.85297
						c-0.6933,0.62396-1.37347,1.25354-2.04028,1.88855c-0.66757,0.63574-1.32175,1.27704-1.96228,1.92371
						c-0.64127,0.64746-1.26886,1.30035-1.88254,1.95856l-4.93777-227.2348c0.66315-0.56189,1.34119-1.11917,2.03387-1.67175
						c0.69177-0.55191,1.39816-1.09915,2.11887-1.64163c0.71979-0.54181,1.45389-1.07892,2.202-1.61121
						C358.76437,330.75705,359.52557,330.23022,360.30051,329.70825"/>
					<path class="st12" d="M351.66245,336.21326l4.93777,227.2348c-0.5463,0.58588-1.08151,1.17603-1.60553,1.77032
						c-0.5246,0.59491-1.03793,1.19403-1.53989,1.79724c-0.50247,0.60382-0.9935,1.21179-1.4729,1.82379
						c-0.47992,0.61273-0.94821,1.22943-1.40463,1.85016l-5.43063-228.29117c0.49438-0.5304,1.00146-1.05737,1.521-1.58081
						c0.51892-0.52286,1.05029-1.04218,1.59393-1.55798c0.54297-0.51517,1.09818-1.02679,1.66537-1.53485
						C350.49353,337.21732,351.07208,336.71347,351.66245,336.21326"/>
					<path class="st11" d="M345.14664,342.39841l5.43063,228.29117c-0.4252,0.57819-0.84009,1.15985-1.2446,1.74493
						c-0.40491,0.58563-0.79938,1.17474-1.18326,1.76715c-0.38431,0.59308-0.758,1.18951-1.12091,1.78925
						c-0.36331,0.6004-0.71582,1.20404-1.0574,1.81104l-5.82077-229.32272c0.37112-0.51917,0.754-1.03549,1.14841-1.54892
						c0.39395-0.51288,0.79944-1.02286,1.21631-1.52991c0.41638-0.5065,0.84412-1.01007,1.28302-1.51071
						C344.23648,343.38965,344.68607,342.89252,345.14664,342.39841"/>
					<path class="st10" d="M340.15033,348.47922l5.82077,229.32272c-0.32974,0.58594-0.64932,1.17487-0.95853,1.76685
						c-0.30957,0.59259-0.60876,1.18817-0.89746,1.78668c-0.289,0.59918-0.5675,1.20129-0.83533,1.80627
						c-0.26813,0.60565-0.52557,1.21423-0.77219,1.82562l-6.12814-230.35883c0.26923-0.52347,0.55005-1.04449,0.84235-1.56296
						c0.29196-0.51788,0.59534-1.0332,0.91003-1.54599c0.3143-0.51221,0.63986-1.02182,0.97653-1.52887
						C339.44467,349.48428,339.79202,348.98044,340.15033,348.47922"/>
					<path class="st9" d="M336.37946,354.62854l6.12814,230.35883c-0.2457,0.60913-0.48065,1.22107-0.70474,1.83582
						c-0.2243,0.61542-0.43771,1.23358-0.64011,1.85455c-0.20258,0.62158-0.3941,1.24597-0.5744,1.87299
						c-0.18051,0.62775-0.34979,1.25818-0.50766,1.8913l-6.36038-231.4274c0.17398-0.5426,0.36017-1.08289,0.55847-1.62079
						c0.19806-0.53729,0.40814-1.0722,0.63013-1.60474c0.22174-0.53189,0.45532-1.0614,0.70062-1.5885
						C335.85455,355.67413,336.11124,355.15012,336.37946,354.62854"/>
					<path class="st8" d="M333.72031,361.01462l6.36038,231.4274c-0.15143,0.60712-0.29236,1.21661-0.42273,1.82855
						c-0.13049,0.61261-0.25037,1.2276-0.3595,1.84491c-0.10925,0.61804-0.20773,1.2384-0.29532,1.86102
						c-0.08768,0.62335-0.16443,1.24902-0.23013,1.87689l-6.50757-232.48318c0.07471-0.53873,0.16132-1.07544,0.25967-1.61014
						c0.09827-0.53406,0.20822-1.0661,0.32977-1.5961c0.1214-0.52936,0.25436-1.05664,0.39874-1.58185
						C333.39786,362.0575,333.55344,361.535,333.72031,361.01462"/>
				</g>
			</g>
			<g class="st1">
				<defs>
					<path id="SVGID_5_" class="st1" d="M507.16714,601.50391c0.00006-0.00183,0.00009-0.0036,0.00009-0.00543
						c0.00003-0.00183,0.00003-0.00366,0.00003-0.00549c-0.00003-0.00183-0.00006-0.00366-0.00009-0.00549
						c-0.00006-0.00183-0.00012-0.00366-0.00018-0.00549c-0.00323-0.07471-0.03366-0.14618-0.08588-0.21136
						c-0.05222-0.06525-0.12625-0.12421-0.21671-0.17401c-0.09048-0.0498-0.19739-0.09039-0.31537-0.1189
						c-0.11801-0.0285-0.24707-0.04486-0.3819-0.0462c-0.13162-0.00128-0.25656,0.01196-0.37003,0.03699
						c-0.11349,0.02502-0.21555,0.06189-0.30139,0.10797c-0.08588,0.04608-0.15552,0.10132-0.20422,0.16309
						c-0.04871,0.06183-0.07645,0.13013-0.07849,0.20233l6.51611-232.70865c0.00174-0.06198,0.03125-0.12064,0.08337-0.17365
						c0.05215-0.05304,0.12692-0.10043,0.21924-0.13995c0.09229-0.03952,0.20209-0.07117,0.32428-0.09265
						s0.25684-0.03284,0.39874-0.03174c0.14539,0.00113,0.28467,0.01517,0.41211,0.03961
						c0.12738,0.02448,0.24292,0.05933,0.34076,0.10205c0.0979,0.04272,0.1781,0.09335,0.2348,0.14929
						c0.0567,0.05597,0.08997,0.11728,0.09393,0.18143c0.00006,0.00159,0.00018,0.00314,0.00024,0.00473
						c0.00006,0.00156,0.00006,0.00311,0.00012,0.0047c0,0.00156,0,0.00311,0,0.0047c0,0.00156,0,0.00311-0.00006,0.00467
						C511.83578,438.60168,509.168,531.68866,507.16714,601.50391z"/>
				</defs>
				<clipPath id="SVGID_6_">
					<use xlink:href="#SVGID_5_"  style="overflow:visible;"/>
				</clipPath>
				<g class="st18">
					<path class="st4" d="M507.16714,601.50391l6.66953-232.71747c0.00006-0.00156,0.00006-0.00311,0.00006-0.00467
						c0-0.00159,0-0.00314,0-0.0047c-0.00006-0.00159-0.00006-0.00314-0.00012-0.0047
						c-0.00006-0.00159-0.00018-0.00314-0.00024-0.00473c-0.00232-0.03711-0.0144-0.07324-0.03516-0.10797
						s-0.05017-0.06802-0.08716-0.09937c-0.03699-0.03137-0.08154-0.06082-0.13251-0.08783
						c-0.05096-0.02704-0.10834-0.05167-0.17108-0.07336l-6.63593,232.65344c0.05801,0.02533,0.11105,0.05402,0.15814,0.08551
						s0.0882,0.0658,0.12228,0.10229c0.03409,0.03656,0.06116,0.07538,0.08017,0.11584s0.02997,0.08258,0.03186,0.12579
						c0.00006,0.00183,0.00012,0.00366,0.00018,0.00549c0.00003,0.00183,0.00006,0.00366,0.00009,0.00549
						c0,0.00183,0,0.00366-0.00003,0.00549C507.16724,601.50031,507.16721,601.50208,507.16714,601.50391"/>
					<path class="st5" d="M506.77454,601.05255l6.63593-232.65344c-0.00897-0.00314-0.01813-0.0062-0.02734-0.00922
						c-0.00928-0.00299-0.01862-0.00592-0.02808-0.00882c-0.00946-0.00287-0.01898-0.00568-0.02863-0.00845
						c-0.00964-0.00275-0.01941-0.00543-0.02924-0.00806l-6.6275,232.64777c0.00909,0.00305,0.01813,0.00616,0.02707,0.0094
						c0.00894,0.00317,0.01776,0.00647,0.02652,0.00983c0.00873,0.00336,0.0174,0.00677,0.02594,0.01025
						C506.75775,601.04535,506.7662,601.04889,506.77454,601.05255"/>
					<path class="st6" d="M506.66968,601.01233l6.6275-232.64777c-0.00781-0.00208-0.01569-0.00409-0.02356-0.00607
						c-0.00793-0.00201-0.01587-0.00394-0.02386-0.00586c-0.00806-0.00189-0.01611-0.00375-0.02423-0.00558
						c-0.00818-0.0018-0.01636-0.00357-0.0246-0.00531l-6.62033,232.64398c0.00763,0.00201,0.01523,0.00403,0.02274,0.00616
						c0.00754,0.00214,0.01501,0.00427,0.02243,0.00653c0.00745,0.0022,0.0148,0.00446,0.02213,0.00677
						S506.66248,601.00989,506.66968,601.01233"/>
					<path class="st7" d="M506.5806,600.98572l6.62033-232.64398c-0.00726-0.00153-0.01465-0.00302-0.02197-0.00449
						c-0.00739-0.00146-0.01483-0.0029-0.02228-0.0043c-0.00745-0.00137-0.01495-0.00275-0.02246-0.00406
						c-0.00757-0.00131-0.01514-0.00259-0.02277-0.00385l-6.61371,232.6412c0.00705,0.00146,0.01407,0.00293,0.02106,0.00446
						c0.00696,0.00159,0.01392,0.00311,0.02081,0.00476s0.01379,0.0033,0.0206,0.005
						C506.56705,600.98218,506.57385,600.98389,506.5806,600.98572"/>
					<path class="st8" d="M506.49774,600.96625l6.61371-232.6412c-0.00702-0.00116-0.0141-0.00229-0.02124-0.00339
						c-0.00708-0.0011-0.01422-0.00214-0.02142-0.00317c-0.00714-0.00104-0.01434-0.00201-0.02161-0.00299
						c-0.0072-0.00098-0.01447-0.00189-0.02179-0.00281L506.418,600.95184c0.00674,0.00104,0.01349,0.00214,0.02017,0.0033
						c0.00671,0.0011,0.0134,0.00226,0.02005,0.00348c0.00662,0.00116,0.01324,0.00244,0.01984,0.00366
						C506.48465,600.96356,506.49121,600.9649,506.49774,600.96625"/>
					<path class="st9" d="M506.418,600.95184l6.60739-232.63916c-0.00702-0.00085-0.01404-0.00168-0.02106-0.00247
						c-0.00708-0.00082-0.01416-0.00159-0.02124-0.00232c-0.00714-0.00073-0.01422-0.00146-0.02142-0.00214
						c-0.00714-0.00067-0.01428-0.00131-0.02148-0.00192l-6.60117,232.6377c0.00665,0.00067,0.01331,0.00146,0.01996,0.00226
						c0.00662,0.00079,0.01321,0.00159,0.01981,0.00244s0.01315,0.00177,0.01968,0.00275
						C506.405,600.94989,506.4115,600.95087,506.418,600.95184"/>
					<path class="st10" d="M506.33902,600.94153l6.60117-232.6377c-0.00714-0.00061-0.01428-0.00119-0.02148-0.00174
						c-0.00714-0.00055-0.01434-0.00107-0.02155-0.00156c-0.00726-0.00049-0.01447-0.00092-0.02173-0.00134
						s-0.01453-0.00082-0.02185-0.00116l-6.59482,232.63672c0.00674,0.00043,0.01349,0.00085,0.02023,0.00134
						c0.00671,0.00049,0.01343,0.00104,0.02014,0.00159c0.00668,0.00055,0.01334,0.00116,0.01999,0.00183
						C506.32578,600.94012,506.3324,600.9408,506.33902,600.94153"/>
					<path class="st11" d="M506.25876,600.93475l6.59482-232.63672c-0.00745-0.00037-0.01489-0.0007-0.02234-0.00098
						c-0.00751-0.00031-0.01501-0.00055-0.02252-0.00079c-0.00751-0.00021-0.01501-0.0004-0.02258-0.00055
						s-0.01514-0.00027-0.02271-0.00037l-6.58826,232.63629c0.00705,0.00006,0.01404,0.00024,0.02106,0.00043
						c0.00699,0.00018,0.01398,0.00037,0.02094,0.00067c0.00699,0.00024,0.01392,0.00055,0.02084,0.00085
						C506.24493,600.93396,506.25186,600.93433,506.25876,600.93475"/>
					<path class="st12" d="M506.17517,600.93164l6.58826-232.63629c-0.00073,0-0.0014-0.00003-0.00214-0.00003
						s-0.00146,0-0.0022-0.00003c-0.00073,0-0.0014,0-0.00214,0c-0.00073-0.00003-0.00146-0.00003-0.0022-0.00003
						c-0.00726-0.00006-0.01459-0.00009-0.02185-0.00006c-0.00726,0-0.01447,0.00003-0.02167,0.00012
						c-0.00726,0.00006-0.01447,0.00018-0.02161,0.00031c-0.0072,0.00015-0.01434,0.00031-0.02148,0.00052l-6.58136,232.63641
						c0.00662-0.00024,0.01324-0.00043,0.0199-0.00061c0.00668-0.00012,0.01334-0.00024,0.02005-0.00037
						c0.00668-0.00006,0.0134-0.00012,0.02014-0.00012s0.01349,0,0.02026,0.00006c0.00067,0,0.00134,0.00006,0.00201,0.00006
						s0.00134,0,0.00201,0c0.00064,0,0.00131,0,0.00198,0C506.17383,600.93164,506.1745,600.93164,506.17517,600.93164"/>
					<path class="st13" d="M506.08679,600.93256l6.58136-232.63641c-0.00885,0.00024-0.01764,0.00055-0.02643,0.00089
						c-0.00879,0.00037-0.01752,0.00076-0.02625,0.00119c-0.00867,0.00046-0.0174,0.00095-0.026,0.00146
						c-0.00861,0.00055-0.01721,0.00113-0.02576,0.00177l-6.57382,232.63727c0.00793-0.00073,0.0159-0.0014,0.02393-0.00201
						c0.008-0.00061,0.01605-0.00122,0.02411-0.00171c0.00809-0.00055,0.0162-0.00098,0.02432-0.0014
						C506.0704,600.93323,506.07858,600.93286,506.08679,600.93256"/>
					<path class="st14" d="M505.9899,600.93872l6.57382-232.63727c-0.01038,0.00076-0.02075,0.00159-0.03101,0.0025
						c-0.01025,0.00089-0.02045,0.00186-0.03064,0.0029c-0.01013,0.00104-0.0202,0.00214-0.03021,0.0033
						c-0.01007,0.00116-0.02002,0.00238-0.02991,0.00369l-6.56503,232.63934c0.00919-0.00153,0.0184-0.00293,0.02771-0.00427
						c0.00931-0.0014,0.01868-0.00269,0.02808-0.00385c0.00943-0.00122,0.01889-0.00238,0.02844-0.00342
						C505.97067,600.94061,505.98026,600.93964,505.9899,600.93872"/>
					<path class="st15" d="M505.87692,600.95319l6.56503-232.63934c-0.01685,0.0022-0.03351,0.00461-0.04999,0.00717
						c-0.01648,0.00259-0.03278,0.00534-0.04883,0.00827c-0.01605,0.00296-0.03186,0.00607-0.04749,0.00934
						c-0.01556,0.0033-0.03094,0.00674-0.04602,0.01038l-6.55136,232.64514c0.01404-0.00421,0.02832-0.00824,0.04282-0.01208
						c0.01447-0.00378,0.02917-0.00745,0.04407-0.01086c0.01492-0.00342,0.03-0.00665,0.04532-0.00964
						C505.84576,600.95856,505.86127,600.95575,505.87692,600.95319"/>
					<path class="st16" d="M505.69827,600.99414l6.55136-232.64514c-0.01691,0.00403-0.03345,0.00827-0.04968,0.01273
						c-0.01624,0.00443-0.03217,0.00906-0.04779,0.01392c-0.01556,0.00482-0.03082,0.00986-0.04572,0.01505
						c-0.01489,0.00522-0.02942,0.01062-0.04364,0.01617l-6.53815,232.65472c0.01318-0.00647,0.0267-0.01276,0.04056-0.0188
						c0.01385-0.0061,0.02805-0.01196,0.04254-0.01758c0.01447-0.00562,0.02927-0.01105,0.04437-0.01624
						C505.66721,601.00378,505.68262,600.99884,505.69827,600.99414"/>
					<path class="st15" d="M505.52466,601.06158l6.53815-232.65472c-0.01306,0.00516-0.02582,0.01044-0.03827,0.0159
						c-0.01245,0.00543-0.0246,0.01102-0.03638,0.01675c-0.01178,0.00571-0.02319,0.01157-0.0343,0.01758
						c-0.01108,0.00598-0.02179,0.01212-0.03217,0.01837l-6.52838,232.66608c0.00967-0.00726,0.01965-0.0144,0.02997-0.02142
						c0.01031-0.00696,0.02097-0.01379,0.03192-0.02051c0.01099-0.00665,0.02225-0.01318,0.03384-0.01947
						C505.50061,601.07379,505.51248,601.06763,505.52466,601.06158"/>
					<path class="st14" d="M505.39331,601.14154l6.52838-232.66608c-0.0061,0.00369-0.01208,0.00745-0.01794,0.0112
						c-0.00586,0.00378-0.01157,0.0076-0.01718,0.01147c-0.00558,0.00385-0.01105,0.00775-0.01636,0.01172
						c-0.00531,0.00394-0.0105,0.00793-0.01556,0.01196l-6.5238,232.67374c0.0047-0.0047,0.00955-0.00934,0.0145-0.01398
						c0.00497-0.00458,0.01007-0.00909,0.01526-0.01361c0.00522-0.00452,0.01056-0.00897,0.01602-0.01337
						C505.38205,601.15021,505.38763,601.14587,505.39331,601.14154"/>
					<path class="st13" d="M505.33084,601.19556l6.5238-232.67374c-0.00415,0.0033-0.00821,0.00665-0.01218,0.01001
						c-0.004,0.00339-0.00787,0.00677-0.01163,0.01019c-0.00378,0.00342-0.00748,0.00687-0.01105,0.01035
						c-0.0036,0.00348-0.00708,0.00699-0.01047,0.0105l-6.52081,232.68054c0.00317-0.00415,0.00644-0.00818,0.0098-0.01227
						c0.00333-0.00403,0.00677-0.00806,0.01028-0.01202c0.00354-0.00397,0.00717-0.00793,0.01086-0.0119
						C505.32315,601.20331,505.32697,601.1994,505.33084,601.19556"/>
					<polyline class="st12" points="505.28851,601.24341 511.80933,368.56287 511.80051,368.57233 511.79221,368.58188 
						511.78436,368.59158 511.77701,368.60135 505.2583,601.28827 505.2652,601.27686 505.27252,601.26556 505.2803,601.25439 
						505.28851,601.24341 					"/>
					<polyline class="st11" points="505.2583,601.28827 511.77701,368.60135 511.77063,368.61057 511.76468,368.61984 
						511.75916,368.62921 511.75409,368.63867 505.23682,601.33173 505.24158,601.32068 505.24673,601.30975 505.25232,601.29895 
						505.2583,601.28827 					"/>
					<polyline class="st10" points="505.23682,601.33173 511.75409,368.63867 511.74963,368.64786 511.74561,368.65714 
						511.742,368.66647 511.73883,368.6759 505.22238,601.37512 505.2254,601.36414 505.22882,601.35327 505.2326,601.34247 
						505.23682,601.33173 					"/>
					<polyline class="st9" points="505.22238,601.37512 511.73883,368.6759 511.73608,368.68533 511.7338,368.69482 
						511.73196,368.70438 511.73056,368.71402 505.21448,601.41949 505.21585,601.40833 505.21762,601.39716 505.21982,601.38611 
						505.22238,601.37512 					"/>
					<polyline class="st8" points="505.21448,601.41949 511.73056,368.71402 511.73004,368.71881 511.72961,368.7236 
						511.72931,368.72842 511.72913,368.73325 505.21301,601.44189 505.21323,601.43628 505.21353,601.43066 505.21396,601.42511 
						505.21448,601.41949 					"/>
				</g>
			</g>
			<g class="st1">
				<defs>
					<path id="SVGID_7_" class="st1" d="M513.83667,368.78644l-6.66956,232.71747c-0.00204,0.07214-0.02979,0.14044-0.07849,0.20221
						c-0.04868,0.06177-0.11832,0.11694-0.20416,0.16302s-0.1879,0.08295-0.30136,0.10797
						c-0.11349,0.02502-0.23846,0.03827-0.37009,0.03699c-0.13495-0.00134-0.26413-0.0177-0.38223-0.04626
						c-0.11807-0.02856-0.22504-0.06921-0.31549-0.11908s-0.16446-0.10889-0.21658-0.17419
						c-0.05215-0.06525-0.08243-0.13672-0.08554-0.21143l6.51624-232.7117c0.00381,0.06412,0.03693,0.12546,0.09354,0.18146
						c0.05664,0.056,0.13678,0.10669,0.23462,0.14948c0.0979,0.04279,0.2135,0.0777,0.341,0.1022s0.26691,0.03857,0.41241,0.0397
						c0.14197,0.0011,0.27661-0.01025,0.39886-0.03174c0.12219-0.02148,0.23206-0.05313,0.32428-0.09265
						c0.09229-0.03955,0.16705-0.08694,0.21918-0.13992C513.80542,368.90695,513.8349,368.84836,513.83667,368.78644z"/>
				</defs>
				<clipPath id="SVGID_8_">
					<use xlink:href="#SVGID_7_"  style="overflow:visible;"/>
				</clipPath>
				<g class="st19">
					<path class="st4" d="M505.21317,601.46313l6.51624-232.7117c0.00223,0.03708,0.01422,0.07324,0.03491,0.10797
						c0.02069,0.03476,0.05008,0.06805,0.08701,0.09946c0.03693,0.03137,0.08145,0.06085,0.13239,0.08792
						c0.05096,0.02707,0.10834,0.0517,0.17108,0.07346l-6.54962,232.77264c-0.05801-0.02533-0.11108-0.05408-0.15814-0.08563
						c-0.04706-0.03149-0.08813-0.06586-0.12219-0.10242s-0.06107-0.07538-0.08002-0.11591
						C505.22586,601.54846,505.21497,601.50635,505.21317,601.46313"/>
					<path class="st5" d="M505.60516,601.89288l6.54962-232.77264c0.00897,0.00314,0.01813,0.0062,0.0274,0.00922
						c0.00922,0.00302,0.01855,0.00595,0.02802,0.00885c0.00946,0.00287,0.01904,0.00571,0.02869,0.00845
						s0.01941,0.00543,0.02924,0.00806l-6.55804,232.77835c-0.00912-0.00305-0.01816-0.00616-0.0271-0.0094
						s-0.01779-0.00647-0.02652-0.00983c-0.00876-0.00342-0.0174-0.00684-0.02597-0.01031
						C505.62195,601.90009,505.61349,601.89655,505.60516,601.89288"/>
					<path class="st6" d="M505.71008,601.93317l6.55804-232.77835c0.00781,0.00208,0.01569,0.00412,0.02356,0.0061
						c0.00793,0.00201,0.01587,0.00397,0.02393,0.00586c0.008,0.00192,0.01611,0.00378,0.02423,0.00558
						c0.00812,0.00183,0.01636,0.0036,0.0246,0.00534l-6.56525,232.78214c-0.00763-0.00201-0.01523-0.00409-0.02274-0.00623
						c-0.00754-0.00214-0.01505-0.00427-0.02246-0.00653c-0.00742-0.0022-0.0148-0.00446-0.02213-0.00677
						S505.71729,601.93561,505.71008,601.93317"/>
					<path class="st7" d="M505.79919,601.95984l6.56525-232.78214c0.00726,0.00156,0.01465,0.00305,0.02203,0.00452
						c0.00732,0.00146,0.01477,0.0029,0.02222,0.00427c0.00751,0.0014,0.01501,0.00278,0.02252,0.00409
						c0.00757,0.00131,0.01514,0.00259,0.02277,0.00385l-6.57187,232.78488c-0.00705-0.00146-0.01407-0.00293-0.02106-0.00446
						c-0.00699-0.00159-0.01395-0.00317-0.02084-0.00476c-0.0069-0.00165-0.01379-0.0033-0.02063-0.005
						S505.80597,601.96161,505.79919,601.95984"/>
					<path class="st8" d="M505.88211,601.97931l6.57187-232.78488c0.00702,0.00116,0.0141,0.00229,0.02124,0.00339
						s0.01428,0.00217,0.02142,0.0032c0.0072,0.00101,0.0144,0.00201,0.02167,0.00299
						c0.00726,0.00095,0.01453,0.00189,0.02179,0.00278l-6.57819,232.78693c-0.00674-0.00104-0.01349-0.00214-0.0202-0.00323
						c-0.00668-0.00116-0.01337-0.00232-0.02002-0.00348c-0.00665-0.00122-0.01328-0.00244-0.0199-0.00372
						C505.8952,601.98199,505.88864,601.98065,505.88211,601.97931"/>
					<path class="st9" d="M505.96191,601.99371l6.57819-232.78693c0.00702,0.00089,0.01404,0.00171,0.02112,0.0025
						c0.00708,0.00082,0.01416,0.00159,0.02124,0.00232c0.00714,0.00076,0.01428,0.00146,0.02142,0.00214
						c0.00714,0.0007,0.01434,0.00134,0.02155,0.00195l-6.58444,232.78839c-0.00668-0.00073-0.01334-0.00146-0.01999-0.00226
						c-0.00662-0.00079-0.01324-0.00159-0.01981-0.0025c-0.00659-0.00085-0.01315-0.00177-0.01971-0.00269
						C505.97495,601.99573,505.96841,601.99475,505.96191,601.99371"/>
					<path class="st10" d="M506.04099,602.00409l6.58444-232.78839c0.00714,0.00061,0.01428,0.00119,0.02148,0.00174
						c0.00714,0.00055,0.01434,0.00107,0.02161,0.00153c0.0072,0.00049,0.01447,0.00095,0.02173,0.00137
						s0.01453,0.00079,0.02185,0.00116l-6.59079,232.78937c-0.00677-0.00043-0.01352-0.00085-0.02026-0.00134
						c-0.00671-0.00049-0.01343-0.00104-0.02014-0.00159c-0.00668-0.00055-0.01337-0.00116-0.02002-0.00183
						C506.05423,602.00549,506.04761,602.00482,506.04099,602.00409"/>
					<path class="st11" d="M506.12131,602.01086l6.59079-232.78937c0.00745,0.00037,0.01489,0.0007,0.0224,0.00098
						c0.00745,0.00031,0.01495,0.00055,0.02252,0.00079c0.00751,0.00021,0.01501,0.0004,0.02258,0.00055
						s0.01514,0.00027,0.02271,0.00037l-6.59732,232.78979c-0.00705-0.00006-0.01407-0.00024-0.02109-0.00043
						c-0.00699-0.00018-0.01398-0.00037-0.02097-0.00061c-0.00696-0.00031-0.01392-0.00061-0.02087-0.00092
						C506.13513,602.01166,506.1282,602.01129,506.12131,602.01086"/>
					<path class="st12" d="M506.20499,602.01398l6.59732-232.78979c0.00073,0.00003,0.00146,0.00003,0.0022,0.00003
						s0.0014,0,0.00214,0.00003c0.00073,0,0.00146,0,0.0022,0c0.00073,0.00003,0.00146,0.00003,0.00214,0.00003
						c0.00732,0.00006,0.01465,0.00009,0.02191,0.00006c0.00726,0,0.01447-0.00003,0.02173-0.00012
						c0.0072-0.00006,0.0144-0.00018,0.02161-0.00031c0.0072-0.00015,0.01434-0.00031,0.02148-0.00052l-6.60428,232.78967
						c-0.00662,0.00024-0.01324,0.00043-0.01993,0.00061c-0.00665,0.00012-0.01334,0.00024-0.02005,0.00037
						c-0.00668,0.00006-0.01343,0.00012-0.02017,0.00012c-0.00671,0-0.01349,0-0.02026-0.00006c-0.00067,0-0.00134,0-0.00201,0
						c-0.00067-0.00006-0.00134-0.00006-0.00201-0.00006s-0.00134,0-0.00201,0S506.20566,602.01398,506.20499,602.01398"/>
					<path class="st13" d="M506.29343,602.01306l6.60428-232.78967c0.00885-0.00024,0.0177-0.00055,0.02649-0.00092
						c0.00879-0.00034,0.01752-0.00073,0.02625-0.00116c0.00873-0.00046,0.0174-0.00095,0.026-0.0015
						c0.00867-0.00052,0.01727-0.0011,0.02582-0.00174l-6.61185,232.78882c-0.00793,0.00073-0.0159,0.0014-0.02393,0.00201
						s-0.01605,0.00122-0.02414,0.00171c-0.00809,0.00055-0.0162,0.00098-0.02435,0.0014
						C506.30984,602.01239,506.30167,602.01276,506.29343,602.01306"/>
					<path class="st14" d="M506.39041,602.0069l6.61185-232.78882c0.01038-0.00076,0.02075-0.00162,0.03101-0.0025
						c0.01031-0.00092,0.02051-0.00189,0.0307-0.00293c0.01013-0.00101,0.0202-0.00214,0.03027-0.0033
						c0.01001-0.00116,0.01996-0.00241,0.02985-0.00369l-6.62057,232.78677c-0.00919,0.00146-0.01843,0.00293-0.02774,0.00427
						s-0.01868,0.00262-0.02811,0.00385s-0.01892,0.00238-0.02844,0.00342
						C506.40967,602.005,506.40009,602.00598,506.39041,602.0069"/>
					<path class="st15" d="M506.50351,601.99243l6.62057-232.78677c0.01691-0.00223,0.03363-0.00461,0.05011-0.0072
						s0.03278-0.00534,0.04883-0.0083c0.01605-0.00293,0.03186-0.00604,0.04749-0.00934s0.03101-0.00674,0.04614-0.01038
						l-6.63437,232.78091c-0.01407,0.00427-0.02835,0.0083-0.04285,0.01208c-0.0145,0.00385-0.02921,0.00751-0.0441,0.01093
						c-0.01492,0.00342-0.03003,0.00665-0.04535,0.00964S506.51917,601.98981,506.50351,601.99243"/>
					<path class="st16" d="M506.68228,601.95135l6.63437-232.78091c0.01685-0.00403,0.03345-0.0083,0.04968-0.01276
						c0.01624-0.00443,0.03217-0.00909,0.04779-0.01395c0.01556-0.00482,0.03082-0.00986,0.04572-0.01508
						s0.02948-0.01062,0.04364-0.0162l-6.64752,232.77133c-0.01318,0.00653-0.02673,0.01282-0.04059,0.01892
						c-0.01385,0.00604-0.02802,0.0119-0.04251,0.01758c-0.0145,0.00562-0.0293,0.01105-0.0444,0.01624
						S506.69794,601.94666,506.68228,601.95135"/>
					<path class="st15" d="M506.85596,601.88379l6.64752-232.77133c0.01312-0.00516,0.02588-0.01047,0.03833-0.0159
						c0.01245-0.00546,0.02454-0.01105,0.03632-0.01678s0.02325-0.0116,0.0343-0.01761
						c0.01111-0.00601,0.02179-0.01215,0.03217-0.0184l-6.65732,232.76001c-0.00964,0.00726-0.01962,0.01447-0.02997,0.02142
						c-0.01031,0.00702-0.02094,0.01385-0.03189,0.02051c-0.01099,0.00671-0.02225,0.01324-0.03384,0.01959
						C506.88,601.87164,506.86813,601.87781,506.85596,601.88379"/>
					<path class="st14" d="M506.98727,601.80377l6.65732-232.76001c0.0061-0.00369,0.01208-0.00745,0.01794-0.01123
						c0.00586-0.00375,0.01154-0.0076,0.01715-0.01144c0.00555-0.00388,0.01105-0.00778,0.01636-0.01175
						c0.00531-0.00394,0.0105-0.00793,0.01556-0.01196l-6.6619,232.75232c-0.0047,0.0047-0.00955,0.00934-0.0145,0.01398
						c-0.00494,0.00458-0.01004,0.00916-0.01526,0.01367c-0.00519,0.00446-0.01053,0.00897-0.01596,0.01337
						C506.99854,601.7951,506.99295,601.79944,506.98727,601.80377"/>
					<path class="st13" d="M507.04971,601.74969l6.6619-232.75232c0.00415-0.00333,0.00818-0.00668,0.01215-0.01004
						c0.00397-0.00339,0.00787-0.00677,0.0116-0.01019c0.00378-0.00345,0.00751-0.0069,0.01105-0.01038
						c0.0036-0.00348,0.00708-0.00696,0.01044-0.0105l-6.66486,232.74557c-0.00317,0.00409-0.00641,0.00818-0.00977,0.01221
						c-0.00333,0.00403-0.00677,0.00806-0.01028,0.01208c-0.00354,0.00397-0.00714,0.00793-0.01086,0.01184
						C507.05737,601.74194,507.05359,601.74585,507.04971,601.74969"/>
					<polyline class="st12" points="507.09198,601.70184 513.75684,368.95627 513.76563,368.94681 513.77393,368.93723 
						513.78174,368.92755 513.78906,368.91776 507.12213,601.65692 507.11526,601.66833 507.10794,601.67963 507.10019,601.6908 
						507.09198,601.70184 					"/>
					<polyline class="st11" points="507.12213,601.65692 513.78906,368.91776 513.79547,368.90854 513.80139,368.89926 
						513.80688,368.88989 513.81195,368.88043 507.14355,601.6134 507.13882,601.62445 507.13367,601.63538 507.12808,601.64618 
						507.12213,601.65692 					"/>
					<polyline class="st10" points="507.14355,601.6134 513.81195,368.88043 513.81635,368.87122 513.82037,368.86194 
						513.82397,368.8526 513.82715,368.84317 507.1579,601.57001 507.15491,601.58099 507.15152,601.59192 507.14774,601.60272 
						507.14355,601.6134 					"/>
					<polyline class="st9" points="507.1579,601.57001 513.82715,368.84317 513.82983,368.83374 513.83209,368.82425 
						513.83392,368.81467 513.83527,368.80505 507.16574,601.52557 507.1644,601.5368 507.16263,601.54797 507.16046,601.55902 
						507.1579,601.57001 					"/>
					<polyline class="st8" points="507.16574,601.52557 513.83527,368.80505 513.83582,368.80042 513.83618,368.79578 
						513.83649,368.79111 513.83667,368.78644 507.16714,601.50391 507.16693,601.50934 507.16663,601.51477 507.16623,601.5202 
						507.16574,601.52557 					"/>
				</g>
			</g>
			<g class="st1">
				<defs>
					<path id="SVGID_9_" class="st1" d="M338.50665,606.81732l-6.57147-233.46939c-0.01398-0.4967-0.01764-0.99402-0.01093-1.49191
						c0.00668-0.49738,0.02377-0.99533,0.05124-1.4938c0.02747-0.49792,0.06534-0.9964,0.11368-1.49536
						c0.04828-0.49841,0.10703-0.99731,0.17627-1.49667l6.50757,232.48322c-0.06088,0.58197-0.11203,1.16339-0.1535,1.7442
						c-0.0415,0.58142-0.07327,1.16217-0.09543,1.74231c-0.02216,0.58069-0.03464,1.16071-0.03754,1.73999
						C338.48364,605.65979,338.49036,606.23895,338.50665,606.81732z"/>
				</defs>
				<clipPath id="SVGID_10_">
					<use xlink:href="#SVGID_9_"  style="overflow:visible;"/>
				</clipPath>
				<g class="st20">
					<path class="st8" d="M332.26544,367.37018l6.50757,232.48322c-0.00485,0.04645-0.00964,0.09283-0.01437,0.13928
						c-0.00473,0.04639-0.0094,0.09283-0.01404,0.13922c-0.00461,0.04639-0.00916,0.09283-0.01364,0.13922
						s-0.00891,0.09283-0.01328,0.13922l-6.51532-232.56232c0.005-0.03979,0.01007-0.07962,0.01517-0.11945
						c0.00513-0.03979,0.01031-0.07962,0.01559-0.11945c0.00525-0.03983,0.01056-0.07965,0.01596-0.11948
						S332.25992,367.41,332.26544,367.37018"/>
					<path class="st7" d="M332.20236,367.84802l6.51532,232.56232c-0.05032,0.53534-0.09241,1.07025-0.12628,1.60455
						c-0.03394,0.53485-0.05963,1.06915-0.07718,1.60284c-0.01755,0.53424-0.02695,1.06787-0.0282,1.60095
						c-0.00125,0.53351,0.00565,1.06641,0.02063,1.59863l-6.57147-233.46939c-0.01288-0.45709-0.017-0.9147-0.01236-1.3728
						c0.00467-0.45764,0.0181-0.9158,0.04031-1.37439c0.02222-0.45813,0.05325-0.91675,0.09314-1.37576
						C332.0961,368.76639,332.14481,368.3074,332.20236,367.84802"/>
				</g>
			</g>
			<g class="st1">
				<defs>
					<path id="SVGID_11_" class="st1" d="M330.86017,372.47681c-0.01434-0.5036-0.01813-1.00787-0.01126-1.51273
						c0.00684-0.5043,0.02429-1.00922,0.0524-1.51465c0.02811-0.50488,0.06686-1.01031,0.11633-1.51624
						c0.04941-0.50537,0.10953-1.01123,0.18042-1.51755l6.63263,234.23486c-0.06229,0.59076-0.11456,1.18103-0.15692,1.77063
						c-0.04242,0.59021-0.07489,1.17975-0.0975,1.76868c-0.02261,0.58948-0.03534,1.17828-0.03824,1.76636
						c-0.0029,0.58868,0.00403,1.17664,0.02075,1.76379C335.54919,537.14703,332.86972,443.04977,330.86017,372.47681z"/>
				</defs>
				<clipPath id="SVGID_12_">
					<use xlink:href="#SVGID_11_"  style="overflow:visible;"/>
				</clipPath>
				<g class="st21">
					<path class="st8" d="M337.83069,600.65051l-6.63263-234.23486c-0.00558,0.04004-0.01114,0.08005-0.0166,0.12009
						c-0.00546,0.04001-0.01086,0.08005-0.0162,0.12006c-0.00534,0.04004-0.01062,0.08005-0.01581,0.12006
						c-0.00522,0.04004-0.01035,0.08005-0.01541,0.12006l6.64056,234.31497c0.00443-0.04669,0.00891-0.09338,0.01346-0.14008
						s0.00916-0.09338,0.01382-0.14008s0.00943-0.09338,0.01422-0.14014C337.82089,600.7439,337.82574,600.6972,337.83069,600.65051
						"/>
					<path class="st7" d="M337.7746,601.21088l-6.64056-234.31497c-0.05902,0.46616-0.10895,0.93188-0.14978,1.39719
						c-0.04089,0.46579-0.07269,0.93115-0.09549,1.39606c-0.0228,0.46536-0.03653,0.93027-0.04129,1.39465
						c-0.00476,0.46484-0.00052,0.9292,0.0127,1.39301l6.69861,235.24316c-0.01541-0.54077-0.02249-1.08215-0.02127-1.62415
						c0.00125-0.54156,0.01083-1.08368,0.02878-1.6264c0.01794-0.54224,0.04425-1.08508,0.07898-1.62842
						C337.67993,602.29816,337.72305,601.75476,337.7746,601.21088"/>
				</g>
			</g>
			<g class="st1">
				<defs>
					<path id="SVGID_13_" class="st1" d="M331.93518,373.34793c0.29697,10.55032,5.24454,20.80707,14.16382,30.3342
						c9.10339,9.72382,22.31046,18.65176,38.82864,26.30203c16.78342,7.7731,36.88849,14.18253,59.37808,18.72403
						c22.69846,4.58371,47.64807,7.22879,73.76617,7.44916c24.80182,0.20926,48.30951-1.78824,69.63861-5.59497
						c21.16614-3.77765,40.03351-9.30969,55.83453-16.17786c15.58112-6.77252,28.09485-14.80704,36.89111-23.69684
						c8.63446-8.72635,13.65417-18.2439,14.50403-28.17834c-6.69952,78.32739-13.40039,156.64056-20.09985,234.96796
						c-0.9873,11.54175-5.82153,22.58203-13.97418,32.68976c-8.29364,10.28259-19.99182,19.56335-34.48389,27.3772
						c-14.68073,7.91553-32.15283,14.28491-51.70581,18.63116c-19.69171,4.37701-41.36151,6.67273-64.2005,6.43225
						c-24.05191-0.25323-47.02054-3.29358-67.9216-8.56519c-20.72379-5.22693-39.26642-12.61011-54.76663-21.57422
						c-15.27408-8.83331-27.51361-19.15552-35.98029-30.41461c-8.3082-11.0484-12.95529-22.96161-13.30078-35.23633
						C336.53519,536.77655,333.90662,443.38876,331.93518,373.34793z"/>
				</defs>
				<clipPath id="SVGID_14_">
					<use xlink:href="#SVGID_13_"  style="overflow:visible;"/>
				</clipPath>
				<g class="st22">
					<path class="st4" d="M331.93518,373.34793l6.57147,233.46939c0.19199,6.82141,1.71292,13.53259,4.45416,20.04803
						c2.77225,6.58911,6.79034,12.97272,11.93768,19.05994c5.20081,6.15045,11.54855,11.99146,18.91678,17.42755
						c7.43546,5.48572,15.89923,10.55109,25.25342,15.09753l-1.92731-243.27997
						c-10.12933-3.94196-19.2861-8.33096-27.32135-13.08072c-7.95657-4.70322-14.80109-9.75278-20.39795-15.06552
						c-5.53467-5.25372-9.84262-10.75845-12.7998-16.43536C333.70078,384.98044,332.10016,379.20886,331.93518,373.34793"/>
					<path class="st5" d="M397.14139,435.17041l1.92731,243.27997c1.46756,0.71332,2.95685,1.4137,4.46725,2.10083
						c1.51212,0.68793,3.04535,1.36249,4.59912,2.02332c1.55548,0.66156,3.13147,1.30933,4.72745,1.94299
						c1.59763,0.63428,3.21518,1.25433,4.85208,1.8598l-0.36279-244.32803c-1.77518-0.52567-3.52921-1.064-5.26147-1.61459
						c-1.73029-0.54999-3.43878-1.11221-5.12485-1.68637c-1.68411-0.57346-3.34573-1.15875-4.98428-1.75558
						C400.34464,436.39664,398.73117,435.78909,397.14139,435.17041"/>
					<path class="st6" d="M417.35181,442.04929l0.36279,244.32803c1.29507,0.479,2.60223,0.94891,3.92114,1.40942
						c1.31995,0.46088,2.65161,0.91241,3.99478,1.35431c1.34412,0.44226,2.69968,0.87494,4.06641,1.29785
						c1.36765,0.42316,2.74643,0.83655,4.13605,1.23993l1.0061-245.02472c-1.50809-0.35049-3.00433-0.70966-4.48846-1.0773
						c-1.483-0.3674-2.95383-0.74323-4.41214-1.12741c-1.45721-0.38385-2.90186-0.77597-4.33368-1.17624
						C420.17416,442.87323,418.75638,442.46524,417.35181,442.04929"/>
					<path class="st7" d="M434.83908,446.65411l-1.0061,245.02472c1.23044,0.35718,2.46933,0.70654,3.71646,1.04791
						c1.24783,0.34155,2.50388,0.67511,3.76794,1.00049c1.26474,0.32562,2.53748,0.64313,3.81799,0.95227
						c1.28113,0.30939,2.57004,0.61041,3.86649,0.90308l2.30389-245.53558c-1.40762-0.25443-2.80704-0.51614-4.19797-0.78506
						c-1.3902-0.26877-2.77188-0.54471-4.14487-0.8277c-1.37219-0.28284-2.73566-0.57275-4.09012-0.86957
						C437.51913,447.26804,436.1745,446.96448,434.83908,446.65411"/>
					<path class="st8" d="M451.30576,450.047l-2.30389,245.53558c1.20139,0.27118,2.40921,0.53516,3.62332,0.79175
						c1.21463,0.25677,2.43549,0.5061,3.66245,0.74805c1.22742,0.242,2.46091,0.47656,3.70026,0.70355
						c1.23981,0.22711,2.4855,0.44659,3.73685,0.65839l3.56924-245.91412c-1.35904-0.18423-2.71191-0.37512-4.05841-0.5726
						c-1.34595-0.19739-2.68549-0.40137-4.01843-0.61182c-1.33237-0.21036-2.65811-0.42719-3.97705-0.65042
						C453.92172,450.51224,452.61023,450.28275,451.30576,450.047"/>
					<path class="st9" d="M467.29398,452.57019l-3.56924,245.91412c1.20184,0.20343,2.40887,0.39978,3.62097,0.58899
						c1.21246,0.18921,2.42999,0.37122,3.65237,0.54602c1.22272,0.1748,2.45029,0.34235,3.68259,0.5025
						c1.23257,0.16016,2.46985,0.31299,3.71161,0.45837l4.83286-246.18695c-1.34882-0.12646-2.69272-0.2594-4.03156-0.39877
						c-1.33847-0.13931-2.67181-0.28503-3.99991-0.4371c-1.32767-0.15201-2.65005-0.31036-3.96698-0.47495
						C469.91022,452.91788,468.59927,452.7471,467.29398,452.57019"/>
					<path class="st10" d="M483.22513,454.39325l-4.83286,246.18695c1.2301,0.14398,2.46463,0.28064,3.70337,0.40985
						c1.23901,0.12927,2.48221,0.2511,3.72949,0.36542c1.24753,0.11432,2.49905,0.22119,3.75449,0.32043
						c1.25562,0.09924,2.51508,0.19086,3.77823,0.27484l6.12277-246.36505c-1.37198-0.07306-2.73999-0.1528-4.10385-0.23917
						c-1.36359-0.08633-2.72302-0.17929-4.07806-0.27878c-1.3548-0.09946-2.70517-0.20547-4.05099-0.31793
						C485.90219,454.63739,484.56128,454.51849,483.22513,454.39325"/>
					<path class="st11" d="M499.48062,455.58569l-6.12277,246.36505c1.28699,0.08551,2.57776,0.16309,3.87216,0.23254
						c1.29456,0.06946,2.59268,0.13086,3.89429,0.18414c1.30167,0.05322,2.60675,0.09833,3.91507,0.13513
						c1.30841,0.03687,2.62,0.06543,3.9346,0.08563l7.46689-246.44778c-1.42761-0.01761-2.85199-0.04248-4.27295-0.07452
						c-1.42087-0.03204-2.83826-0.07126-4.25198-0.11761c-1.41364-0.04633-2.82355-0.09976-4.22958-0.16022
						C502.28046,455.7276,500.87848,455.66013,499.48062,455.58569"/>
					<path class="st12" d="M516.44086,456.14041l-7.46689,246.44778c0.12506,0.00195,0.25015,0.00378,0.37524,0.00555
						c0.12512,0.00177,0.25027,0.00348,0.37543,0.00507c0.12515,0.00165,0.25037,0.00317,0.37558,0.00464
						c0.12521,0.00153,0.25046,0.00287,0.37573,0.00421c1.26563,0.01331,2.52789,0.01886,3.78674,0.01666
						c1.25879-0.0022,2.5141-0.01215,3.76581-0.02972c1.25159-0.01758,2.49957-0.04285,3.74371-0.07562
						c1.24408-0.03284,2.48431-0.07324,3.72052-0.12115l8.88354-246.42307c-1.34198,0.04169-2.68835,0.07684-4.03894,0.10538
						c-1.35071,0.02856-2.70563,0.05054-4.06458,0.06583c-1.35901,0.01532-2.72205,0.02396-4.08893,0.02588
						c-1.36688,0.00189-2.73761-0.0029-4.11194-0.0145c-0.13605-0.00116-0.27203-0.00238-0.40802-0.00363
						c-0.13599-0.00128-0.27197-0.00262-0.40784-0.00406c-0.13593-0.0014-0.27185-0.00287-0.40771-0.00443
						S516.57666,456.14209,516.44086,456.14041"/>
					<path class="st13" d="M534.37628,455.97476l-8.88354,246.42307c1.53271-0.05933,3.0592-0.13025,4.57922-0.21252
						c1.51984-0.08234,3.03314-0.17596,4.53967-0.28088c1.50635-0.10486,3.0058-0.22095,4.49817-0.34814
						c1.49207-0.1272,2.97693-0.26544,4.45447-0.41455l10.42328-246.25995c-1.60284,0.12976-3.21387,0.25003-4.83276,0.36069
						c-1.61926,0.11066-3.24634,0.2117-4.88098,0.30295c-1.63495,0.09128-3.27734,0.17276-4.92694,0.24438
						C537.69702,455.86139,536.0401,455.9231,534.37628,455.97476"/>
					<path class="st14" d="M553.98755,454.88177l-10.42328,246.25995c1.79401-0.18115,3.57703-0.37836,5.34857-0.59137
						c1.77094-0.21301,3.53033-0.44177,5.27765-0.6861c1.74664-0.24426,3.4812-0.50397,5.20319-0.77899
						c1.72125-0.27484,3.42981-0.56494,5.12531-0.87l12.18872-245.87912c-1.83722,0.26532-3.68896,0.51761-5.55463,0.75671
						c-1.86658,0.2392-3.74701,0.46512-5.64081,0.67758c-1.89459,0.21252-3.80249,0.41156-5.72314,0.59683
						C557.8678,454.55261,555.93378,454.72418,553.98755,454.88177"/>
					<path class="st15" d="M576.7077,452.33615l-12.18872,245.87912c2.89288-0.52051,5.74731-1.08447,8.5611-1.69055
						c2.81104-0.60547,5.58112-1.25293,8.30798-1.94092c2.72388-0.68726,5.40424-1.41492,8.03912-2.18158
						c2.63153-0.76569,5.21729-1.57025,7.75513-2.41229l14.87415-244.80313c-2.74243,0.73148-5.53766,1.43051-8.38336,2.09589
						c-2.84955,0.66629-5.74933,1.29868-8.69702,1.89606c-2.95129,0.59808-5.95013,1.16092-8.9942,1.68735
						C582.93451,451.3931,579.84235,451.88351,576.7077,452.33615"/>
					<path class="st16" d="M612.05646,445.1868l-14.87415,244.80313c2.82715-0.93799,5.59436-1.9223,8.29889-2.95105
						c2.69995-1.02704,5.33704-2.09821,7.90839-3.21155c2.56671-1.11139,5.06757-2.26459,7.49988-3.45782
						c2.42749-1.19092,4.78644-2.42151,7.07404-3.68982l17.28229-243.04489c-2.46021,1.09988-4.99878,2.16721-7.61273,3.20026
						c-2.61945,1.03528-5.31433,2.03601-8.0816,3.00055c-2.77277,0.96643-5.6178,1.89636-8.5321,2.78812
						C618.09973,443.51709,615.11108,444.37201,612.05646,445.1868"/>
					<path class="st15" d="M645.24579,433.6348L627.9635,676.67969c2.10779-1.16864,4.15479-2.36914,6.13898-3.6001
						c1.98016-1.22845,3.89758-2.48712,5.75024-3.77441c1.84869-1.28461,3.63275-2.59766,5.35016-3.93762
						c1.71362-1.33704,3.36072-2.70074,4.93939-4.08972l18.88055-240.9838c-1.68585,1.20193-3.44647,2.38226-5.27997,3.53967
						c-1.83789,1.16019-3.74872,2.29727-5.73041,3.40988c-1.98633,1.11523-4.04358,2.20578-6.16968,3.27036
						C649.71191,431.58087,647.51221,432.62158,645.24579,433.6348"/>
					<path class="st14" d="M669.02283,420.29404l-18.88055,240.9838c0.92889-0.81726,1.83405-1.64325,2.71509-2.4776
						c0.87982-0.83319,1.7356-1.67474,2.56689-2.52441c0.83014-0.84839,1.63586-1.70483,2.41681-2.56903
						c0.77979-0.86292,1.53491-1.73352,2.26489-2.61145l19.52417-239.60565c-0.77429,0.75867-1.57599,1.51105-2.40466,2.25687
						c-0.83002,0.74698-1.68701,1.4874-2.57068,2.22095c-0.88507,0.73468-1.79681,1.46249-2.73486,2.18314
						C670.98041,418.87238,670.01459,419.58694,669.02283,420.29404"/>
					<path class="st13" d="M679.63013,411.48969l-19.52417,239.60565c0.60065-0.72241,1.18427-1.44977,1.75067-2.18201
						c0.56573-0.73126,1.11426-1.46735,1.64545-2.20807c0.53052-0.73981,1.04364-1.48425,1.53931-2.23309
						c0.495-0.74792,0.97247-1.50024,1.43219-2.25684l19.88452-238.39368c-0.4834,0.65298-0.98608,1.30234-1.50787,1.94794
						c-0.52246,0.64651-1.06409,1.28922-1.62457,1.92801c-0.56122,0.63968-1.14142,1.27542-1.7403,1.90704
						C680.88562,410.23715,680.26715,410.86554,679.63013,411.48969"/>
					<path class="st12" d="M686.35809,403.82166l-19.88452,238.39368c0.40833-0.67194,0.80267-1.34723,1.18292-2.02576
						c0.37982-0.67773,0.74554-1.35876,1.09705-2.04285c0.35107-0.68329,0.68799-1.36969,1.01056-2.05908
						c0.32214-0.6886,0.63007-1.38013,0.92352-2.07452l20.07538-237.2659c-0.30432,0.59863-0.62433,1.19485-0.95984,1.78857
						c-0.336,0.59445-0.6875,1.1864-1.0545,1.77573c-0.36743,0.59006-0.75031,1.17749-1.1485,1.76218
						C687.20142,402.65915,686.78735,403.24182,686.35809,403.82166"/>
					<path class="st11" d="M690.763,396.74722l-20.07538,237.2659c0.27277-0.64545,0.53302-1.29333,0.7807-1.9436
						c0.24744-0.64954,0.4823-1.30145,0.70453-1.95563c0.22198-0.65344,0.43127-1.30914,0.62787-1.9671
						c0.19641-0.65717,0.38007-1.31647,0.5509-1.97791l20.14374-236.17984c-0.17218,0.56958-0.35822,1.13742-0.55811,1.7034
						c-0.20013,0.56671-0.41406,1.13156-0.64172,1.69455c-0.22791,0.56363-0.4696,1.12537-0.72485,1.68509
						C691.31506,395.63251,691.04578,396.19092,690.763,396.74722"/>
					<path class="st10" d="M693.49536,389.98904l-20.14374,236.17984c0.16455-0.63715,0.3172-1.27618,0.45789-1.91711
						c0.14056-0.6402,0.2691-1.28223,0.38562-1.92609c0.11633-0.64307,0.2207-1.28796,0.31293-1.93451
						c0.0921-0.64581,0.17212-1.29333,0.23999-1.94244l20.11072-235.10382c-0.06104,0.55835-0.13531,1.11539-0.22266,1.67105
						c-0.08746,0.5563-0.18805,1.11121-0.30164,1.66467c-0.11377,0.55411-0.24054,1.10675-0.38037,1.65787
						C693.81415,388.89026,693.66125,389.44046,693.49536,389.98904"/>
					<path class="st9" d="M694.85876,383.34491l-20.11072,235.10382c0.00842-0.08087,0.01666-0.16174,0.02478-0.24268
						c0.00806-0.08093,0.01593-0.16187,0.02362-0.2428c0.00769-0.08099,0.0152-0.16193,0.02252-0.24292
						s0.0144-0.16205,0.02136-0.24304l20.09985-234.96796c-0.00598,0.0697-0.01215,0.13937-0.01849,0.20901
						c-0.00641,0.06967-0.013,0.13931-0.01978,0.20895s-0.01379,0.13925-0.02094,0.20883
						C694.87378,383.20575,694.86633,383.27536,694.85876,383.34491"/>
				</g>
			</g>
			<g>
				<path class="st23" d="M332.26544,367.37021c1.50363-10.84167,7.83026-20.89444,17.84714-29.81116
					c9.81699-8.73883,23.22278-16.42618,39.22281-22.74194c15.7666-6.2236,34.14658-11.15262,54.27155-14.47183
					c19.96695-3.29315,41.80063-5.02625,64.74139-4.86395c22.94965,0.16235,45.03729,2.20767,65.45807,5.79099
					c20.59656,3.61417,39.65002,8.81979,56.2464,15.28912c16.85138,6.56876,31.26892,14.47919,42.20923,23.39502
					c11.16699,9.10062,18.75989,19.2887,21.5929,30.19669c2.90277,11.17636,0.53735,22.0415-6.3855,32.11163
					c-7.07434,10.29044-18.87897,19.70905-34.57629,27.71826c-15.96136,8.14392-35.84595,14.77899-58.64709,19.34274
					c-23.01379,4.60629-48.79913,7.06256-76.17413,6.83157c-27.36234-0.23087-53.43582-3.12228-76.97919-8.11414
					c-23.3075-4.9418-43.9393-11.90073-60.83029-20.29742c-16.60239-8.25327-29.49103-17.84622-37.77261-28.23013
					C334.38766,389.35669,330.72498,378.47775,332.26544,367.37021z M511.7294,368.75143
					c0.00381,0.06412,0.03693,0.12546,0.09354,0.18146c0.05664,0.056,0.13678,0.10669,0.23462,0.14948
					c0.0979,0.04279,0.2135,0.0777,0.341,0.1022s0.26691,0.03857,0.41241,0.0397c0.14557,0.00113,0.28339-0.01083,0.40808-0.03339
					c0.12463-0.02255,0.23608-0.05573,0.32892-0.09705c0.09277-0.04132,0.16681-0.09082,0.21674-0.146
					c0.04987-0.05518,0.07562-0.11606,0.07166-0.18021s-0.03723-0.12546-0.09393-0.18143
					c-0.0567-0.05594-0.1369-0.10657-0.2348-0.14929c-0.09784-0.04272-0.21338-0.07758-0.34076-0.10205
					c-0.12744-0.02444-0.26672-0.03848-0.41211-0.03961s-0.28308,0.0108-0.40765,0.03333
					c-0.12457,0.02249-0.23596,0.0556-0.32874,0.09689c-0.09277,0.04126-0.16693,0.09067-0.21692,0.14581
					S511.72562,368.68729,511.7294,368.75143"/>
			</g>
			<g class="st1">
				<defs>
					<path id="SVGID_15_" class="st1" d="M337.55878,607.71997l-6.69861-235.24316
						c0.30182,10.59961,5.2789,20.905,14.25015,30.47818c9.15753,9.77191,22.44269,18.74463,39.05969,26.4339
						c16.88531,7.81339,37.1131,14.25638,59.74124,18.82193c22.83954,4.60818,47.94443,7.26746,74.22528,7.48911
						c24.95587,0.21045,48.60938-1.79752,70.07062-5.6243c21.29633-3.79739,40.27881-9.35818,56.17584-16.26178
						c15.67444-6.80695,28.26239-14.88177,37.11096-23.81567c8.685-8.76871,13.73444-18.33173,14.59161-28.31293
						l-20.33301,236.76178c-0.99701,11.60925-5.85913,22.71466-14.05634,32.88263
						c-8.33972,10.34473-20.1015,19.68201-34.67242,27.5437c-14.76154,7.9646-32.32965,14.37366-51.99054,18.74695
						c-19.80103,4.40454-41.591,6.71454-64.55655,6.47247c-24.18573-0.25494-47.28198-3.31464-68.2991-8.61975
						c-20.83795-5.25989-39.48203-12.68933-55.06689-21.70929c-15.35635-8.88776-27.6615-19.27289-36.17438-30.6001
						C342.58365,632.04956,337.91034,620.06622,337.55878,607.71997z"/>
				</defs>
				<clipPath id="SVGID_16_">
					<use xlink:href="#SVGID_15_"  style="overflow:visible;"/>
				</clipPath>
				<g class="st24">
					<path class="st4" d="M337.55878,607.71997l-6.69861-235.24316c0.1676,5.88614,1.77744,11.68283,4.71445,17.31595
						c2.97311,5.70233,7.30359,11.23203,12.86713,16.50995c5.6264,5.33759,12.50699,10.4111,20.5058,15.13708
						c8.07834,4.77301,17.28448,9.18393,27.46893,13.14609l1.9986,245.17865c-9.39935-4.57452-17.90372-9.67059-25.37482-15.18903
						c-7.40317-5.46826-13.78098-11.34332-19.00659-17.5293c-5.17166-6.12201-9.20901-12.54175-11.99521-19.16779
						C339.28354,621.32672,337.75409,614.57867,337.55878,607.71997"/>
					<path class="st5" d="M398.41507,679.76453l-1.9986-245.17865c1.59967,0.62234,3.22321,1.23352,4.87003,1.83313
						c1.64883,0.60037,3.32092,1.18918,5.01563,1.76605c1.69672,0.57758,3.41602,1.14316,5.15732,1.69644
						c1.74326,0.55389,3.50845,1.09543,5.29492,1.62427l0.41254,246.24112c-1.6463-0.60968-3.2731-1.23413-4.87985-1.87286
						c-1.6051-0.63806-3.19006-1.29041-4.75439-1.9566c-1.56259-0.66547-3.10452-1.34473-4.62518-2.03741
						C401.38855,681.18805,399.89087,680.48279,398.41507,679.76453"/>
					<path class="st6" d="M417.1669,687.74689l-0.41254-246.24112c1.41357,0.41846,2.84042,0.82892,4.28021,1.23126
						c1.44101,0.40265,2.89493,0.79715,4.36151,1.18332c1.46771,0.38647,2.948,0.76462,4.44058,1.13422
						c1.49371,0.36987,2.99963,0.7312,4.51749,1.08383l-0.97552,246.94748c-1.39771-0.40625-2.78452-0.82257-4.16013-1.24872
						c-1.37466-0.4259-2.7381-0.86163-4.09-1.30701c-1.35092-0.44507-2.69031-0.89978-4.01785-1.36389
						C419.78412,688.70251,418.46945,688.22931,417.1669,687.74689"/>
					<path class="st7" d="M433.37863,693.08588l0.97552-246.94748c1.34409,0.31223,2.69748,0.61765,4.05991,0.91608
						c1.36328,0.29865,2.7356,0.5903,4.11673,0.87488c1.38193,0.28473,2.77264,0.56235,4.17191,0.83276
						c1.40005,0.27054,2.80859,0.53384,4.22543,0.78983l-2.29172,247.46545c-1.30405-0.29474-2.60056-0.59796-3.88922-0.90948
						c-1.28802-0.3114-2.56824-0.63116-3.84039-0.95905c-1.27148-0.32776-2.53488-0.6637-3.79001-1.00769
						C435.86237,693.79742,434.61624,693.44562,433.37863,693.08588"/>
					<path class="st8" d="M448.63641,697.0174l2.29172-247.46545c1.31302,0.23721,2.63312,0.46811,3.96011,0.6926
						c1.32761,0.22458,2.66205,0.44275,4.0032,0.65439c1.34171,0.21176,2.69006,0.41696,4.04489,0.61557
						c1.35535,0.1987,2.71713,0.39075,4.08514,0.57611l-3.57513,247.84921c-1.25879-0.21332-2.51184-0.43439-3.759-0.66309
						c-1.2467-0.22858-2.48749-0.46484-3.72217-0.70856c-1.23419-0.24365-2.46228-0.49481-3.68405-0.75342
						C451.05984,697.55634,449.84488,697.29053,448.63641,697.0174"/>
					<path class="st9" d="M463.44635,699.93982l3.57513-247.84921c1.3139,0.17801,2.63351,0.34985,3.95868,0.51538
						c1.32562,0.16562,2.65674,0.32492,3.99319,0.47787c1.33688,0.15302,2.67908,0.29965,4.0264,0.43982
						c1.34772,0.14023,2.70053,0.27399,4.05826,0.40121l-4.85687,248.12582c-1.24918-0.14642-2.4938-0.30029-3.73373-0.46167
						c-1.23962-0.16132-2.47452-0.33002-3.70453-0.5061c-1.22964-0.17603-2.45438-0.35938-3.67407-0.54993
						C465.86951,700.34247,464.6553,700.14471,463.44635,699.93982"/>
					<path class="st10" d="M478.20114,702.05072l4.85687-248.12582c1.34503,0.12604,2.69485,0.24567,4.04929,0.3588
						c1.35477,0.11316,2.71411,0.21982,4.07791,0.31989c1.36404,0.1001,2.73251,0.19363,4.10516,0.28052
						c1.37292,0.08688,2.75003,0.16711,4.13113,0.2406l-6.16537,248.3064c-1.27072-0.08453-2.53772-0.17688-3.80084-0.27679
						c-1.26294-0.09998-2.52194-0.20758-3.77692-0.32275c-1.25473-0.11511-2.50537-0.23785-3.75177-0.36804
						C480.68045,702.33337,479.4386,702.19574,478.20114,702.05072"/>
					<path class="st11" d="M493.25613,703.43109l6.16537-248.3064c1.40717,0.07489,2.81845,0.14279,4.2337,0.20364
						c1.41541,0.06082,2.83472,0.11459,4.25775,0.16122c1.42316,0.0466,2.84998,0.08609,4.28027,0.11832
						c1.43042,0.03226,2.86426,0.05728,4.30139,0.07498l-7.52887,248.39032c-1.32251-0.02039-2.64194-0.04919-3.95819-0.08624
						c-1.31613-0.03711-2.62906-0.08252-3.93854-0.13617c-1.30936-0.05359-2.6153-0.11548-3.91757-0.18542
						C495.8493,703.59534,494.55081,703.51721,493.25613,703.43109"/>
					<path class="st12" d="M508.96576,704.07318l7.52887-248.39032c0.13672,0.00168,0.27344,0.00333,0.41022,0.00485
						c0.13678,0.00156,0.27356,0.00305,0.4104,0.00449c0.13684,0.0014,0.27368,0.00275,0.41058,0.00406
						c0.1369,0.00128,0.2738,0.0025,0.41071,0.00366c1.38354,0.01166,2.76337,0.01651,4.13934,0.01456
						c1.37598-0.00192,2.74811-0.01062,4.11615-0.026c1.36798-0.01541,2.73193-0.03751,4.09161-0.06625
						c1.35962-0.02872,2.71497-0.06409,4.06586-0.10602l-8.96606,248.3652c-1.24359,0.04828-2.49127,0.08893-3.7428,0.12201
						c-1.25159,0.03302-2.50702,0.05847-3.76611,0.07617c-1.25922,0.0177-2.52203,0.02771-3.78839,0.02991
						c-1.26636,0.00226-2.53622-0.0033-3.80942-0.01672c-0.12601-0.00134-0.25201-0.00275-0.37799-0.00421
						c-0.12595-0.00153-0.25189-0.00305-0.37781-0.0047s-0.2518-0.00336-0.37769-0.00513
						C509.21738,704.07697,509.09155,704.07507,508.96576,704.07318"/>
					<path class="st13" d="M525.58344,703.88141l8.96606-248.3652c1.67487-0.052,3.34283-0.11407,5.00366-0.18613
						c1.66052-0.07205,3.31384-0.15405,4.95966-0.24588c1.64551-0.09183,3.28339-0.19348,4.91339-0.30484
						c1.62964-0.11133,3.25134-0.23233,4.86481-0.36292L543.763,702.61627c-1.48627,0.15021-2.9801,0.28943-4.48102,0.41754
						c-1.50128,0.12805-3.00977,0.245-4.52502,0.35065c-1.51556,0.10565-3.03796,0.20001-4.56689,0.28284
						C528.66095,703.75018,527.12531,703.82166,525.58344,703.88141"/>
					<path class="st14" d="M543.763,702.61627l10.52802-248.19983c1.95911-0.15854,3.90594-0.33118,5.83997-0.51767
						c1.93335-0.18643,3.85382-0.38666,5.76099-0.60052c1.90625-0.21375,3.79907-0.4411,5.67798-0.68176
						c1.87793-0.24054,3.74182-0.49442,5.59119-0.76135l-12.31873,247.81369c-1.70557,0.30725-3.42426,0.59943-5.1557,0.87628
						c-1.73224,0.27692-3.47711,0.53857-5.23413,0.78455c-1.75775,0.24609-3.52759,0.4765-5.30908,0.69098
						C547.36139,702.23523,545.56775,702.43384,543.763,702.61627"/>
					<path class="st15" d="M564.84241,699.66882l12.31873-247.81369c3.15521-0.45541,6.26764-0.94885,9.3349-1.47906
						c3.06396-0.52966,6.08234-1.09595,9.0528-1.69769c2.9668-0.60098,5.88538-1.23724,8.7533-1.90759
						c2.86407-0.6694,5.67725-1.37268,8.43726-2.10858l-15.04211,246.72281c-2.55255,0.84796-5.15338,1.65826-7.80023,2.42938
						c-2.65021,0.77216-5.34631,1.50494-8.08612,2.19708c-2.74292,0.69293-5.52924,1.34497-8.35681,1.95477
						C570.62372,698.5766,567.75238,699.14459,564.84241,699.66882"/>
					<path class="st16" d="M597.69727,691.38501l15.04211-246.72281c3.07416-0.8197,6.08185-1.67978,9.01996-2.57852
						c2.93274-0.89713,5.79572-1.83264,8.58582-2.80484c2.78461-0.97031,5.49628-1.97699,8.13196-3.01843
						c2.63013-1.03918,5.18427-2.11282,7.65948-3.21918l-17.48322,244.94028c-2.30035,1.2771-4.67242,2.51624-7.11359,3.71545
						c-2.44598,1.2016-4.961,2.36292-7.54224,3.48206c-2.586,1.12115-5.23816,2.19983-7.95361,3.23413
						C603.32391,689.44916,600.54071,690.44043,597.69727,691.38501"/>
					<path class="st15" d="M628.65338,677.98151l17.48322-244.94028c2.28027-1.01917,4.49329-2.06601,6.6369-3.13919
						c2.13885-1.0708,4.20837-2.16769,6.20636-3.2894c1.99341-1.11908,3.91541-2.26273,5.76392-3.42963
						c1.84406-1.16406,3.61481-2.35117,5.31018-3.55997l-19.10223,242.85083c-1.58685,1.39838-3.24261,2.77142-4.96527,4.11755
						c-1.72656,1.34918-3.52014,2.6712-5.37878,3.9646c-1.86267,1.2962-3.79053,2.56348-5.78149,3.80042
						C632.83112,675.59595,630.77283,676.80475,628.65338,677.98151"/>
					<path class="st14" d="M650.95172,662.47388l19.10223-242.85083c0.99738-0.71115,1.96857-1.42978,2.91327-2.15561
						c0.9433-0.72476,1.86005-1.4567,2.74994-2.19553c0.88849-0.7377,1.75018-1.4823,2.58459-2.23349
						c0.83307-0.75,1.63904-1.50659,2.41736-2.2695L660.9657,652.22266c-0.73352,0.88385-1.49237,1.76031-2.276,2.62903
						c-0.78485,0.86993-1.5946,1.73218-2.42889,2.5863c-0.83551,0.85541-1.69562,1.70264-2.57996,2.5415
						C652.79529,660.81952,651.88544,661.65106,650.95172,662.47388"/>
					<path class="st13" d="M660.9657,652.22266l19.75342-241.45374c0.64038-0.62766,1.26202-1.25955,1.86481-1.89557
						c0.60199-0.63516,1.18512-1.27441,1.74915-1.91763c0.56329-0.64233,1.10754-1.2886,1.63257-1.93869
						c0.52429-0.64914,1.02936-1.30209,1.51508-1.95865l-20.11755,240.22525c-0.46179,0.7616-0.94141,1.51892-1.43866,2.27179
						c-0.49792,0.75378-1.01343,1.50317-1.54645,2.24786c-0.53363,0.74567-1.08478,1.48669-1.6532,2.22284
						C662.1557,650.76318,661.56927,651.49542,660.9657,652.22266"/>
					<path class="st12" d="M667.36316,643.28363l20.11755-240.22525c0.43127-0.58304,0.84723-1.16891,1.24774-1.75754
						c0.40002-0.58789,0.78461-1.17853,1.15363-1.77182c0.36859-0.59253,0.72162-1.18768,1.05896-1.78537
						c0.33685-0.59692,0.65814-1.19635,0.96362-1.79822l-20.30981,239.08209c-0.29462,0.69897-0.6037,1.39502-0.92719,2.08813
						c-0.32385,0.69391-0.66217,1.38477-1.01471,2.07257c-0.35297,0.6886-0.72021,1.37402-1.10168,2.05627
						C668.16937,641.92749,667.77332,642.60724,667.36316,643.28363"/>
					<path class="st11" d="M671.59485,635.02753l20.30981-239.08209c0.28394-0.55933,0.55414-1.12076,0.81067-1.68417
						c0.25623-0.56274,0.49872-1.12747,0.72736-1.69412c0.22833-0.56598,0.44293-1.13388,0.64362-1.70358
						c0.20038-0.56903,0.3869-1.13986,0.55945-1.71246L674.2677,627.13239c-0.17126,0.66571-0.35547,1.32928-0.55243,1.99072
						c-0.19714,0.66217-0.40717,1.32214-0.62988,1.97986c-0.2229,0.65845-0.45862,1.31458-0.70691,1.96832
						C672.12988,633.72577,671.86859,634.37793,671.59485,635.02753"/>
					<path class="st10" d="M674.2677,627.13239l20.37805-237.98129c0.1662-0.55151,0.3194-1.10461,0.45953-1.6593
						c0.13995-0.55402,0.26685-1.10956,0.38062-1.6666c0.11365-0.55637,0.21411-1.1142,0.30145-1.67343
						c0.08716-0.55853,0.16119-1.1185,0.22192-1.67978l-20.34351,236.89075c-0.06769,0.65326-0.14764,1.30487-0.23975,1.95483
						c-0.09222,0.6507-0.19666,1.29968-0.31317,1.9469c-0.11664,0.64795-0.24536,1.29413-0.38617,1.93848
						C674.58569,625.84796,674.43268,626.49115,674.2677,627.13239"/>
					<path class="st9" d="M675.66577,619.36273l20.34351-236.89075c0.00708-0.06549,0.01398-0.13101,0.02069-0.19656
						c0.00671-0.06552,0.01324-0.13107,0.01965-0.19666c0.00635-0.06555,0.01251-0.13113,0.01849-0.19672
						c0.00604-0.06558,0.01184-0.1312,0.01746-0.19681l-20.33301,236.76172c-0.00659,0.07642-0.01331,0.15277-0.0202,0.22913
						s-0.01392,0.15265-0.02118,0.229c-0.0072,0.07629-0.01465,0.15259-0.02222,0.22888
						C675.68146,619.21027,675.67371,619.2865,675.66577,619.36273"/>
				</g>
			</g>
			<g>
				<path class="st23" d="M331.19806,366.41568c1.52548-10.89511,7.9014-20.996,17.98706-29.95428
					c9.88324-8.7785,23.37381-16.49991,39.47092-22.84305c15.8609-6.25009,34.34784-11.19971,54.58762-14.53259
					c20.07996-3.30658,42.03592-5.04669,65.10458-4.88376c23.07773,0.16302,45.28915,2.21661,65.82571,5.81461
					c20.71436,3.62912,39.87897,8.85657,56.57483,15.35358c16.95392,6.59738,31.46271,14.54309,42.47644,23.49973
					c11.24335,9.14331,18.89386,19.38052,21.75757,30.34268c2.93457,11.23352,0.56818,22.15582-6.38562,32.28036
					c-7.10699,10.34744-18.97656,19.81946-34.76703,27.87506c-16.0578,8.19199-36.0675,14.86685-59.01605,19.45828
					c-23.16406,4.63458-49.12012,7.10602-76.67755,6.87363c-27.54446-0.2323-53.79071-3.14157-77.48813-8.16397
					c-23.4584-4.97174-44.22058-11.97223-61.21454-20.41821c-16.70172-8.30078-29.66284-17.94781-37.98535-28.38889
					C333.30737,388.51535,329.63495,377.57962,331.19806,366.41568z M512.80951,367.81195c0,0.00003,0,0.00003,0,0.00006
					c0.00006,0,0.00006,0,0.00006,0.00003c0,0,0.00006,0,0.00006,0c0.00006,0,0.00006,0,0.00012,0c0,0,0,0,0.00006,0
					c0,0,0.00006,0,0.00006,0c0-0.00003,0-0.00003,0.00006-0.00003c0-0.00003,0-0.00003,0-0.00003
					c0-0.00003,0-0.00003-0.00006-0.00006c0,0,0,0,0-0.00003c-0.00006,0-0.00006,0-0.00006,0c-0.00006,0-0.00006,0-0.00012,0
					c0,0-0.00006,0-0.00006,0s-0.00006,0-0.00006,0c0,0.00003-0.00006,0.00003-0.00006,0.00003
					C512.80951,367.81195,512.80951,367.81195,512.80951,367.81195"/>
			</g>
		</g>
	</g>
</g>
</svg>
